<svg width="45" height="45" fill="none" xmlns="http://www.w3.org/2000/svg"><path d="M17.25 27a7.5 7.5 0 107.5 7.5 7.508 7.508 0 00-7.5-7.5zm0 13.5a6 6 0 116-6 6.007 6.007 0 01-6 6z" fill="#B961FF"/><path d="M17.25 32.25c.916 0 1.5.444 1.5.75h1.5c0-1.066-.944-1.929-2.25-2.175V30h-1.5v.825c-1.306.244-2.25 1.108-2.25 2.175 0 1.262 1.318 2.25 3 2.25.916 0 1.5.444 1.5.75s-.584.75-1.5.75-1.5-.444-1.5-.75h-1.5c0 1.066.944 1.929 2.25 2.175V39H18v-.825c1.306-.244 2.25-1.108 2.25-2.175 0-1.262-1.318-2.25-3-2.25-.916 0-1.5-.444-1.5-.75s.584-.75 1.5-.75z" fill="#B961FF"/><path d="M38.25 43.5H6.75v-18h12A2.25 2.25 0 0021 23.25V4.5h8.25v9h9V24h1.5V12.44L30.31 3H21v-.75A2.25 2.25 0 0018.75 0H2.25A2.25 2.25 0 000 2.25v21a2.25 2.25 0 002.25 2.25h3V45h34.5V34.5h-1.5v9zm-7.5-37.94L37.19 12h-6.44V5.56zM1.5 23.25v-21a.75.75 0 01.75-.75h16.5a.75.75 0 01.75.75v21a.75.75 0 01-.75.75H2.25a.75.75 0 01-.75-.75z" fill="#B961FF"/><path d="M24 18.75h1.5v1.5H24v-1.5zm3 0h9v1.5h-9v-1.5zm-3-3h1.5v1.5H24v-1.5zm3 0h9v1.5h-9v-1.5zm-3 6h1.5v1.5H24v-1.5zm3 0h9v1.5h-9v-1.5zm-3 3h1.5v1.5H24v-1.5zm3 0h9v1.5h-9v-1.5zm-8.25-22.5H2.25V7.5h16.5V2.25zM17.25 6H3.75V3.75h13.5V6zM6 8.25H4.5A1.5 1.5 0 003 9.75v1.5a1.5 1.5 0 001.5 1.5H6a1.5 1.5 0 001.5-1.5v-1.5A1.5 1.5 0 006 8.25zm-1.5 3v-1.5H6v1.5H4.5zm6.75-3h-1.5a1.5 1.5 0 00-1.5 1.5v1.5a1.5 1.5 0 001.5 1.5h1.5a1.5 1.5 0 001.5-1.5v-1.5a1.5 1.5 0 00-1.5-1.5zm-1.5 3v-1.5h1.5v1.5h-1.5zm6.75-3H15a1.5 1.5 0 00-1.5 1.5v1.5a1.5 1.5 0 001.5 1.5h1.5a1.5 1.5 0 001.5-1.5v-1.5a1.5 1.5 0 00-1.5-1.5zm-1.5 3v-1.5h1.5v1.5H15zM6 13.5H4.5A1.5 1.5 0 003 15v1.5A1.5 1.5 0 004.5 18H6a1.5 1.5 0 001.5-1.5V15A1.5 1.5 0 006 13.5zm-1.5 3V15H6v1.5H4.5zm6.75-3h-1.5a1.5 1.5 0 00-1.5 1.5v1.5a1.5 1.5 0 001.5 1.5h1.5a1.5 1.5 0 001.5-1.5V15a1.5 1.5 0 00-1.5-1.5zm-1.5 3V15h1.5v1.5h-1.5zm6.75-3H15a1.5 1.5 0 00-1.5 1.5v1.5A1.5 1.5 0 0015 18h1.5a1.5 1.5 0 001.5-1.5V15a1.5 1.5 0 00-1.5-1.5zm-1.5 3V15h1.5v1.5H15zm-9 2.25H4.5a1.5 1.5 0 00-1.5 1.5v1.5a1.5 1.5 0 001.5 1.5H6a1.5 1.5 0 001.5-1.5v-1.5a1.5 1.5 0 00-1.5-1.5zm-1.5 3v-1.5H6v1.5H4.5zm6.75-3h-1.5a1.5 1.5 0 00-1.5 1.5v1.5a1.5 1.5 0 001.5 1.5h1.5a1.5 1.5 0 001.5-1.5v-1.5a1.5 1.5 0 00-1.5-1.5zm-1.5 3v-1.5h1.5v1.5h-1.5zm6.75-3H15a1.5 1.5 0 00-1.5 1.5v1.5a1.5 1.5 0 001.5 1.5h1.5a1.5 1.5 0 001.5-1.5v-1.5a1.5 1.5 0 00-1.5-1.5zm-1.5 3v-1.5h1.5v1.5H15zm29.319 2.18a2.303 2.303 0 00-3.182 0L28.28 36.789a.758.758 0 00-.15.217l-1.81 3.931a.75.75 0 00.994.995l3.931-1.81a.749.749 0 00.217-.15l12.858-12.86a2.25 2.25 0 000-3.182zM30.495 38.815l-1.965.905.906-1.965 9.586-9.587 1.06 1.06-9.587 9.587zm10.65-10.65l-1.06-1.06.525-.526 1.06 1.06-.525.526zm2.116-2.115l-.53.53-1.061-1.06.53-.53a.767.767 0 011.06 0 .75.75 0 010 1.06z" fill="#B961FF"/></svg>