<svg width="580" height="404" fill="none" xmlns="http://www.w3.org/2000/svg"><g opacity=".5"><path d="M1235.45-165.376l149.32 116.815-84.59 176.113-212.93-254.036-162.381-58.555-50.81 187.905 120.925 164.817-144.407 70.339-205.448 100.03L724.572-8.404 489.457 148.018 457.603-1.187 306.9-169.42l-194.674-69.418-164.313-33.268L124.284-76.208l136.888 305.485-290.15 195.624-214.413 144.525-149.395 51.851 3.453-259.403 1.436-108.067 438.054 67.625L94.923 60.844l-234.554 246.82-67.804 71.367 147.539-29.298-133.733 318.14-48.494-100.422-86.146-198.047 211.984-109.193-89.703-35.228 70.413-234.777-100.652-44.787-98.375 148.505 101.886 81.306-153.816-331.466-110.156 131.187-14.896 387.193 122.779-107.519-93.212-52.422-130.452-237.531-326.885-250.59-95.296 92.312 84.064 177.684 184.944-105.102-74.818 386.758 231.19 24.323 23.794-126.616-195.166 208.51 387.291 249.352-64.396-187.021-232.957 18.525-74.821 141.591 227.357 329.925-104.997-349.777 146.061 27.125 78.573 134.865-165.445 72.597-54.466-67.811-71.665 123.194 362.856 13.536 13.411 171.298-203.036-124.132-28.841 270.092-143.328-329.91" stroke="#589CFF" stroke-width=".463" stroke-miterlimit="10"/><path d="M261.172 229.277l18.721-163.236L306.9-169.42 123.499-75.279 94.922 60.844l166.25 168.433z" stroke="#589CFF" stroke-width=".463" stroke-miterlimit="10"/><path d="M261.172 229.277L49.618 320.312-135.575-9.794 123.499-75.28l365.959 223.297-228.286 81.259zm0 0l-464.323-5.858-33.076-278-148.09-100.77L-50.513-272.92l-85.049 261.692-98.228 185.26-154.107 79.775 53.295-159.883-250.874 69.517 88.788-188.49-343.772 290.783 61.099 105.651 267.334-10.226-73.449-197.718 103.828 37.397-126.726 86.94 219.569-33.153 60.536 114.779 120.834 9.627-185.916 242.272 199.069 42.836-74.037 103.523-78.932 110.39-236.725-68.919 87.237-205.332-141.51 140.634" stroke="#589CFF" stroke-width=".463" stroke-miterlimit="10"/><path d="M-57.084 348.168l106.702-27.857-283.751-374.743 26.698 433.463 13.806 288.842L-457.6 432.149l-54.427-70.991-96.347-73.381 111.635 316.024-343.721-338.067 74.935 328.664 54.693 271.988 172.664 57.937 190.916-46.272-71.279-141.516-217.047 5.493-129.417-144.58 123.986-22.411-49.695-122.231 81.276-165.521-156.214-408.309 156.152 84.973 222.958-120.185-552.822-129.682-10.745 272.288 111.403 280.619" stroke="#589CFF" stroke-width=".463" stroke-miterlimit="10"/><path d="M1299.23 127.533L874.059 2.866 724.572-8.404 457.603-1.188l-333.319-75.02-12.058-162.632L-135.575-9.795 94.923 60.843-116.285 260.21l-115.013-85.749-250.35 26.376 147.046-106.914-161.619-117.385-114.809-12.53-229.43 301.726 254.984-102.294-180.166-284.464-269.008-72.582" stroke="#589CFF" stroke-width=".463" stroke-miterlimit="10"/><path d="M646.123 338.749L874.06 2.866l213.19-129.351-780.35-42.936 270.663 405.46 68.56 102.71z" stroke="#589CFF" stroke-width=".463" stroke-miterlimit="10"/><path d="M93.102 56.3c5.993-1.078 7.669 8.415 1.65 9.492-6.02 1.076-7.67-8.416-1.65-9.492z" fill="#589CFF"/><path d="M93.652 59.455c-1.162.207-1.254 1.116-1.132 1.825.12.736.52 1.537 1.683 1.33.62-.101.837-.378.947-.555.194-.33.24-.798.16-1.271-.122-.71-.52-1.537-1.658-1.329z" fill="#EEF5FF"/><path d="M260.157 224.484c5.994-1.078 7.669 8.415 1.65 9.492-5.995 1.104-7.67-8.415-1.65-9.492z" fill="#589CFF"/><path d="M260.707 227.64c-.619.101-.837.378-.947.556-.194.33-.241.797-.16 1.27.121.736.521 1.537 1.683 1.33.62-.101.837-.378.948-.556.194-.33.24-.797.159-1.27-.122-.71-.52-1.537-1.683-1.33z" fill="#EEF5FF"/><path d="M487.221 142.463c5.993-1.078 7.669 8.416 1.65 9.492-5.995 1.104-7.671-8.389-1.65-9.492z" fill="#589CFF"/><path d="M487.77 145.644c-1.162.207-1.254 1.116-1.132 1.826.121.735.52 1.536 1.683 1.33.619-.102.837-.379.947-.556.194-.33.241-.798.16-1.271-.122-.71-.495-1.536-1.658-1.329z" fill="#EEF5FF"/><path d="M48.975 314.648c5.994-1.078 7.67 8.416 1.65 9.492-5.993 1.078-7.67-8.415-1.65-9.492z" fill="#589CFF"/><path d="M49.525 317.804c-1.162.207-1.254 1.115-1.132 1.825.12.736.52 1.537 1.683 1.33 1.162-.207 1.254-1.115 1.107-1.826-.097-.709-.495-1.536-1.658-1.329z" fill="#EEF5FF"/></g></svg>