<svg width="580" height="404" fill="none" xmlns="http://www.w3.org/2000/svg"><g opacity=".5"><path d="M-1366.61 763.326l-113.07-153.291 127.91-146.572 138.18 302.845 141.01 100.732 98.459-167.154-73.069-191.784 157.656-28.349 224.28-40.289-167.825 312.081 267.72-86.52-8.629 152.434 100.852 203.201 169.252 120.01 149.528 76.9-118.291-236.861-51.377-331.658L7.044 539.788l244.642-80.709 157.586-9.175-71.681 248.958-29.859 103.717-404.188-184.712-111.792 238.825 291-173.76 84.126-50.246-149.854-12.044 212.664-269.986 20.256 109.98 30.805 214.305-232.992 47.334 77.135 58.422-129.7 206.957 85.165 70.616 133.902-116.211-76.729-106.137 60.839 361.308 140.689-96.32 116.377-368.941-146.613 70.069 75.984 75.944 63.084 264.438 248.879 330.63 116.125-62.92-34.16-194.12-205.864 50.77 173.989-352.168-216.311-86.534-56.286 115.484 242.959-147.603-307.398-345.926 12.756 197.747 229.305 45.737 109.39-115.983L629.182 197.64l8.983 365.622-133.562-65.998-40.158-151.37 178.514-24.78 34.603 80.193 101.501-99.121-345.997-112.079 32.218-168.686 162.889 175.004L727.128-55.9l51.145 356.944" stroke="#589CFF" stroke-width=".463" stroke-miterlimit="10"/><path d="M409.758 451.656l54.687-105.762-41.016 303.513 81.382-154.294-95.053-43.457z" stroke="#589CFF" stroke-width=".463" stroke-miterlimit="10"/><path d="M-324.024 649.051l227.792-29.957 91.425 368.56-266.839-7.626-293.714-315.003 241.336-15.974zm0 0l445.77 132.377-41.39 276.842 116.112 137.5-352.555 22.15 150.89-228.888 143.446-151.663 169.483-34.79-93.473 139.48 260.003 1.503-135.204 157.348 407.801-186.298-31.021-118.457-260.236-63.116 18.66 210.523-90.171-64.366 144.993-49.166-220.262-27.992-28.073-127.097-113.871-42.255 242.945-182.653-180.49-95.602 98.604-79.522 105.129-84.802 209.893 131.006-138.148 174 173.384-96.858" stroke="#589CFF" stroke-width=".463" stroke-miterlimit="10"/><path d="M13.902 621.382l-110.134-2.288 174.61 438.466 88.5-424.874 62.81-282.03 192.188 299.138 33.726 83.246 73.482 96.99-24.273-334.917 242.048 419.499 14.415-337.078 18.98-276.952L629.182 197.64l-196.116-7.533 31.379 155.787 210.544 53.95 86.578 174.608-125.35-12.251 15.667 131.316L529.97 830.792l42.9 435.988-128.041-124.48-246.46 54.93 498.4 275.82 82.1-259.38-33.377-300.749" stroke="#589CFF" stroke-width=".463" stroke-miterlimit="10"/><path d="M-1350.87 463.739l376.749 236.147 141.042 51.659 259.091 65.914 301.341 163.25-31.237 159.961L-4.807 987.654l-203.441-130.962L47.757 722.275l88.204 114.001 248.13 42.92-169.832 62.863 124.767 157.201 107.302 43.4 300.531-228.048-272.597 28.95 98.608 323.218 240.024 143.35" stroke="#589CFF" stroke-width=".463" stroke-miterlimit="10"/><path d="M464.832 350.959c-6.058-.597-5.171-10.2.911-9.594 6.067.572 5.18 10.175-.911 9.594z" fill="#589CFF"/><path d="M465.141 347.745c.624.071.906-.136 1.059-.277.274-.265.442-.703.489-1.181.077-.742-.097-1.622-1.271-1.74-.624-.072-.906.136-1.059.277-.274.265-.442.702-.489 1.18-.077.742.097 1.623 1.271 1.741z" fill="#EEF5FF"/><path d="M230.052 357.633c-6.058-.598-5.171-10.2.911-9.595 6.067.573 5.179 10.176-.911 9.595z" fill="#589CFF"/><path d="M230.361 354.419c1.175.118 1.503-.733 1.548-1.458.077-.742-.097-1.623-1.271-1.741-.624-.071-.906.136-1.059.277-.274.265-.442.703-.489 1.181-.053.75.097 1.623 1.271 1.741z" fill="#EEF5FF"/><path d="M433.144 194.712c-6.058-.597-5.171-10.2.911-9.594 6.067.572 5.155 10.167-.911 9.594z" fill="#589CFF"/><path d="M433.453 191.498c.624.071.906-.136 1.059-.277.274-.265.442-.702.489-1.18.077-.742-.097-1.623-1.271-1.741-.624-.071-.906.136-1.059.277-.274.265-.442.702-.489 1.18-.077.742.097 1.623 1.271 1.741z" fill="#EEF5FF"/><path d="M465.223 27.543c-6.058-.597-5.171-10.2.911-9.595 6.059.598 5.171 10.2-.911 9.595z" fill="#589CFF"/><path d="M465.524 24.353c1.174.118 1.502-.732 1.572-1.45.078-.741-.096-1.622-1.271-1.74-.624-.071-.906.136-1.059.277-.274.265-.442.702-.489 1.18-.093.71.073 1.615 1.247 1.733z" fill="#EEF5FF"/></g></svg>