<svg width="580" height="404" fill="none" xmlns="http://www.w3.org/2000/svg"><g opacity=".5"><path d="M829.946-595.771l185.084 35.474 2.79 196.011L715.042-492.88l-170.851 22.502 38.165 190.982 181.082 91.355-97.549 129.194L527.086 124.92l-83.069-345.574L303.808 27.063l-94.702-118.42-209.16-80.699-204.478 27.674-161.336 45.945 244.346 93.56L136.296 204.6l-171.88 308.009-127.029 227.58-110.214 114.999-112.17-232.958-46.732-97.049 420.758-141.276-75.849-253.028-99.545 328.089-28.769 94.857 118.577-94.029 22.066 345.302-87.87-67.252-164.825-136.999 140.56-194.948-95.66 9.86-41.504-241.809-109.674 6.374-21.764 177.728 126.998 25.631-284.459-224.857-39.966 167.704 158.739 352.203 61.741-152.402-106.429-3.861-221.887-151.826-402.889-73.075-43.98 126.189 153.92 119.797 118.256-178.855 105.101 379.392 217.011-84.7-35.032-123.882-81.435 275.792 456.22 44.172-140.528-137.175-199.55 123.73-3.828 160.724 349.368 189.64-249.052-263.659 142.327-43.023 130.001 84.13-115.311 140.892-78.708-35.42-9.186 142.86 329.655-154.91 88.07 146.61-236.246-17.28 94.274 254.18-274.413-228.3" stroke="#589CFF" stroke-width=".463" stroke-miterlimit="10"/><path d="M136.296 204.599L80.47 50.389-.054-172.057-121.81-3.686l34.99 134.562 223.115 73.723z" stroke="#589CFF" stroke-width=".463" stroke-miterlimit="10"/><path d="M136.296 204.599L-11.949 383.152-323.79 173.948-121.809-3.687l425.617 30.75L136.296 204.6zm0 0l-416.745 208.457-153.015-232.735-176.856-21.728 245.495-258.48 40.409 272.55-5.303 210.444-102.01 142.073-23.499-167.131-192.876 177.458-4.551-208.98-177.429 417.562 101.436 66.115 233.899-132.149-153.355-142.548 109.222-14.427-74.404 135.864 181.111-130.616 104.989 74.516 112.052-47.021-58.185 301.648 196.587-53.406-20.042 126.407-21.357 134.788-241.761 47.47-13.418-223.291L-437.045 1078" stroke="#589CFF" stroke-width=".463" stroke-miterlimit="10"/><path d="M-94.744 457.103l82.795-73.951-419.58-203.661 216.395 374.332 140.643 251.272-340.173-88.768-80.085-38.272-118.537-21.111 239.976 230.495-456.774-143.35 212.859 258.661 169.623 217.42 179.745-27.78 149.726-129.13-126.45-93.422-191.151 104.782-179.666-69.39 100.63-77.053-98.629-86.151-1.048-185.036-320.739-292.293 177.03 3.929 145.465-209.803-550.691 138.743 111.39 247.806 224.037 199.025" stroke="#589CFF" stroke-width=".463" stroke-miterlimit="10"/><path d="M1016.97-363.866l-434.614 84.47-138.339 58.742L209.106-91.358-121.522-4.876l-83.01-139.506-119.259 318.329 236.971-43.071-99.806 275.02-140.68-23.554-211.576 138.738 83.654-163.031-196.306-30.322-107.968 41.66-70.582 374.702 181.979-208.582-287.079-170.81-272.176 59.058" stroke="#589CFF" stroke-width=".463" stroke-miterlimit="10"/><path d="M528.282 125.085l54.074-404.481L715.042-492.88-.054-172.056 421.499 65.026l106.783 60.059z" stroke="#589CFF" stroke-width=".463" stroke-miterlimit="10"/><path d="M133.261 200.79c4.867-3.72 10.579 3.976 5.689 7.707-4.857 3.743-10.58-3.977-5.689-7.707z" fill="#589CFF"/><path d="M135.153 203.351c-.507.376-.578.722-.598.932-.026.383.14.822.423 1.206.434.601 1.147 1.131 2.092.412.507-.376.578-.723.598-.932.026-.384-.14-.822-.422-1.206-.425-.578-1.148-1.132-2.093-.412z" fill="#EEF5FF"/><path d="M299.345 23.138c4.867-3.72 10.579 3.976 5.689 7.707-4.856 3.743-10.569-3.953-5.689-7.707z" fill="#589CFF"/><path d="M301.248 25.723c-.944.719-.623 1.572-.199 2.149.435.6 1.147 1.131 2.092.412.508-.376.579-.723.598-.932.027-.384-.139-.822-.422-1.207-.424-.577-1.124-1.142-2.069-.422z" fill="#EEF5FF"/><path d="M524.04 120.772c4.867-3.72 10.58 3.977 5.69 7.707-4.857 3.743-10.569-3.953-5.69-7.707z" fill="#589CFF"/><path d="M525.944 123.357c-.945.719-.624 1.572-.199 2.149.434.601 1.147 1.131 2.092.412.945-.72.623-1.572.199-2.149-.458-.591-1.147-1.132-2.092-.412z" fill="#EEF5FF"/></g></svg>