<svg width="192" height="250" fill="none" xmlns="http://www.w3.org/2000/svg"><g clip-path="url(#clip0)"><path d="M102.695 248.67a1.24 1.24 0 00.862-.346c.231-.222.366-.525.376-.844l-5.512-76.662h-7.663l10.699 76.662a1.239 1.239 0 001.238 1.19z" fill="#fff"/><path fill-rule="evenodd" clip-rule="evenodd" d="M98.893 170.315h-8.717l10.776 77.21c.022.439.211.855.53 1.161a1.75 1.75 0 001.214.488l-.001-.504v.504h.001c.452 0 .887-.175 1.213-.488a1.73 1.73 0 00.531-1.19l.001-.026-5.548-77.155zm4.533 77.171a.727.727 0 01-.73.681l-.001.503v-.503a.737.737 0 01-.509-.205.726.726 0 01-.223-.499v-.026l-10.624-76.115h-.581v-.504l.501-.069.08.573h6.61l-.033-.468.505-.036v.504h-.471l5.476 76.164zm0 0l.001-.023.506.017-.505.036-.002-.03z" fill="#3F4D79"/><path d="M55.074 248.67a1.239 1.239 0 001.238-1.19l10.7-76.662h-7.664l-5.512 76.662a1.239 1.239 0 001.238 1.19z" fill="#fff"/><path fill-rule="evenodd" clip-rule="evenodd" d="M67.594 170.315h-8.718L53.33 247.47v.026c.015.45.206.877.532 1.19.325.313.76.488 1.214.488v-.504l-.001.504a1.75 1.75 0 001.214-.488 1.73 1.73 0 00.53-1.161l-.004.024-.502-.069.507.016-.002.029 10.777-77.21zm-13.25 77.171l-.003.03-.505-.036.506-.017.002.023zm5.476-76.164l.033-.468-.505-.036v.504h.472zm6.61 0h.582v-.504l-.502-.069-.08.573z" fill="#3F4D79"/><path d="M32.986 248.67c.322.001.63-.124.862-.346.23-.222.366-.525.376-.844l10.7-76.662H37.26l-5.512 76.662a1.24 1.24 0 001.238 1.19z" fill="#fff"/><path fill-rule="evenodd" clip-rule="evenodd" d="M45.506 170.315h-8.718l-5.547 77.155v.026c.015.45.206.877.532 1.19.325.313.76.488 1.213.488v-.504.504a1.75 1.75 0 001.214-.488 1.73 1.73 0 00.53-1.161l-.004.024-.502-.069.507.016-.002.029 10.777-77.21zm-13.25 77.171l-.003.03-.505-.036.506-.017.002.023zm5.476-76.164l.033-.468-.505-.036v.504h.472zm6.61 0h.582v-.504l-.502-.069-.08.573z" fill="#3F4D79"/><path d="M30.153 154.381l2.213 8.824h7.275l-2.213-8.824h-7.275z" fill="#fff"/><path fill-rule="evenodd" clip-rule="evenodd" d="M37.824 153.877h-8.32l2.466 9.831h8.32l-2.466-9.831zm-.792 1.007l1.96 7.817h-6.23l-1.96-7.817h6.23z" fill="#3F4D79"/><path d="M58.55 154.381l2.212 8.824h7.275l-2.213-8.824H58.55z" fill="#fff"/><path fill-rule="evenodd" clip-rule="evenodd" d="M66.22 153.877h-8.319l2.466 9.831h8.319l-2.466-9.831zm-.791 1.007l1.96 7.817h-6.23l-1.961-7.817h6.23z" fill="#3F4D79"/><path d="M31.381 162.599h76.042c2.507 0 4.539 2.02 4.539 4.511 0 2.492-2.032 4.512-4.539 4.512H31.381c-2.507 0-4.539-2.02-4.539-4.512 0-2.491 2.032-4.511 4.54-4.511zM.097 92.378l13.79 55a10.028 10.028 0 003.578 5.477 10.126 10.126 0 006.212 2.126h50.255c2.782 0 4.718-4.18 3.76-8.123L63.953 90.379c-.652-2.683-2.345-4.464-4.24-4.464h-54.6c-2.216 0-5.773 3.334-5.017 6.463z" fill="#FFB000"/><path d="M158.698 235.4c0 1.394-4.339 5.663-2.878 12.799 0 0 10.704.016 15.954.048 6.242.039 19.517.039 19.517.039s1.289-5.688-5.549-6.476c-6.837-.787-15.504-7.971-15.504-7.971l-11.54 1.561z" fill="#E2631E"/><path fill-rule="evenodd" clip-rule="evenodd" d="M154.651 248.847a.708.708 0 00.705.71c3.123.019 12.108.029 20.31.033 4.101.003 8.007.004 10.888.005h4.736l.001-.705-.001-.705h-1.287l-3.449-.001c-2.88 0-6.786-.001-10.888-.004-8.203-.005-17.183-.014-20.301-.033a.706.706 0 00-.714.7zm37.349.043a.708.708 0 00-.709-.705v1.41a.708.708 0 00.709-.705z" fill="#3F4D79"/><path d="M170.036 233.839c-.677-1.876-1.652-8.003-1.652-8.003l-10.997.959s1.823 4.096 1.513 8.403c-.105 1.453 11.879.697 11.136-1.359z" fill="#FFC0B7"/><path d="M59.05 157.393c12.228 4.968 69.549 1.831 69.549 1.831s1.173 44.647 22.729 67.759c0 0 14.867-.496 18.943-1.542 0 0-11.267-66.817-19.322-79.943-4.256-6.948-52.169-17.551-62.5-18.444a58.11 58.11 0 01-9.753 5.198c-9.39 3.938-19.022 5.349-26.264 5.766-1.113 6.455-1.289 16.163 6.618 19.375z" fill="#3C4564"/><path d="M150.389 235.4c0 1.394-4.338 5.663-2.877 12.799 0 0 10.703.016 15.954.048 6.241.039 19.516.039 19.516.039s1.289-5.688-5.548-6.476c-6.837-.787-15.504-7.971-15.504-7.971l-11.541 1.561z" fill="#FE7523"/><path fill-rule="evenodd" clip-rule="evenodd" d="M146.343 248.847a.707.707 0 00.704.71c3.124.019 12.109.028 20.31.033 4.102.003 8.008.004 10.889.004l3.448.001h1.288v-1.41h-1.287l-3.449-.001c-2.881 0-6.787-.002-10.888-.004-8.204-.005-17.184-.014-20.302-.034a.707.707 0 00-.713.701zm37.349.043a.707.707 0 00-.71-.705v1.41c.392 0 .71-.316.71-.705z" fill="#3F4D79"/><path d="M161.727 233.838c-.677-1.875-1.651-8.002-1.651-8.002l-12.619 1.362s2.29 2.087 3.135 8c.207 1.441 11.879.697 11.135-1.36z" fill="#FFCFC9"/><path d="M50.2 162.645c12.228 4.974 69.55 1.831 69.55 1.831s-1.184 38.883 25.893 62.793c0 0 13.549-.969 17.63-2.015 0 0-17.354-63.131-21.168-74.504-2.087-6.225-55.321-18.228-63.403-18.498-13.331 5.592-27.133 6.074-33.93 5.893-1.214 4.089-5.212 20.178 5.429 24.5z" fill="#3F4D79"/><path d="M85.157 110.201c13.868 2.75 47.187 1.572 61.155-1.218a21.458 21.458 0 002.383 1.589c1.824 1.042 5.336 1.884 6.169 1.837.833-.046 5.943-.826 5.943-.826s.183-.574-.565-1.331c-.748-.758-6.229-.155-4.225-1.813.891-.742 5.331.926 7.262 2.776 1.932 1.849 2.837.385 2.837.385s-1.848-3.425-2.51-4.046c-.663-.62-5.066-3.252-8.049-3.652-2.16-.291-7.356.108-10.106.767-10.191-2.405-29.744-5.472-43.666-5.36-1.85-7.656-4.097-17.029-4.695-19.8l-9.897 6.446-2.036 24.246z" fill="#FFC0B7"/><path d="M97.09 79.508l.624 2.75s-2.563 6.457-10.837 8.589l.316-4.896 9.897-6.443z" fill="#FAB6AD"/><path d="M36.812 96.715s.74-.046 1.986-.173c1.419 10.414 2.667 19.161 2.667 21.081 0 5.16-1.014 20.27-1.014 20.27s27.329 3.048 48.173-10.958c0 0-4.831-6.465-2.325-26.837 1.666-13.553.894-14.147.894-14.147s5.107-2.647 12.35-8.35c0 0-3.76-18.475-9.756-22.1-5.996-3.624-15.302-5.314-21.48-7.627-6.179-2.313-15.571-4.714-15.571-4.714-2.507 2.045-14.408 7.829-17.36 11.298-4.207 3.834-9.975 19.038 1.436 42.257z" fill="#CEEFF7"/><path fill-rule="evenodd" clip-rule="evenodd" d="M60.406 90.9l.433-.26.433-.262-.003-.006a13.033 13.033 0 01-.416-.831c-.28-.613-.69-1.595-1.198-3.054-1.015-2.919-2.419-7.742-3.956-15.33l-.994.199c1.545 7.622 2.96 12.49 3.993 15.46.516 1.486.938 2.497 1.233 3.142a14.003 14.003 0 00.438.878 2.134 2.134 0 00.034.058l.002.004.001.002zm25.932-19.66c.476 3.809.865 10.656.577 14.287l1.01.079c.296-3.727-.101-10.648-.582-14.49l-1.005.124z" fill="#84D7EC"/><path d="M38.802 96.543s10.831 27.214 15.735 27.665c15.973 1.469 42.665-13.653 48.432-13.831l2.529-.08c1.418.828 3.222 1.533 4.748 1.088 3.076-.895 5.54-3.105 7.579-2.156 2.038.949 4.391 2.77 5.684 2.619 2.705-.324 4.265-1.753 4.265-1.753s-1.684-1.825-3.384-3.56c1.206.47 3.04 1.759 3.978 2.203 1.419.666 2.148-.526 2.148-.526s-3.163-2.779-4.255-3.437c-1.056-.635-4.019-1.302-5.514-1.334-1.81-.242-11.735-1.59-16.85-1.054-5.865-.215-17.63.202-38.356 4.076L59.6 91.317s-9.02 3.987-20.799 5.226z" fill="#FFCFC9"/><path d="M38.802 96.544s.979 2.46 2.482 5.913c4.927-1.446 12.913-4.519 18.644-10.31l-.327-.835s-9.021 3.991-20.799 5.232z" fill="#FAB6AD"/><path d="M63.57 25.01s-.812 11.483-10.828 18.15c0 0 5.279 11.483 17.45 12.277 12.17.794 2.993-6.001 2.993-6.001s3.175-10.446 3.714-12.937l-13.33-11.49z" fill="#FFCFC9"/><path d="M63.606 30.973c.607 5.252 5.268 12.781 11.05 13.553.907-3.073 1.953-6.693 2.24-8.027L64.243 25.586l-.393.778s-.373 3.501-.243 4.61z" fill="#FAB6AD"/><path d="M64.522 25.832s-.189 3.6.297 4.605c2.24 4.634 9.261 9.953 14.72 9.953 4.225 0 9.176-12.8 9.622-17.516.446-4.716-.178-12.188-11.632-13.077C66.076 8.91 65.27 20.74 65.27 20.74l-.748 5.093z" fill="#FFCFC9"/><path d="M97.931 18.072s2.13-4.207-1.43-7.296c-4.201-3.648-8.052-1.958-10.204-4.27C84.145 4.192 79.65-.748 72.965.095c-5.995.758-7.743 4.896-7.743 4.896s-3.709-1.553-6.929 2.62c-3.22 4.172 4.558 21.556 4.558 21.556s2.093-6.926 2.42-8.417c.73-3.338 7.337-2.55 6.8-9.076 0 0 1.79 4.448 8.59 4.364 2.026-.024 4.645-.577 7.244-.96 1.44 2.533 1.478 5.5 1.257 7.805 0-.01 6.081-.102 8.77-4.813z" fill="#FE7523"/><path fill-rule="evenodd" clip-rule="evenodd" d="M65.196 5.212l.209-.22.21-.219h-.001l-.001-.001-.002-.002-.009-.008a2.236 2.236 0 00-.14-.12 5.841 5.841 0 00-1.864-1.018c-1.231-.396-2.894-.423-4.581 1.014l.395.459c1.5-1.277 2.933-1.241 4-.897a5.232 5.232 0 011.778 1.007l.005.004zm7.172 6.025l-.298.061-.298.062v.002l.002.004.003.016a3.973 3.973 0 00.067.257 9.316 9.316 0 001.454 2.884c1.206 1.606 3.293 3.256 6.791 3.457l.035-.603c-3.292-.19-5.223-1.73-6.338-3.216a8.725 8.725 0 01-1.132-2.03 7.443 7.443 0 01-.273-.837 2.58 2.58 0 01-.01-.045l-.003-.01v-.002z" fill="#FE7523"/><path fill-rule="evenodd" clip-rule="evenodd" d="M67.95.277a2.663 2.663 0 00-1.868.586 2.633 2.633 0 00-.954 1.7l-2.16 16.216a.506.506 0 001.004.132l2.16-16.216c.055-.412.266-.788.59-1.051a1.646 1.646 0 011.155-.362.505.505 0 10.074-1.005zm-6.177 29.836a.507.507 0 00-.597.393c-.065.318-.196.718-.374 1.236l-.088.254c-.156.451-.335.97-.512 1.547a21.777 21.777 0 00-.969 5.247c-.244 4.257.72 9.996 5.15 17.473 2.162 3.649 3.065 6.63 3.311 9.2.247 2.57-.161 4.762-.673 6.853-.104.423-.212.842-.32 1.26-.958 3.709-1.884 7.297.812 12.037 1.484 2.608 3.397 4.52 5.396 6.18a78.99 78.99 0 002.78 2.173l.242.184c1.004.761 1.984 1.512 2.912 2.313 1.853 1.598 3.48 3.382 4.612 5.789 1.13 2.406 1.782 5.471 1.623 9.651-.11 2.863.453 5.15 1.385 6.764.93 1.607 2.258 2.587 3.672 2.699 1.437.114 2.793-.683 3.72-2.272.922-1.58 1.447-3.969 1.3-7.195a.505.505 0 00-.53-.48.504.504 0 00-.483.526c.143 3.113-.373 5.289-1.163 6.643-.784 1.344-1.81 1.849-2.764 1.774-.978-.077-2.052-.776-2.873-2.197-.818-1.414-1.355-3.504-1.252-6.224.164-4.306-.505-7.536-1.718-10.115-1.212-2.58-2.95-4.472-4.865-6.124-.955-.824-1.959-1.592-2.962-2.353l-.24-.182c-.925-.702-1.848-1.4-2.747-2.147-1.948-1.618-3.762-3.44-5.163-5.903-2.488-4.375-1.663-7.587-.712-11.29.108-.417.216-.84.322-1.273.522-2.13.96-4.45.698-7.187-.262-2.74-1.223-5.861-3.447-9.615-4.342-7.329-5.242-12.872-5.011-16.905.115-2.02.516-3.678.925-5.01a44.614 44.614 0 01.59-1.769c.175-.507.329-.97.409-1.361a.504.504 0 00-.396-.594z" fill="#3F4D79"/><path fill-rule="evenodd" clip-rule="evenodd" d="M81.023 40.26a.502.502 0 00-.21.682c3.507 6.586 4.09 12.469 3.213 17.67-.878 5.214-3.227 9.77-5.63 13.687-2.5 4.074-2.939 9.633-2.4 14.432.272 2.41.791 4.653 1.44 6.458.638 1.778 1.431 3.215 2.298 3.919a.509.509 0 00.713-.072.502.502 0 00-.073-.709c-.638-.518-1.356-1.728-1.984-3.477-.619-1.723-1.123-3.89-1.386-6.23-.529-4.7-.075-9.996 2.257-13.796 2.427-3.956 4.855-8.643 5.765-14.046.912-5.416.295-11.524-3.318-18.308a.508.508 0 00-.685-.21z" fill="#3F4D79"/><path d="M61.536 18.562l4.26.64a2.361 2.361 0 011.992 2.685l-1.078 7.098a2.37 2.37 0 01-2.7 1.98l-4.26-.64a2.361 2.361 0 01-1.993-2.685l1.079-7.098a2.37 2.37 0 012.7-1.98z" fill="#fff"/><path fill-rule="evenodd" clip-rule="evenodd" d="M65.706 19.8a1.756 1.756 0 011.481 1.997l-1.078 7.097a1.764 1.764 0 01-2.01 1.473l-4.259-.64a1.756 1.756 0 01-1.482-1.997l1.079-7.097a1.763 1.763 0 012.009-1.473l4.26.64zm2.683 2.177a2.966 2.966 0 00-2.502-3.373l-4.26-.64a2.978 2.978 0 00-3.392 2.488l-1.079 7.098a2.966 2.966 0 002.502 3.373l4.26.64a2.978 2.978 0 003.393-2.488l1.078-7.098z" fill="#ECBE02"/><path d="M187.765 115.973H78.723c-1.16 0-2.1 1.338-2.1 2.99v.274c0 1.65.94 2.988 2.1 2.988h82.09" fill="#fff"/><path fill-rule="evenodd" clip-rule="evenodd" d="M187.056 115.57a.505.505 0 00-.507-.503H78.723c-.791 0-1.455.457-1.9 1.09-.446.636-.706 1.487-.706 2.403v.274c0 .916.26 1.766.706 2.401.445.634 1.109 1.091 1.9 1.091h81.685c.28 0 .507-.226.507-.504a.506.506 0 00-.507-.504H78.723c-.369 0-.755-.212-1.07-.66-.313-.446-.523-1.089-.523-1.824v-.274c0-.735.21-1.379.524-1.826.315-.448.7-.66 1.069-.66h107.826c.28 0 .507-.225.507-.504z" fill="#3CBFD4"/><path d="M83.847 250l20.66-127.977h-7.113L76.937 249.799l6.91.201z" fill="#fff"/><path d="M96.192 128.523l7.673-2.847.644-3.653h-7.117l-1.2 6.5z" fill="#CEEFF7"/><path fill-rule="evenodd" clip-rule="evenodd" d="M105.337 121.318h-8.55L76.643 248.883a.705.705 0 00.59.806.708.708 0 00.811-.587l19.958-126.373h5.676L83.552 249.084a.709.709 0 001.401.22l20.384-127.986z" fill="#3CBFD4"/><path d="M109.909 110.302h61.367c.813 0 1.607-.247 2.273-.71a3.95 3.95 0 001.455-1.877l14.143-38.316a3.13 3.13 0 00-1.503-3.876 3.175 3.175 0 00-1.464-.355h-62.177a4.49 4.49 0 00-2.564.805 4.457 4.457 0 00-1.637 2.122l-13.621 36.9a3.93 3.93 0 00.473 3.62c.366.521.853.946 1.42 1.24a3.997 3.997 0 001.835.447z" fill="#fff"/><path fill-rule="evenodd" clip-rule="evenodd" d="M186.181 65.672a2.666 2.666 0 012.179 1.129 2.621 2.621 0 01.312 2.423l-.001.001-14.142 38.317a3.455 3.455 0 01-3.253 2.256H109.91a3.487 3.487 0 01-1.602-.39 3.45 3.45 0 01-1.834-2.61 3.421 3.421 0 01.183-1.629l13.622-36.902a3.942 3.942 0 011.451-1.881 3.983 3.983 0 012.274-.714h62.177zm-.001-1.008a3.682 3.682 0 013.011 1.56 3.634 3.634 0 01.431 3.349L175.48 107.89a4.455 4.455 0 01-1.641 2.116 4.493 4.493 0 01-2.563.801h-61.367a4.488 4.488 0 01-3.67-1.903 4.433 4.433 0 01-.534-4.081l13.621-36.899a4.963 4.963 0 011.822-2.362 5.002 5.002 0 012.855-.897h62.177z" fill="#FFB000"/><path d="M112.58 110.302h59.304a3.868 3.868 0 002.215-.724 3.833 3.833 0 001.388-1.863l13.666-38.316c.731-2.05-.744-4.231-2.867-4.231H126.2a4.35 4.35 0 00-2.493.818 4.307 4.307 0 00-1.56 2.1l-13.172 36.901c-.916 2.595.938 5.315 3.605 5.315z" fill="#fff"/><path fill-rule="evenodd" clip-rule="evenodd" d="M186.285 65.672c1.748 0 3.013 1.813 2.39 3.558l-13.667 38.319-.001.003a3.348 3.348 0 01-3.126 2.246H112.58c-2.291 0-3.936-2.351-3.128-4.643l.001-.001 13.172-36.903.001-.003a3.804 3.804 0 011.378-1.854 3.839 3.839 0 012.198-.722h60.083zm3.345 3.895c.839-2.352-.846-4.903-3.345-4.903h-60.091a4.86 4.86 0 00-2.785.914 4.816 4.816 0 00-1.741 2.341l-.001.004-13.17 36.898c-1.023 2.897 1.041 5.985 4.083 5.985h59.308a4.378 4.378 0 002.507-.82 4.335 4.335 0 001.569-2.105l.001-.002 13.665-38.312z" fill="#FFB000"/><path d="M83.72 110.302h88.289c1.127 0 2.041.908 2.041 2.029v.105c0 1.12-.914 2.028-2.041 2.028h-88.29a2.034 2.034 0 01-2.04-2.028v-.105c0-1.121.914-2.029 2.04-2.029z" fill="#fff"/><path fill-rule="evenodd" clip-rule="evenodd" d="M172.009 110.806a1.53 1.53 0 011.534 1.525v.105a1.53 1.53 0 01-1.534 1.525h-88.29a1.53 1.53 0 01-1.533-1.525v-.105a1.53 1.53 0 011.534-1.525h88.289zm2.548 1.525a2.54 2.54 0 00-2.548-2.533h-88.29a2.54 2.54 0 00-2.546 2.533v.105a2.54 2.54 0 002.547 2.532h88.289a2.54 2.54 0 002.548-2.532v-.105z" fill="#FFB000"/></g><defs><clipPath id="clip0"><path fill="#fff" transform="matrix(-1 0 0 1 192 0)" d="M0 0h192v250H0z"/></clipPath></defs></svg>