<svg width="181" height="250" fill="none" xmlns="http://www.w3.org/2000/svg"><g clip-path="url(#clip0)"><path d="M34.384 159.534c0 1.06.42 2.076 1.166 2.826a3.976 3.976 0 002.815 1.17h61.883a3.977 3.977 0 002.816-1.17 4.008 4.008 0 000-5.653 3.977 3.977 0 00-2.816-1.17H38.365a3.976 3.976 0 00-2.815 1.17 4.006 4.006 0 00-1.166 2.827z" fill="#fff"/><path fill-rule="evenodd" clip-rule="evenodd" d="M100.248 156.036c.924 0 1.81.369 2.464 1.025a3.503 3.503 0 010 4.945 3.48 3.48 0 01-2.464 1.025H38.365c-.924 0-1.81-.369-2.463-1.025a3.502 3.502 0 010-4.945 3.477 3.477 0 012.463-1.025h61.883zm3.167.318a4.47 4.47 0 00-3.167-1.317H38.365a4.472 4.472 0 00-3.167 1.317 4.505 4.505 0 000 6.359 4.472 4.472 0 003.167 1.317h61.883a4.47 4.47 0 003.167-1.317 4.5 4.5 0 001.312-3.179 4.501 4.501 0 00-1.312-3.18z" fill="#FFB000"/><path d="M56.518 169.969H79.81c.748 0 1.465-.298 1.994-.828a2.837 2.837 0 00.825-2.001v-3.61H53.701v3.612c0 .75.297 1.468.825 1.999.528.53 1.245.828 1.992.828z" fill="#fff"/><path fill-rule="evenodd" clip-rule="evenodd" d="M79.81 169.47H56.518a2.317 2.317 0 01-1.64-.683 2.332 2.332 0 01-.68-1.645v-3.112h27.934v3.11c0 .618-.245 1.21-.68 1.647a2.317 2.317 0 01-1.642.683zm-23.292.5v.499a3.31 3.31 0 01-2.344-.975 3.337 3.337 0 01-.971-2.352v-4.111h29.924v4.109c0 .883-.35 1.73-.971 2.354a3.312 3.312 0 01-2.346.975H56.518v-.499z" fill="#FFB000"/><path d="M71.216 218.948h-6.094v-48.979h6.094v48.979z" fill="#fff"/><path fill-rule="evenodd" clip-rule="evenodd" d="M64.624 219.448h7.09V169.47h-7.09v49.978zm.996-1v-47.979h5.098v47.979H65.62z" fill="#FFB000"/><path d="M71.62 231.582h-6.906a2.441 2.441 0 01-2.437-2.446v-7.742a2.441 2.441 0 012.437-2.446h6.906a2.441 2.441 0 012.437 2.446v7.742a2.441 2.441 0 01-2.437 2.446z" fill="#fff"/><path fill-rule="evenodd" clip-rule="evenodd" d="M64.714 231.083a1.944 1.944 0 01-1.94-1.947v-7.742c0-1.075.869-1.946 1.94-1.946h6.906c1.07 0 1.94.871 1.94 1.946v7.742a1.943 1.943 0 01-1.94 1.947h-6.906zm-2.935-1.947a2.94 2.94 0 002.935 2.946h6.906a2.94 2.94 0 002.934-2.946v-7.742a2.94 2.94 0 00-2.934-2.946h-6.906a2.94 2.94 0 00-2.935 2.946v7.742z" fill="#FFB000"/><path fill-rule="evenodd" clip-rule="evenodd" d="M92.17 234.562a11.81 11.81 0 00-8.368-3.479H52.534a11.81 11.81 0 00-8.368 3.479 11.902 11.902 0 00-3.465 8.4h.995c0-2.886 1.142-5.653 3.174-7.694a10.818 10.818 0 017.664-3.186h31.268c2.874 0 5.631 1.146 7.663 3.186a10.903 10.903 0 013.175 7.694h.995a11.9 11.9 0 00-3.466-8.4z" fill="#6562CF"/><path d="M40.993 248.873c-2.508 0-4.541-2.041-4.541-4.559 0-2.517 2.033-4.558 4.541-4.558 2.508 0 4.541 2.041 4.541 4.558 0 2.518-2.033 4.559-4.54 4.559z" fill="#fff"/><path fill-rule="evenodd" clip-rule="evenodd" d="M40.993 240.256a4.05 4.05 0 014.043 4.058 4.051 4.051 0 01-4.043 4.059 4.051 4.051 0 01-4.043-4.059 4.05 4.05 0 014.043-4.058zm5.039 4.058c0-2.793-2.256-5.058-5.039-5.058s-5.039 2.265-5.039 5.058c0 2.794 2.256 5.059 5.04 5.059 2.782 0 5.038-2.265 5.038-5.059z" fill="#FFB000"/><path d="M95.424 248.873c-2.508 0-4.54-2.041-4.54-4.559 0-2.517 2.032-4.558 4.54-4.558s4.541 2.041 4.541 4.558c0 2.518-2.033 4.559-4.54 4.559z" fill="#fff"/><path fill-rule="evenodd" clip-rule="evenodd" d="M95.424 240.256a4.05 4.05 0 014.044 4.058 4.051 4.051 0 01-4.044 4.059 4.051 4.051 0 01-4.043-4.059 4.05 4.05 0 014.043-4.058zm5.039 4.058c0-2.793-2.256-5.058-5.039-5.058s-5.039 2.265-5.039 5.058c0 2.794 2.256 5.059 5.04 5.059 2.782 0 5.038-2.265 5.038-5.059z" fill="#FFB000"/><path d="M68.005 248.873c-2.508 0-4.541-2.041-4.541-4.559 0-2.517 2.033-4.558 4.54-4.558 2.509 0 4.542 2.041 4.542 4.558 0 2.518-2.033 4.559-4.541 4.559z" fill="#fff"/><path fill-rule="evenodd" clip-rule="evenodd" d="M68.005 240.256a4.05 4.05 0 014.043 4.058 4.051 4.051 0 01-4.043 4.059 4.051 4.051 0 01-4.044-4.059 4.05 4.05 0 014.044-4.058zm5.038 4.058c0-2.793-2.256-5.058-5.038-5.058-2.783 0-5.04 2.265-5.04 5.058 0 2.794 2.257 5.059 5.04 5.059 2.782 0 5.038-2.265 5.038-5.059z" fill="#FFB000"/><path d="M127.202 225.105c2.027 4.826 3.872 8.783 5.28 11.379 1.047 1.931 2.87 13.19 12.458 8.654.339-.16-3.782-1.227-5.082-10.542a675.118 675.118 0 01-1.253-9.449c-3.75.256-8.508.1-11.403-.042z" fill="#FFCFC9"/><path d="M129.274 249.674s-3.86-13.409 1.302-15.456c1.649-.653 3.648.999 4.181 6.643.468 4.934 7.649 5.7 8.326 2.51 0 0 8.803 1.799 8.803 6.303h-22.612z" fill="#3F4D79"/><path d="M124.596 224.953s10.663.766 16.271-.036c0 0 7.446-77.97 6.333-85.992-1.34-9.65-33.345-18.204-49.89-20.916l-3.048-13.857s-22.385-.4-35.025-.4c0 0-13.538 24.182-12.144 40.169 1.394 15.988 30.583 12.359 69.565 12.359 0 0-11.885 24.083 7.938 68.673z" fill="#6562CF"/><path d="M92.114 225.485c2.965.264 5.95.24 8.911-.072-.996 3.887-1.916 7.594-2.646 10.905-.472 2.127 2.56 4.997 3.424 7.085l-.068-.032c-3.981-.637-9.323 3.148-8.773-2.76.55-5.907-.295-7.38-.848-15.126z" fill="#FFCFC9"/><path d="M93.081 236.265c-1.37 0-3.595 2.486-3.374 6.467a23.28 23.28 0 001.453 6.942h15.395c-.271-4.286-4.82-6.303-4.82-6.303-3.981-.637-9.124 3.148-8.574-2.76l-.08-4.346z" fill="#3F4D79"/><path d="M81.029 125.504s33.929 6.155 37.784 16.357c3.854 10.202-14.125 83.086-14.125 83.086-10.424 1.599-15.772 0-15.772 0-10.842-49.913 1.862-66.469 1.862-66.469-25.266-1.077-41.21 1.329-43.687-14.545-.79-5.04 4.856-24.319 33.938-18.429z" fill="#6562CF"/><path fill-rule="evenodd" clip-rule="evenodd" d="M81.715 125.012l-.09.492-.087.491.023.005.072.013.282.053a159.715 159.715 0 014.963 1.046c3.233.735 7.58 1.82 12.046 3.221 4.469 1.403 9.037 3.118 12.72 5.108 3.712 2.006 6.406 4.23 7.3 6.597.442 1.169.591 3.328.468 6.302-.122 2.946-.505 6.612-1.076 10.739-1.142 8.251-3.025 18.306-5.031 28.05-2.005 9.742-4.131 19.167-5.756 26.157a1104.12 1104.12 0 01-2.734 11.489l-.013.051.483.121.483.119.013-.052.039-.157.149-.612a1156.298 1156.298 0 002.55-10.732c1.625-6.995 3.753-16.428 5.761-26.182 2.007-9.752 3.896-19.831 5.042-28.115.573-4.141.961-7.843 1.085-10.835.122-2.965-.01-5.315-.532-6.697-1.033-2.734-4.025-5.105-7.759-7.123-3.763-2.033-8.4-3.77-12.895-5.181-4.499-1.413-8.874-2.504-12.124-3.243a163.905 163.905 0 00-4.996-1.053 46.261 46.261 0 00-.287-.054l-.074-.013-.025-.005z" fill="#fff"/><path d="M89.085 92.845c-2.016-4.577 6.937-10.592 16.098-8.194 0 0-3.089-36.908-10.33-41.558-7.028-4.513-8.72 16.741-8.959 21.931.008 0-1.292 20.079 3.191 27.82z" fill="#EAEEFF"/><path d="M89.874 93.958c-4.438-3.997 4.738-12.13 15.309-9.307 6.614 1.031 32.323 6.533 34.74 7.794 2.361 1.057 9.18 4.5 10.048 5.546 1.095 1.319 1.262 4.808 1.194 5.268-.067.459-.965 2.852-.965 2.852s-1.722-.178-1.503-2.059c.263-2.236-1.72-2.93-3.046-3.529-.554-.248-1.991-.146-2.244.695-.253.842 1.844 1.861 2.19 2.47.516.924-.081 1.957-.093 1.979-.012.022-3.198-1.723-3.813-2.051-.565-.301-3.223-3.415-4.35-6.159-.008-.002-39.677 3.527-47.467-3.5z" fill="#FFC0B7"/><path d="M94.797 23.234c.747-1.82 3.84-11.241-1.172-15.31C88.612 3.855 82-.32 74 .33c-8 .65-10.229 11.341-14.762 13.06-4.533 1.718-10.064-.32-15.29 4.396-5.225 4.717.2 12.141-5.126 16.104-5.325 3.963-10.458-1.051-15.793 5.952-6.116 8.03 2.817 17.308-5.865 18.108-9.6.883-15.391 17.198-11.27 28.028H55.9c31.93-4.952 38.897-62.744 38.897-62.744z" fill="#FFB000"/><path fill-rule="evenodd" clip-rule="evenodd" d="M72.82 1.035c7.858-.386 13.401 2.43 18.201 6.7l.66-.749c-4.947-4.4-10.735-7.35-18.909-6.95-4.209.207-7.1 2.671-9.465 5.183a81.93 81.93 0 00-1.493 1.644l-.207.231a47.234 47.234 0 01-1.589 1.718c-1.047 1.06-2.034 1.853-3.07 2.216-1.083.38-2.253.535-3.508.62-.558.038-1.126.061-1.71.085l-.218.01c-.658.027-1.333.057-2.017.112-2.745.22-5.656.836-8.459 3.263-2.847 2.465-2.912 5.884-2.97 8.95l-.003.118c-.061 3.186-.156 5.945-2.653 7.72-2.196 1.56-4.268 1.545-6.501 1.529a57.097 57.097 0 00-1.171 0c-1.331.017-2.716.133-4.134.716-1.424.586-2.842 1.625-4.278 3.43-3.147 3.958-2.792 8.195-2.52 11.454l.048.568c.067.84.113 1.593.082 2.262-.03.67-.137 1.22-.353 1.663-.403.828-1.279 1.457-3.368 1.585-5.035.308-9.156 3.658-11.386 8.648-2.23 4.99-2.588 11.64-.135 18.67l.94-.331c-2.38-6.82-2.01-13.203.103-17.93s5.95-7.779 10.538-8.06" fill="#FFB000"/><path d="M94.413 104.012s2.835-23.194 4.334-24.41c3.366-2.729 6.044-6.644 4.641-12.05-.797-3.052-7.197-23.28-8.56-24.565-1.365-1.285-10.313-4.497-10.313-4.497H59.23c-2.879.964-11.917 4.227-14.077 7.549-10.551 16.22-13.926 42.235-13.926 42.235h13.12s6.315-14.227 8.56-14.389c2.246-.162 6.453 29.927 6.453 29.927s14.383 4.007 35.052.2z" fill="#EAEEFF"/><path fill-rule="evenodd" clip-rule="evenodd" d="M98.633 79.214c3.298-2.674 6.003-6.606 4.671-11.736l-4.67 11.736zm4.671-11.736l.963-.252-.963.252zm.963-.252c1.475 5.682-1.573 9.98-5.008 12.766l5.008-12.766zm-10.149 36.725l.494.061.494.061.008-.066a255.458 255.458 0 01.117-.931 500.308 500.308 0 011.478-10.738c.448-2.973.941-5.976 1.415-8.309.237-1.167.468-2.157.683-2.887a7.55 7.55 0 01.3-.864c.082-.191.137-.266.15-.283l.002-.004m-5.14 23.96v-.001.001zm0-.001v-.003.003zm0-.003l.001-.013-.001.013zm.001-.013l.006-.05-.006.05zm.006-.05l.024-.194-.024.194zm.024-.194l.093-.74-.093.74zm.093-.74c.08-.637.197-1.549.342-2.647l-.342 2.647zm.342-2.647c.29-2.195.691-5.135 1.14-8.114l-1.14 8.114zm1.14-8.114c.448-2.978.945-6.001 1.424-8.36l-1.424 8.36zm1.424-8.36c.24-1.177.476-2.2.703-2.97l-.703 2.97zm.703-2.97c.113-.385.227-.718.342-.982l-.342.982zm.342-.982c.105-.239.243-.504.44-.663l-.44.663zm-21.072-38.8l-.441.231-.441.232.001.003.006.01.023.046.094.19c.082.169.204.425.358.767.309.684.749 1.711 1.268 3.078 1.04 2.734 2.398 6.826 3.669 12.242 2.54 10.83 4.725 26.955 3.285 48.101l.993.068c1.447-21.25-.748-37.476-3.31-48.398-1.28-5.461-2.652-9.596-3.707-12.369a56.15 56.15 0 00-1.291-3.135 30.524 30.524 0 00-.498-1.047l-.007-.014-.001-.004-.001-.001z" fill="#fff"/><path fill-rule="evenodd" clip-rule="evenodd" d="M78.072 57.612a1.04 1.04 0 011.037 1.041 1.04 1.04 0 01-1.037 1.041 1.04 1.04 0 01-1.037-1.041 1.04 1.04 0 011.037-1.041zm2.033 1.041c0-1.127-.91-2.04-2.033-2.04a2.037 2.037 0 00-2.032 2.04c0 1.127.91 2.04 2.032 2.04a2.037 2.037 0 002.033-2.04zm.072 10.258a1.04 1.04 0 011.037 1.041 1.04 1.04 0 01-1.037 1.041 1.04 1.04 0 01-1.038-1.04 1.04 1.04 0 011.038-1.042zm2.032 1.041c0-1.127-.91-2.04-2.032-2.04a2.037 2.037 0 00-2.033 2.04c0 1.127.91 2.04 2.033 2.04a2.036 2.036 0 002.032-2.04zm-.908 10.298a1.04 1.04 0 011.038 1.042 1.04 1.04 0 01-1.038 1.04 1.04 1.04 0 01-1.037-1.04 1.04 1.04 0 011.037-1.042zm2.033 1.042c0-1.127-.91-2.04-2.033-2.04a2.036 2.036 0 00-2.032 2.04c0 1.126.91 2.04 2.032 2.04a2.036 2.036 0 002.033-2.04z" fill="#fff"/><path d="M32.683 94.6c6.496 6.856 48.495-2.313 48.495-2.313s2.19 3.473 4.754 3.597c2.564.124 4.991-.785 6.293.318 1.302 1.103 2.616 3.024 3.635 3.222 1.21.248 2.453.3 3.68.155a35.146 35.146 0 00-1.502-3.537c.775.63 1.736 1.785 2.3 2.266a1.422 1.422 0 001.76.146s-1.683-2.578-2.346-3.267c-.663-.69-2.695-2.42-3.822-2.814-1.332-.572-9.13-4.407-13.022-5.042-4.127-.672-37.549-2.93-37.549-2.93-12.088-.008-18.13 4.443-12.676 10.198z" fill="#FFCFC9"/><path fill-rule="evenodd" clip-rule="evenodd" d="M91.926 92.437a.298.298 0 00-.406.116.3.3 0 00.116.408l.145-.262.145-.262zm6.357 6.74l.259-.149-.007-.012-.02-.036a40.023 40.023 0 00-.365-.62c-.24-.404-.568-.947-.923-1.504a27.713 27.713 0 00-1.081-1.598 8.214 8.214 0 00-.493-.61 1.928 1.928 0 00-.447-.39 1090.673 1090.673 0 01-2.968-1.647l-.312-.174-.145.262-.145.262.313.174a1912.836 1912.836 0 002.969 1.649c.055.03.154.113.294.267.134.148.288.34.455.565.333.45.706 1.01 1.057 1.562a60.29 60.29 0 011.196 1.97l.078.133.02.035.006.011.26-.15zm0 0l.259-.149a.298.298 0 11-.518.299l.26-.15z" fill="#FFB0AF"/><path fill-rule="evenodd" clip-rule="evenodd" d="M90.538 93.108a.298.298 0 00-.406.117.3.3 0 00.117.407l.145-.262.144-.262zm3.28 1.822a1090.673 1090.673 0 01-2.967-1.648l-.313-.174-.144.262-.145.262.312.174a1912.836 1912.836 0 002.97 1.65c.062.034.16.112.29.244.126.128.269.291.422.48.306.38.644.847.959 1.305a46.002 46.002 0 011.135 1.736l.018.029.006.01.149-.093-.15.092a.3.3 0 00.412.098.3.3 0 00.097-.413l-.254.158.254-.158-.007-.01-.018-.03a28.344 28.344 0 00-.324-.512 46.718 46.718 0 00-.827-1.248 22.375 22.375 0 00-.986-1.341 7.277 7.277 0 00-.462-.525 2.018 2.018 0 00-.427-.348z" fill="#FFB0AF"/><path d="M74.276 22.92s-3.518 11.074-15.037 15.57c0 0 16.158 7.067 25.283 0V23.24l-10.246-.32z" fill="#FFCFC9"/><path d="M82.19 39.931a13.233 13.233 0 002.325-1.44V23.24l-10.239-.32s-.1.311-.318.853c-1.045 4.674 1.782 14.373 8.232 16.157z" fill="#FFC0B7"/><path d="M74.544 24.625c.106 3.641 6.933 12.207 10.665 12.207 3.094 0 8.87-9.367 9.598-13.59.747-4.345-.01-12.05-6.181-12.159-3.815-.065-5.774 3.532-6.919 7.703-1.393 5.034-5.67 3.905-5.67 3.905s-1.224-2.798-2.93-1.4c-1.706 1.4 1.438 3.334 1.438 3.334z" fill="#FFCFC9"/><path fill-rule="evenodd" clip-rule="evenodd" d="M163.756 118.922l9.457 130.788.993-.072-9.954-137.66h-.993l-9.954 137.95.993.072 9.458-131.078z" fill="#FFB000"/><path d="M174.584 112.014H43.521a3.083 3.083 0 01-2.183-.907 3.109 3.109 0 01-.001-4.384 3.086 3.086 0 012.184-.908h131.063v6.199z" fill="#fff"/><path fill-rule="evenodd" clip-rule="evenodd" d="M174.584 105.315H43.521a3.58 3.58 0 00-2.536 1.055 3.607 3.607 0 00-1.051 2.546h.498l-.498.001c.001.954.38 1.869 1.052 2.543a3.578 3.578 0 002.535 1.054h131.063v-1H43.521a2.584 2.584 0 01-1.831-.761 2.606 2.606 0 01-.76-1.837m0 0c0-.69.273-1.352.759-1.84a2.587 2.587 0 011.832-.762h131.063v-.999" fill="#FFB000"/><path fill-rule="evenodd" clip-rule="evenodd" d="M175.559 58.919h-52.89a5.613 5.613 0 00-3.221 1.017 5.651 5.651 0 00-2.063 2.684l-13.845 37.759h62.146l13.363-36.438a3.75 3.75 0 00-.441-3.424 3.712 3.712 0 00-3.049-1.598zm0 .2c.567 0 1.125.138 1.627.401a3.53 3.53 0 011.863 2.68 3.56 3.56 0 01-.187 1.672l-13.315 36.307h-61.722l13.747-37.49a5.45 5.45 0 011.99-2.59 5.414 5.414 0 013.107-.98h52.89z" fill="#000"/><path d="M122.193 59.019h53.085c2.455 0 4.159 2.612 3.311 5.076L167.042 97.75a3.618 3.618 0 01-3.384 2.528h-59.382l12.854-37.483c.781-2.27 2.801-3.777 5.063-3.777z" fill="#fff"/><path d="M124.383 61.539h53.085a3.517 3.517 0 012.895 1.516 3.544 3.544 0 01.416 3.25l-11.547 31.6a3.618 3.618 0 01-1.32 1.721 3.594 3.594 0 01-2.064.653h-59.383l12.855-35.195a5.408 5.408 0 011.977-2.571 5.378 5.378 0 013.086-.974z" fill="#E2E2FF"/><path d="M165.74 100.279H64.435a5.314 5.314 0 00-3.766 1.566 5.355 5.355 0 00-1.56 3.78h101.306a5.315 5.315 0 003.766-1.566 5.357 5.357 0 001.559-3.78z" fill="#fff"/><path fill-rule="evenodd" clip-rule="evenodd" d="M165.74 100.279h.598a5.956 5.956 0 01-1.735 4.204 5.912 5.912 0 01-4.188 1.742H58.512v-.6c0-1.577.624-3.089 1.735-4.204a5.911 5.911 0 014.188-1.742H165.74v.6zm-101.305.6h100.67a4.747 4.747 0 01-1.347 2.756 4.72 4.72 0 01-3.343 1.39H59.745a4.752 4.752 0 011.347-2.756 4.72 4.72 0 013.343-1.39z" fill="#6562CF"/><path fill-rule="evenodd" clip-rule="evenodd" d="M175.559 58.52h-52.89a6.01 6.01 0 00-3.449 1.088 6.04 6.04 0 00-2.208 2.873l-14.043 38.298h62.995l13.459-36.7a4.156 4.156 0 00-.489-3.79 4.11 4.11 0 00-3.375-1.77zm0 .998a3.114 3.114 0 012.559 1.342 3.144 3.144 0 01.37 2.874L165.27 99.78h-60.874l13.55-36.952a5.05 5.05 0 011.843-2.4 5.022 5.022 0 012.88-.909h52.89z" fill="#6562CF"/><path d="M142.137 85.427c-1.252-1.397-.876-3.787.84-5.339 1.717-1.552 4.124-1.677 5.377-.28 1.253 1.396.877 3.787-.84 5.338-1.716 1.552-4.124 1.678-5.377.28z" fill="#FFB000"/><path fill-rule="evenodd" clip-rule="evenodd" d="M146.768 78.87c1.007 1.122.785 3.197-.803 4.633-1.589 1.436-3.667 1.44-4.674.317-1.008-1.123-.786-3.197.802-4.633 1.589-1.436 3.667-1.44 4.675-.317zm-.137 5.375c1.844-1.667 2.375-4.373.876-6.044-1.499-1.67-4.235-1.424-6.08.243-1.844 1.668-2.375 4.374-.876 6.045 1.499 1.67 4.235 1.424 6.08-.244z" fill="#6562CF"/></g><defs><clipPath id="clip0"><path fill="#fff" transform="matrix(-1 0 0 1 181 0)" d="M0 0h181v250H0z"/></clipPath></defs></svg>