<svg width="210" height="249" fill="none" xmlns="http://www.w3.org/2000/svg"><g clip-path="url(#clip0)"><path fill-rule="evenodd" clip-rule="evenodd" d="M110.208 248.302v-92.857h1.203v92.857h-1.203zm41.23 0v-92.857h1.202v92.857h-1.202z" fill="#FFB000"/><path fill-rule="evenodd" clip-rule="evenodd" d="M151.534 233.972h-41.123v-1.196h41.123v1.196z" fill="#FFB000"/><path d="M158.59 142.999h-54.73a3.32 3.32 0 00-3.329 3.312v5.821a3.32 3.32 0 003.329 3.313h54.73a3.321 3.321 0 003.329-3.313v-5.821a3.321 3.321 0 00-3.329-3.312z" fill="#fff"/><path fill-rule="evenodd" clip-rule="evenodd" d="M103.86 143.598a2.72 2.72 0 00-2.728 2.713v5.821a2.72 2.72 0 002.728 2.714h54.73a2.721 2.721 0 002.728-2.714v-5.821a2.721 2.721 0 00-2.728-2.713h-54.73zm-3.93 2.713c0-2.159 1.759-3.91 3.93-3.91h54.73c2.17 0 3.93 1.751 3.93 3.91v5.821c0 2.16-1.76 3.911-3.93 3.911h-54.73c-2.171 0-3.93-1.751-3.93-3.911v-5.821z" fill="#6562CF"/><path d="M151.033 53.346c3.393-.947 8.084-11.43 2.944-17.107s-16.032-5.849-25.278-4.47c-8.547 1.273-19.773 6.207-15.495 16.847 6.084 15.13 37.829 4.73 37.829 4.73z" fill="#FFB819"/><path d="M145.919 46.207c3.206-.674 8.715-5.982 3.874-10.022-4.842-4.04-12.299-4.433-20.24-3.083-7.942 1.35-16.172 4.144-12.395 11.803 3.778 7.66 28.761 1.302 28.761 1.302z" fill="#F49C00"/><path d="M164.843 247.379c-2.075 1.27-14.76 1.196-17.154 0-2.395-1.197-1.834-5.241-2.233-7.941s-6.064-7.777-6.383-9.526c-.318-1.748 5.824-5.557 6.89-7.109-.878 2.577 7.91 3.141 8.617 1.472-.344 6.114 4.17 15.833 7.874 16.711 2.33.554 4.463 5.123 2.389 6.393z" fill="#DBDAFF"/><path d="M156.472 217.589l-1.896 6.686c-.703 1.669-9.491 1.105-8.617-1.472.874-2.576.543-7.053.543-7.053l9.97 1.839z" fill="#C36F0B"/><path fill-rule="evenodd" clip-rule="evenodd" d="M138.949 229.234a.7.7 0 01.816.561c.018.093.088.276.263.569.167.279.399.608.683.981.431.565.955 1.196 1.514 1.869l.555.67c.754.914 1.529 1.88 2.142 2.795.599.893 1.107 1.828 1.232 2.667.105.707.146 1.493.187 2.255l.001.023c.041.783.082 1.549.182 2.264.205 1.471.625 2.448 1.482 2.875.212.105.596.222 1.161.333.551.108 1.228.201 1.993.277 1.531.152 3.383.234 5.231.239 1.849.005 3.678-.067 5.166-.216a18.195 18.195 0 001.908-.278c.536-.114.862-.233 1.014-.326a.704.704 0 01.965.229c.203.328.1.758-.23.96-.367.225-.891.382-1.455.502-.584.124-1.287.224-2.061.301-1.549.156-3.429.229-5.311.223-1.882-.005-3.78-.087-5.366-.245a23.15 23.15 0 01-2.125-.297c-.595-.116-1.131-.262-1.517-.454-1.535-.764-2.032-2.406-2.244-3.931-.109-.78-.153-1.602-.193-2.371l-.001-.012c-.041-.786-.08-1.511-.175-2.147-.075-.51-.425-1.223-1.011-2.097-.571-.852-1.307-1.771-2.059-2.683l-.537-.648a63.52 63.52 0 01-1.566-1.934 12.378 12.378 0 01-.77-1.11c-.198-.331-.374-.688-.437-1.032a.697.697 0 01.563-.812z" fill="#6562CF"/><path fill-rule="evenodd" clip-rule="evenodd" d="M155.314 241.524h.001l.006-.003.03-.013.127-.051c.115-.045.285-.108.504-.181a13.43 13.43 0 011.822-.461c1.515-.273 3.5-.361 5.462.328a.598.598 0 10.4-1.128c-2.227-.783-4.44-.672-6.076-.377a14.45 14.45 0 00-1.988.503c-.241.08-.432.151-.564.202l-.154.063a.52.52 0 00-.042.018l-.012.005-.004.001-.001.001h-.001l.245.547-.245-.547a.599.599 0 10.49 1.093z" fill="#fff"/><path d="M107.038 247.379c2.074 1.27 13.356 1.196 15.751 0 2.395-1.197 3.838-5.241 4.237-7.941.398-2.7 4.26-8.774 4.579-10.523.318-1.748-5.824-5.557-6.89-7.109.878 2.577-7.709 4.138-8.417 2.469.345 6.114-3.17 15.833-6.871 16.711-2.333.554-4.463 5.123-2.389 6.393z" fill="#DBDAFF"/><path d="M112.002 217.19l4.3 7.085c.704 1.669 9.291.108 8.417-2.469-.874-2.576-1.144-6.654-1.144-6.654l-11.573 2.038z" fill="#C36F0B"/><path fill-rule="evenodd" clip-rule="evenodd" d="M131.73 228.237a.698.698 0 01.565.811c-.1.545-.447 1.339-.852 2.179-.307.637-.676 1.359-1.058 2.105l-.414.811c-.527 1.037-1.048 2.088-1.462 3.044-.42.969-.704 1.784-.789 2.363a17.537 17.537 0 01-1.431 4.731c-.732 1.545-1.778 3.029-3.188 3.73-.725.361-1.998.596-3.417.75-1.457.159-3.181.241-4.89.247-1.708.005-3.415-.068-4.835-.224a17.212 17.212 0 01-1.905-.303c-.532-.122-1.026-.28-1.385-.5a.696.696 0 01-.23-.96.702.702 0 01.964-.229c.16.098.473.216.965.328.476.109 1.068.202 1.745.276 1.354.149 3.006.221 4.677.216 1.671-.005 3.345-.086 4.742-.238 1.434-.156 2.469-.377 2.942-.612.984-.489 1.858-1.624 2.547-3.076a16.16 16.16 0 001.311-4.339c.114-.771.462-1.728.888-2.713.433-.998.971-2.082 1.499-3.121l.424-.829a97.89 97.89 0 001.035-2.06c.422-.875.677-1.497.737-1.825a.7.7 0 01.815-.562z" fill="#6562CF"/><path fill-rule="evenodd" clip-rule="evenodd" d="M117.057 240.432l-.246.546.246-.546a.596.596 0 01.303.79.602.602 0 01-.794.302l-.007-.003-.029-.013-.128-.051a9.396 9.396 0 00-.502-.181 13.428 13.428 0 00-1.82-.461c-1.514-.273-3.499-.361-5.465.328a.602.602 0 01-.767-.365.596.596 0 01.367-.763c2.231-.783 4.445-.672 6.08-.377.82.148 1.504.343 1.985.503a11.01 11.01 0 01.759.283l.012.005.004.002h.001l.001.001z" fill="#fff"/><path d="M110.85 116.121s-41.735 20.34-41.735 32.851c0 22.318 37.328 69.395 43.739 68.776 6.41-.618 12.725-1.968 12.478-4.668-.246-2.7-13.671-45.035-24.103-57.568 0 0 3.807-5.964 27.6-5.703 11.467.126 21.465.901 21.711 1.27.247.369-12.467 25.058-5.98 63.234.567 3.326 14.547 4.722 15.902 2.881 1.354-1.841 23.053-66.665 20.959-71.824-2.094-5.158-23.847-23.634-34.456-29.255-7.641-4.046-36.115.006-36.115.006z" fill="#3F4D79"/><path d="M98.932 51.621C93.639 54.513 85.73 80.442 85.73 80.442S66.672 57.165 65.79 56.946c-.881-.22-6.002 6.58-6.002 6.58s9.95 44.206 25.47 45.189c6.516.412 12.025-3.348 16.548-8.844 2.004 6.65 3.875 12.134 3.875 12.134.802 2.792-14.156 10.479-10.743 12.591 0 0 11.645-3.769 32.194 1.503 24.568 6.31 36.446 1.524 34.123-.311-2.322-1.834-5.969-7.799-7.23-11.789l2.267-21.472s7.931 20.032 19.921 20.032c14.302 0 27.374-43.51 27.374-43.51-5.084-.143-9.296-3.756-9.296-3.756-5.375 3.757-16.561 16.918-16.561 16.918s-6.972-20.972-10.312-25.742c-3.341-4.77-14.229-8.529-21.499-10.262l-28.761-1.302c-1.93-.367-13.723 3.655-18.226 6.716z" fill="#FFB000"/><path fill-rule="evenodd" clip-rule="evenodd" d="M172.374 88.395c1.282-2.381 3.038-5.321 4.902-7.454l.908.785c-1.773 2.029-3.479 4.872-4.75 7.234a74.064 74.064 0 00-1.933 3.862l-.109.239-.027.06-.007.016-.002.004-.55-.242-.55-.242.003-.006.008-.016.029-.065.112-.246a75.834 75.834 0 011.966-3.93zm-45.575-32.101l-.278-.072a31.297 31.297 0 01-5.82-2.216c-3.348-1.687-6.856-4.316-8.015-8.156l-1.152.344c1.306 4.324 5.193 7.15 8.624 8.879a32.53 32.53 0 006.051 2.304c.176.047.314.082.409.105l.109.026.029.007.008.002h.003l.132-.583-.131.583.241.054.209-.13h.001l.001-.001.007-.004.028-.018c.026-.015.064-.04.116-.07.103-.062.257-.154.459-.27.405-.233.999-.566 1.758-.962a62.727 62.727 0 016.285-2.848c5.211-2.023 12.108-3.88 18.959-3.304l.101-1.192c-7.112-.598-14.207 1.328-19.497 3.381a63.88 63.88 0 00-6.407 2.904 49.355 49.355 0 00-2.23 1.237zM97.23 80.09a.6.6 0 01.666.525c.53 4.582 2.709 12.36 4.773 19.037a402.964 402.964 0 003.649 11.195l.246.713.064.186.022.062-.568.197-.568.196-.022-.064a14.916 14.916 0 01-.065-.187l-.247-.717a398.161 398.161 0 01-3.661-11.229c-2.058-6.66-4.272-14.543-4.817-19.252a.599.599 0 01.528-.663zm9.05 32.48a.602.602 0 01-.766-.368l.568-.197.568-.197a.599.599 0 01-.37.762z" fill="#F49C00"/><path d="M203.184 53.177c-.186 1.186-1.482 3.027-.2 3.013.661 0 5.443-.776 6.028.975a3.807 3.807 0 01-.126 2.527c1.048 1.557.246 2.83.246 2.83.633.968.802 2.223.361 2.775 0 0 1.108 2.543.05 3.133-3.278 1.834-8.507 2.215-11.04 1.563-1.777-.456-3.91-1.55-4.455-5.314-.224-1.542 1.319-5.584 2.497-7.25.481-.687 2.243-3.423 2.838-4.172a8.842 8.842 0 001.687-3.74s2.635.346 2.114 3.66z" fill="#C36F0B"/><path fill-rule="evenodd" clip-rule="evenodd" d="M207.413 56.537a.4.4 0 01.455.337c.049.338-.188.556-.35.662-.175.114-.406.2-.645.269-.486.14-1.139.244-1.798.327a59 59 0 01-1.828.191l-.1.01c-.591.055-1.021.098-1.202.137-.152.033-.279.138-.37.327a1.3 1.3 0 00-.097.705c.034.255.133.467.268.598.121.118.295.194.563.151l.023-.004h.023a32.33 32.33 0 006.213-.893.4.4 0 11.191.775 33.14 33.14 0 01-6.346.913c-.501.073-.923-.076-1.227-.37-.295-.287-.452-.683-.503-1.067-.05-.386.001-.8.169-1.15.169-.356.473-.667.923-.764.241-.053.737-.1 1.296-.152l.099-.01a61.424 61.424 0 001.805-.188c.653-.082 1.253-.18 1.676-.302.212-.061.35-.12.424-.168a.4.4 0 01.338-.334zm-.302.307l-.004.004.004-.004z" fill="#B65A18"/><path fill-rule="evenodd" clip-rule="evenodd" d="M202.767 60.571a.4.4 0 01-.32.466c-.346.064-.519.224-.612.401-.103.195-.132.46-.086.75.045.288.158.556.287.733a.612.612 0 00.174.172l.033-.006.052.003h.006l.042.002c.041 0 .109 0 .208-.003.199-.007.523-.027 1.01-.079.975-.104 2.599-.337 5.173-.854a.402.402 0 01.473.312.4.4 0 01-.314.47c-2.592.52-4.241.758-5.246.865-.504.054-.847.075-1.068.083a5.29 5.29 0 01-.289.002.809.809 0 01-.52-.127 1.39 1.39 0 01-.385-.374 2.563 2.563 0 01-.428-1.075c-.063-.398-.039-.85.167-1.243.216-.41.606-.71 1.175-.816a.4.4 0 01.468.318zm-.548 2.526h-.002.002z" fill="#B65A18"/><path fill-rule="evenodd" clip-rule="evenodd" d="M202.645 63.493a.4.4 0 01-.351.443c-.225.027-.321.126-.376.253-.067.158-.081.396-.024.673.056.272.169.532.296.708a.688.688 0 00.158.168l.021.012.019-.002.037.003h.011l.052.002c.049.001.128.002.239 0 .222-.006.574-.023 1.079-.073 1.011-.101 2.631-.334 5.05-.862a.398.398 0 11.172.779c-2.443.534-4.095.772-5.142.876-.523.052-.896.071-1.141.077a6.094 6.094 0 01-.342-.002.816.816 0 01-.504-.15 1.463 1.463 0 01-.362-.365 2.728 2.728 0 01-.429-1.012c-.074-.364-.082-.783.072-1.144.168-.391.51-.673 1.019-.733a.4.4 0 01.446.35zm-.22 2.258zm-.048.003h-.001.001z" fill="#B65A18"/><path fill-rule="evenodd" clip-rule="evenodd" d="M203.758 66.107l.037-.397-.037.397zm-1.311.905c.011.458.077.747.187.934.097.165.253.29.564.366.33.079.808.094 1.501.031.688-.062 1.557-.197 2.653-.397a.399.399 0 11.145.784c-1.102.202-2 .342-2.725.408-.72.065-1.303.06-1.762-.051-.477-.115-.838-.35-1.067-.737-.215-.364-.285-.82-.297-1.318a1.12 1.12 0 01.395-.91c.231-.197.519-.297.765-.351a3.404 3.404 0 01.897-.067c.027 0 .049.002.064.003l.019.002h.009" fill="#B65A18"/><path d="M58.834 47.292c.04 1.197 1.093 3.163-.168 2.991-.653-.087-5.272-1.421-6.062.232a3.772 3.772 0 00-.184 2.506c-1.223 1.408-.59 2.76-.59 2.76-.74.88-1.06 2.096-.693 2.694 0 0-1.403 2.371-.433 3.081 3.006 2.206 8.117 3.213 10.694 2.876 1.803-.236 4.042-1.055 5.04-4.7.4-1.492-.62-5.654-1.576-7.449-.39-.735-1.793-3.645-2.29-4.456a8.806 8.806 0 01-1.202-3.889s-2.644.024-2.535 3.354z" fill="#C36F0B"/><path d="M52.803 61.727c4.238 1.325 5.182 1.233 5.464-.648.089-.598-.422-.871-.885-.997.214.042.43.072.647.09.645.158 1.737-2.03.77-2.634.4-.2.825-1.63.823-2.9.748-.514.802-2.04-.068-2.345-.82-.285-5.611-1.044-5.41-1.814l-1.341 11.248z" fill="#C36F0B"/><path fill-rule="evenodd" clip-rule="evenodd" d="M53.862 50.369a.301.301 0 01.388-.174c.457.172 2.027.69 3.384 1.138.89.293 1.687.556 2.02.672.395.138.638.454.755.803.115.346.116.742.023 1.1-.093.358-.286.707-.59.938-.313.236-.718.327-1.176.2a33.46 33.46 0 01-5.895-1.664.299.299 0 11.216-.558c1.88.722 3.822 1.27 5.802 1.636l.015.003.014.004c.287.083.5.023.66-.097.17-.13.303-.348.372-.611a1.38 1.38 0 00-.012-.762c-.072-.218-.203-.365-.383-.427-.311-.108-1.086-.364-1.96-.653-1.374-.453-2.995-.988-3.458-1.162a.299.299 0 01-.175-.386z" fill="#B65A18"/><path fill-rule="evenodd" clip-rule="evenodd" d="M58.448 54.663a.3.3 0 01.378-.194c.52.166.845.488.996.889.145.387.117.813.01 1.184a2.456 2.456 0 01-.53.969 1.3 1.3 0 01-.395.3.703.703 0 01-.473.054 4.566 4.566 0 01-.251-.038 14.874 14.874 0 01-.954-.21c-.914-.226-2.447-.658-4.934-1.482a.299.299 0 11.19-.568c2.478.821 3.995 1.248 4.89 1.47.447.11.737.17.913.201.088.016.147.024.182.029l.036.004h.005l.036.003.036.011c.001 0 .005.002.014 0a.189.189 0 00.056-.017.712.712 0 00.207-.163c.16-.172.31-.436.394-.728.084-.292.091-.58.005-.81-.082-.216-.257-.414-.616-.528a.299.299 0 01-.195-.376z" fill="#B65A18"/><path fill-rule="evenodd" clip-rule="evenodd" d="M57.7 57.46a.3.3 0 01.338-.257c.52.069.87.33 1.058.698.178.352.19.766.125 1.134-.066.37-.216.73-.408.995a1.254 1.254 0 01-.347.335.657.657 0 01-.469.098 6.111 6.111 0 01-.336-.04 14.78 14.78 0 01-1.109-.21c-1.014-.229-2.61-.662-4.95-1.484a.299.299 0 11.2-.564c2.322.816 3.895 1.242 4.883 1.464.494.11.841.17 1.063.203a5.51 5.51 0 00.293.035h.013l.03.002.024.006a.127.127 0 00.043-.02.67.67 0 00.174-.176c.134-.184.252-.458.303-.748.052-.293.03-.564-.07-.76-.09-.18-.26-.33-.598-.374a.3.3 0 01-.26-.336zm.406 2.415z" fill="#B65A18"/><path fill-rule="evenodd" clip-rule="evenodd" d="M56.39 59.96a.3.3 0 01.31-.29l-.01.299.01-.3h.002l.005.001h.018a3.198 3.198 0 01.274.027c.172.023.405.066.639.148.229.08.483.207.671.413.199.217.309.508.256.865-.073.486-.194.906-.436 1.219-.253.33-.611.506-1.075.56-.45.051-1.013-.011-1.711-.161-.703-.151-1.567-.397-2.628-.728a.299.299 0 11.18-.57c1.057.329 1.9.568 2.575.713.68.146 1.164.192 1.515.151.337-.038.532-.154.667-.329.147-.19.25-.488.318-.943a.422.422 0 00-.105-.375 1.052 1.052 0 00-.428-.25 2.678 2.678 0 00-.695-.139 2.185 2.185 0 00-.047-.003h-.014a.3.3 0 01-.291-.308z" fill="#B65A18"/><path d="M139.819 27.56s-3.052 13.588 6.1 18.647c0 0-8.417 1.446-19.174 10.262 0 0-8.28-6.937-9.587-11.566 0 0 8.417-2.89 7.553-17.348l15.108.006z" fill="#C36F0B"/><path d="M139.819 27.56h-15.108c.872 14.456-7.553 17.35-7.553 17.35s16.799 0 21.551-14.904l1.11-2.445z" fill="#B65A18"/><path d="M140.396 27.427s-4.487 8.704-15.208 8.708c-9.563 0-11.022-27.931 3.22-28.316 13.571-.367 11.824 15.612 11.824 15.612s2.443-1.414 3.33.057c.888 1.472-3.166 3.939-3.166 3.939z" fill="#C36F0B"/><path fill-rule="evenodd" clip-rule="evenodd" d="M134.123 8.563a.3.3 0 01.291.308l-.3-.01.3.01v.007l-.001.014a3.556 3.556 0 01-.021.216 4.64 4.64 0 01-.117.584 5.249 5.249 0 01-.837 1.755c-.944 1.288-2.763 2.514-6.209 2.476-5.744-.063-8.769 3.164-9.055 5.335a.301.301 0 01-.597-.078c.339-2.567 3.719-5.92 9.658-5.855 3.281.036 4.903-1.12 5.718-2.23a4.656 4.656 0 00.741-1.555c.056-.212.086-.388.102-.51.008-.06.012-.107.015-.137l.002-.034v-.007" fill="#3F4D79"/><path d="M152.56 18.412c0 5.268-6.39 9.823-13.466 12.913-.419.184-1.097.226-1.954.158a16.62 16.62 0 003.256-4.056s4.03-2.5 3.158-3.939c-.871-1.437-3.33-.06-3.33-.06s1.224-11.136-6.269-14.596c-.058.108-2.004 3.521-7.755 3.703-5.471.17-6.964 2.245-7.589 4.415-.02.076-.04.15-.058.225a24.218 24.218 0 00-.497 8.822l-.032-.012c-.531-.642-7.788-9.793-5.894-14.7C114.188 5.95 127.342-1.573 137.873.289c5.882 1.043 14.685 15.353 14.687 18.123z" fill="#3F4D79"/><path d="M104.864 93.922h-80.71a5.31 5.31 0 01-3.085-.992 5.269 5.269 0 01-1.925-2.597L2.038 39.649a3.686 3.686 0 01.507-3.341 3.716 3.716 0 013.022-1.54h80.71a5.312 5.312 0 013.085.992 5.27 5.27 0 011.925 2.596l17.096 50.673a3.68 3.68 0 01-.498 3.345 3.733 3.733 0 01-3.021 1.548z" fill="#C7BFFF"/><path d="M103.022 95.898H22.31a5.31 5.31 0 01-3.085-.992 5.268 5.268 0 01-1.925-2.597L.2 41.635a3.686 3.686 0 01.507-3.34 3.716 3.716 0 013.02-1.542h80.708a5.31 5.31 0 013.086.993 5.269 5.269 0 011.924 2.597l17.098 50.674a3.678 3.678 0 01-.505 3.338 3.734 3.734 0 01-3.016 1.544z" fill="#fff"/><path fill-rule="evenodd" clip-rule="evenodd" d="M5.567 35.212a3.133 3.133 0 00-2.534 1.292 3.096 3.096 0 00-.425 2.8L19.714 89.98a4.668 4.668 0 001.706 2.302c.796.57 1.753.878 2.734.88h80.71a3.12 3.12 0 002.532-1.292 3.098 3.098 0 00.425-2.801L90.717 38.394a4.672 4.672 0 00-1.706-2.302 4.71 4.71 0 00-2.735-.88H5.566zm0-1.197a4.34 4.34 0 00-3.51 1.79 4.29 4.29 0 00-.589 3.88L18.574 90.36a5.865 5.865 0 002.143 2.892 5.911 5.911 0 003.436 1.105h80.711a4.34 4.34 0 003.508-1.79 4.278 4.278 0 00.589-3.88L91.857 38.013a5.87 5.87 0 00-2.144-2.892 5.915 5.915 0 00-3.435-1.106H5.567z" fill="#6562CF"/><path d="M69.955 77.876l6.14 15.205h-13.27s2.579-11.895 7.13-15.205z" fill="#E2E2FF"/><path d="M78.78 112.15c-26.13 0-15.142-27.823-9.946-33.602h-20.11c-5.194 5.783-19.252 35.13 6.876 35.13h23.18v-1.528z" fill="#fff"/><path fill-rule="evenodd" clip-rule="evenodd" d="M48.456 77.95h21.723l-.897.997c-1.233 1.371-2.862 4.122-4.2 7.508-1.336 3.378-2.357 7.325-2.421 11.071-.064 3.747.83 7.23 3.248 9.776 2.413 2.54 6.442 4.25 12.871 4.25h.601v2.724h-23.78c-6.64 0-10.87-1.867-13.298-4.901-2.416-3.018-2.941-7.054-2.484-11.16.458-4.113 1.911-8.388 3.568-11.987 1.653-3.594 3.535-6.571 4.89-8.079l.178-.2zm.542 1.196c-1.235 1.448-2.966 4.206-4.518 7.58-1.624 3.529-3.026 7.675-3.466 11.621-.44 3.955.095 7.617 2.229 10.282 2.121 2.65 5.933 4.451 12.357 4.451h22.58v-.336c-6.301-.104-10.514-1.851-13.144-4.62-2.709-2.852-3.643-6.687-3.576-10.618.066-3.932 1.133-8.024 2.503-11.489 1.11-2.806 2.434-5.242 3.624-6.871H48.998z" fill="#6562CF"/><path d="M56.599 65.286c1.126-1.775.217-4.358-2.03-5.77-2.247-1.41-4.982-1.116-6.108.659-1.126 1.775-.217 4.358 2.03 5.77 2.248 1.411 4.982 1.116 6.108-.659z" fill="#E2E2FF"/><path fill-rule="evenodd" clip-rule="evenodd" d="M50.253 59.417c-.883 1.393-.24 3.637 1.843 4.945 2.082 1.307 4.394.92 5.278-.472.884-1.394.24-3.637-1.843-4.945-2.082-1.308-4.394-.921-5.278.472zm1.201 5.956c-2.412-1.515-3.586-4.438-2.218-6.595 1.369-2.157 4.525-2.36 6.937-.845 2.413 1.515 3.586 4.438 2.218 6.595-1.368 2.157-4.525 2.36-6.937.845z" fill="#6562CF"/><path d="M18.787 113.678h119.671c1.76 0 3.187 1.324 3.187 2.959 0 1.633-1.427 2.957-3.187 2.957H18.788v-5.916z" fill="#fff"/><path fill-rule="evenodd" clip-rule="evenodd" d="M138.458 114.276H18.788v-1.196h119.67c2.052 0 3.788 1.553 3.788 3.557 0 2.002-1.736 3.556-3.788 3.556H18.788v-1.197h119.67c1.468 0 2.585-1.095 2.585-2.359 0-1.266-1.117-2.361-2.585-2.361z" fill="#6562CF"/></g><defs><clipPath id="clip0"><path fill="#fff" d="M0 0h210v249H0z"/></clipPath></defs></svg>