<svg width="45" height="45" fill="none" xmlns="http://www.w3.org/2000/svg"><path d="M39 0H6a.75.75 0 00-.75.75v43.5c0 .414.336.75.75.75h33a.75.75 0 00.75-.75V.75A.75.75 0 0039 0zm-.75 43.5H6.75v-42h31.5v42z" fill="#B961FF"/><path d="M35.78 36.26a.75.75 0 00-1.018-.08l-4.403 3.774-.398-1.19a.751.751 0 00-1.425.473l.75 2.25a.75.75 0 001.201.332l5.25-4.5a.75.75 0 00.042-1.06zM22.5 3a3 3 0 100 6 3 3 0 000-6zm0 4.5a1.5 1.5 0 110-3 1.5 1.5 0 010 3zm12 4.5h-24a.75.75 0 000 1.5h24a.75.75 0 000-1.5zm0 4.5h-24a.75.75 0 000 1.5h24a.75.75 0 000-1.5zm0 3.75h-24a.75.75 0 000 1.5h24a.75.75 0 000-1.5zm0 4.5h-24a.75.75 0 000 1.5h24a.75.75 0 000-1.5zm0 3.75h-24a.75.75 0 000 1.5h24a.75.75 0 000-1.5zm-18 9h-6a.75.75 0 000 1.5h6a.75.75 0 000-1.5zm-.75 3h-4.5a.75.75 0 000 1.5h4.5a.75.75 0 000-1.5z" fill="#B961FF"/></svg>