<svg width="54" height="54" fill="none" xmlns="http://www.w3.org/2000/svg"><path d="M48.46 5.54C45.105 2.181 40.455.493 35.698.905c-7.253.629-13.315 6.31-14.415 13.512-.15.985-.207 1.978-.176 2.963l-9.191-9.19a4.883 4.883 0 00-3.478-1.44A4.883 4.883 0 004.96 8.19l-2.676 2.677a4.883 4.883 0 00-1.44 3.477c0 1.314.511 2.549 1.44 3.477l11.289 11.288-1.339 1.339-1.832-1.833a2.617 2.617 0 00-1.862-.771 2.636 2.636 0 00-2.634 2.633c0 .682.262 1.32.73 1.812a2.635 2.635 0 00-1.574 2.407c0 .704.275 1.365.772 1.862l.145.145-1.106 1.105a7.948 7.948 0 00-2.342 5.658c0 4.413 3.59 8.003 8.003 8.003a7.95 7.95 0 005.66-2.344l1.103-1.104.145.145a2.617 2.617 0 001.862.772 2.635 2.635 0 002.407-1.574 2.61 2.61 0 001.812.73 2.636 2.636 0 002.633-2.634 2.62 2.62 0 00-.77-1.862l-1.834-1.832 1.339-1.339 9.255 9.255 11.168 3.437 1.936.037V51.47l-3.474-11.417-7.156-7.157c.985.03 1.978-.026 2.963-.176 7.2-1.1 12.883-7.163 13.512-14.416A16.043 16.043 0 0048.46 5.54zM19.34 23.341l-.356.356-4.713-4.714 3.026-3.025 3.802 3.802c-.198 1.367-.803 2.624-1.76 3.581zM8.86 22.01l-1.34-1.338 7.245-7.245 1.338 1.339-7.245 7.244zm-6.33-7.666c0-.863.336-1.674.946-2.284l2.676-2.677c1.22-1.22 3.348-1.22 4.569 0l2.85 2.851-7.244 7.245-2.85-2.851a3.21 3.21 0 01-.947-2.284zm7.521 8.86l3.026-3.027 4.713 4.714-3.025 3.025-4.714-4.713zM15 47.931a6.277 6.277 0 01-4.466 1.85 6.323 6.323 0 01-6.315-6.316c0-1.688.656-3.272 1.848-4.465l1.105-1.105 8.932 8.932L15 47.932zm4.304-.682a.942.942 0 01-.669-.277L7.027 35.365a.947.947 0 011.338-1.338l11.608 11.608a.947.947 0 01-.67 1.615zm5.165-1.79a.947.947 0 01-1.615.67l-1.688-1.688L9.558 32.834 7.87 31.146a.947.947 0 011.338-1.338l14.984 14.983a.942.942 0 01.277.67zm9.98-29.778c.153-.154.29-.319.409-.495h3.955v3.826L18.6 36.812l-1.414-1.413L34.45 15.682zm-.712-2.182h-1.675a1.69 1.69 0 01-1.687-1.688c0-.93.757-1.687 1.688-1.687.93 0 1.687.757 1.687 1.688v1.482c0 .07-.004.137-.013.205zm.502 19.401l7.6 7.599-3.026 3.026-8.51-8.51.352-.353c.96-.959 2.217-1.564 3.584-1.762zm-5.13 3.308l8.51 8.51-3.025 3.025-8.51-8.51 3.025-3.025zm16.397 15.203l-9.325-2.868 6.455-6.456 2.87 9.324zm5.907-33.255c-.563 6.487-5.645 11.91-12.085 12.894-1.128.172-2.27.213-3.39.119-2.446-.204-4.81.634-6.476 2.3l-7.103 7.103-2.565-2.565 19.022-16.752a3.38 3.38 0 003.371 3.213 3.378 3.378 0 003.376-3.375 3.378 3.378 0 00-3.376-3.375h-.638a3.42 3.42 0 00-1.049.163V13.5h-5.068a3.32 3.32 0 00.005-.205v-1.482a3.378 3.378 0 00-3.374-3.375 3.378 3.378 0 00-3.376 3.374 3.378 3.378 0 003.375 3.376h.58L15.99 34.203l-2.563-2.562 7.106-7.106c1.663-1.663 2.501-4.023 2.297-6.473a14.499 14.499 0 01.12-3.39c.984-6.44 6.406-11.523 12.893-12.085 4.26-.366 8.421 1.142 11.425 4.145a14.36 14.36 0 014.145 11.425zM40.5 21.095v-1.322a1.674 1.674 0 011.049-.366h.639c.93 0 1.687.757 1.687 1.688a1.69 1.69 0 01-1.688 1.687 1.69 1.69 0 01-1.687-1.687z" fill="#B961FF"/><path d="M37.125 4.219v1.687c4.818 0 9.142 3.222 10.515 7.835l1.617-.482c-1.584-5.323-6.573-9.04-12.132-9.04zm10.969 12.656h1.687c0-.604-.043-1.213-.128-1.807l-1.67.238a11.1 11.1 0 01.11 1.569z" fill="#B961FF"/></svg>