<svg width="132" height="316" fill="none" xmlns="http://www.w3.org/2000/svg"><path fill-rule="evenodd" clip-rule="evenodd" d="M54.706 281.163c0-.348.284-.63.633-.63h39.58a.631.631 0 110 1.261h-39.58a.632.632 0 01-.633-.631z" fill="#424D76"/><path fill-rule="evenodd" clip-rule="evenodd" d="M41.284 194.13a.633.633 0 01.87.207l69.56 112.784a.629.629 0 01-.208.867.634.634 0 01-.871-.207L41.076 194.997a.629.629 0 01.208-.867z" fill="#424D76"/><path fill-rule="evenodd" clip-rule="evenodd" d="M108.974 194.13c.298.182.391.57.208.867l-69.56 112.784a.633.633 0 01-1.078-.66l69.56-112.784a.633.633 0 01.87-.207z" fill="#424D76"/><path d="M123.053 185.285c0 .961-2.159 1.865-5.954 2.649-8.165 1.69-23.902 2.835-41.97 2.835-18.068 0-33.805-1.145-41.965-2.837-3.797-.785-5.954-1.688-5.954-2.649 0-3.027 21.456-5.484 47.924-5.484s47.919 2.457 47.919 5.486z" fill="#fff"/><path fill-rule="evenodd" clip-rule="evenodd" d="M27.843 185.277v.006l.001.009c.002.007.007.02.018.04a.774.774 0 00.165.189c.19.169.511.365.99.575.954.417 2.391.829 4.275 1.218h.001c8.094 1.679 23.778 2.825 41.836 2.825 18.057 0 33.741-1.146 41.84-2.823h.001c1.883-.389 3.32-.8 4.274-1.218.479-.209.8-.405.991-.575a.773.773 0 00.165-.188.208.208 0 00.018-.04l.002-.01-.001-.003v-.003l-.008-.022a.476.476 0 00-.08-.115c-.099-.112-.276-.253-.562-.413-.571-.319-1.453-.647-2.648-.971-2.378-.644-5.85-1.23-10.175-1.726-8.64-.989-20.594-1.603-33.812-1.603-13.218 0-25.174.614-33.816 1.603-4.325.495-7.797 1.082-10.177 1.725-1.194.324-2.077.652-2.648.971-.286.16-.463.301-.562.412a.493.493 0 00-.08.115l-.008.022zm13.33-4.498c8.704-.996 20.71-1.611 33.96-1.611 13.251 0 25.256.615 33.958 1.611 4.347.498 7.892 1.093 10.362 1.762 1.23.333 2.23.694 2.936 1.089.353.197.662.42.89.677.232.261.406.59.406.978 0 .494-.279.888-.608 1.18-.333.295-.789.554-1.324.788-1.075.471-2.614.903-4.526 1.298-8.23 1.704-24.02 2.849-42.099 2.849-18.078 0-33.868-1.145-42.093-2.851-1.913-.395-3.452-.828-4.527-1.298-.535-.235-.99-.494-1.323-.788-.33-.292-.608-.687-.608-1.18 0-.388.174-.718.406-.979.228-.257.538-.479.89-.676.706-.395 1.706-.755 2.937-1.088 2.47-.668 6.016-1.263 10.364-1.761z" fill="#FFB000"/><path d="M123.053 185.285v5.298c0 3.027-21.458 5.484-47.924 5.484s-47.924-2.455-47.924-5.484v-5.298c0 .961 2.16 1.864 5.955 2.649 8.164 1.69 23.898 2.835 41.97 2.835 18.07 0 33.804-1.145 41.969-2.838 3.795-.782 5.954-1.685 5.954-2.646z" fill="#FFD880"/><path fill-rule="evenodd" clip-rule="evenodd" d="M27.838 186.923v3.665l.008.022c.01.023.033.062.08.116.1.111.277.252.563.412.57.319 1.453.648 2.648.971 2.38.644 5.852 1.23 10.178 1.725 8.642.989 20.598 1.602 33.814 1.602 13.217 0 25.172-.614 33.815-1.603 4.325-.495 7.797-1.081 10.177-1.725 1.195-.323 2.078-.651 2.649-.971.286-.159.463-.3.562-.412a.487.487 0 00.08-.115.063.063 0 00.007-.022l.001-.005v-3.66a7.404 7.404 0 01-.667.33c-1.074.47-2.614.902-4.525 1.296-8.231 1.706-24.018 2.851-42.099 2.851-18.081 0-33.868-1.145-42.098-2.849l.129-.617-.13.617c-1.911-.395-3.45-.827-4.525-1.298a7.189 7.189 0 01-.667-.33zm-1.266-1.638v5.298c0 .388.175.717.406.978.228.257.538.48.891.677.706.395 1.706.755 2.937 1.088 2.47.669 6.017 1.264 10.364 1.761 8.704.996 20.71 1.61 33.96 1.61 13.248 0 25.255-.615 33.958-1.611 4.348-.497 7.894-1.093 10.365-1.761 1.23-.333 2.23-.693 2.936-1.088.353-.197.663-.419.891-.676.231-.261.406-.59.406-.978v-5.298h-1.266l-.002.01a.14.14 0 01-.017.039.8.8 0 01-.165.189c-.191.169-.512.365-.991.575-.954.417-2.391.828-4.274 1.216h-.001c-8.099 1.679-23.78 2.825-41.84 2.825-18.061 0-33.743-1.146-41.842-2.823-1.883-.389-3.32-.8-4.274-1.218-.48-.209-.8-.405-.991-.575a.796.796 0 01-.166-.188.214.214 0 01-.017-.04l-.002-.01h-1.266z" fill="#FFB000"/><path d="M67.4 268.533c2.119 1.206 6.653 1.339 7.46 4.434.808 3.096-3.63 15.35-2.923 19.676.706 4.327.643 13.564-6.552 14.563-7.962 1.105-14.01-1.607-14.01-4.621 0-3.015 4.638-6.435 5.334-11.556.696-5.121 2.531-16.17 2.531-16.17l8.16-6.326z" fill="#FFB000"/><path fill-rule="evenodd" clip-rule="evenodd" d="M57.246 282.024l-.332-.381a.502.502 0 00-.051.711c.183.21.502.233.713.052m0-.001v.001l.003-.003.021-.017.097-.073a5.1 5.1 0 01.406-.26 6.147 6.147 0 011.587-.627c1.363-.333 3.358-.348 5.818 1.037a.507.507 0 00.69-.191.503.503 0 00-.192-.687c-2.692-1.516-4.953-1.531-6.557-1.139a7.12 7.12 0 00-1.85.733 5.659 5.659 0 00-.63.418l-.038.031a.137.137 0 01-.01.009l-.005.003v.002h-.002l.332.382m-.76 3.531l-.331-.381a.506.506 0 00.662.763m0 0l.003-.002.02-.017a4.773 4.773 0 01.503-.334 6.148 6.148 0 011.587-.627c1.364-.333 3.359-.348 5.818 1.037a.507.507 0 00.69-.191.503.503 0 00-.191-.687c-2.693-1.516-4.953-1.531-6.558-1.139a7.157 7.157 0 00-1.85.733 5.638 5.638 0 00-.667.449.12.12 0 01-.011.009l-.004.004-.001.001h-.001l.331.382m-.428 3.913v.001h-.001l.003-.003.021-.017.097-.073a5.1 5.1 0 01.406-.26 6.148 6.148 0 011.587-.627c1.363-.333 3.358-.348 5.818 1.037a.507.507 0 00.69-.191.503.503 0 00-.192-.687c-2.692-1.516-4.953-1.531-6.557-1.139a7.122 7.122 0 00-1.85.733 5.67 5.67 0 00-.63.418l-.038.031a.135.135 0 01-.01.009l-.005.003-.001.002s-.001.001.33.382l-.331-.381a.502.502 0 00-.051.711c.183.21.502.233.713.052" fill="#fff"/><path d="M94.552 283.744c-1.347 1.963-9.114 6.783-8.706 8.993.407 2.21 7.56 8.637 8.063 12.05.504 3.413-.2 8.537 2.823 10.045 3.022 1.509 19.05 1.607 21.671 0 2.62-1.607-.203-6.73-3.026-7.835-2.823-1.105-10.38-13.657-9.944-21.391l-10.881-1.862z" fill="#FFB000"/><path fill-rule="evenodd" clip-rule="evenodd" d="M109.083 292.426l-.331.381.332-.381a.504.504 0 01.051.712.508.508 0 01-.713.052m-.001-.001l-.003-.002-.021-.017a4.514 4.514 0 00-.503-.333 6.12 6.12 0 00-1.586-.627c-1.364-.334-3.359-.348-5.818 1.037a.504.504 0 11-.499-.879c2.693-1.516 4.953-1.53 6.558-1.138a7.124 7.124 0 011.85.732 5.601 5.601 0 01.63.419l.037.03a.12.12 0 01.011.01l.004.003.001.001.001.001m1.266 3.532l-.331.381.331-.381a.503.503 0 01.051.712.508.508 0 01-.713.052m0-.001l-.003-.002-.021-.017a4.3 4.3 0 00-.503-.333 6.11 6.11 0 00-1.587-.628c-1.363-.333-3.358-.348-5.818 1.037a.504.504 0 11-.498-.878c2.692-1.516 4.953-1.531 6.558-1.139a7.157 7.157 0 011.85.733 5.755 5.755 0 01.629.419l.038.03.011.01.004.003.001.001.001.001m1.519 3.531l-.331.382.331-.381a.506.506 0 01-.662.763m0 0l-.003-.002-.021-.017a4.751 4.751 0 00-.503-.334 6.15 6.15 0 00-1.587-.627c-1.363-.333-3.358-.348-5.818 1.037a.506.506 0 01-.498-.878c2.692-1.516 4.953-1.531 6.558-1.139a7.157 7.157 0 011.85.733 5.755 5.755 0 01.629.419.642.642 0 01.049.039l.004.004.001.001h.001" fill="#fff"/><path d="M46.392 148.032S0 166.437 0 182.271c0 28.235 39.562 80.218 47.658 79.438 8.096-.779 13.547-7.285 13.236-10.698-.312-3.413-14.937-47.333-25.388-62.229 0 0 31.93-8.072 36.135-8.224 4.205-.151 25.85 11.483 26.161 11.947.312.464-11.19 31.926-4.516 72.928.934 5.741 18.375 6.982 20.089 4.656 1.714-2.325 21.012-83.325 18.374-89.841-2.638-6.516-24.81-24.35-38.21-31.459-9.656-5.121-47.147-.757-47.147-.757z" fill="#424D76"/><path d="M108.023 278.325c-.289.888-1.659 5.068-2.59 7.281-.891 2.111-11.993 1.395-10.886-1.865.944-2.774.96-6.558.942-7.623 1.817.719 6.972 2.523 12.534 2.207z" fill="#C36F0B"/><path d="M108.235 278.313l3.102-7.361s-10.069 1.246-16.785-3.378l.253 8.254s6.982 3.168 13.43 2.485z" fill="#6562CF"/><path d="M62.823 259.848s3.67 7.58 4.577 8.685c.906 1.105-4.132 6.728-8.162 6.327l-6.44-8.65s6.908-1.287 10.025-6.362z" fill="#C36F0B"/><path d="M60.483 253.198l2.593 6.65s-4.023 5.562-10.785 6.614l-4.633-4.753s8.676-1.041 12.825-8.511z" fill="#6562CF"/><path d="M90.21 53.226c4.096 3 15.225 8.244 22.152 13.075 5.587 3.897 10.572 20.937 10.572 20.937s-7.78 7.906-20.848 11.006c0 0-7.468 22.956-10.268 49.765 0 0-23.962 8.829-45.588 0 0 0-8.713-49.144-9.802-49.442-1.089-.298-17.236-5.234-22.532-13.143 0 0 6.246-17.928 14.76-21.442 9.25-3.819 21.577-9.053 25.866-11.351 2.187-1.19 35.688.595 35.688.595z" fill="#EAEAFF"/><path d="M32.957 62.179L14.795 86.592a12.247 12.247 0 01-.562-.714l17.142-23.036 1.582-.663zm8.881-3.764L18.382 89.947a31.31 31.31 0 01-.69-.54l22.53-30.29 1.616-.702zm9.076-4.031L22.466 92.62a40.562 40.562 0 01-.76-.447l27.542-37.02c.585-.268 1.132-.523 1.666-.768zm7.676-2.149L26.858 94.882c-.268-.124-.537-.253-.807-.381l31.417-42.236c.355-.013.727-.025 1.122-.03zm6.066.013L31.49 96.839l-.858-.33 32.944-44.277 1.079.016zm5.977.149l-34.324 46.12a55.78 55.78 0 01-.886-.278l34.132-45.873c.356.008.71.018 1.078.03zm5.911.208l-38.549 51.807a39.574 39.574 0 00-.253-1.136l37.734-50.703 1.068.032zm5.892.248L39.314 110.81l-.23-1.155 42.296-56.85 1.056.048zm5.87.277L40.58 117.278c-.076-.388-.152-.779-.225-1.165L87.252 53.08l1.053.05zm4.676 1.887L41.81 123.79c-.07-.391-.144-.782-.218-1.173l50.633-68.056c.243.148.497.3.757.456zm4.271 2.425L43.038 130.32l-.218-1.175L96.478 57.01c.256.147.515.29.775.432zm4.309 2.376l-57.337 77.059c-.068-.386-.139-.779-.212-1.178l56.777-76.307.772.426zm4.281 2.414L45.415 143.46a351.7 351.7 0 01-.212-1.183l59.875-80.473.765.43zm4.192 2.53L47.679 148.58l-.844-.336L109.3 64.293l.736.47zm3.889 2.959l-61.314 82.39a17.113 17.113 0 01-.909-.253l61.595-82.785c.208.207.413.419.628.648zm2.886 4.271L57.881 151.2a27.88 27.88 0 01-.975-.161l59.431-79.877c.159.27.316.55.473.83zm-14.861 26.671c-.146.47-.407 1.312-.759 2.485l-37.684 50.658c-.346-.023-.69-.045-1.04-.076l39.483-53.067zm17.256-21.725L103.661 97.83c-.446.124-.899.253-1.355.353l16.492-22.168c.136.313.273.62.407.923zm-20.861 34.744c-.18.706-.357 1.438-.536 2.187l-28.302 38.04c-.367 0-.734.015-1.106.018l29.944-40.245zm22.955-29.388l-9.147 12.303c-.542.267-1.101.532-1.684.792l10.476-14.081c.122.338.241.676.355.986zM95.67 123.442a220.12 220.12 0 00-.407 2.018l-19.35 26.008c-.391.043-.784.085-1.184.123l20.942-28.149zm-2 10.865c-.098.618-.2 1.238-.295 1.864l-10.59 14.227c-.413.081-.838.164-1.266.252l12.152-16.343z" fill="#fff"/><path d="M130.38 127.971c-.572 10.595-20.739 20.433-31.375 24.898-.352 2.194-1.797 3.155-4.577 3.869-5.795 1.488-5.25 5.298-5.55 6.024-.468 1.158-6.184 2.477-7.559 1.514-.818-.578 1.491-7.833 2.805-10.383.818-1.587 6.296-4.591 9.889-5.885 0 0 18.228-22.015 20.724-23.256 0 0-6.742-18.415-9.562-25.042-.403-.95-.727-1.657-.937-2.033 0 0 10.127-3.027 16.977-8.905 0 0 .62 1.542 1.534 4.077 2.752 7.633 8.211 24.297 7.631 35.122z" fill="#C36F0B"/><path d="M122.747 92.846c-1.418 1.5-5.727 4.752-17.575 6.861-.405-.948-.729-1.657-.939-2.033 0 0 10.126-3.027 16.98-8.905 0 0 .617 1.54 1.534 4.077z" fill="#B65A18"/><path d="M57.43 164.02c-1.536.676-6.126-.591-6.547-1.262-.42-.671-1.012-4.843-5.546-6.276-3.246-1.027-4.72-2.048-4.664-5.239-9.435-3.211-34.526-12.737-35.663-23.551-.76-7.215 6.813-27.852 9.975-36.073a278.182 278.182 0 011.352-3.448c7.293 6.054 16.76 9.212 16.76 9.212l-.783 2.137-9.132 24.918c4.157 1.571 19.296 20.097 21.656 23.006 4.919.948 10.187 4.356 10.803 6.193.645 1.924 3.372 9.684 1.79 10.383z" fill="#C36F0B"/><path d="M16.34 88.166c7.29 6.055 16.759 9.213 16.759 9.213l-.783 2.134c-5-.787-13.212-2.712-17.329-7.9a250.923 250.923 0 011.352-3.447z" fill="#B65A18"/><path d="M106.177 170.937H32.873l-12.339-48.328a4.405 4.405 0 01.723-3.887 4.43 4.43 0 013.553-1.758h89.441a4.45 4.45 0 013.546 1.762 4.414 4.414 0 01.719 3.883l-12.339 48.328z" fill="#fff"/><path fill-rule="evenodd" clip-rule="evenodd" d="M24.808 117.847a3.557 3.557 0 00-2.844 1.407 3.532 3.532 0 00-.578 3.111l.004.013 12.172 47.676h71.926l12.173-47.676.004-.013a3.528 3.528 0 00-.576-3.108 3.555 3.555 0 00-2.838-1.41H24.808zm.003-1.766a5.338 5.338 0 00-4.262 2.109 5.298 5.298 0 00-.87 4.65l12.506 48.98h74.681l12.506-48.98a5.283 5.283 0 00-.867-4.645 5.342 5.342 0 00-4.254-2.114h-89.44z" fill="#6562CF"/><path d="M103.954 170.483h-68.86L23.5 125.076c-.76-2.656-1.296-5.802 1.476-5.802h89.094c2.772 0 2.243 3.151 1.476 5.802l-11.593 45.407z" fill="#6562CF"/><path fill-rule="evenodd" clip-rule="evenodd" d="M63.668 140.938h11.715a1.337 1.337 0 011.3 1.662l-1 5.361a2.018 2.018 0 01-.73 1.138 2.033 2.033 0 01-1.234.424h-8.386a2.018 2.018 0 01-1.971-1.57l-.995-5.353a1.333 1.333 0 01.703-1.521c.186-.092.39-.14.598-.141zm.217 1.514l.965 5.195a.507.507 0 00.485.362h8.38a.504.504 0 00.481-.357l.97-5.2H63.885z" fill="#fff"/><path d="M80.666 38.343s-.415 9.081 9.544 14.883c0 0-9.873 7.164-18.048 16.366 0 0-8.76-10.673-17.633-16.984 0 0 8.711-6.824 8.711-14.263l17.426-.002z" fill="#B65A18"/><path d="M89.142 33.343c-1 1.307-2.805 3.756-3.676 5.514-1.55 8.373-6.836 13.913-13.537 13.913-5.808 0-9.732-6.489-11.54-12.52a2.74 2.74 0 01-.105-.336c-.448-1.662-2.876-4.969-4.097-6.558a1.112 1.112 0 01.337-1.645c1.489-.85 2.26-.232 2.666.575-.215-6.031.035-12.36 3.56-12.396 4.05-.038 17.52-.302 19.855.474 2.008.666 3.332 3.47 3.337 12.427.316-1.01 1.076-2.102 2.863-1.08a1.12 1.12 0 01.536.74 1.11 1.11 0 01-.2.892z" fill="#C36F0B"/><path d="M91.562 22.367c-2.678 3.355-5.85 11.122-5.85 11.122s1.151-12.022-3.517-11.89c-2.22.06-6.686 3.16-11.362 2.655-3.884-.418-8.734-5.67-10.732-2.237-1.106 2.63-1.028 6.76-.86 11.008-1.193-5.436-3.659-9.053-5.013-11.212-2.846-1.471-5.079-4.62-4.436-7.82 1.094-5.416 5.284-5.114 5.284-5.114 7.066.73 2.942-3.375 11.506-7.252C75.147-2.25 84.89 1.42 85.727 6.092c.577 3.204 2.554 1.6 5.65 3.027 4.35 2.023 3.332 9.296.185 13.248z" fill="#FFB000"/><path fill-rule="evenodd" clip-rule="evenodd" d="M77.96 24.514c-2.505 1.369-5.88 2.632-11.962 1.864l.095-.75c5.908.745 9.123-.478 11.501-1.777.48-.263.925-.527 1.357-.785l.332-.197a17.986 17.986 0 011.587-.86c1.073-.497 2.192-.778 3.575-.568l-.115.748c-1.198-.182-2.164.054-3.14.506-.494.228-.988.51-1.52.825l-.323.192c-.434.259-.894.532-1.387.802z" fill="#FFB000"/></svg>