<svg width="351" height="414" fill="none" xmlns="http://www.w3.org/2000/svg"><g clip-path="url(#clip0)"><path fill-rule="evenodd" clip-rule="evenodd" d="M94.943 274.972a.913.913 0 011.294.049l48.109 52.072a23.621 23.621 0 016.609 8.219 23.707 23.707 0 012.384 10.363v54.828a13.52 13.52 0 01-3.938 9.544 13.422 13.422 0 01-9.508 3.953H77.251a.917.917 0 01-.916-.919c0-.508.41-.919.916-.919h62.642c3.081 0 6.035-1.229 8.213-3.415a11.682 11.682 0 003.402-8.244v-54.828c0-3.312-.752-6.58-2.199-9.557a21.785 21.785 0 00-6.149-7.622l-.057-.045-48.209-52.18a.922.922 0 01.05-1.299z" fill="#D8BAA3"/><path d="M152.296 267.373a8.293 8.293 0 01-2.414 5.85 8.229 8.229 0 01-5.828 2.423h-119a24.096 24.096 0 01-17.067-7.098 24.281 24.281 0 01-7.071-17.133V156.61c0-2.172.426-4.323 1.254-6.33a16.525 16.525 0 013.574-5.365 16.454 16.454 0 015.348-3.582c2-.83 4.143-1.256 6.307-1.253h61.1a11.19 11.19 0 014.303.858 11.235 11.235 0 013.648 2.446 11.288 11.288 0 013.292 7.981v83.507a24.276 24.276 0 007.07 17.132 24.09 24.09 0 0017.066 7.096h30.176c2.186 0 4.282.871 5.828 2.423a8.291 8.291 0 012.414 5.85z" fill="#fff"/><path fill-rule="evenodd" clip-rule="evenodd" d="M17.398 140.999a15.476 15.476 0 00-5.957 1.183 15.55 15.55 0 00-5.05 3.383 15.616 15.616 0 00-3.375 5.067 15.657 15.657 0 00-1.185 5.978v94.805a23.361 23.361 0 006.803 16.483 23.18 23.18 0 0016.42 6.828h119a7.308 7.308 0 005.18-2.154 7.366 7.366 0 002.146-5.199 7.367 7.367 0 00-2.146-5.2 7.312 7.312 0 00-5.18-2.154h-30.177a25.005 25.005 0 01-17.714-7.365 25.197 25.197 0 01-7.337-17.782v-83.508a10.398 10.398 0 00-3.024-7.33 10.319 10.319 0 00-3.35-2.247 10.273 10.273 0 00-3.952-.788H17.398zm.001-1.839a17.328 17.328 0 00-6.657 1.323 17.388 17.388 0 00-5.646 3.781 17.46 17.46 0 00-3.772 5.664A17.504 17.504 0 000 156.61v94.805c0 6.67 2.64 13.066 7.34 17.783a25.011 25.011 0 0017.714 7.367h119a9.14 9.14 0 006.475-2.693 9.21 9.21 0 002.682-6.499 9.212 9.212 0 00-2.682-6.5 9.14 9.14 0 00-6.475-2.693h-30.177a23.175 23.175 0 01-16.419-6.826 23.356 23.356 0 01-6.8-16.482v-83.507s0-.001 0 0a12.236 12.236 0 00-3.56-8.631 12.142 12.142 0 00-8.598-3.574H17.4z" fill="#D8BAA3"/><path d="M151.969 269.683a8.266 8.266 0 01-2.967 4.306 8.209 8.209 0 01-4.948 1.656h-119a24.091 24.091 0 01-17.067-7.097 24.281 24.281 0 01-7.071-17.133V156.61c0-3.053.843-6.046 2.433-8.648a16.51 16.51 0 016.578-6.096 16.506 16.506 0 00-2.6 8.922v98.516a20.57 20.57 0 005.99 14.516 20.412 20.412 0 0014.46 6.013h122.709a7.86 7.86 0 001.483-.15z" fill="#F0E1D4"/><path fill-rule="evenodd" clip-rule="evenodd" d="M12.523 139.509l-1.826 2.854a15.585 15.585 0 00-2.455 8.424v98.517a19.646 19.646 0 005.721 13.866 19.497 19.497 0 0013.814 5.744h122.706a6.926 6.926 0 001.308-.133l1.477-.292-.42 1.451a9.195 9.195 0 01-3.296 4.785 9.143 9.143 0 01-5.498 1.84h-119a25.011 25.011 0 01-17.715-7.367A25.203 25.203 0 010 251.415V156.61c0-3.222.89-6.382 2.568-9.129a17.415 17.415 0 016.943-6.434l3.012-1.538zm-4.947 4.981a15.616 15.616 0 00-3.447 3.953 15.668 15.668 0 00-2.298 8.167v94.805a23.361 23.361 0 006.803 16.483 23.18 23.18 0 0016.42 6.828h119a7.299 7.299 0 004.398-1.472 7.35 7.35 0 002.11-2.502H27.778a21.323 21.323 0 01-15.11-6.282 21.49 21.49 0 01-6.258-15.166v-98.515a17.444 17.444 0 011.166-6.299z" fill="#D8BAA3"/><path fill-rule="evenodd" clip-rule="evenodd" d="M89.131 202.5c0-.507.41-.919.916-.919h22.588a40.446 40.446 0 0128.647 11.921 40.76 40.76 0 0111.865 28.76v27.577c0 .508-.41.919-.916.919a.917.917 0 01-.915-.919v-27.577a38.915 38.915 0 00-11.329-27.46 38.625 38.625 0 00-27.352-11.383H90.047a.917.917 0 01-.916-.919zm-46.385 72.472a.913.913 0 011.294.049l48.11 52.072a23.626 23.626 0 016.609 8.219 23.73 23.73 0 012.384 10.363v54.828c0 3.58-1.417 7.013-3.939 9.544A13.42 13.42 0 0187.697 414H25.054a.917.917 0 01-.915-.919c0-.508.41-.919.915-.919h62.643c3.08 0 6.034-1.229 8.212-3.415a11.68 11.68 0 003.402-8.244v-54.828c0-3.312-.752-6.58-2.199-9.557a21.791 21.791 0 00-6.148-7.622l-.058-.045-48.208-52.18a.922.922 0 01.048-1.299z" fill="#D8BAA3"/><path d="M96.637 77.08s22.552-3.371 36.101 26.369c11.868 26.044 20.717 50.333 20.717 50.333s18.291 10.268 49.053 21.258v14.739s-46.919 2.736-62.575 0C128.422 187.768 96.659 145 94.452 115.99c-2.207-29.01 2.185-38.91 2.185-38.91z" fill="#374486"/><path d="M196.336 189.634c-1.737-.352-.47-5.772.549-9.115.565-1.839 1.914-2.782 3.712-3.576 3.577-1.587 9.768-2.513 13.257-1.747 5.122 1.125 8.412 3.414 11.599 7.155.916 1.069 5.418 6.214 5.418 7.587l-34.535-.304z" fill="#FAB6AD"/><path d="M75.041 65.114c-19.444 2.01-56.98 25.708-50.768 112.724 3.968 55.643 40.363 83.526 44.761 81.632 4.399-1.893 79.034-38.818 61.937-58.682-16.358-18.997-11.034-33.533-8.461-59.259 2.573-25.726 6.441-53.722-14.346-63.41C74.48 62.426 80.24 64.574 75.041 65.113z" fill="#3F4D90"/><path d="M230.857 412.676h-53.168a30.583 30.583 0 01-.058-2.451h53.287c.06.817.039 1.638-.061 2.451z" fill="#383C4D"/><path d="M183.107 387.771c.19 6.073-5.415 9.919-5.415 22.466h53.165s.772-10.525-9.86-12.952c-10.631-2.426-20.298-5.668-21.266-9.498l-16.624-.016z" fill="#FFB000"/><path d="M125.932 197.105s81.146-5.313 100.865 18.969c19.719 24.283-18.559 119.835-22.426 172.454 0 0-19.417 2.023-27.301 0-7.885-2.022-14.747-103.984 5.116-128.672 0 0-72.471 18.186-101.912-4.752-29.44-22.937 33.406-57.57 45.658-57.999z" fill="#383C4D"/><path d="M351.001 328.418l-42.173 33.885a31.716 31.716 0 01-1.62-2.236l42.007-33.745a12.158 12.158 0 011.786 2.096z" fill="#41465A"/><path d="M298.312 338.885c3.682 4.694 1.472 11.318 8.767 21.27l42.176-33.882s-5.495-8.843-15.354-3.983c-9.859 4.859-19.398 8.444-22.402 6.008l-13.187 10.587z" fill="#FFB000"/><path d="M66.776 257.543c1.22 6.855 67.224 26.529 140.687-22.039 0 0 11.398 64.063 85.636 106.561 0 0 16.346-7.292 20.79-17.109 0 0-52.371-67.192-71.018-121.643-7.833-22.84-106.347-10.89-120.748-6.208-14.402 4.682-60.768 29.896-55.347 60.438z" fill="#41465A"/><path d="M69.385 87.378c17 5.669 40.925 56.161 40.925 56.161s26.776 2.577 67.3 19.61c0 0 .934 8.852-4.405 16.105 0 0-44.566 5.797-67.746 3.416-7.838-.812-37.542-23.115-53.872-53.979-14.603-27.607-2.967-48.235 17.798-41.313z" fill="#49549A"/><path d="M177.295 163.431s11.294-5.987 16.584-4.789c5.29 1.198 11.664 5.987 12.326 7.317.662 1.33 5.302 7.85 5.302 9.312 0 1.461-14.994.919-17.094.919-2.1 0-15.973.223-18.65-.334-2.677-.558 1.532-12.425 1.532-12.425z" fill="#FFCFC9"/><path d="M194.401 176.202c2.112 0 17.094.533 17.094-.919s-4.64-7.967-5.303-9.312c-.662-1.345-7.02-6.128-12.325-7.317 0 0 6.544 9.122.522 17.56" fill="#FAB6AD"/><path d="M91.687 37.535c.338 2.647-5.543 15.963-16.038 26.317-9.209 9.079 30.402 16.105 31.44 15.875 1.038-.23 5.663-14.211 6.612-17.487.949-3.275-22.014-24.705-22.014-24.705z" fill="#FFCFC9"/><path d="M113.698 62.24c-.409 1.413-2.045 6.027-3.856 10.838-4.371-2.124-9.49-6.285-13.494-14.205-4.338-8.58-3.798-17.346-4.317-19.61a2.595 2.595 0 01.196-1.226c3.455 3.263 22.332 21.225 21.471 24.203z" fill="#FAB6AD"/><path d="M125.868 23.845c1.651 6.603 3.104 17.673.857 23.047-2.246 5.375-6.211 15.25-7.765 15.768-1.554.518-18.644-1.731-22.612-9.192-3.969-7.461-4.146-13.69-4.662-15.933-.515-2.243 8.804-20.45 20.714-20.103 11.911.346 12.988 4.498 13.468 6.413z" fill="#FFCFC9"/><path d="M133.087 20.569c-3.166 1.302-.766 4.988-6.716 5.54-5.949.551-7.325-6.769-7.325-6.769s-.678 2.927-3.663 3.925c0 0 1.59-3.1-.69-4.467-2.28-1.366-3.681.463-3.681.463s-1.988-1-3.053 1.385c-1.065 2.383.855 3.811 3.358 4.084 0 0 .229 3.542-5.369 4.081-5.599.54-6.752-2.926-6.752-2.926s-.916-.849-1.307 1.618c-.39 2.467 1.526 6.468-2.378 9.627-1.56 1.26-2.442 1.759-2.909 1.903 1.97 1.71 1.017 6.9-3.446 9.018-6.059 2.877-10.503.75-11.056-3.454-.497-3.796 1.914-2.307 1.297-5.233 0 0-3.946 2.899-6.501-1.324-2.088-3.45 1.563-5.61 1.563-5.61s-2.601-3.579-.44-6.08c2.442-2.852 6.26-1.004 5.702-2.775-.559-1.771-2.018-5.932.357-8.255 2.375-2.322 6.142-1.388 6.676-2.62.534-1.231-.226-3.064-2.68-1.994a5.505 5.505 0 012.442-3.934c2.176-1.474 5.403-1.131 7.63-.475.38-2.007 1.323-4.459 3.734-5.598 3.996-1.879 6.847.41 8.406 2.365a3.738 3.738 0 013.175-2.528c4.756-.692 8.669.549 9.585 4.397.967 4.054 8.031-5.291 11.355 2.697.68 1.633-1.096 2.923.915 4.237 1.139.745 2.601-1.685 1.463-2.537a6.91 6.91 0 013.36 2.978c.611 1.079 2.048 6.168-3.052 8.261z" fill="#FFB000"/><path fill-rule="evenodd" clip-rule="evenodd" d="M6.41 202.501c0-.508.41-.919.916-.919h27.472a40.452 40.452 0 0128.647 11.92 40.761 40.761 0 0111.865 28.761v27.576c0 .508-.41.92-.916.92a.918.918 0 01-.916-.92v-27.576a38.919 38.919 0 00-11.328-27.461 38.621 38.621 0 00-27.352-11.382H7.325a.918.918 0 01-.916-.919z" fill="#D8BAA3"/><path d="M313.074 185.394H155.65a4.42 4.42 0 00-3.13 1.301 4.454 4.454 0 000 6.284 4.42 4.42 0 003.13 1.301h157.424v-8.886z" fill="#fff"/><path fill-rule="evenodd" clip-rule="evenodd" d="M151.873 186.045a5.331 5.331 0 013.777-1.57h157.423v1.838H155.65c-.931 0-1.824.371-2.482 1.032a3.528 3.528 0 00-1.028 2.492c0 .934.369 1.83 1.028 2.491a3.502 3.502 0 002.482 1.032h157.423v1.839H155.65a5.328 5.328 0 01-3.777-1.571 5.374 5.374 0 010-7.583z" fill="#D8BAA3"/><path fill-rule="evenodd" clip-rule="evenodd" d="M271.236 199.177l-25.411 213.706a.917.917 0 01-1.018.804.918.918 0 01-.801-1.022l25.418-213.759.004-.026c.981-5.544 8.842-5.721 10.065-.223l.007.032 31.665 212.751a.916.916 0 11-1.812.272l-31.655-212.685c-.806-3.496-5.814-3.384-6.462.15z" fill="#D8BAA3"/><path d="M296.2 177.17H175.103a2.992 2.992 0 00-2.985 2.997v1.838a2.992 2.992 0 002.985 2.997H296.2a2.99 2.99 0 002.985-2.997v-1.838a2.99 2.99 0 00-2.985-2.997z" fill="#fff"/><path fill-rule="evenodd" clip-rule="evenodd" d="M175.103 178.089a2.074 2.074 0 00-2.069 2.078v1.838c0 1.148.926 2.078 2.069 2.078H296.2c1.143 0 2.069-.93 2.069-2.078v-1.838a2.074 2.074 0 00-2.069-2.078H175.103zm-3.901 2.078a3.909 3.909 0 013.901-3.916H296.2a3.909 3.909 0 013.901 3.916v1.838a3.909 3.909 0 01-3.901 3.916H175.103a3.909 3.909 0 01-3.901-3.916v-1.838z" fill="#D8BAA3"/><path d="M291.279 177.035H202.52c-2.295 0-3.837-2.215-2.912-4.188l25.073-53.535c1.422-3.034 4.618-4.992 8.147-4.992h88.762c2.295 0 3.834 2.216 2.909 4.189l-25.073 53.532c-1.419 3.033-4.615 4.994-8.147 4.994z" fill="#fff"/><path fill-rule="evenodd" clip-rule="evenodd" d="M225.51 119.703l-25.073 53.535c-.597 1.274.358 2.878 2.083 2.878h88.759c3.202 0 6.06-1.778 7.318-4.466l25.073-53.532c.598-1.276-.356-2.879-2.08-2.879h-88.762c-3.199 0-6.057 1.775-7.318 4.464zm-1.658-.783c1.585-3.378 5.118-5.519 8.976-5.519h88.762c2.867 0 4.989 2.828 3.738 5.499l-25.073 53.532c-1.581 3.378-5.115 5.522-8.976 5.522H202.52c-2.865 0-4.993-2.826-3.74-5.499l25.072-53.535z" fill="#D8BAA3"/></g><defs><clipPath id="clip0"><path fill="#fff" d="M0 0h351v414H0z"/></clipPath></defs></svg>