<svg width="155" height="250" fill="none" xmlns="http://www.w3.org/2000/svg"><path d="M90.322 189.414h-5.696v37.052h5.696v-37.052z" fill="#F0E1D4"/><path fill-rule="evenodd" clip-rule="evenodd" d="M84.133 188.924h6.681v38.032h-6.68v-38.032zm.985.981v36.07h4.712v-36.07h-4.712z" fill="#D8BAA3"/><path d="M81.779 162.001H93.17v26.011a2.677 2.677 0 01-.791 1.895 2.695 2.695 0 01-1.904.784h-6.008c-.714 0-1.4-.282-1.904-.786a2.678 2.678 0 01-.79-1.897v-26.007h.005z" fill="#fff"/><path fill-rule="evenodd" clip-rule="evenodd" d="M81.282 161.511h12.381v26.501a3.17 3.17 0 01-.935 2.243 3.195 3.195 0 01-2.253.927v-.491.491h-6.007a3.193 3.193 0 01-2.252-.93 3.168 3.168 0 01-.933-2.244v-26.497zm.985.981v25.516c0 .581.232 1.139.645 1.551.412.411.972.642 1.556.642h6.008c.583 0 1.143-.23 1.556-.641.413-.41.646-.967.647-1.549v-25.519H82.267z" fill="#D8BAA3"/><path d="M107.06 232.804v8.47h-5.44v-3.424a6.33 6.33 0 00-1.864-4.483 6.376 6.376 0 00-4.5-1.857H79.754a6.376 6.376 0 00-4.5 1.857 6.328 6.328 0 00-1.863 4.483v3.424h-5.44v-8.47a6.33 6.33 0 011.863-4.483 6.376 6.376 0 014.5-1.857h26.384c1.688 0 3.306.668 4.499 1.857a6.331 6.331 0 011.863 4.483z" fill="#F0E1D4"/><path fill-rule="evenodd" clip-rule="evenodd" d="M74.314 226.954c-1.557 0-3.05.616-4.151 1.714a5.838 5.838 0 00-1.72 4.136v7.979h4.456v-2.933a6.82 6.82 0 012.008-4.83 6.87 6.87 0 014.847-2.001h15.502a6.87 6.87 0 014.848 2.001 6.818 6.818 0 012.008 4.83v2.933h4.456v-7.979a5.843 5.843 0 00-1.719-4.136 5.886 5.886 0 00-4.151-1.714H74.314zm-4.848 1.02a6.87 6.87 0 014.848-2.001h26.384a6.872 6.872 0 014.847 2.002 6.819 6.819 0 012.007 4.829v8.96h-6.425v-3.914a5.838 5.838 0 00-1.72-4.136 5.879 5.879 0 00-4.15-1.714H79.753c-1.557 0-3.05.616-4.151 1.714a5.839 5.839 0 00-1.72 4.136v3.914h-6.425v-8.96a6.82 6.82 0 012.008-4.83z" fill="#D8BAA3"/><path d="M104.311 249.411c3.121 0 5.651-2.52 5.651-5.63s-2.53-5.631-5.651-5.631-5.65 2.521-5.65 5.631c0 3.11 2.529 5.63 5.65 5.63z" fill="#fff"/><path fill-rule="evenodd" clip-rule="evenodd" d="M104.311 238.641c-2.849 0-5.158 2.301-5.158 5.14 0 2.839 2.309 5.14 5.158 5.14s5.159-2.301 5.159-5.14c0-2.839-2.31-5.14-5.159-5.14zm-6.143 5.14c0-3.381 2.751-6.121 6.143-6.121 3.393 0 6.143 2.74 6.143 6.121 0 3.38-2.75 6.121-6.143 6.121-3.392 0-6.143-2.741-6.143-6.121z" fill="#D8BAA3"/><path d="M70.445 249.411c3.121 0 5.651-2.52 5.651-5.63s-2.53-5.631-5.65-5.631c-3.122 0-5.652 2.521-5.652 5.631 0 3.11 2.53 5.63 5.651 5.63z" fill="#fff"/><path fill-rule="evenodd" clip-rule="evenodd" d="M70.445 238.641c-2.849 0-5.158 2.301-5.158 5.14 0 2.839 2.31 5.14 5.158 5.14 2.85 0 5.159-2.301 5.159-5.14 0-2.839-2.31-5.14-5.159-5.14zm-6.143 5.14c0-3.381 2.75-6.121 6.143-6.121s6.143 2.74 6.143 6.121c0 3.38-2.75 6.121-6.143 6.121-3.392 0-6.143-2.741-6.143-6.121z" fill="#D8BAA3"/><path d="M100.665 149.004l14.044-41.126h10.042l-14.045 41.126h-10.041z" fill="#F0E1D4"/><path fill-rule="evenodd" clip-rule="evenodd" d="M114.357 107.387h11.082l-14.38 42.108H99.977l14.38-42.108zm.705.981l-13.71 40.146h9.002l13.71-40.146h-9.002z" fill="#D8BAA3"/><path d="M97.908 149.004l14.045-41.126h10.041l-14.044 41.126H97.908z" fill="#fff"/><path fill-rule="evenodd" clip-rule="evenodd" d="M111.6 107.387h11.082l-14.38 42.108H97.221l14.379-42.108zm.705.981l-13.71 40.146h9.002l13.71-40.146h-9.002z" fill="#D8BAA3"/><path d="M131.993 153.709c0 .8-1.213 1.569-3.407 2.256-6.485 2.048-21.532 3.484-39.06 3.484-16.131 0-30.16-1.216-37.35-3.008a28.79 28.79 0 01-1.712-.476c-2.193-.693-3.406-1.456-3.406-2.256 0-.679.868-1.329 2.465-1.933 5.868-2.221 21.564-3.81 40.003-3.81 23.455 0 42.467 2.572 42.467 5.743z" fill="#fff"/><path fill-rule="evenodd" clip-rule="evenodd" d="M64.858 149.527c-6.96.674-12.293 1.623-15.16 2.708-.779.294-1.343.587-1.704.867-.37.286-.444.492-.444.607 0 .138.112.401.659.758.522.341 1.324.689 2.404 1.03.507.16 1.067.316 1.681.469 7.13 1.776 21.11 2.993 37.232 2.993 17.527 0 32.506-1.439 38.912-3.462h.001c1.079-.338 1.881-.686 2.403-1.028.546-.357.659-.622.659-.76 0-.137-.109-.396-.643-.749-.51-.337-1.295-.681-2.353-1.019-2.108-.674-5.184-1.288-9.016-1.806-7.657-1.036-18.251-1.678-29.963-1.678-9.206 0-17.724.397-24.668 1.07zm-.095-.977c6.98-.676 15.53-1.074 24.763-1.074 11.743 0 22.382.643 30.095 1.687 3.853.521 6.996 1.144 9.185 1.844 1.091.349 1.975.726 2.596 1.136.598.395 1.083.91 1.083 1.566 0 .661-.494 1.182-1.102 1.58-.633.415-1.534.795-2.648 1.143-6.566 2.074-21.681 3.507-39.209 3.507-16.14 0-30.219-1.215-37.47-3.022-.63-.156-1.21-.318-1.74-.485-1.114-.351-2.015-.731-2.647-1.145-.608-.397-1.103-.916-1.103-1.578 0-.564.36-1.023.824-1.382.472-.366 1.14-.7 1.958-1.009m15.415-2.768c-6.965.675-12.414 1.632-15.415 2.768l15.415-2.768z" fill="#D8BAA3"/><path d="M131.993 153.709v4.512c0 3.17-19.012 5.74-42.467 5.74-16.131 0-30.16-1.216-37.35-3.007-3.265-.812-5.12-1.742-5.12-2.733v-4.512c0 .8 1.213 1.569 3.406 2.256a28.31 28.31 0 001.711.476c7.191 1.792 21.22 3.008 37.351 3.008 17.524 0 32.575-1.436 39.061-3.484 2.195-.693 3.408-1.456 3.408-2.256z" fill="#F0E1D4"/><path fill-rule="evenodd" clip-rule="evenodd" d="M47.548 155.209v3.012c0 .084.037.214.208.395.173.184.455.389.865.604.82.431 2.055.855 3.674 1.258 7.13 1.776 21.11 2.993 37.231 2.993 11.713 0 22.306-.642 29.963-1.677 3.832-.518 6.908-1.132 9.016-1.806 1.058-.338 1.843-.682 2.353-1.019.534-.353.643-.612.643-.748v-3.014a4.939 4.939 0 01-.119.08c-.633.414-1.534.794-2.649 1.145-6.565 2.074-21.684 3.507-39.209 3.507-16.14 0-30.218-1.215-37.47-3.022a28.403 28.403 0 01-1.74-.485c-1.114-.348-2.015-.728-2.648-1.143a4.878 4.878 0 01-.118-.08zm-.984-1.5v4.512c0 .411.195.769.474 1.066.276.294.663.559 1.124.801.924.485 2.248.932 3.894 1.342 7.251 1.806 21.33 3.022 37.47 3.022 11.742 0 22.382-.643 30.095-1.686 3.853-.521 6.996-1.144 9.185-1.844 1.091-.348 1.975-.725 2.596-1.135.598-.395 1.083-.91 1.083-1.566v-4.512h-.984c0 .138-.112.401-.659.758-.522.341-1.325.689-2.406 1.03-6.406 2.023-21.388 3.462-38.912 3.462-16.122 0-30.101-1.217-37.231-2.993v-.001a27.304 27.304 0 01-1.682-.468h-.001c-1.08-.338-1.881-.686-2.403-1.028-.546-.357-.659-.622-.659-.76h-.984zm5.611 7.245l-.119.476.12-.476z" fill="#D8BAA3"/><path d="M152.643 81.962H99.038c-1.368 0-2.614.955-3.2 2.454L81.516 126.28c-.59 1.495.319 3.218 1.685 3.218h52.926c1.772 0 3.398-1.242 4.156-3.192l14.047-41.127c.582-1.496-.319-3.217-1.686-3.217z" fill="#fff"/><path fill-rule="evenodd" clip-rule="evenodd" d="M95.38 84.239c.642-1.645 2.044-2.767 3.658-2.767h53.605c.911 0 1.625.575 2.01 1.31.385.735.479 1.682.138 2.565l-14.046 41.126-.004.01c-.815 2.096-2.598 3.505-4.615 3.505H83.2c-.91 0-1.626-.575-2.013-1.311a3.12 3.12 0 01-.135-2.566l14.324-41.863.004-.01zm.921.346l-14.324 41.864-.004.011a2.14 2.14 0 00.087 1.762c.262.499.684.785 1.14.785h52.926c1.524 0 2.991-1.071 3.693-2.869l14.047-41.126.004-.01a2.159 2.159 0 00-.09-1.766c-.261-.498-.681-.784-1.137-.784H99.038c-1.12 0-2.207.785-2.737 2.133z" fill="#D8BAA3"/><path d="M40.665 120.834l-8.839 1.373c-1.114 2.694-3.74 5.75-4.302 6.047-.608.314-3.77 2.013-3.77 2.013s-.603-1.036-.093-1.943c.335-.588 2.404-1.599 2.166-2.425-.239-.825-1.475-.729-2.022-.486-1.312.589-3.667 2.056-3.415 4.243.217 1.847-1.486 2.021-1.486 2.021s-.894-2.354-.955-2.799c-.061-.446.303-4.858 1.378-6.153.859-1.026 5.043-3.033 7.378-4.071l11.814-5.33 2.146 7.51z" fill="#FFCFC9"/><path d="M78.758 80.357s1.85 25.759-3.938 32.327c-5.786 6.569-25.368 10.402-34.366 8.362l-2.24-7.798C47.1 107.262 60.069 99.42 60.069 99.42s4.316-36.092 11.207-40.592c6.892-4.5 7.25 16.434 7.482 21.53z" fill="#FFB000"/><path fill-rule="evenodd" clip-rule="evenodd" d="M38.107 113.104a.394.394 0 01.532.165 18.275 18.275 0 012.088 7.56.392.392 0 01-.372.412.392.392 0 01-.414-.371 17.495 17.495 0 00-2-7.236.392.392 0 01.166-.53z" fill="#fff"/><path fill-rule="evenodd" clip-rule="evenodd" d="M44.281 111.855a.391.391 0 01-.157.532l-5.013 2.725a.394.394 0 01-.534-.156.391.391 0 01.157-.532l5.013-2.725a.394.394 0 01.534.156zm-1.277 3.196a.391.391 0 01-.258.491l-3.182.997a.392.392 0 11-.236-.749l3.182-.996a.394.394 0 01.494.257zm3.715 2.042a.392.392 0 01-.33.448l-6.351.983a.392.392 0 11-.12-.775l6.351-.983a.394.394 0 01.45.327zm-6.779 2.589c0-.216.177-.392.394-.392h3.12a.393.393 0 110 .785h-3.12a.393.393 0 01-.394-.393z" fill="#fff"/><path d="M62.38 250H38.318s-.329-3.845 2.756-4.379c2.611-.453 5.092-3.19 5.092-3.19s6.035 3.151 9.648-1.922c3.613-5.074 3.125-10.398 3.125-10.398 1.146 1.385 4.408 4.74 4.542 9.978a39.56 39.56 0 01-1.1 9.911z" fill="#E69900"/><path d="M36.099 145.541c-4.02.546-12.745 7.726-7.825 21.887 4.92 14.16 23.98 58.428 23.799 62.53-.242 5.477-5.907 12.473-5.907 12.473s6.035 3.151 9.648-1.922c3.613-5.074 3.123-10.398 3.123-10.398s3.11-34.136-2.276-62.055c-2.474-12.782-13.334-23.497-20.562-22.515z" fill="#FAB6AD"/><path d="M81.07 250H57.005s-.329-3.845 2.757-4.379c2.608-.453 5.091-3.19 5.091-3.19s6.035 3.151 9.648-1.922c3.613-5.074 3.123-10.398 3.123-10.398 1.148 1.385 4.408 4.74 4.544 9.978A39.567 39.567 0 0181.07 250z" fill="#FFB000"/><path d="M54.788 145.418c-3.253 2.415-6.558 7.847-1.636 22.01 4.922 14.162 17.937 58.437 17.608 62.53-.329 4.092-5.907 12.473-5.907 12.473s6.035 3.151 9.648-1.922c3.613-5.074 3.123-10.398 3.123-10.398s6.962-44.926 4.304-62.055c-1.989-12.864-18.106-29.354-27.14-22.638z" fill="#FFCFC9"/><path d="M113.89 108.259s7.732 15.302 10.668 27.122c3.204 12.901-4.899 21.461-23.037 21.614-14.548.123-11.715 9.454-11.715 9.454s-6.822 3.716-14.177 0c-7.761-3.924-11.691-1.889-17.246.245-6.993 2.702-13.294-2.501-18.713-2.829-8.131-.49-10.342 5.283-18.854.247 0 0-3.07-21.476 9.742-29.7 12.812-8.224 54.16-17.054 52.532-25.416l30.8-.737z" fill="#3F4D90"/><path d="M71.276 58.828c4.952-3.406 17.097-7.518 21.814-12.1l19.576-.94c6.363 4.934 18.273 11.527 20.985 15.498l-13.202 25.74s-5.777 18.086-6.602 21.727c-.825 3.641-21.462 4.353-31.366.706 0 0-2.953-16.087-3.89-17.03-.937-.944-6.013-3.754-5.066-10.69l-2.249-22.911z" fill="#FFB000"/><path fill-rule="evenodd" clip-rule="evenodd" d="M76.762 71.842c.196.093.28.327.186.523l-.008-.004.008.004-.002.004-.006.012-.024.05-.091.196a62.38 62.38 0 00-1.358 3.171c-.77 1.948-1.567 4.29-1.748 5.982-.36 3.373.638 5.714 1.829 7.328.598.811 1.25 1.444 1.813 1.936.262.227.503.423.714.595l.05.04c.216.176.414.337.549.473.113.115.205.292.281.46.084.184.172.415.264.683.186.537.396 1.244.62 2.058.447 1.63.955 3.71 1.432 5.758a408.993 408.993 0 011.647 7.385l.108.507.028.133.01.046-.386.081-.385.08-.01-.045-.028-.133a444.974 444.974 0 00-1.751-7.877c-.477-2.043-.982-4.112-1.425-5.728a34.626 34.626 0 00-.604-2.01 7.557 7.557 0 00-.238-.616 1.95 1.95 0 00-.088-.177c-.024-.04-.036-.053-.036-.053a6.517 6.517 0 00-.485-.416l-.051-.042c-.21-.17-.462-.374-.734-.611a12.86 12.86 0 01-1.93-2.062c-1.294-1.754-2.36-4.287-1.977-7.876.193-1.808 1.028-4.238 1.798-6.186a63.254 63.254 0 011.47-3.413l.024-.052.007-.014.002-.005.355.169-.355-.169a.395.395 0 01.525-.185zm5.997 37.805a.395.395 0 01-.466-.304l.385-.08.386-.081a.393.393 0 01-.305.465z" fill="#fff"/><path d="M87.297 123.008c-.104.602-.606 2.55-2.626 3.517-2.363 1.126-2.745 1.278-4.812 2.409-1.648.905-2.788 2.996-3.517 3.869-1.634 1.962-2.906-3.969-2.48-5.185 1.901-2.994 5.87-6.866 8.964-8.728a23.52 23.52 0 012.84-1.322c2.525-.981 6.942-2.551 11.829-4.264l2.166 7.526-12.364 2.178z" fill="#FFCFC9"/><path d="M97.479 113.255c8.888-5.985 23.834-12.061 23.834-12.061l-1.152-23.477c-.275-5.598 1.792-11.097 5.819-15.01 3.595-3.495 7.875-4.917 10.268 4.12 0 0 7.919 33.971-.197 45.863-4.923 7.224-27.343 10.398-36.341 8.37l-2.231-7.805z" fill="#FFB000"/><path fill-rule="evenodd" clip-rule="evenodd" d="M120.425 86.634a.393.393 0 01.417.368l.881 14.449-.261.106-.149-.363.149.363-.042.018a169.02 169.02 0 00-2.425 1.022 222.139 222.139 0 00-6.099 2.738c-4.843 2.265-10.779 5.27-15.197 8.245a.393.393 0 01-.44-.65c4.47-3.01 10.451-6.036 15.303-8.305a217.509 217.509 0 017.939-3.52l.402-.167-.847-13.889a.392.392 0 01.369-.415z" fill="#fff"/><path fill-rule="evenodd" clip-rule="evenodd" d="M97.099 113.104a.394.394 0 01.532.165 18.313 18.313 0 012.088 7.56.392.392 0 01-.372.412.393.393 0 01-.414-.37 17.53 17.53 0 00-2-7.237.392.392 0 01.166-.53z" fill="#fff"/><path fill-rule="evenodd" clip-rule="evenodd" d="M103.271 111.855a.391.391 0 01-.157.532l-5.011 2.725a.394.394 0 01-.534-.156.391.391 0 01.156-.532l5.011-2.725a.395.395 0 01.535.156zm-1.276 3.196a.392.392 0 01-.257.492l-3.184.996a.393.393 0 11-.236-.749l3.184-.996a.393.393 0 01.493.257zm3.715 2.042a.391.391 0 01-.328.448l-6.352.983a.393.393 0 11-.12-.775l6.351-.983a.393.393 0 01.449.327zm-6.778 2.589c0-.216.176-.392.394-.392h3.121a.393.393 0 110 .785h-3.121a.393.393 0 01-.394-.393z" fill="#fff"/><path d="M126.186 32.316s-25.99 7.835-48.18 6.778c0 0-7.385-9.166-2.987-13.202 3.974-3.643 9.27-5.795 7.069-8.692-2.202-2.898-4.32-7.167 1.89-10.614 6.21-3.447 17.37-8.81 24.171-5.605 5.019 2.374 2.24 9.024 5.263 9.128 3.499.12 7.952 2.437 6.763 8.272-1.534 7.515 8.213 1.56 6.011 13.934z" fill="#722D54"/><path fill-rule="evenodd" clip-rule="evenodd" d="M93.809 2.065c-4.414 1.235-8.771 3.07-11.855 4.782-3.043 1.689-3.974 3.532-3.948 5.251.027 1.76 1.054 3.486 2.15 4.928.598.787.724 1.532.44 2.252-.27.683-.895 1.295-1.665 1.889-.619.476-1.365.965-2.159 1.485l-.612.402c-1.025.678-2.105 1.42-3.117 2.281-1.487 1.266-2.077 2.722-2.14 4.2-.062 1.492.41 3.024 1.087 4.42.675 1.391 1.543 2.626 2.244 3.514a21.64 21.64 0 001.135 1.324l.069.071.017.018.005.005-.21.207-.211.206-.002-.002-.005-.005a22.266 22.266 0 01-1.262-1.46c-.717-.908-1.612-2.18-2.312-3.623-.699-1.44-1.213-3.074-1.144-4.699.069-1.638.73-3.249 2.346-4.623 1.04-.886 2.145-1.644 3.174-2.324l.624-.41c.791-.519 1.513-.991 2.112-1.453.759-.585 1.27-1.114 1.477-1.639.193-.489.14-1.02-.363-1.681-1.105-1.456-2.239-3.313-2.269-5.274-.03-2.002 1.084-4.017 4.251-5.774 3.126-1.735 7.527-3.588 11.983-4.835C98.096.254 102.643-.402 106.043.3l-.12.577c-3.257-.672-7.692-.05-12.114 1.188z" fill="#722D54"/><path d="M107.952 25.112s-1.061 14.097 4.725 20.677c0 0-7.318 11.044-19.817 11.512-12.5.47.242-10.572.242-10.572s3.066-4.12 2.591-14.569l12.259-7.048z" fill="#FFCFC9"/><path d="M107.871 25.157c-1.742 4.57-5.962 13.552-12.483 14.4.33-2.452.431-4.928.303-7.399l12.18-7.001z" fill="#FAB6AD"/><path d="M107.952 25.112s-3.775 9.554-13.208 9.554c-1.65 0-7.97-6.292-7.504-16.48.467-10.188 11.513-10.47 11.513-10.47s-.788 10.653 8.61 12.142c0 0 2.394-2.115 3.347-.236.953 1.88-2.758 5.49-2.758 5.49z" fill="#FFCFC9"/><path fill-rule="evenodd" clip-rule="evenodd" d="M98.472 7.435l.28.09.282.092-.002.006a1.646 1.646 0 00-.033.108 15.86 15.86 0 00-.362 1.564c-.183 1.025-.328 2.399-.188 3.812.141 1.414.566 2.849 1.508 4.016.938 1.162 2.409 2.088 4.696 2.45l-.093.581c-2.412-.382-4.022-1.371-5.063-2.662-1.037-1.285-1.487-2.842-1.635-4.327-.148-1.485.005-2.916.193-3.972a16.422 16.422 0 01.377-1.629l.029-.095.008-.025.002-.007v-.002z" fill="#722D54"/><path fill-rule="evenodd" clip-rule="evenodd" d="M110.388 23.927a2.359 2.359 0 00-2.363 2.354c0 1.3 1.058 2.354 2.363 2.354a2.358 2.358 0 002.362-2.354c0-1.3-1.058-2.354-2.362-2.354zm-3.151 2.354a3.145 3.145 0 013.151-3.14 3.145 3.145 0 013.15 3.14 3.145 3.145 0 01-3.15 3.139 3.145 3.145 0 01-3.151-3.14z" fill="#fff"/><path d="M112.449 44.936c.197-.022.636.818.473.928-2.535 1.693-10.946 4.316-16.51 2.586-7.337-2.284-2.587-4.344-1.97-3.997 1.94 1.062 9.747 1.334 18.007.483z" fill="#fff"/><path fill-rule="evenodd" clip-rule="evenodd" d="M96.558 47.981c-1.815-.565-2.812-1.097-3.31-1.535l3.31 1.535zm-3.31-1.535c-.244-.216-.34-.385-.375-.499l.376.499zm-.375-.499a.368.368 0 01.019-.278l-.02.278zm.019-.278c.098-.214.385-.446.761-.609l-.761.609zm.761-.609c.177-.076.345-.124.473-.144l-.473.144zm.473-.144a.728.728 0 01.121-.01l-.121.01zm.121-.01c.573.3 1.485.517 2.596.676 1.158.165 2.593.273 4.218.32 3.2.094 7.164-.046 11.245-.458a1.284 1.284 0 01.076.131l.019.037c-1.289.776-3.812 1.745-6.699 2.349-3.082.644-6.479.85-9.144.02m-2.288-3.074h-.004.004zm.411-.883a.862.862 0 00-.373-.098 1.648 1.648 0 00-.336.021 3.037 3.037 0 00-.71.213c-.458.198-1.016.558-1.265 1.101-.133.29-.173.622-.066.972.103.339.332.654.665.947.656.58 1.816 1.161 3.669 1.738 2.9.902 6.491.66 9.639.003 3.146-.658 5.951-1.754 7.292-2.65h.001a.583.583 0 00.249-.432.867.867 0 00-.022-.277 1.895 1.895 0 00-.166-.435 2.073 2.073 0 00-.255-.389 1.033 1.033 0 00-.19-.176.618.618 0 00-.416-.114c-4.11.424-8.104.568-11.307.474-1.602-.047-2.998-.153-4.107-.311-1.127-.16-1.9-.368-2.302-.587z" fill="#D8BAA3"/><path d="M115.461 44.089s2.757-4.12 6.671-3.561c0 0-1.931 4.259-6.671 3.56z" fill="#fff"/><path fill-rule="evenodd" clip-rule="evenodd" d="M115.461 44.089l-.409-.273-.431.645.768.113c2.548.375 4.358-.588 5.517-1.642a7.84 7.84 0 001.567-1.99 5.564 5.564 0 00.105-.206l.002-.004v-.001c.001-.001.033-.1.044-.203v-.425l-.422-.06c-2.153-.308-3.957.675-5.185 1.676a11.15 11.15 0 00-1.825 1.901l-.102.14a.913.913 0 00-.027.04l-.008.011-.002.004-.001.001.409.273zm2.179-1.61a9.975 9.975 0 00-1.229 1.196c1.729.022 2.977-.691 3.831-1.467a6.849 6.849 0 001.067-1.24c-1.445.028-2.704.724-3.669 1.51z" fill="#D8BAA3"/><path d="M115.751 44.514s7.25-.03 9.979 5.25c0 0-6.697 1.146-9.979-5.25z" fill="#fff"/><path fill-rule="evenodd" clip-rule="evenodd" d="M116.62 45.054c1.545 2.496 3.668 3.564 5.469 4.007a10.257 10.257 0 002.829.284c-1.329-2.052-3.443-3.14-5.344-3.716a15.186 15.186 0 00-2.954-.575zm9.11 4.71l.083.483.662-.113-.308-.595c-1.45-2.806-4.09-4.177-6.307-4.849a16.16 16.16 0 00-3.769-.657 9.94 9.94 0 00-.248-.008l-.067-.001h-.027l.002.49-.002-.49-.801.003.365.71c1.718 3.35 4.346 4.737 6.54 5.277a11.24 11.24 0 002.784.32 9.695 9.695 0 001.084-.073l.065-.01.018-.002.006-.001h.002l-.082-.484z" fill="#D8BAA3"/><path d="M114.128 46.194c.816 0 1.477-.66 1.477-1.472 0-.812-.661-1.471-1.477-1.471-.815 0-1.476.659-1.476 1.471 0 .813.661 1.472 1.476 1.472z" fill="#fff"/><path fill-rule="evenodd" clip-rule="evenodd" d="M114.128 43.741a.983.983 0 00-.984.981c0 .542.441.981.984.981.544 0 .985-.44.985-.98a.983.983 0 00-.985-.982zm-1.969.981c0-1.083.882-1.962 1.969-1.962 1.088 0 1.969.879 1.969 1.962a1.965 1.965 0 01-1.969 1.962 1.966 1.966 0 01-1.969-1.962z" fill="#D8BAA3"/><path d="M73.87 129.017H20.28a3.537 3.537 0 01-3.198-2.021L.773 92.554a1.848 1.848 0 01.786-2.417c.275-.151.584-.23.897-.23h52.928c.871 0 1.725.247 2.46.712a4.582 4.582 0 011.696 1.913l16.016 33.836a1.85 1.85 0 01-.787 2.419c-.276.151-.585.23-.899.23z" fill="#fff"/><path fill-rule="evenodd" clip-rule="evenodd" d="M2.455 90.496a1.273 1.273 0 00-1.074.588 1.262 1.262 0 00-.075 1.218l16.31 34.442v.001a2.946 2.946 0 002.665 1.683H73.87v.589-.589a1.275 1.275 0 001.27-1.189 1.262 1.262 0 00-.118-.619v-.001L59.005 92.783a3.994 3.994 0 00-1.478-1.667 4.013 4.013 0 00-2.144-.62H2.455zm71.414 39.109h-53.59a4.13 4.13 0 01-3.73-2.357L.238 92.805a2.435 2.435 0 011.035-3.184 2.458 2.458 0 011.182-.302" fill="#FFB000"/><path d="M103.937 129.017H18.463c-.977 0-1.768.789-1.768 1.762v.388c0 .973.791 1.762 1.768 1.762h85.474c.977 0 1.768-.789 1.768-1.762v-.388c0-.973-.791-1.762-1.768-1.762z" fill="#fff"/><path fill-rule="evenodd" clip-rule="evenodd" d="M18.463 129.605c-.65 0-1.178.526-1.178 1.173v.389c0 .648.528 1.173 1.178 1.173h85.474c.65 0 1.178-.525 1.178-1.173v-.389c0-.647-.528-1.173-1.178-1.173H18.463zm-2.359 1.173a2.354 2.354 0 012.359-2.35h85.474a2.354 2.354 0 012.359 2.35v.389a2.354 2.354 0 01-2.359 2.35H18.463a2.354 2.354 0 01-2.359-2.35v-.389z" fill="#FFB000"/></svg>