<svg width="114" height="219" fill="none" xmlns="http://www.w3.org/2000/svg"><path fill-rule="evenodd" clip-rule="evenodd" d="M30.027 175.566v-27.927h1.036v28.215L5.42 219l-.889-.535 25.496-42.899zm9.651-27.927h1.036v27.927l25.496 42.899-.89.535-25.642-43.146v-28.215z" fill="#6562CF"/><path d="M58.362 138.083H12.381c-2.623 0-4.748 2.139-4.748 4.777 0 2.639 2.125 4.778 4.748 4.778h45.981c2.622 0 4.748-2.139 4.748-4.778 0-2.638-2.126-4.777-4.748-4.777z" fill="#fff"/><path fill-rule="evenodd" clip-rule="evenodd" d="M12.38 138.517c-2.383 0-4.316 1.945-4.316 4.344 0 2.398 1.933 4.343 4.317 4.343h45.981c2.384 0 4.316-1.945 4.316-4.343 0-2.399-1.932-4.344-4.316-4.344H12.381zm-5.179 4.344c0-2.879 2.32-5.213 5.18-5.213h45.981c2.86 0 5.18 2.334 5.18 5.213 0 2.878-2.32 5.212-5.18 5.212H12.381c-2.86 0-5.18-2.334-5.18-5.212z" fill="#FFB000"/><path fill-rule="evenodd" clip-rule="evenodd" d="M34.853 218.799v-70.714h1.035v70.714h-1.035z" fill="#6562CF"/><path d="M63.017 70.095s-.965 9.515-.25 9.567c8.853.64 19.046 1.738 20.62 2.311 2.148.645 8.397 2.499 9.26 3.301 1.09 1.015 1.621 4.344 1.621 4.754 0 .41-.52 2.575-.52 2.575s-1.502.04-1.522-1.606c-.03-1.95-1.813-2.331-3.02-2.693-.504-.15-1.727.1-1.85.852-.125.752 1.791 1.39 2.15 1.883.546.738.149 1.697.14 1.716l-3.506-1.337c-.518-.197-3.153-2.582-4.429-4.82 0 0-24.947 7.782-31.15 3.866-2.345-1.479-1.9-6.215-.945-13.484l13.4-6.885z" fill="#B65A18"/><path d="M25.585 143.204c24.038.028 26.95.235 40.555-.375 0 0-.734-6.832 1.433-12.292 6.37-16.054 14.542-13.189 14.542-13.189-5.989-3.436-14.03-6.555-32.508-7.691-1.821-4.795-1.985-8.758-2.334-12.294l-30.583-.045s-4.113 7.49-8.173 22.617c-3.944 14.693 7.425 23.259 17.068 23.269z" fill="#3F4D79"/><path d="M89.976 148.986c1.062-5.778-.185-15.509-8.85-14.06-8.665 1.449-7.134 7.019-7.125 10.709.024 10.62-3.555 15.984-4.726 25.123-1.616 12.622.984 27.864 3.32 37.918l-1.914 4.265s3.327 3.128 11.003 3.649c7.676.521 2.206-2.855 2.206-2.855-3.753-3.718-5.811-6.397-4.844-13.471.692-5.068 9.297-42.384 10.93-51.278z" fill="#B65A18"/><path d="M71.461 211.051s-3.935 7.733 1.036 7.747c2.125 0 18.646-.049 18.646-.049s.644-3.97-4.806-4.71c-.758-.102-2.492-.347-2.492-.347s2.001 2.42-2.463 2.024c-7.468-.667-7.54-5.459-9.92-4.665z" fill="#3F4D79"/><path d="M77.174 117.908c7.912-3.836 8.916 6.209 7.686 10.897-.502 1.937-5.787 17.309-7.406 22.506-1.62 5.196-13.824 35.648-15.078 53.723-.014.197-1.84 4.876-6.243-8.567-1.633-4.991 2.728-4.43 2.481-6.628-1.191-10.57-2.909-33.019-.48-45.172.98-4.906 7.3-21.069 19.04-26.759z" fill="#C36F0B"/><path d="M58.483 190.48s-8.242.781-5.825 5.15c1.036 1.866 9.863 17.258 9.863 17.258s3.408-1.39 1.382-6.526c-.284-.716-1.34-3.278-1.34-3.278s-1.209 2.873-2.885-1.307c-2.554-6.343.471-7.884-1.195-11.297z" fill="#3F4D79"/><path d="M50.436 95.662s2.042-11.196 5.725-22.03c0 0 1.309-.66 10.198-5.212 0 0 .214-12.761-6.372-18.818-4.35-3.996-13.256-6.95-13.256-6.95l-17.12-.919c-3.301.197-11.583 1.203-18.972 7.082C3.334 54.625.04 61.206.04 61.206s9.67 2.284 16.707 10.692l-4.924 23.764s5.696 3.195 18.934 3.543c16.17.416 19.679-3.543 19.679-3.543z" fill="#DBDAFF"/><path d="M58.58 82.087c-.054 2.01-5.007.484-5.04 1.261a1.003 1.003 0 00.173.766c.228.322.378.742.06 1.362-.425.83.991 1.043.561 2.382-.43 1.34.235 1.17.318 2.546.091 1.555-6.414 2.904-8.356 2.147a1.354 1.354 0 01-.5-.358c-2.712.097-41.734 1.404-44.819-3.065-3.543-5.123 3.685-26.273 3.685-26.273 6.885 2.568 12.617 9.045 12.617 9.045l-1.773 7.48c10.787.563 22.838 4.17 29.037 6.254.035-1.176.33-1.92.518-2.705.154-.64.895-1.878 3.483-1.942 2.588-.064 10.065.05 10.036 1.1z" fill="#C36F0B"/><path d="M4.662 62.855s6.662 1.88 12.617 9.044l-.658 2.809s-5.756-5.256-13.413-6.88l1.454-4.973z" fill="#B65A18"/><path d="M64.453 21.667c-1.15 2.668-.266 3.56-.09 4.359.173.771.033 5.3-6.29 5.2a2.805 2.805 0 00-.507 2.516 2.17 2.17 0 001.026 1.3c.5.279 1.089.347 1.638.19.42-.121.774-.405.987-.788.213-.384.267-.837.15-1.26a1.264 1.264 0 00-.598-.76 1.248 1.248 0 00-.956-.109.949.949 0 00-.642 1.162.682.682 0 00.574.492c.089.01.179.003.264-.022a.343.343 0 01.428.239.35.35 0 01-.238.43c-.349.1-.723.056-1.04-.122a1.378 1.378 0 01-.652-.825 1.645 1.645 0 01.553-1.731 1.62 1.62 0 01.564-.291 1.935 1.935 0 011.479.172c.45.253.783.675.925 1.174.168.6.095 1.241-.205 1.786-.3.545-.802.948-1.396 1.122a2.832 2.832 0 01-2.497-.472 2.862 2.862 0 01-1.018-1.503 3.495 3.495 0 01.357-2.742c-7.121-.44-27.65 10.543-27.65 10.543s-4.42 1.289-5.747-1.564c0 0-6.985.367-8.4-3.996-.56-1.729-.414-3.009-.03-3.926-.38.22-.806.35-1.243.382h-.173c-.724 0-1.42-.28-1.948-.779a2.873 2.873 0 01-.89-1.909 2.37 2.37 0 01.594-1.701 2.34 2.34 0 011.614-.783c.515-.029 1.02.15 1.405.495.384.345.617.83.648 1.348.024.433-.124.857-.41 1.181-.287.323-.69.52-1.12.544a1.364 1.364 0 01-.99-.347 1.382 1.382 0 01-.455-.949.349.349 0 01.325-.367.345.345 0 01.366.327.686.686 0 00.454.606c.084.03.173.042.262.037a.933.933 0 00.644-.313.945.945 0 00.236-.679 1.268 1.268 0 00-.417-.871 1.25 1.25 0 00-.909-.317 1.64 1.64 0 00-1.139.553 1.661 1.661 0 00-.414 1.203c.034.574.292 1.11.719 1.492a2.14 2.14 0 001.556.544c.99-.057 2.051-.995 2.605-2.097-.837-1.053-2.658-3.78-1.914-6.751.882-3.529 4.333-4.229 4.333-4.229s-3.107-6.576 2.763-9.742c1.562-.842 2.968-1.132 4.195-1.101a3.163 3.163 0 01-.381-.504 1.864 1.864 0 01.509-2.476 1.39 1.39 0 011.617.023c.16.114.294.26.396.429a1.319 1.319 0 01-.363 1.757.344.344 0 01-.48-.093.35.35 0 01.092-.483.61.61 0 00.162-.816.753.753 0 00-.483-.348.712.712 0 00-.553.112 1.15 1.15 0 00-.309 1.542c.202.332.972 1.378 2.326.886a4.617 4.617 0 01.283-1.866c.162-.413.416-.784.74-1.085.4-.353.883-.596 1.402-.706a6.21 6.21 0 012.278-.034s.254-2.151 2.653-3.025C39.68 0 43.107 2.446 43.107 2.446s3.142-3.694 7.652-2.003c3.908 1.468 4.354 4.248 4.404 4.953a2.44 2.44 0 001.604-.44c1.164-.852.734-2.084.575-2.432a1.138 1.138 0 00-1.443-.608.713.713 0 00-.401.4.762.762 0 00.019.6.606.606 0 00.766.32.344.344 0 01.45.195.35.35 0 01-.194.452c-.31.118-.653.113-.959-.014a1.307 1.307 0 01-.69-.67 1.46 1.46 0 01-.03-1.146 1.407 1.407 0 01.786-.783c.438-.167.922-.16 1.354.02.432.179.78.517.974.946.44.982.46 2.36-.798 3.284-.041.03-.084.06-.13.09.667.099 1.35.31 1.751.75.972 1.069 0 2.492 0 2.492s2.431.445 3.205 2.314c.773 1.87-.465 2.848.95 4.182 1.417 1.334 2.654 3.649 1.501 6.319z" fill="#3F4D79"/><path d="M40.62 30.038s.046-13.356 10.569-13.177c10.523.18 6.12 14.332 6.12 14.332l-16.69-1.155z" fill="#fff"/><path d="M40.628 29.593S38.565 36.23 29.61 41.732c0 0 10.084 4.404 18.3 1.202l-7.283-13.341z" fill="#C36F0B"/><path d="M47.919 42.933a18.042 18.042 0 01-5.825 1.15c-4.469-3.918-2.176-12.674-1.61-14.045.042-.101.102-.228.173-.377l7.262 13.272z" fill="#B65A18"/><path d="M40.62 30.038c-.7 1.692 3.052 12.896 7.299 12.896 4.95 0 14.278-15.664 7.29-19.401-6.986-3.737-13.925 4.889-14.59 6.505z" fill="#C36F0B"/><path d="M32.815 92.575H114v4.568H32.815c-.601 0-1.178-.24-1.604-.668a2.292 2.292 0 01-.001-3.229 2.263 2.263 0 011.605-.67z" fill="#fff"/><path fill-rule="evenodd" clip-rule="evenodd" d="M32.815 93.011c-.487 0-.955.195-1.3.542a1.857 1.857 0 000 2.616c.345.346.813.541 1.3.541H114v.869H32.815a2.693 2.693 0 01-1.91-.796 2.727 2.727 0 01-.792-1.921h.432-.432c0-.721.285-1.413.792-1.923a2.693 2.693 0 011.91-.796H114v.868H32.815z" fill="#FFB000"/><path fill-rule="evenodd" clip-rule="evenodd" d="M101.985 63.256a1.159 1.159 0 00-.564-.144H62.288a3.47 3.47 0 00-1.864.543 3.498 3.498 0 00-1.286 1.463l-12.043 25.55a1.18 1.18 0 00.068 1.129 1.166 1.166 0 00.984.545h39.132c.66 0 1.306-.188 1.863-.542a3.504 3.504 0 001.288-1.46l12.045-25.55h.001a1.186 1.186 0 00-.066-1.133 1.173 1.173 0 00-.425-.4zm-.564-.318a1.338 1.338 0 011.339 1.266 1.34 1.34 0 01-.129.66m0 0l-12.045 25.55a3.678 3.678 0 01-1.352 1.532 3.644 3.644 0 01-1.955.57H48.147a1.33 1.33 0 01-1.13-.627 1.35 1.35 0 01-.078-1.295l12.043-25.55a3.67 3.67 0 011.35-1.536 3.639 3.639 0 011.956-.57h39.132l.001.087v-.087" fill="#000"/><path d="M87.412 92.429H48.28a1.243 1.243 0 01-1.057-.586 1.264 1.264 0 01-.072-1.212l12.043-25.55a3.59 3.59 0 011.318-1.498 3.557 3.557 0 011.91-.558h39.133a1.242 1.242 0 011.057.586 1.265 1.265 0 01.072 1.213L90.641 90.377a3.587 3.587 0 01-1.32 1.497 3.556 3.556 0 01-1.909.555z" fill="#EAEEFF"/><path fill-rule="evenodd" clip-rule="evenodd" d="M101.907 63.638a.728.728 0 00-.353-.091H62.421a3.058 3.058 0 00-2.76 1.757l-12.043 25.55a.74.74 0 00.308.963c.108.06.23.091.353.091h39.133v.521-.521a3.04 3.04 0 001.633-.475c.489-.31.88-.754 1.128-1.28L102.215 64.6a.746.746 0 00-.042-.71.73.73 0 00-.266-.252zM87.412 92.95H48.28a1.759 1.759 0 01-1.495-.828 1.787 1.787 0 01-.102-1.715l12.042-25.55a4.11 4.11 0 011.51-1.715 4.073 4.073 0 012.186-.638h39.133a1.757 1.757 0 011.495.83 1.793 1.793 0 01.102 1.713" fill="#6562CF"/><path d="M48.616 91.787l11.8-25.041a3.518 3.518 0 011.293-1.468 3.486 3.486 0 011.872-.546h36.452a1.218 1.218 0 011.036.575 1.24 1.24 0 01.07 1.188L89.95 90.245a2.264 2.264 0 01-.826.943c-.358.23-.773.353-1.197.355l-39.31.244z" fill="#fff"/><path d="M66.92 77.948v13.838h7.996L66.92 77.948z" fill="#EAEEFF"/><path fill-rule="evenodd" clip-rule="evenodd" d="M67.435 78.438h20.73l8.095 14.01H75.53l-8.095-14.01zm.3.174l7.895 13.663h20.33l-7.895-13.663h-20.33z" fill="#000"/><path d="M94.744 92.362H75.681l-7.996-13.837H86.75l7.995 13.837z" fill="#C7BFFF"/><path d="M96.644 92.362H77.58l-7.996-13.837h19.064l7.996 13.837z" fill="#fff"/><path fill-rule="evenodd" clip-rule="evenodd" d="M66.685 78.075h21.728l8.597 14.88H75.282l-8.597-14.88zm1.8 1.043l7.393 12.794H95.21l-7.393-12.794H68.485z" fill="#6562CF"/></svg>