<svg width="162" height="482" fill="none" xmlns="http://www.w3.org/2000/svg"><path d="M90 72.92c18.276 0 33.092-14.734 33.092-32.91 0-18.177-14.816-32.911-33.093-32.911-18.276 0-33.091 14.734-33.091 32.91 0 18.177 14.815 32.912 33.091 32.912z" fill="#2F2E41"/><path d="M79.293 62.273S83.835 92.603 75.4 99.7c-8.435 7.099 13.626 36.783 13.626 36.783l29.848-47.753s-22.71-5.808-11.031-23.232l-28.55-3.226z" fill="#FFC5D3"/><path d="M68.263 151.326l-4.536 17.708-4.548 17.785-15.573-1.291 7.137-29.685s-1.297-27.748-1.946-34.201a8.697 8.697 0 01.266-3.537 3.984 3.984 0 011.342-2.038c.65-.523 1.45-.83 2.285-.878l15.573 36.137z" fill="#575A89"/><path d="M85.782 398.482l-19.466 3.872-1.895-16.462-6.82-59.376-1.667-14.506 22.71-6.454-.149 5.163-.5 17.423a71.936 71.936 0 012.174 10.377 110.55 110.55 0 011.07 19.953c-.648 18.069 4.543 40.01 4.543 40.01z" fill="#FFC5D3"/><path d="M65.018 401.063l20.115-5.808 11.03 27.103 15.573 36.138s20.115 26.458-1.297 23.231c-21.413-3.226-24.657-8.389-24.657-10.97v-4.517l-2.596.645-1.946-1.936-2.596-19.359s-5.84-5.163-3.244-12.261l-10.382-32.266z" fill="#2F2E41"/><path opacity=".2" d="M80.17 338.519l-.228.594s-3.38 31.362-14.346 44.72l-1.175 2.059-6.82-59.376 4.283-15.797h16.611l-.5 17.423a71.95 71.95 0 012.174 10.377z" fill="#000"/><path d="M89.026 310.719l-11.03 28.394s-3.381 31.365-14.343 44.721l-14.207 24.973s-16.87-5.808-15.573-5.808c1.298 0 11.03-32.911 11.03-32.911l9.085-37.428 5.95-21.941h29.088z" fill="#FFC5D3"/><path d="M55.285 401.063l-20.114-5.808-11.03 27.103-15.574 36.138s-20.114 26.458 1.298 23.231c21.413-3.226 24.657-8.389 24.657-10.97v-4.517l2.595.645 1.947-1.936 2.595-19.359s5.84-5.163 3.245-12.261l10.381-32.266z" fill="#2F2E41"/><path d="M95.19 70.985c12.543 0 22.711-10.112 22.711-22.586 0-12.474-10.168-22.586-22.71-22.586-12.543 0-22.71 10.112-22.71 22.586 0 12.474 10.167 22.586 22.71 22.586z" fill="#FFC5D3"/><path opacity=".2" d="M68.263 151.326l-4.536 17.708-3.9-.284a11.102 11.102 0 00-1.297-4.518c-1.298-2.581 0-.645 2.595-3.226 2.596-2.581.65-1.291-1.297-4.517-1.947-3.227 1.297-10.325 1.297-10.325-3.633-2.582-8.435-30.975-8.435-30.975l15.573 36.137z" fill="#000"/><path d="M89.675 126.804L76.05 97.12l-25.955 18.069s8.436 27.748 12.978 30.975c0 0-3.245 7.098-1.298 10.325 1.947 3.226 3.893 1.936 1.298 4.517-2.596 2.581-3.893.645-2.596 3.227a11.092 11.092 0 011.298 4.517l61.642 4.517 3.893-10.97s7.786-14.843 5.191-35.493l9.733-35.492-27.252-4.517-25.306 40.009z" fill="#575A89"/><path d="M125.488 169.53s10.905 23.742-.125 62.46c-11.031 38.719-20.764 79.374-20.764 79.374l-49.962 5.808-1.298-22.586-17.52-2.581s2.596-72.921 10.382-90.99c7.787-18.068 15.208-34.397 15.208-34.397l64.079 2.912z" fill="#2F2E41"/><path opacity=".2" d="M65.338 214.789l-12.303 79.378 1.282.196 12.303-79.377-1.282-.197z" fill="#000"/><path d="M112.283 30.412a15.55 15.55 0 00-7.876-8.645c-4.527-2.144-9.803-1.972-14.765-1.258-5.723.824-11.739 2.547-15.435 6.97-2.37 2.839-3.51 6.47-4.594 9.998-1.255 4.079-2.52 8.22-2.63 12.483.016 2.953.31 5.898.879 8.797a13.025 13.025 0 001.342 4.573c.812 1.378 2.294 2.486 3.897 2.386A16.911 16.911 0 0174.183 47.5a33.248 33.248 0 013.03-3.35l8.248-8.33c2.53-2.555 5.174-5.185 8.552-6.44a12.716 12.716 0 0111.736 1.643 12.333 12.333 0 013.401 3.873c.605 1.07 2.007 4.52 2.007 4.52s1.625-7.627 1.126-9.003z" fill="#2F2E41"/><path d="M72.805 52.916c1.254 0 2.27-2.023 2.27-4.517 0-2.495-1.016-4.518-2.27-4.518-1.255 0-2.271 2.023-2.271 4.517 0 2.495 1.016 4.518 2.27 4.518z" fill="#FFC5D3"/><path d="M75.076 20.65c5.734 0 10.382-4.623 10.382-10.325C85.458 4.623 80.81 0 75.076 0S64.694 4.623 64.694 10.325c0 5.702 4.648 10.325 10.382 10.325z" fill="#2F2E41"/><path d="M99.815 210.444H61.164a3.675 3.675 0 01-2.594-1.069 3.637 3.637 0 01-1.074-2.579l-1.703-50.298a3.633 3.633 0 011.074-2.579 3.693 3.693 0 012.594-1.069h42.058a3.68 3.68 0 012.593 1.069 3.638 3.638 0 011.075 2.579l-1.704 50.298c0 .967-.386 1.895-1.074 2.579a3.676 3.676 0 01-2.594 1.069z" fill="#3F3D56"/><path d="M80.49 171.484a3.397 3.397 0 003.406-3.388 3.397 3.397 0 00-3.406-3.388 3.397 3.397 0 00-3.407 3.388 3.397 3.397 0 003.407 3.388z" fill="#D0CDE1"/><path d="M126.66 169.395l-21.848 2.509s-37.198-1.864-28.114 9.107c9.084 10.97 29.848 1.936 29.848 1.936l27.252-1.291-7.138-12.261zm-79.232 6.112s-7.216 3.182-3.682 9.022c3.533 5.84 20.246 11.747 22.418 3.061 2.172-8.686-10.34-11.426-13.447-11.839a27.845 27.845 0 00-5.289-.244z" fill="#FFC5D3"/><path d="M134.447 93.893l7.786-2.581a17.497 17.497 0 015.191 9.034c1.298 5.808 22.061 71.63 11.679 76.793-10.381 5.162-28.55 13.551-28.55 13.551l-8.435-21.94 13.626-7.099-5.191-28.394s-5.19-39.364 3.894-39.364z" fill="#575A89"/></svg>