<svg width="213" height="317" fill="none" xmlns="http://www.w3.org/2000/svg"><g clip-path="url(#clip0)"><path d="M86.537 222.267H23.143a22.402 22.402 0 01-15.85-6.572A22.454 22.454 0 01.73 199.828V162.47c0-2.488.987-4.873 2.744-6.632a9.362 9.362 0 016.624-2.747h47.85a6.172 6.172 0 014.37 1.808 6.181 6.181 0 011.806 4.376v40.553a22.454 22.454 0 006.565 15.867 22.401 22.401 0 0015.849 6.572z" fill="#fff"/><path fill-rule="evenodd" clip-rule="evenodd" d="M60.033 154.233a5.43 5.43 0 00-2.086-.413h-47.85a8.636 8.636 0 00-6.11 2.534 8.654 8.654 0 00-2.53 6.116v37.358a21.724 21.724 0 006.352 15.351 21.675 21.675 0 0015.334 6.359h55.311a23.135 23.135 0 01-8.281-5.328 23.181 23.181 0 01-6.779-16.382v-40.555a5.451 5.451 0 00-1.593-3.858 5.438 5.438 0 00-1.768-1.182zm26.504 67.305v1.459H23.143a23.126 23.126 0 01-16.365-6.787A23.182 23.182 0 010 199.828V162.47c0-2.681 1.064-5.252 2.957-7.148a10.09 10.09 0 017.14-2.961h47.849a6.894 6.894 0 016.383 4.267 6.91 6.91 0 01.523 2.648v40.552a21.724 21.724 0 006.351 15.351 21.675 21.675 0 0015.334 6.359z" fill="#D8BAA3"/><path d="M96.153 217.501a4.768 4.768 0 01-4.758 4.766H23.143a22.386 22.386 0 01-15.85-6.572A22.45 22.45 0 01.73 199.828V162.47c0-2.488.987-4.873 2.744-6.632a9.362 9.362 0 016.624-2.747h.729a9.353 9.353 0 00-2.81 6.704v37.358c-.003 2.408.382 4.8 1.141 7.086a12.428 12.428 0 004.52 6.161 12.404 12.404 0 007.267 2.349h70.438a4.763 4.763 0 013.369 1.387 4.765 4.765 0 011.402 3.365z" fill="#F0E1D4"/><path fill-rule="evenodd" clip-rule="evenodd" d="M9.198 153.867a8.638 8.638 0 00-5.21 2.487 8.654 8.654 0 00-2.53 6.116v37.358a21.731 21.731 0 006.35 15.351 21.682 21.682 0 0015.335 6.359h68.251a4.035 4.035 0 004.03-4.035 4.038 4.038 0 00-2.497-3.721 4.04 4.04 0 00-1.543-.303H20.945a13.137 13.137 0 01-7.694-2.487 13.162 13.162 0 01-4.786-6.523 23.151 23.151 0 01-1.178-7.317v-37.357h.728l-.728.001a10.087 10.087 0 011.911-5.929zm0 0c.297-.031.597-.047.899-.047h.729v-.729l-.51-.522a10.433 10.433 0 00-1.118 1.298zm86.955 63.634h.728a5.49 5.49 0 01-5.487 5.496h-68.25a23.126 23.126 0 01-16.365-6.787A23.164 23.164 0 010 199.828V162.47c0-2.681 1.064-5.252 2.957-7.148a10.09 10.09 0 017.14-2.961h2.517l-1.279 1.252a8.612 8.612 0 00-2.591 6.18v37.36a21.69 21.69 0 001.104 6.855 11.685 11.685 0 0011.096 8.012h70.438a5.478 5.478 0 013.883 1.599 5.492 5.492 0 011.617 3.88l-.73.002z" fill="#D8BAA3"/><path d="M35.73 222.255h34.6v4.238a3.445 3.445 0 01-3.44 3.444H39.167a3.445 3.445 0 01-3.44-3.444v-4.238h.003z" fill="#fff"/><path fill-rule="evenodd" clip-rule="evenodd" d="M34.998 221.525H71.06v4.968a4.168 4.168 0 01-4.168 4.173H39.166a4.168 4.168 0 01-4.168-4.173v-4.968zm1.457 1.459v3.509a2.715 2.715 0 002.711 2.714h27.726a2.709 2.709 0 002.71-2.714v-3.509H36.456z" fill="#D8BAA3"/><path d="M56.673 229.946h-7.286v58.414h7.286v-58.414z" fill="#F0E1D4"/><path fill-rule="evenodd" clip-rule="evenodd" d="M48.658 229.217h8.744v59.872h-8.744v-59.872zm1.457 1.459v56.954h5.83v-56.954h-5.83z" fill="#D8BAA3"/><path d="M57.101 288.36h-8.142a2.974 2.974 0 00-2.973 2.976v9.117a2.975 2.975 0 002.973 2.976h8.142a2.975 2.975 0 002.973-2.976v-9.117a2.974 2.974 0 00-2.973-2.976z" fill="#fff"/><path fill-rule="evenodd" clip-rule="evenodd" d="M48.96 289.089a2.246 2.246 0 00-2.245 2.247v9.117a2.245 2.245 0 002.244 2.246h8.142a2.245 2.245 0 002.244-2.246v-9.117a2.246 2.246 0 00-2.244-2.247h-8.142zm-3.702 2.247a3.704 3.704 0 013.701-3.706h8.142a3.704 3.704 0 013.702 3.706v9.117a3.703 3.703 0 01-3.702 3.705h-8.142a3.703 3.703 0 01-3.701-3.705v-9.117z" fill="#D8BAA3"/><path fill-rule="evenodd" clip-rule="evenodd" d="M34.335 304.158a12.82 12.82 0 00-9.07 3.761A12.851 12.851 0 0021.508 317H20.05c0-3.793 1.505-7.43 4.183-10.112a14.276 14.276 0 0110.1-4.189h37.391c3.789 0 7.422 1.507 10.101 4.189A14.309 14.309 0 0186.01 317h-1.458a12.85 12.85 0 00-3.757-9.081 12.82 12.82 0 00-9.07-3.761h-37.39z" fill="#D8BAA3"/><path fill-rule="evenodd" clip-rule="evenodd" d="M48.014 304.168a6.796 6.796 0 00-4.809 1.994 6.814 6.814 0 00-1.991 4.815V317h-1.458v-6.023a8.27 8.27 0 012.419-5.846 8.252 8.252 0 015.84-2.422H58.05c2.19 0 4.29.871 5.84 2.422a8.27 8.27 0 012.418 5.846V317h-1.457v-6.023a6.814 6.814 0 00-1.992-4.815 6.796 6.796 0 00-4.81-1.994H48.016z" fill="#D8BAA3"/><path d="M31.986 153.149S.923 197.71 33.033 209.197c18.413 6.59 52.838 6.957 78.854 6.079a47.443 47.443 0 0027.224-9.756 47.537 47.537 0 0016.523-23.755l.95-3.078s-5.278-18.175-86.45-25.599c0 0-17.148 3.47-38.148.061zM213 317h-18.005c-2.242 0-6.558-9.09-8.115-9.012-1.557.078-2.934 9.012-2.934 9.012h-1.385c-6.189-17.751 2.252-20.886 2.252-20.886l.048.032c1.615 8.511 13.583 10.213 16.031 10.475l.437.285s5.718 5.724 8.501 6.111c2.784.386 3.17 3.983 3.17 3.983z" fill="#722D54"/><path d="M154.736 176.931c11.192 3.431 16.691 81.062 46.596 129.975 0 0-14.953-1.046-16.517-10.792 0 0-45.391-45.778-46.603-73.108-1.212-27.329 9.64-48.186 16.524-46.075z" fill="#B65A18"/><path d="M164.437 317h-18.001c-2.242 0-6.558-9.09-8.113-9.012-1.554.078-2.936 9.012-2.936 9.012h-1.385c-6.188-17.751 2.252-20.886 2.252-20.886l.036.025.015.046c-2.786 8.812 15.526 11.03 16.951 11.185 1.436 1.382 5.723 5.326 8.016 5.644 2.783.389 3.165 3.986 3.165 3.986z" fill="#722D54"/><path d="M136.305 296.178s-18.503-58.453-13.558-81.366c6.024-27.894 22.241-42.988 30.007-37.881 7.765 5.106-13.321 83.688-5.611 119.247.949 4.377 6.201 11.185 6.201 11.185s-19.937-2.011-17.039-11.185z" fill="#C36F0B"/><path d="M70.62 65.227s.867 14.537 15.324 40.427c6.138 10.993-6.762 18.481-7.124 19.803-.362 1.323-8.2 28.847-8.2 28.847s-16.76 5.07-39.183 0c0 0-6.63-65.762-2.412-75.438 3.738-8.569 21.946-19.071 21.946-19.071s8.559 5.551 19.65 5.432z" fill="#F0E1D4"/><path fill-rule="evenodd" clip-rule="evenodd" d="M44.977 63.753a.607.607 0 01.847.14c3.673 5.132 7.498 7.162 10.36 7.93a12.18 12.18 0 003.487.43 8.537 8.537 0 001.083-.097l5.154-6.79a.607.607 0 011.028.097l.001.004.007.013a16.84 16.84 0 00.132.262c.093.18.227.44.394.757.335.634.802 1.493 1.332 2.395.53.904 1.12 1.844 1.7 2.642.59.814 1.13 1.424 1.556 1.724a.608.608 0 01-.699.995c-.602-.424-1.24-1.178-1.84-2.005a34.867 34.867 0 01-1.764-2.74 63.28 63.28 0 01-1.463-2.64l-4.712 6.207a.606.606 0 01-.34.223l-.143-.59.143.59h-.001l-.003.001-.008.002-.025.005a6.197 6.197 0 01-.39.069 9.767 9.767 0 01-1.107.092c-.943.027-2.27-.052-3.836-.472-3.145-.843-7.203-3.044-11.033-8.396a.608.608 0 01.14-.848zm8.605 52.508a.607.607 0 01.828.226c2.42 4.244 6.466 5.529 9.996 5.737a20.78 20.78 0 005.942-.538c.163-.039.288-.073.372-.095l.094-.027.015-.004.007-.002.005-.002.175.582.176.582a.608.608 0 00-.351-1.164m.175.582c.176.582.175.582.175.583l-.003.001-.009.002a1.084 1.084 0 00-.03.009l-.109.03c-.095.026-.232.062-.408.105-.35.085-.854.194-1.473.297a21.981 21.981 0 01-4.824.273c-3.756-.222-8.278-1.612-10.98-6.348a.608.608 0 01.227-.829" fill="#D8BAA3"/><path d="M106.966 148.712a1.795 1.795 0 01-2.217-.202c-.707-.611-1.909-2.072-2.878-2.872a44.31 44.31 0 011.858 4.465 14.593 14.593 0 01-4.642-.244c-1.282-.257-2.915-2.687-4.554-4.087-1.64-1.401-4.707-.292-7.935-.46-3.228-.168-5.959-4.554-5.959-4.554s-51.677 11.608-59.804 2.918c-2.001-2.138-2.876-4.168-2.73-5.963-.58-6.478.066-14.799 1.35-22.743 4.22 1.483 11.934 3.91 19.645 4.885-.66 4.18-1.343 7.986-1.863 10.75 7.94.601 41.061 3.137 45.632 3.925 4.902.837 14.702 5.736 16.376 6.471 1.418.503 4 2.735 4.795 3.577.794.841 2.926 4.134 2.926 4.134z" fill="#C36F0B"/><path d="M39.105 119.853c-.124.792-.243 1.57-.376 2.329-8.744-1.347-16.57-.333-20.274.343.26-2.51.602-5.053 1.008-7.558 4.209 1.484 11.92 3.91 19.642 4.886z" fill="#B65A18"/><path d="M32.304 74.05c-4.857 4.515-10.947 20.749-16.13 39.699 0 0 12.492 5.07 24.428 6.276 0 0 5.545-24.864 5.423-37.66-.121-12.795-7.301-14.263-13.72-8.316z" fill="#F0E1D4"/><path fill-rule="evenodd" clip-rule="evenodd" d="M45.21 99.63a.607.607 0 01.478.713 560.91 560.91 0 01-4.174 19.418l-.071.302-.025.103-.59-.141-.591-.142.024-.102.071-.3a489.43 489.43 0 001.235-5.404 559.109 559.109 0 002.93-13.968.607.607 0 01.712-.48zm-4.524 20.986a.608.608 0 01-.45-.733l.591.142.59.141a.607.607 0 01-.731.45z" fill="#D8BAA3"/><path fill-rule="evenodd" clip-rule="evenodd" d="M93.681 141.208a.365.365 0 01.496-.139l-.179.318-.178.318a.365.365 0 01-.139-.497zm4.624 2.185l-2.734-1.538-1-.564-.394-.222-.179.318-.178.318.394.222 1 .564 2.735 1.539.002.001.001.001c.071.039.196.144.372.339.169.186.362.43.57.713.418.568.883 1.277 1.321 1.974a74.688 74.688 0 011.49 2.488l.097.169.025.044.008.014.317-.179-.317.179a.363.363 0 10.634-.358l-.317.179.317-.179-.008-.016-.026-.045-.098-.171a73.293 73.293 0 00-1.505-2.513 34.22 34.22 0 00-1.35-2.018 10.219 10.219 0 00-.618-.771c-.183-.203-.375-.386-.56-.488z" fill="#B65A18"/><path fill-rule="evenodd" clip-rule="evenodd" d="M91.93 142.032a.364.364 0 01.496-.138l-.179.317-.179.318a.365.365 0 01-.138-.497zm4.268 2.822l-2.735-1.539-1-.564-.395-.222.18-.318.178-.317.394.222 1 .563 2.735 1.539c.173.098.355.259.531.44.182.186.377.414.577.665.4.501.834 1.111 1.232 1.697.398.587.764 1.155 1.03 1.577.134.211.242.385.318.507l.086.141.023.037.008.013-.284.173.284-.173a.364.364 0 11-.623.379l-.007-.012-.022-.036-.085-.139a57.4 57.4 0 00-1.33-2.057 27.408 27.408 0 00-1.2-1.652 8.357 8.357 0 00-.528-.61 1.877 1.877 0 00-.367-.314z" fill="#B65A18"/><path d="M57.842 41.932s1.086 11.346-6.871 17.863c0 0 10.126 6.76 19.65 5.433l3.376-14.364-16.155-8.932z" fill="#C36F0B"/><path d="M73.999 50.864l-3.376 14.364-.418.05c-10.954-5.193-12.21-18.213-12.346-20.622.054-.908.049-1.817-.017-2.724l16.157 8.932z" fill="#B65A18"/><path d="M57.842 41.932s1.635 14.845 20.444 17.199c0 0 9.312-5.525 8.231-23.663-.874-14.694-17.636-18.17-23.965-10.02-6.33 8.148-4.71 16.484-4.71 16.484z" fill="#C36F0B"/><path fill-rule="evenodd" clip-rule="evenodd" d="M89.445 20.48c-2.45-3.146-6.104-4.88-8.358-5.368l.154-.713c2.392.518 6.206 2.33 8.778 5.632 2.594 3.327 3.9 8.138 1.288 14.559l-.675-.276c2.516-6.183 1.242-10.717-1.187-13.835zM58.527 14.6l-.338-.136-.338-.137v-.001l.003-.005.008-.02.033-.086a18.86 18.86 0 00.495-1.56c.278-1.035.57-2.444.628-3.955.117-3.028-.697-6.372-4.318-8.038L55.004 0c4.01 1.845 4.865 5.568 4.742 8.728-.06 1.583-.366 3.05-.653 4.116a19.598 19.598 0 01-.517 1.628l-.035.094-.008.019a.16.16 0 00-.002.006l-.003.007v.002h-.001zm8.479 11.98c.874 1.922 2.318 3.906 4.333 5.196l-.393.615c-2.162-1.385-3.688-3.494-4.603-5.509a12.513 12.513 0 01-.929-2.881c-.158-.87-.176-1.66-.02-2.246l.704.187c-.116.438-.117 1.106.033 1.928.148.814.439 1.75.875 2.71z" fill="#FFB000"/><path d="M57.628 45.941s-11.6-5.804-9.42-19.803a15.87 15.87 0 01.82-3.066c-1.732.097-8.616-.025-11.647-7.653C34.388 7.898 41.01-2.077 52.372 1.233c5.467 1.593 5.783 8.953 5.676 11.954.58-.241 1.176-.442 1.783-.6 7.593-1.966 18.992.435 22.917 2.431 4.24 2.157 12.144 9.855 4.503 20.616-.213.3-.442.59-.685.868 0-.34-.03-.684-.049-1.034a18.087 18.087 0 00-.383-2.81c-4.525-1.372-9.575-.866-12.444-.652-3.704-2.271-6.278-6.894-7.65-9.455a9.873 9.873 0 00-.836.487s-.182 10.402-7.53 17.06c.015.615.072 1.227.173 1.834l-.219 4.01z" fill="#FFB000"/><path fill-rule="evenodd" clip-rule="evenodd" d="M84.535 34.81a4.537 4.537 0 00-4.534 4.54c0 2.507 2.03 4.54 4.534 4.54a4.537 4.537 0 004.535-4.54c0-2.508-2.03-4.54-4.534-4.54zm-5.749 4.54a5.752 5.752 0 015.75-5.756 5.752 5.752 0 015.749 5.755 5.753 5.753 0 01-5.75 5.756 5.753 5.753 0 01-5.749-5.755zm-7.073-4.54a4.537 4.537 0 00-4.534 4.54c0 2.507 2.03 4.54 4.534 4.54a4.537 4.537 0 004.535-4.54c0-2.508-2.03-4.54-4.535-4.54zm-5.749 4.54a5.752 5.752 0 015.75-5.756 5.752 5.752 0 015.749 5.755 5.753 5.753 0 01-5.75 5.756 5.753 5.753 0 01-5.749-5.755z" fill="#F0E1D4"/><path fill-rule="evenodd" clip-rule="evenodd" d="M76.853 38.742h2.543v1.216h-2.543v-1.216zm-16.608-2.391l6.468 1.556-.284 1.183-6.468-1.557.284-1.182z" fill="#F0E1D4"/><path d="M138.508 153.468h4.005a4.598 4.598 0 004.219-2.769l25.905-59.576a4.633 4.633 0 00-.38-4.36 4.612 4.612 0 00-3.842-2.087l-29.907 68.792z" fill="#fff"/><path fill-rule="evenodd" clip-rule="evenodd" d="M167.938 83.945l.48.002a5.336 5.336 0 014.448 2.416 5.36 5.36 0 01.44 5.048l-.001.003-25.904 59.575a5.328 5.328 0 01-4.888 3.209h-5.117l30.542-70.253zm.942 1.49l-29.26 67.304h2.893a3.866 3.866 0 003.551-2.331v-.001l25.903-59.573.001-.001a3.896 3.896 0 00-1.717-4.956 3.884 3.884 0 00-1.371-.441z" fill="#D8BAA3"/><path d="M65.92 160.063h70.047c3.216 0 5.83-2.952 5.83-6.595H71.742c-3.215 0-5.829 2.952-5.829 6.595h.007z" fill="#fff"/><path fill-rule="evenodd" clip-rule="evenodd" d="M65.184 160.063c0-3.96 2.86-7.324 6.558-7.324h70.783v.729c0 3.96-2.858 7.324-6.558 7.324H65.184v-.729zm1.496-.73h69.287c2.529 0 4.746-2.175 5.062-5.135H71.742c-2.529 0-4.745 2.175-5.062 5.135z" fill="#D8BAA3"/></g><defs><clipPath id="clip0"><path fill="#fff" d="M0 0h213v317H0z"/></clipPath></defs></svg>