<svg width="553" height="1037" fill="none" xmlns="http://www.w3.org/2000/svg"><g opacity=".66"><path d="M276.926-730.428l176.418-66.254 104.605 165.789-325.406 48.18L98.501-474.412l132.164 143.05 202.149-16.489-15.857 161.108-22.596 229.185-251.099-251.537 9.556 284.484L10.256 23.735l-220.55 40.225-160.037 130.25-113.697 123.341 257.279-47.599 329.226 44.277 13.976 352.445 10.298 260.429L92.686 1082.7l-217.199-140.269L-215 883.996 70.332 544.022l-196.675-176.338 86.166 331.854 24.923 95.94 52.137-142.07 198.908 283.119-110.048-11.557-212.083-30.935 18.265-239.642-76.479 58.301-161.52-184.676-90.254 62.634 74.117 162.996 121.728-44.362-359.98-43.509 53.359 163.935 319.122 217.728-26.8-162.232-92.823 52.21-268.503-13.828-381.874 147.76 28.283 130.61 193.806 21.94 7.63-214.28 287.534 268.91 140.991-185.45-94.497-87.43 74.345 277.79L92.413 1083.2l-191.443-43.75-105.738 209.64 80.553 139.13 396.996-20.39-350.003-95.08 99.003-110.94 154.797 3.99-24.913 180.35-85.627 10.82 66.665 126.69 200.487-304.1 151.606 79.17-210.587 108.46 212.995 167.71-353.201-51.68" stroke="#589CFF" stroke-width=".463" stroke-miterlimit="10"/><path d="M90.888 1082.68l85.69 83.12-277.385-125.99 124.576 122.81 67.12-79.94zm11.589-768.45L-25.579 211.765-210.294 63.96l-16.08 207.157 100.031 96.567 228.82-53.454z" stroke="#589CFF" stroke-width=".463" stroke-miterlimit="10"/><path d="M102.477 314.229L69.105 543.891l-375.179-15.873 79.7-256.901L152.818 75.389l-50.341 238.84zm0 0l-246.873 395.203-251.932-118.78-162.233 73.693 74.666-348.575 176.617 211.478 105.224 182.325L-215 883.996l-107.211-130.348-72.024 252.002-112.869-175.938 66.375 448.818 121.028 3.51 130.657-234.74-205.191-41.65 85.67-69.271 7.37 154.731 86.413-205.902 128.442 8.827 71.086-98.557L92.413 1083.2 232.3 935.111l48.822 118.309 52.069 126.14-181.525 166.59L23.77 1162.62l44.997 195.84" stroke="#589CFF" stroke-width=".463" stroke-miterlimit="10"/><path d="M37.027 650.168l32.078-106.277-464.216 45.044 379.857 206.543L235.79 936.527l-336.544 101.663-88.291 9.11-112.151 43.81 324.964 71.51-464.498 115.91 316.514 109.69 258.12 97.05 138.876-117.44 60.409-188.27-156.612-13.76-108.452 189.09-189.49 34.49 45.68-118.22-129.084-22.07-97.392-157.34-426.103-82.13 153.098-88.968 14.702-254.875-397.519 405.573 224.277 153.35 294.954 52.98" stroke="#589CFF" stroke-width=".463" stroke-miterlimit="10"/><path d="M557.44-630.09L230.664-331.362l-87.402 122.267L10.256 23.735l-237.005 246.217-143.582-75.742 64.256 333.808 179.732-160.334 58.267 286.709-132.318 53.27-108.172 228.716-13.645-182.731-183.31 76.503-70.397 91.853 135.189 356.526 46.494-272.88-334.028 3.97-201.436 192.34" stroke="#589CFF" stroke-width=".463" stroke-miterlimit="10"/><path d="M395.469 41.96L230.665-331.363l1.878-251.351L-210.294 63.96l483.329-17.557 122.434-4.444z" stroke="#589CFF" stroke-width=".463" stroke-miterlimit="10"/><g opacity=".6"><path d="M122.362 924.692c2.213-5.712 11.101-2.125 8.873 3.608-2.191 5.727-11.079 2.14-8.873-3.608z" fill="#589CFF"/><path d="M125.334 925.904c-.237.586-.117.919-.024 1.107.177.342.547.629.989.81.684.285 1.569.367 2-.74.237-.585.117-.918.024-1.107-.177-.341-.547-.629-.989-.809-.684-.286-1.569-.367-2 .739z" fill="#EEF5FF"/></g><path d="M31.488 651.237c2.212-5.712 11.1-2.124 8.873 3.609-2.213 5.712-11.1 2.124-8.873-3.609z" fill="#589CFF"/><path d="M34.438 652.435c-.43 1.107.289 1.667.951 1.938.685.286 1.57.367 2-.74.237-.585.117-.918.024-1.107-.177-.341-.547-.628-.989-.809-.648-.292-1.554-.388-1.986.718z" fill="#EEF5FF"/><path d="M97.9 312.563c2.213-5.713 11.101-2.125 8.874 3.608-2.192 5.727-11.101 2.125-8.874-3.608z" fill="#589CFF"/><path d="M100.851 313.761c-.237.585-.117.918-.025 1.107.178.341.548.628.99.809.684.286 1.569.367 2-.74.237-.585.116-.918.024-1.107-.177-.341-.548-.628-.989-.809-.663-.271-1.569-.367-2 .74z" fill="#EEF5FF"/><path d="M146.963 74.368c2.213-5.713 11.101-2.125 8.873 3.608-2.191 5.727-11.079 2.14-8.873-3.608z" fill="#589CFF"/><path d="M149.935 75.58c-.431 1.107.288 1.666.951 1.938.684.285 1.568.367 2-.74.237-.585.116-.918.024-1.107-.178-.341-.548-.629-.99-.81-.663-.27-1.554-.388-1.985.719z" fill="#EEF5FF"/><path d="M389.6 40.492c2.213-5.712 11.1-2.125 8.873 3.608-2.191 5.727-11.079 2.14-8.873-3.608z" fill="#589CFF"/><path d="M392.572 41.704c-.431 1.107.288 1.667.951 1.938.684.286 1.568.367 1.999-.74.432-1.106-.288-1.666-.95-1.937-.699-.265-1.569-.368-2 .74z" fill="#EEF5FF"/><path d="M229.06 934.9c2.213-5.712 11.101-2.125 8.873 3.608-2.191 5.727-11.079 2.14-8.873-3.608z" fill="#589CFF"/><path d="M232.032 936.112c-.431 1.107.288 1.667.965 1.917.684.286 1.569.367 2-.74.237-.585.116-.918.024-1.107-.177-.341-.548-.629-.989-.809-.699-.265-1.569-.367-2 .739z" fill="#EEF5FF"/><path d="M63.989 541.445c2.212-5.712 11.1-2.125 8.873 3.609-2.213 5.712-11.1 2.124-8.873-3.609z" fill="#589CFF"/><path d="M66.94 542.643c-.432 1.107.287 1.666.95 1.938.684.286 1.569.367 2-.74.431-1.107-.288-1.667-.965-1.916-.649-.293-1.555-.389-1.986.718z" fill="#EEF5FF"/></g></svg>