<svg width="580" height="404" fill="none" xmlns="http://www.w3.org/2000/svg"><g opacity=".5"><path d="M1187.94-316.398l156.92 104.362-73.32 181.806-229.38-235.788-166.235-45.399-38.751 190.864L968.766 33.784l-139.961 81.352L629.68 230.833l57.201-350.785-225.18 174.116-41.469-145.85-161.606-155.383-199.245-53.65-166.542-20.1L81.906-139.955 238.518 153-39.205 370.445l-205.233 160.65-146.141 63.362-13.231-258.219-5.514-107.573 442.641 32.641L61.345-1.354-157.46 262.608l-63.25 76.322 145.734-40.789-113.341 326.917-54.98-96.027-98.931-190.129 205.074-125.325-92.017-27.944 55.35-239.02-103.588-36.584-88.875 155.441 107.17 72.801-175.22-317.452L-536.11-40.03l10 386.194 115.93-116.613-96.634-44.765-145.802-225.89-343.18-223.36-89.404 99.32 95.533 170.046 178.283-119.121-49.981 390.495 232.879 5.923 15.663-127.784-181.86 222.755 403.54 217.357-76.461-180.883-231.891 36.823-65.754 146.706 248.701 310.111L-644.1 567.767l147.885 15.435 87.291 127.899-160.866 85.259-58.857-63.128-63.78 128.163 363.923-15.204 24.438 169.279-211.131-107.398-11.484 270.848-164.626-316.73" stroke="#589CFF" stroke-width=".463" stroke-miterlimit="10"/><path d="M238.518 153l8.232-163.797 11.876-236.272-177.445 108.1L61.345-1.354 238.518 153z" stroke="#589CFF" stroke-width=".463" stroke-miterlimit="10"/><path d="M238.518 153L32.705 260.235-173.82-53.387 81.181-138.97l380.52 193.134L238.518 153zm0 0l-464.95 30.854-50.977-273.825-154.651-88.505 326.422-143.277-68.262 266.94-86.365 191.978-149.059 91.5 43.04-163.195-246.539 88.944L-536.11-40.03l-325.255 316.305 67.928 100.231 266.821-31.287-86.207-190.805 106.29 28.985-121.202 96.462 217.555-50.311 67.952 109.352 121.518.028-170.433 255.597 201.933 26.87-67.419 108.789-71.875 116.005-241.286-49.832 74.078-211.069-132.541 151.022" stroke="#589CFF" stroke-width=".463" stroke-miterlimit="10"/><path d="M-72.263 296.363l104.968-36.128-308.008-350.223 54.593 428.918 32.393 286.128-279.277-213.546-59.022-66.293-101.119-65.357 132.022 305.428-365.652-309.014 96.116 320.897 72.218 266.139 176.483 43.972 188.044-61.093-80.421-135.09-216.811 22.608-138.787-133.545 122.612-32.079-57.584-117.618 70.673-171.012-182.562-393.674 161.702 72.16 215.348-137.122-561.462-85.283 6.763 271.606 129.513 270.243" stroke="#589CFF" stroke-width=".463" stroke-miterlimit="10"/><path d="M1270.59-30.173l-433.416-90.38-150.293.601-266.649 28.266-338.326-48.269-22.525-160.764L-173.82-53.387 61.345-1.354l-198.499 214.931-120.59-76.182-248.789 46.004L-366.285 65.47-535.541-38.489l-115.678-3.39-210.146 318.155 248.542-121.861-198.561-268.634-273.816-50.925" stroke="#589CFF" stroke-width=".463" stroke-miterlimit="10"/><path d="M630.719 231.448l206.456-352.002 204.985-145.464-783.534 18.949 296.89 381.8 75.203 96.717z" stroke="#589CFF" stroke-width=".463" stroke-miterlimit="10"/><path d="M237.194 148.313c5.928-1.545 8.215 7.762 2.262 9.309-5.927 1.571-8.215-7.763-2.262-9.309z" fill="#589CFF"/><path d="M237.948 151.407c-.614.15-.813.443-.913.628-.173.344-.189.812-.077 1.276.168.722.619 1.487 1.769 1.19.613-.15.813-.443.912-.628.173-.343.19-.812.078-1.276-.168-.696-.62-1.487-1.769-1.19z" fill="#EEF5FF"/><path d="M459.105 48.817c5.928-1.545 8.215 7.762 2.262 9.309-5.927 1.57-8.214-7.737-2.262-9.309z" fill="#589CFF"/><path d="M459.86 51.937c-1.15.297-1.184 1.208-1.016 1.904.168.722.62 1.487 1.77 1.19.613-.15.813-.443.912-.628.173-.343.189-.812.078-1.276-.168-.696-.594-1.488-1.744-1.19z" fill="#EEF5FF"/><path d="M31.698 254.654c5.927-1.546 8.215 7.762 2.261 9.308-5.927 1.545-8.215-7.762-2.261-9.308z" fill="#589CFF"/><path d="M32.451 257.748c-1.15.297-1.183 1.208-1.015 1.904.168.722.62 1.487 1.77 1.19 1.149-.298 1.182-1.208.99-1.904-.143-.697-.595-1.488-1.745-1.19z" fill="#EEF5FF"/></g></svg>