<svg width="1132" height="433" fill="none" xmlns="http://www.w3.org/2000/svg"><path d="M1116.93 257.481c-1.74 23.52-18.44 45.079-47.78 63.873-29.32 18.776-70.985 34.616-122.059 46.754-102.132 24.27-241.529 33.653-393.962 22.349-152.433-11.303-288.921-41.144-386.356-80.212C118.047 290.707 79.17 268.894 52.948 246c-26.246-22.915-39.585-46.702-37.841-70.222 1.744-23.52 18.446-45.079 47.785-63.873 29.311-18.776 70.981-34.616 122.055-46.753 102.132-24.27 241.529-33.653 393.962-22.35 152.433 11.303 288.921 41.144 386.356 80.212 48.725 19.538 87.605 41.351 113.825 64.245 26.25 22.916 39.58 46.702 37.84 70.222z" stroke="url(#paint0_linear)" stroke-opacity=".4" stroke-width="3"/><defs><linearGradient id="paint0_linear" x1="579.02" y1="41.306" x2="553.018" y2="391.953" gradientUnits="userSpaceOnUse"><stop offset="0" stop-color="#6411A6"/><stop offset="1" stop-color="#3F046D"/></linearGradient></defs></svg>