<svg width="480" height="631" fill="none" xmlns="http://www.w3.org/2000/svg"><g opacity=".66"><path d="M757.946-595.771l185.081 35.474 2.792 196.011L643.042-492.88l-170.851 22.502 38.165 190.982 181.082 91.355-97.549 129.194L455.086 124.92l-83.069-345.574L231.808 27.063l-94.701-118.42-209.161-80.699-204.478 27.674-161.336 45.945 244.346 93.56L64.296 204.6l-171.879 308.009-127.03 227.58-110.214 114.999-112.169-232.958-46.733-97.049L-82.97 383.904l-75.85-253.028-99.545 328.089-28.769 94.857 118.577-94.029 22.067 345.302-87.871-67.252-164.825-136.999 140.561-194.948-95.661 9.86-41.504-241.809-109.674 6.374-21.764 177.728 126.999 25.631-284.46-224.857-39.966 167.704 158.739 352.203 61.741-152.402-106.429-3.861-221.887-151.826-402.889-73.075-43.98 126.189 153.92 119.797 118.26-178.855 105.097 379.392 217.011-84.7-35.032-123.882-81.435 275.792 456.22 44.172-140.528-137.175-199.55 123.73-3.828 160.724 349.368 189.64-249.052-263.659 142.327-43.023 130.001 84.13-115.311 140.892-78.708-35.42-9.186 142.86 329.655-154.91 88.069 146.61-236.245-17.28 94.274 254.18-274.413-228.3" stroke="#589CFF" stroke-width=".463" stroke-miterlimit="10"/><path d="M64.296 204.599L8.47 50.389l-80.524-222.445L-193.81-3.686l34.989 134.562 223.116 73.723z" stroke="#589CFF" stroke-width=".463" stroke-miterlimit="10"/><path d="M64.296 204.599L-83.949 383.152-395.79 173.948-193.809-3.687l425.617 30.75L64.296 204.6zm0 0l-416.745 208.457-153.015-232.735-176.856-21.728 245.495-258.48 40.409 272.55-5.303 210.444-102.01 142.073-23.499-167.131-192.876 177.458-4.551-208.98-177.428 417.562 101.435 66.115 233.9-132.149-153.356-142.548 109.222-14.427-74.403 135.864 181.11-130.616 104.989 74.516 112.052-47.021-58.185 301.648 196.587-53.406-20.042 126.407-21.357 134.788-241.761 47.47-13.417-223.291L-509.045 1078" stroke="#589CFF" stroke-width=".463" stroke-miterlimit="10"/><path d="M-166.744 457.103l82.795-73.951-419.58-203.661 216.395 374.332 140.643 251.272-340.173-88.768-80.085-38.272-118.537-21.111 239.976 230.495-456.773-143.35 212.858 258.661 169.623 217.42 179.745-27.78 149.726-129.13-126.45-93.422-191.151 104.782-179.666-69.39 100.631-77.053-98.63-86.151-1.048-185.036-320.735-292.293 177.026 3.929 145.465-209.803-550.691 138.743 111.39 247.806 224.037 199.025" stroke="#589CFF" stroke-width=".463" stroke-miterlimit="10"/><path d="M944.966-363.866l-434.61 84.47-138.339 58.742L137.106-91.358-193.522-4.876l-83.01-139.506-119.258 318.329 236.97-43.071-99.806 275.02-140.68-23.554-211.576 138.738 83.654-163.031-196.305-30.322-107.969 41.66-70.581 374.702 181.979-208.582-287.076-170.81-272.18 59.058" stroke="#589CFF" stroke-width=".463" stroke-miterlimit="10"/><path d="M456.282 125.085l54.075-404.481L643.042-492.88-72.054-172.056 349.499 65.026l106.783 60.059z" stroke="#589CFF" stroke-width=".463" stroke-miterlimit="10"/><path d="M61.26 200.79c4.868-3.72 10.58 3.976 5.69 7.707-4.857 3.743-10.58-3.977-5.69-7.707z" fill="#589CFF"/><path d="M63.154 203.351c-.508.376-.579.722-.599.932-.026.383.14.822.423 1.206.434.601 1.147 1.131 2.092.412.507-.376.578-.723.598-.932.026-.384-.14-.822-.422-1.206-.425-.578-1.148-1.132-2.092-.412z" fill="#EEF5FF"/><path d="M227.345 23.138c4.867-3.72 10.579 3.976 5.689 7.707-4.856 3.743-10.569-3.953-5.689-7.707z" fill="#589CFF"/><path d="M229.248 25.723c-.944.719-.623 1.572-.199 2.149.435.6 1.147 1.131 2.092.412.508-.376.579-.723.598-.932.027-.384-.139-.822-.422-1.207-.424-.577-1.124-1.142-2.069-.422z" fill="#EEF5FF"/></g></svg>