<svg width="1920" height="1680" fill="none" xmlns="http://www.w3.org/2000/svg"><mask id="mask0" style="mask-type:alpha" maskUnits="userSpaceOnUse" x="0" y="0" width="1920" height="1680"><path fill="#C4C4C4" d="M0 0h1920v1680H0z"/></mask><g mask="url(#mask0)"><path stroke="#B961FF" stroke-opacity=".2" d="M1808.04-76.293l240.5 240.5-70.004 70.003-240.5-240.5zm-282.24.754l519.557 519.557-70.004 70.003L1455.797-5.535zm-417.72-134.717l998.597 998.597-70.003 70.004-998.598-998.597z"/><path transform="rotate(45 1188.92 -272.839)" fill="url(#paint0_linear)" d="M1188.92-272.839h1413.23V27.804H1188.92z"/><path transform="rotate(-45 -608 1707.86)" fill="url(#paint1_linear)" d="M-608 1707.86H632.07v701.067H-608z"/><path transform="rotate(45 502.799 883.166)" fill="url(#paint2_linear)" d="M502.799 883.166h500.937v500.465H502.799z"/><path transform="rotate(-45 1030.33 278.133)" fill="url(#paint3_linear)" d="M1030.33 278.133h500.82V778.95h-500.82z"/><path stroke="#B961FF" stroke-opacity=".2" d="M745.976-289.36l1324.567 1324.567-70.004 70.003L675.972-219.356zM589.659-162.677l1508.952 1508.952-70.004 70.003L519.655-92.673zM143.593-325.743l1932.05 1932.05-70.004 70.003L73.589-255.74zm-421.371-138.371l2401.25 2401.25-70.004 70.003-2401.25-2401.25zm-141.5 141.5l2534.596 2534.596-70.004 70.004L-489.282-252.61zm-181.011 101.989L2199.366 2579.03l-70.004 70.004L-670.293-150.621zm174.59 457.59l2710.75 2710.75-70.003 70.004-2710.75-2710.75zm250.319 533.319l2766.725 2766.725-70.004 70.004L-245.384 840.288zm128.494 411.496l2243.204 2243.204-70.003 70.004L-116.89 1251.784zm-30.612 252.39l2347.983 2347.983-70.003 70.004-2347.984-2347.983z"/><path stroke="#B961FF" stroke-opacity=".2" d="M328.792-75.539l-519.557 519.557 70.004 70.004L398.796-5.535zM1108.61-289.36L-215.957 1035.207l70.004 70.003L1178.614-219.356zM1711-325.743l-1932.05 1932.05 70.004 70.003 1932.05-1932.05zm562.87 3.129L-260.727 2211.983l70.004 70.003L2343.874-252.61zm6.42 559.578L-430.461 2947.715l70.003 70.004L2350.294 306.968zm-378.81 944.816L-341.725 3424.985l70.003 70.004 2243.206-2243.205z"/></g><defs><linearGradient id="paint0_linear" x1="1895.53" y1="-272.839" x2="1895.53" y2="27.804" gradientUnits="userSpaceOnUse"><stop stop-color="#F28D55" stop-opacity="0"/><stop offset="1" stop-color="#F28D55" stop-opacity=".1"/></linearGradient><linearGradient id="paint1_linear" x1="12.034" y1="1707.86" x2="12.034" y2="2408.93" gradientUnits="userSpaceOnUse"><stop stop-color="#F28D55" stop-opacity="0"/><stop offset="1" stop-color="#F28D55" stop-opacity=".1"/></linearGradient><linearGradient id="paint2_linear" x1="503.076" y1="882.937" x2="793.846" y2="1173.98" gradientUnits="userSpaceOnUse"><stop stop-color="#B961FF" stop-opacity=".1"/><stop offset="1" stop-color="#B961FF" stop-opacity="0"/></linearGradient><linearGradient id="paint3_linear" x1="1030.61" y1="277.904" x2="1321.59" y2="568.878" gradientUnits="userSpaceOnUse"><stop stop-color="#B961FF" stop-opacity=".1"/><stop offset="1" stop-color="#B961FF" stop-opacity="0"/></linearGradient></defs></svg>