<svg width="962" height="963" fill="none" xmlns="http://www.w3.org/2000/svg"><g filter="url(#filter0_f)"><path d="M100 477.5l376.695-266.695 385.25 275.25L485.25 722.75 100 477.5z" fill="url(#paint0_linear)" fill-opacity=".2"/></g><mask id="mask0" style="mask-type:alpha" maskUnits="userSpaceOnUse" x="109" y="290" width="748" height="395"><path fill="#C4C4C4" d="M109 290h748v395H109z"/></mask><g mask="url(#mask0)"><path stroke="#B961FF" stroke-opacity=".2" d="M651.644-164.361l1324.567 1324.567-70.004 70.003L581.64-94.357zM495.327-37.678L2004.28 1471.274l-70.004 70.003L425.324 32.326zM49.26-200.744l1932.05 1932.05-70.004 70.003L-20.743-130.741zm-421.37-138.371l2401.25 2401.25-70.004 70.003-2401.25-2401.25zm-141.5 141.5l2534.596 2534.596-70.004 70.004L-583.614-127.611zM-694.622-95.626l2799.655 2799.655-70.004 70.004L-764.626-25.622zm174.59 457.59l2710.75 2710.75-70.003 70.004-2710.75-2710.75z"/><path stroke="#B961FF" stroke-opacity=".2" d="M300.923 49.46l-519.557 519.557 70.004 70.004 519.557-519.557zm779.827-213.821L-243.817 1160.206l70.004 70.003L1150.754-94.357zm602.38-36.383l-1932.05 1932.05 70.004 70.003 1932.05-1932.05zm562.87 3.129L-288.597 2336.982l70.004 70.003L2316.004-127.61zm6.42 559.579L-458.331 3072.715l70.003 70.004L2322.424 431.968z"/><path d="M1865.74 1231.74l-94.41 114.31-149.97-58.46 208.07-165.29 45.17-122.533-159.04-32.978-135.42 94.401-62.62-105.784-89.05-150.504 292.87 50.192-137.14-171.146 124.5-27.62 137.56-116.684 53.49-146.883 23.89-123.316-160.15 136.532-253.15 109.959-171.41-211.14-126.64-156.028-47.22-109.985 217.9-4.174 90.78-1.74-45.99 328.21 219.92 26.582-213.03-168.377-61.6-48.673 28.24 109.188-270.44-91.386 83.13-38.751 164.17-69.35 96.92 155.136 27.37-67.765 198.88 46.367 35.12-76.174-127.12-69.45-65.76 78.044L1818.1 23.22l-112.87-78.679-325.5-1.03 93.31 88.702 41.73-70.828 196.24-103.395 202.36-250.122-79.86-68.614-147.13 67.266 92.81 135.092-326.6-45.697-14.73 172.922 106.91 14.439-179.9-140.02-199.84 295.107 155.46-52.855-21.3-173.124-120.74-52.076L907.015-61.678l291.125-87.344-19.18 109.554-111.31 62.063-65.04-121.406 55.6-42.354-105.211-50.203-2.425 270.764-143.511 14.45L906.296-60.69 678.788-75.16l273.495-115.393" stroke="#589CFF" stroke-width=".463" stroke-miterlimit="10" opacity=".4"/></g><defs><linearGradient id="paint0_linear" x1="288.347" y1="289.152" x2="673.597" y2="674.403" gradientUnits="userSpaceOnUse"><stop offset="0" stop-color="#6411A6"/><stop offset="1" stop-color="#3F046D"/></linearGradient><filter id="filter0_f" x="0" y=".805" width="961.945" height="961.945" filterUnits="userSpaceOnUse" color-interpolation-filters="sRGB"><feFlood flood-opacity="0" result="BackgroundImageFix"/><feBlend in="SourceGraphic" in2="BackgroundImageFix" result="shape"/><feGaussianBlur stdDeviation="50" result="effect1_foregroundBlur"/></filter></defs></svg>