<svg width="580" height="404" fill="none" xmlns="http://www.w3.org/2000/svg"><g opacity=".5"><path d="M768.466-631.813l186.777 25.052 13.766 195.547-309.504-111.434-169.323 32.036 48.802 188.544 185.915 81.07-90.161 134.455-128.293 191.252L404.152-235.67 278.037 19.512 176.852-93.42-36.5-162.276l-202.607 39.083-158.509 54.909 249.202 79.728L120.732 206.15-33.626 523.303-147.712 757.64l-103.6 120.992-125.041-226.31-52.094-94.28 412.185-164.62-89.902-248.382-81.014 333.149-23.41 96.32 113.124-100.524L-56.09 817.51l-91.499-62.225-172.24-127.553 129.421-202.514-94.957 15.202-54.983-239.104-109.144 12.506-11.776 178.668 128.234 18.478-296.606-208.572-30.511 169.679 178.216 342.76 53.108-155.621-106.478 2.106-230.042-139.16-406.352-50.396-36.84 128.455 160.38 110.988 108.061-185.198 126.184 372.91 211.927-96.721-41.916-121.726-65.86 279.92 457.978 18.55-147.991-129.088-192.307 134.712 5.18 160.684 359.441 169.78-263.428-249.299 139.694-50.927 134.509 76.717-107.239 147.129-80.568-30.96-1.171 143.16 320.462-173.14 96.142 141.45-236.842-4.02 108.362 248.5-286.769-212.57" stroke="#589CFF" stroke-width=".463" stroke-miterlimit="10"/><path d="M120.732 206.15L56.357 55.31-36.5-162.277-148.634 12.648l42.471 132.392 226.895 61.11z" stroke="#589CFF" stroke-width=".463" stroke-miterlimit="10"/><path d="M120.732 206.15L-17.28 392.727l-323.07-191.411 191.715-188.668 426.672 6.864L120.732 206.15zm0 0l-404.416 231.471-165.809-223.798-177.796-11.789 230.633-271.825 55.61 269.859 6.492 210.411-93.892 147.564-32.823-165.553-182.635 187.982-16.248-208.397-153.763 426.844 104.979 60.33 226.131-145.041-161.099-133.736 108.243-20.522-66.677 139.818 173.51-140.554 108.998 68.518 109.243-53.223-41.199 304.434 193.287-64.332-12.93 127.331-13.775 135.768-238.723 60.94-25.902-222.189-52.963 193.829" stroke="#589CFF" stroke-width=".463" stroke-miterlimit="10"/><path d="M-95.803 471.199l78.522-78.472-430.327-179.842 237.02 361.625 154.497 243.001-344.611-69.577-82.103-33.726-119.533-14.44 252.509 216.694-464.086-117.543 227.011 246.331 181.535 207.58 177.906-37.8 142.259-137.32-131.484-86.189-184.982 115.329-183.271-59.23 96.157-82.561-103.3-80.492-11.409-184.688-336.606-273.869 176.971-5.993 133.486-217.621-542.058 169.369 125.09 241.178 234.839 186.165" stroke="#589CFF" stroke-width=".463" stroke-miterlimit="10"/><path d="M968.18-410.746L538.984-302.068 404.152-235.67l-227.3 142.251-325.266 104.864-90.693-134.638-101.242 324.509 234.186-56.276-84.246 280.178-141.779-15.637-203.473 150.369 74.392-167.46-197.696-19.28-105.466 47.642-49.484 378.067 170.011-218.447L-940.1 426.009l-268.44 74.21" stroke="#589CFF" stroke-width=".463" stroke-miterlimit="10"/><path d="M507.649 104.807l31.336-406.875 120.52-220.58L-36.5-162.276l434.17 213.1 109.979 53.983z" stroke="#589CFF" stroke-width=".463" stroke-miterlimit="10"/><path d="M117.488 202.518c4.651-3.987 10.785 3.377 6.112 7.376-4.64 4.01-10.786-3.378-6.112-7.376z" fill="#589CFF"/><path d="M119.521 204.969c-.486.404-.537.754-.545.964-.005.384.185.813.489 1.181.468.575 1.209 1.065 2.112.294.486-.404.537-.754.545-.964.005-.385-.185-.813-.489-1.181-.456-.552-1.209-1.065-2.112-.294z" fill="#EEF5FF"/><path d="M273.362 15.843c4.651-3.986 10.785 3.378 6.111 7.376-4.639 4.01-10.773-3.354-6.111-7.376zm229.811 84.896c4.651-3.986 10.785 3.378 6.111 7.376-4.639 4.01-10.773-3.354-6.111-7.376z" fill="#589CFF"/><path d="M505.218 103.213c-.903.771-.535 1.605-.079 2.157.468.575 1.209 1.065 2.112.294.903-.771.534-1.605.079-2.157-.491-.563-1.209-1.065-2.112-.294z" fill="#EEF5FF"/></g></svg>