<svg width="480" height="525" fill="none" xmlns="http://www.w3.org/2000/svg"><g opacity=".66"><path d="M-506.008-526.658l63.621-114.908 130.444 40.642-150.819 172.684-22.133 118.052 134.782 16.121 99.77-100.146 64.432 92.625 91.638 131.782-246.919-19.89 133.695 146.577-98.973 37.06-98.798 121.055-25.997 141.447-4.541 116.83 114.946-141.574 194.649-125.369L40.556 286.956l123.212 133.482 52.284 97.936-178.63 23.8-74.417 9.917-2.368-309.34-184.051-4.61 195.749 137.065 56.598 39.621-36.58-98.931 233.514 60.239-63.597 43.627-126.481 79.482-98.664-135.37-14.206 65.503-169.174-24.927-19.553 74.03 113.01 52.946 44.51-78.569-210.614 139.683 102.424 62.829 267.715-28.797-87.568-73.936-25.63 69.662-148.673 114.066-135.746 251.037 74.054 56.489 112.722-75.987-92.838-117.11 274.096 12.628-9.06-162.112-89.656-3.65L87.971 811.39l128.162-292.628-121.33 63.349 38.7 159.007 105.634 37.377 201.357-190.312-228.639 107.816 2.355-103.605 83.911-67.875 68.328 106.925-40.523 44.459 92.641 37.055-31.152-251.949 116.211-26.554L440.965 587.2l188.805-7.347-210.714 132.282" stroke="#589CFF" stroke-width=".463" stroke-miterlimit="10"/><path d="M-126.21 106.33l86.138 136.906-206.182 161.214-73.88-172.303 112.637-275.266 81.287 149.449zm0 0l47.739 321.245-187.337 50.905-52.732 112.44-118-218.652 189.299 32.318 138.25 49.134 71.996 98.371-115.802-20.665 75.736 166.233-139.417-42.29L21.655 863.421l65.785-52.859-36.83-183.585-127.671 70.682 14.121-75.478 73.868 78.739-47.259-148.284 72.12-53.392-6.856-84.417 187.201 103.935 7.241-141.799 79.388 40.679 84.652 43.367-20.965 170.436-150.817-39.519 112.411 83.529" stroke="#589CFF" stroke-width=".463" stroke-miterlimit="10"/><path d="M-9.036 314.112l-31.036-70.875-225.866 233.781 294.871-62.191 196.935-38.691L93.322 582.225 50.61 626.977 10.928 700.92l204.705-108.993L21.655 863.421l217.483-84.925 180.795-65.226 20.562-125.087-53.08-127.174-89.294 63.51 27.972 149.335-84.918 103.968-29.223-83.361-78.448 46.657-122.797-39.42-263.148 149.095 40.979-116.414-107.44-141.839-27.478 394.861 188.297-20.065 180.404-105.26" stroke="#589CFF" stroke-width=".463" stroke-miterlimit="10"/><path d="M-311.849-600.268l-38.264 306.201 8.921 104.371L-306.47-6.059l-14.39 237.758-110.405 24.744 185.011 148.007 22.841-166.309 160.538 125.733-46.099 88.082 46.034 170.225-89.858-90.755-62.642 123.46 4.19 80.551L21.655 863.421l-98.716-165.762-175.381 153.134-19.884 193.097" stroke="#589CFF" stroke-width=".463" stroke-miterlimit="10"/><g opacity=".6"><path d="M160.351 421.143c-1.409-4.03 4.927-6.146 6.338-2.098 1.427 4.029-4.909 6.144-6.338 2.098z" fill="#589CFF"/><path d="M162.476 420.442c.138.418.353.54.487.599.249.1.575.085.891-.019.492-.157.998-.514.726-1.296-.139-.418-.353-.54-.487-.598-.249-.101-.575-.086-.891.018-.492.157-.998.514-.726 1.296z" fill="#EEF5FF"/></g><path d="M24.182 415.667c-1.41-4.03 4.927-6.146 6.338-2.098 1.409 4.03-4.927 6.146-6.338 2.098z" fill="#589CFF"/><path d="M26.289 414.968c.271.782.906.754 1.38.598.492-.158.998-.515.726-1.296-.138-.418-.353-.54-.487-.599-.249-.1-.575-.085-.891.018-.476.139-1 .497-.728 1.279z" fill="#EEF5FF"/><path d="M221.561 378.316c-1.409-4.031 4.928-6.146 6.339-2.098 1.427 4.028-4.91 6.144-6.339 2.098z" fill="#589CFF"/><path d="M223.686 377.615c.272.782.906.754 1.378.58.493-.157.998-.514.727-1.296-.139-.418-.354-.54-.488-.598-.248-.101-.575-.086-.891.018-.49.175-.998.514-.726 1.296z" fill="#EEF5FF"/><path d="M384.525 462.345c-1.409-4.03 4.927-6.146 6.338-2.098 1.427 4.029-4.911 6.126-6.338 2.098z" fill="#589CFF"/><path d="M386.649 461.644c.139.418.354.54.488.599.248.1.575.085.891-.018.492-.158.998-.515.726-1.297-.139-.418-.353-.54-.488-.598-.248-.101-.574-.086-.89.018-.493.158-.999.515-.727 1.296z" fill="#EEF5FF"/></g></svg>