<svg width="580" height="404" fill="none" xmlns="http://www.w3.org/2000/svg"><g opacity=".5"><path d="M-1182.37 103.854l-61.1-178.272 168.77-99.736 38.69 326.669 104.353 137.137 146.835-127.945-10.6-202.544 160.578 20.538 228.431 29.255L-665.15 252.63l284.642-1.274-55.78 140.998 33.79 221.628 125.538 163.759 119.981 117.238-40.093-258.555 53.838-327.798 352.702-3.715 260.618-2.716 154.543 38.578-146.532 213.026-61.044 88.748L85.526 347.443-96.46 538.904l334.221-76.473 96.624-22.121-140.493-56.249L482.68 193.475 467.925 303.14l-37.093 211.094-239.009-25.23 56.051 78.143L58.576 723.225l59.982 92.038 165.083-69.343-40.801-122.967-53.965 358.561 165.418-48.567 226.925-312.651-162.946 22.068 49.486 94.303-21.634 267.983 136.588 386.02 131.374-24.47 27.575-193.09-213.968-13.86 277.155-279.589-181.262-146.328-90.146 91.913 279.833-66.231L625.12 341.06l-49.308 190.089 206.474 111.793 141.417-76.47-8.831-397.421-105.224 347.088L701.641 413.95l8.489-154.615 179.548 30.15 8.331 85.906 128.571-62.951-298.135-209.25 83.547-149.239 102.287 213.654L1088.11-40.419l-61.93 351.547" stroke="#589CFF" stroke-width=".463" stroke-miterlimit="10"/><path d="M624.551 342.57l85.579-83.235-134.007 273.601 126.389-120.95-77.961-69.416z" stroke="#589CFF" stroke-width=".463" stroke-miterlimit="10"/><path d="M-143.234 308.626l228.594 40.04-26.784 374.559-254.473-87.142-184.612-384.727 237.275 57.27zm0 0l387.852 258.267-126.06 248.37 68.941 164.308-346.255-84.777L57.771 724.405l185.311-99.874 173.971 18.016L283.641 745.92l249.799 79.326-179.147 107.701 450.555-53.287 7.032-120.875-230.835-137.431-47.605 203.892-66.748-87.649 154.876-2.865-203.297-92.368 12.561-128.131-96.447-73.923 290.735-99.25-143.958-144.135 119.679-45.359 127.603-48.376 161.234 186.295-187.166 122.501 197.058-39.28" stroke="#589CFF" stroke-width=".463" stroke-miterlimit="10"/><path d="M190.658 383.823L85.36 348.666l31.516 465.33L334.385 440.31 482.68 193.476l91.828 339.359 6.537 88.519 40.524 113.378 80.943-322.746 102.336 467.675 118.855-313.189 104.527-255.186-113.358-142.235-186.427-65.861-18.315 156.145 185.858 113.907 28.958 190.414-116.842-49.101-25.818 128.387-160.102 92.774-94.491 423.534-84.479-155.62-254.339-22.116 393.837 409.156 159.809-219.72 61.537-293.292" stroke="#589CFF" stroke-width=".463" stroke-miterlimit="10"/><path d="M-1073.91-173.623l289.088 335.33 119.672 90.923 228.862 139.724 239.216 244.07-79.888 141.316 335.536-54.516-155.036-184.32 288.283-49.901 49.397 133.813 225.472 114.781-183.051 8.322 71.137 185.459 89.766 73.042 360.304-124.76-271.408-54.414-5.747 334.004 186.393 206.95" stroke="#589CFF" stroke-width=".463" stroke-miterlimit="10"/><g opacity=".6"><path d="M467.548 306.512c-5.645-2.378-1.8-11.158 3.866-8.765 5.66 2.357 1.816 11.137-3.866 8.765z" fill="#589CFF"/><path d="M468.847 303.576c.578.254.914.144 1.106.057.346-.168.644-.529.837-.966.306-.675.413-1.557-.681-2.02-.578-.254-.914-.144-1.106-.057-.346.168-.644.529-.837.966-.306.675-.413 1.557.681 2.02z" fill="#EEF5FF"/></g><path d="M480.857 200.156c-5.646-2.378-1.801-11.157 3.865-8.764 5.661 2.357 1.816 11.136-3.865 8.764z" fill="#589CFF"/><path d="M482.155 197.221c1.094.463 1.674-.239 1.944-.909.306-.676.412-1.557-.681-2.021-.578-.254-.915-.143-1.106-.056-.346.167-.644.529-.838.966-.285.69-.413 1.557.681 2.02z" fill="#EEF5FF"/><path d="M82.766 353.709c-5.646-2.378-1.801-11.158 3.865-8.765 5.645 2.378 1.8 11.158-3.865 8.765z" fill="#589CFF"/><path d="M84.049 350.794c1.093.464 1.674-.239 1.964-.894.306-.675.413-1.557-.68-2.02-1.094-.463-1.675.239-1.944.909-.312.64-.434 1.542.66 2.005z" fill="#EEF5FF"/></g></svg>