<svg width="1920" height="1050" fill="none" xmlns="http://www.w3.org/2000/svg"><g opacity=".5"><path opacity=".103" d="M1767.93 759.47c83.99 0 152.07-64.546 152.07-144.167 0-79.62-68.08-144.166-152.07-144.166-83.98 0-152.06 64.546-152.06 144.166 0 79.621 68.08 144.167 152.06 144.167z" fill="url(#paint0_radial)"/><path opacity=".128" d="M1156.62 823.965c134.76 0 244.01-103.571 244.01-231.332s-109.25-231.331-244.01-231.331-244.011 103.57-244.011 231.331 109.251 231.332 244.011 231.332z" fill="url(#paint1_radial)"/><path opacity=".215" d="M1044.9 843.993c41.07 0 74.36-31.56 74.36-70.492s-33.29-70.492-74.36-70.492c-41.06 0-74.352 31.56-74.352 70.492s33.292 70.492 74.352 70.492z" fill="url(#paint2_radial)"/><path opacity=".168" d="M1356.98 1050c33.38 0 60.44-25.65 60.44-57.297 0-31.644-27.06-57.296-60.44-57.296-33.37 0-60.43 25.652-60.43 57.296 0 31.647 27.06 57.297 60.43 57.297z" fill="url(#paint3_radial)"/><path opacity=".929" d="M1528.47 881.576c57.25 0 103.66-43.999 103.66-98.274s-46.41-98.274-103.66-98.274-103.66 43.999-103.66 98.274 46.41 98.274 103.66 98.274z" fill="url(#paint4_radial)" fill-opacity=".4"/><path opacity=".289" d="M1282.65 929.167c32.38 0 58.62-24.879 58.62-55.57 0-30.69-26.24-55.57-58.62-55.57-32.37 0-58.61 24.88-58.61 55.57 0 30.691 26.24 55.57 58.61 55.57z" fill="url(#paint5_radial)"/><path opacity=".262" d="M1507.54 748.842c35.71 0 64.65-27.441 64.65-61.292s-28.94-61.292-64.65-61.292c-35.7 0-64.65 27.441-64.65 61.292s28.95 61.292 64.65 61.292z" fill="url(#paint6_radial)"/><path opacity=".494" d="M1507.83 578.458c25.3 0 45.81-19.447 45.81-43.435 0-23.989-20.51-43.435-45.81-43.435-25.31 0-45.82 19.446-45.82 43.435 0 23.988 20.51 43.435 45.82 43.435z" fill="url(#paint7_radial)"/><path opacity=".583" d="M1666.06 524.466c28 0 50.71-21.522 50.71-48.071 0-26.55-22.71-48.072-50.71-48.072s-50.71 21.522-50.71 48.072c0 26.549 22.71 48.071 50.71 48.071z" fill="url(#paint8_radial)"/><path opacity=".325" d="M1349.8 572.858c23.32 0 42.23-17.922 42.23-40.031 0-22.108-18.91-40.031-42.23-40.031-23.32 0-42.22 17.923-42.22 40.031 0 22.109 18.9 40.031 42.22 40.031z" fill="url(#paint9_radial)"/><path opacity=".651" d="M1074.65 679.658c22.48 0 40.69-17.271 40.69-38.576s-18.21-38.576-40.69-38.576c-22.47 0-40.69 17.271-40.69 38.576s18.22 38.576 40.69 38.576z" fill="url(#paint10_radial)"/><path opacity=".772" d="M840.921 731.7c23.148 0 41.912-17.79 41.912-39.735s-18.764-39.735-41.912-39.735-41.913 17.79-41.913 39.735 18.765 39.735 41.913 39.735z" fill="url(#paint11_radial)"/><path opacity=".53" d="M1130.6 448.006c59.77 0 108.22-45.938 108.22-102.606 0-56.667-48.45-102.605-108.22-102.605-59.78 0-108.23 45.938-108.23 102.605 0 56.668 48.45 102.606 108.23 102.606z" fill="url(#paint12_radial)"/><path opacity=".624" d="M1367.11 316.45c92.17 0 166.89-70.84 166.89-158.225C1534 70.84 1459.28 0 1367.11 0c-92.17 0-166.9 70.84-166.9 158.225 0 87.385 74.73 158.225 166.9 158.225z" fill="url(#paint13_radial)"/><path opacity=".658" d="M1661.27 492.032c26.7 0 48.34-20.518 48.34-45.828 0-25.309-21.64-45.827-48.34-45.827-26.69 0-48.34 20.518-48.34 45.827 0 25.31 21.65 45.828 48.34 45.828z" fill="url(#paint14_radial)"/><path opacity=".948" d="M1746.89 317.923c27.19 0 49.23-20.893 49.23-46.666 0-25.773-22.04-46.666-49.23-46.666-27.18 0-49.22 20.893-49.22 46.666 0 25.773 22.04 46.666 49.22 46.666z" fill="url(#paint15_radial)"/><path d="M1823.98 235.123c30.88 0 55.91-23.731 55.91-53.005s-25.03-53.005-55.91-53.005c-30.88 0-55.91 23.731-55.91 53.005s25.03 53.005 55.91 53.005z" fill="url(#paint16_radial)"/><path opacity=".813" d="M432.956 687.967c80.838 0 146.369-62.127 146.369-138.764 0-76.638-65.531-138.765-146.369-138.765-80.837 0-146.368 62.127-146.368 138.765 0 76.637 65.531 138.764 146.368 138.764z" fill="url(#paint17_radial)" fill-opacity=".5"/><path opacity=".747" d="M453.553 831.076c23.177 0 41.965-17.812 41.965-39.784 0-21.973-18.788-39.785-41.965-39.785-23.176 0-41.964 17.812-41.964 39.785 0 21.972 18.788 39.784 41.964 39.784z" fill="url(#paint18_radial)"/><path d="M41.913 712.471c23.147 0 41.912-17.79 41.912-39.735C83.825 650.79 65.06 633 41.912 633 18.766 633 0 650.79 0 672.736c0 21.945 18.765 39.735 41.913 39.735z" fill="url(#paint19_radial)"/><path d="M75.166 220.564c21.87 0 39.598-16.807 39.598-37.54s-17.729-37.54-39.597-37.54c-21.87 0-39.598 16.807-39.598 37.54s17.729 37.54 39.597 37.54z" fill="url(#paint20_radial)" fill-opacity=".5"/><path opacity=".531" d="M275.9 753.402c28.335 0 51.304-21.777 51.304-48.639 0-26.863-22.969-48.639-51.304-48.639s-51.305 21.776-51.305 48.639c0 26.862 22.97 48.639 51.305 48.639z" fill="url(#paint21_radial)"/></g><defs><radialGradient id="paint0_radial" cx="0" cy="0" r="1" gradientUnits="userSpaceOnUse" gradientTransform="matrix(152.053 0 0 144.154 1767.92 615.304)"><stop stop-color="#DC0046"/><stop offset=".05" stop-color="#CB0041"/><stop offset=".243" stop-color="#8E002D"/><stop offset=".429" stop-color="#5B001D"/><stop offset=".603" stop-color="#340010"/><stop offset=".761" stop-color="#170007"/><stop offset=".898" stop-color="#060002"/><stop offset="1"/></radialGradient><radialGradient id="paint1_radial" cx="0" cy="0" r="1" gradientUnits="userSpaceOnUse" gradientTransform="matrix(244.001 0 0 231.324 1156.63 592.641)"><stop stop-color="#DC0046"/><stop offset=".05" stop-color="#CB0041"/><stop offset=".243" stop-color="#8E002D"/><stop offset=".429" stop-color="#5B001D"/><stop offset=".603" stop-color="#340010"/><stop offset=".761" stop-color="#170007"/><stop offset=".898" stop-color="#060002"/><stop offset="1"/></radialGradient><radialGradient id="paint2_radial" cx="0" cy="0" r="1" gradientUnits="userSpaceOnUse" gradientTransform="matrix(74.3452 0 0 70.4828 1044.9 773.491)"><stop stop-color="#DC0046"/><stop offset=".05" stop-color="#CB0041"/><stop offset=".243" stop-color="#8E002D"/><stop offset=".429" stop-color="#5B001D"/><stop offset=".603" stop-color="#340010"/><stop offset=".761" stop-color="#170007"/><stop offset=".898" stop-color="#060002"/><stop offset="1"/></radialGradient><radialGradient id="paint3_radial" cx="0" cy="0" r="1" gradientUnits="userSpaceOnUse" gradientTransform="matrix(60.4355 0 0 57.2958 1357 992.705)"><stop stop-color="#DC0046"/><stop offset=".05" stop-color="#CB0041"/><stop offset=".243" stop-color="#8E002D"/><stop offset=".429" stop-color="#5B001D"/><stop offset=".603" stop-color="#340010"/><stop offset=".761" stop-color="#170007"/><stop offset=".898" stop-color="#060002"/><stop offset="1"/></radialGradient><radialGradient id="paint4_radial" cx="0" cy="0" r="1" gradientUnits="userSpaceOnUse" gradientTransform="matrix(103.663 0 0 98.2772 1528.48 783.309)"><stop stop-color="#DC0046"/><stop offset=".05" stop-color="#CB0041"/><stop offset=".243" stop-color="#8E002D"/><stop offset=".429" stop-color="#5B001D"/><stop offset=".603" stop-color="#340010"/><stop offset=".761" stop-color="#170007"/><stop offset=".898" stop-color="#060002"/><stop offset="1"/></radialGradient><radialGradient id="paint5_radial" cx="0" cy="0" r="1" gradientUnits="userSpaceOnUse" gradientTransform="matrix(58.6209 0 0 55.5754 1282.67 873.597)"><stop stop-color="#DC0046"/><stop offset=".05" stop-color="#CB0041"/><stop offset=".243" stop-color="#8E002D"/><stop offset=".429" stop-color="#5B001D"/><stop offset=".603" stop-color="#340010"/><stop offset=".761" stop-color="#170007"/><stop offset=".898" stop-color="#060002"/><stop offset="1"/></radialGradient><radialGradient id="paint6_radial" cx="0" cy="0" r="1" gradientUnits="userSpaceOnUse" gradientTransform="matrix(64.6395 0 0 61.2813 1507.55 687.562)"><stop stop-color="#DC0046"/><stop offset=".05" stop-color="#CB0041"/><stop offset=".243" stop-color="#8E002D"/><stop offset=".429" stop-color="#5B001D"/><stop offset=".603" stop-color="#340010"/><stop offset=".761" stop-color="#170007"/><stop offset=".898" stop-color="#060002"/><stop offset="1"/></radialGradient><radialGradient id="paint7_radial" cx="0" cy="0" r="1" gradientUnits="userSpaceOnUse" gradientTransform="matrix(45.8211 0 0 43.4408 1507.83 535.028)"><stop stop-color="#DC0046"/><stop offset=".05" stop-color="#CB0041"/><stop offset=".243" stop-color="#8E002D"/><stop offset=".429" stop-color="#5B001D"/><stop offset=".603" stop-color="#340010"/><stop offset=".761" stop-color="#170007"/><stop offset=".898" stop-color="#060002"/><stop offset="1"/></radialGradient><radialGradient id="paint8_radial" cx="0" cy="0" r="1" gradientUnits="userSpaceOnUse" gradientTransform="matrix(50.698 0 0 48.0642 1666.06 476.398)"><stop stop-color="#DC0046"/><stop offset=".05" stop-color="#CB0041"/><stop offset=".243" stop-color="#8E002D"/><stop offset=".429" stop-color="#5B001D"/><stop offset=".603" stop-color="#340010"/><stop offset=".761" stop-color="#170007"/><stop offset=".898" stop-color="#060002"/><stop offset="1"/></radialGradient><radialGradient id="paint9_radial" cx="0" cy="0" r="1" gradientUnits="userSpaceOnUse" gradientTransform="matrix(42.2316 0 0 40.0374 1349.81 532.825)"><stop stop-color="#DC0046"/><stop offset=".05" stop-color="#CB0041"/><stop offset=".243" stop-color="#8E002D"/><stop offset=".429" stop-color="#5B001D"/><stop offset=".603" stop-color="#340010"/><stop offset=".761" stop-color="#170007"/><stop offset=".898" stop-color="#060002"/><stop offset="1"/></radialGradient><radialGradient id="paint10_radial" cx="0" cy="0" r="1" gradientUnits="userSpaceOnUse" gradientTransform="matrix(40.6859 0 0 38.5722 1074.66 641.088)"><stop stop-color="#DC0046"/><stop offset=".05" stop-color="#CB0041"/><stop offset=".243" stop-color="#8E002D"/><stop offset=".429" stop-color="#5B001D"/><stop offset=".603" stop-color="#340010"/><stop offset=".761" stop-color="#170007"/><stop offset=".898" stop-color="#060002"/><stop offset="1"/></radialGradient><radialGradient id="paint11_radial" cx="0" cy="0" r="1" gradientUnits="userSpaceOnUse" gradientTransform="matrix(41.9204 0 0 39.7425 840.931 691.955)"><stop stop-color="#DC0046"/><stop offset=".05" stop-color="#CB0041"/><stop offset=".243" stop-color="#8E002D"/><stop offset=".429" stop-color="#5B001D"/><stop offset=".603" stop-color="#340010"/><stop offset=".761" stop-color="#170007"/><stop offset=".898" stop-color="#060002"/><stop offset="1"/></radialGradient><radialGradient id="paint12_radial" cx="0" cy="0" r="1" gradientUnits="userSpaceOnUse" gradientTransform="matrix(108.238 0 0 102.615 1130.59 345.409)"><stop stop-color="#DC0046"/><stop offset=".05" stop-color="#CB0041"/><stop offset=".243" stop-color="#8E002D"/><stop offset=".429" stop-color="#5B001D"/><stop offset=".603" stop-color="#340010"/><stop offset=".761" stop-color="#170007"/><stop offset=".898" stop-color="#060002"/><stop offset="1"/></radialGradient><radialGradient id="paint13_radial" cx="0" cy="0" r="1" gradientUnits="userSpaceOnUse" gradientTransform="matrix(166.902 0 0 158.231 1367.11 158.228)"><stop stop-color="#DC0046"/><stop offset=".05" stop-color="#CB0041"/><stop offset=".243" stop-color="#8E002D"/><stop offset=".429" stop-color="#5B001D"/><stop offset=".603" stop-color="#340010"/><stop offset=".761" stop-color="#170007"/><stop offset=".898" stop-color="#060002"/><stop offset="1"/></radialGradient><radialGradient id="paint14_radial" cx="0" cy="0" r="1" gradientUnits="userSpaceOnUse" gradientTransform="matrix(48.3303 0 0 45.8194 1661.27 446.206)"><stop stop-color="#DC0046"/><stop offset=".05" stop-color="#CB0041"/><stop offset=".243" stop-color="#8E002D"/><stop offset=".429" stop-color="#5B001D"/><stop offset=".603" stop-color="#340010"/><stop offset=".761" stop-color="#170007"/><stop offset=".898" stop-color="#060002"/><stop offset="1"/></radialGradient><radialGradient id="paint15_radial" cx="0" cy="0" r="1" gradientUnits="userSpaceOnUse" gradientTransform="matrix(49.2203 0 0 46.6632 1746.9 271.257)"><stop stop-color="#DC0046"/><stop offset=".05" stop-color="#CB0041"/><stop offset=".243" stop-color="#8E002D"/><stop offset=".429" stop-color="#5B001D"/><stop offset=".603" stop-color="#340010"/><stop offset=".761" stop-color="#170007"/><stop offset=".898" stop-color="#060002"/><stop offset="1"/></radialGradient><radialGradient id="paint16_radial" cx="0" cy="0" r="1" gradientUnits="userSpaceOnUse" gradientTransform="matrix(55.9122 0 0 53.0072 1823.99 182.126)"><stop stop-color="#DC0046"/><stop offset=".05" stop-color="#CB0041"/><stop offset=".243" stop-color="#8E002D"/><stop offset=".429" stop-color="#5B001D"/><stop offset=".603" stop-color="#340010"/><stop offset=".761" stop-color="#170007"/><stop offset=".898" stop-color="#060002"/><stop offset="1"/></radialGradient><radialGradient id="paint17_radial" cx="0" cy="0" r="1" gradientUnits="userSpaceOnUse" gradientTransform="matrix(146.367 0 0 138.763 432.961 549.192)"><stop stop-color="#DC0046"/><stop offset=".05" stop-color="#CB0041"/><stop offset=".243" stop-color="#8E002D"/><stop offset=".429" stop-color="#5B001D"/><stop offset=".603" stop-color="#340010"/><stop offset=".761" stop-color="#170007"/><stop offset=".898" stop-color="#060002"/><stop offset="1"/></radialGradient><radialGradient id="paint18_radial" cx="0" cy="0" r="1" gradientUnits="userSpaceOnUse" gradientTransform="matrix(41.9682 0 0 39.7879 453.556 791.285)"><stop stop-color="#DC0046"/><stop offset=".05" stop-color="#CB0041"/><stop offset=".243" stop-color="#8E002D"/><stop offset=".429" stop-color="#5B001D"/><stop offset=".603" stop-color="#340010"/><stop offset=".761" stop-color="#170007"/><stop offset=".898" stop-color="#060002"/><stop offset="1"/></radialGradient><radialGradient id="paint19_radial" cx="0" cy="0" r="1" gradientUnits="userSpaceOnUse" gradientTransform="matrix(41.9201 0 0 39.7423 41.925 672.742)"><stop stop-color="#DC0046"/><stop offset=".05" stop-color="#CB0041"/><stop offset=".243" stop-color="#8E002D"/><stop offset=".429" stop-color="#5B001D"/><stop offset=".603" stop-color="#340010"/><stop offset=".761" stop-color="#170007"/><stop offset=".898" stop-color="#060002"/><stop offset="1"/></radialGradient><radialGradient id="paint20_radial" cx="0" cy="0" r="1" gradientUnits="userSpaceOnUse" gradientTransform="matrix(39.5885 0 0 37.5318 75.164 183.033)"><stop stop-color="#DC0046"/><stop offset=".05" stop-color="#CB0041"/><stop offset=".243" stop-color="#8E002D"/><stop offset=".429" stop-color="#5B001D"/><stop offset=".603" stop-color="#340010"/><stop offset=".761" stop-color="#170007"/><stop offset=".898" stop-color="#060002"/><stop offset="1"/></radialGradient><radialGradient id="paint21_radial" cx="0" cy="0" r="1" gradientUnits="userSpaceOnUse" gradientTransform="matrix(51.3133 0 0 48.6475 275.887 704.773)"><stop stop-color="#DC0046"/><stop offset=".05" stop-color="#CB0041"/><stop offset=".243" stop-color="#8E002D"/><stop offset=".429" stop-color="#5B001D"/><stop offset=".603" stop-color="#340010"/><stop offset=".761" stop-color="#170007"/><stop offset=".898" stop-color="#060002"/><stop offset="1"/></radialGradient></defs></svg>