<svg width="1920" height="800" fill="none" xmlns="http://www.w3.org/2000/svg"><mask id="mask0" style="mask-type:alpha" maskUnits="userSpaceOnUse" x="0" y="0" width="1920" height="800"><path fill="#C4C4C4" d="M0 0h1920v800H0z"/></mask><g mask="url(#mask0)"><path stroke="#B961FF" stroke-opacity=".2" d="M1763.71-76.293l240.5 240.5-70.004 70.003-240.5-240.5zm-282.25.754l519.557 519.557-70.004 70.003L1411.457-5.535zm-417.71-134.717l998.597 998.597-70.003 70.004-998.598-998.597zM701.643-289.36L2026.21 1035.207l-70.004 70.003L631.639-219.356zM545.326-162.677l1508.952 1508.952-70.004 70.003L475.322-92.673zM99.26-325.743l1932.05 1932.049-70.004 70.003L29.256-255.74zm-421.371-138.371l2401.25 2401.25-70.004 70.003-2401.25-2401.25zm-141.5 141.5l2534.596 2534.596-70.004 70.004L-533.615-252.61zm-181.011 101.989L2155.033 2579.03l-70.004 70.004L-714.626-150.621zm174.59 457.59l2710.75 2710.75-70.003 70.004-2710.75-2710.75zm250.319 533.319l2766.725 2766.725-70.004 70.004L-289.717 840.288z"/><path stroke="#B961FF" stroke-opacity=".2" d="M350.923-75.539l-519.557 519.557 70.004 70.003L420.927-5.535zM1130.75-289.36L-193.817 1035.207l70.004 70.003L1200.754-219.356zm602.38-36.383l-1932.05 1932.05 70.004 70.003 1932.05-1932.05zm562.87 3.129L-238.597 2211.983l70.004 70.003L2366.004-252.61zm6.42 559.578L-408.331 2947.715l70.003 70.004L2372.424 306.968z"/><path transform="rotate(45 1004.59 -272)" fill="url(#paint0_linear)" d="M1004.59-272h1413.23V28.643H1004.59z"/><path transform="rotate(45 350.131 491.805)" fill="url(#paint1_linear)" d="M350.131 491.805h500.82v500.817h-500.82z"/><path transform="rotate(-45 846 277.133)" fill="url(#paint2_linear)" d="M846 277.133h500.82V777.95H846z"/><path opacity=".65" d="M-245 1180c864.878 0 1566-448.611 1566-1002S619.878-824-245-824c-864.88 0-1566 448.611-1566 1002s701.12 1002 1566 1002z" fill="url(#paint3_radial)" fill-opacity=".4"/></g><defs><linearGradient id="paint0_linear" x1="1711.2" y1="-272" x2="1711.2" y2="28.643" gradientUnits="userSpaceOnUse"><stop stop-color="#F28D55" stop-opacity="0"/><stop offset="1" stop-color="#F28D55" stop-opacity=".1"/></linearGradient><linearGradient id="paint1_linear" x1="350.409" y1="491.575" x2="641.383" y2="782.55" gradientUnits="userSpaceOnUse"><stop stop-color="#B961FF" stop-opacity=".1"/><stop offset="1" stop-color="#B961FF" stop-opacity="0"/></linearGradient><linearGradient id="paint2_linear" x1="846.277" y1="276.904" x2="1137.25" y2="567.878" gradientUnits="userSpaceOnUse"><stop stop-color="#B961FF" stop-opacity=".1"/><stop offset="1" stop-color="#B961FF" stop-opacity="0"/></linearGradient><radialGradient id="paint3_radial" cx="0" cy="0" r="1" gradientUnits="userSpaceOnUse" gradientTransform="matrix(1566.02 0 0 1002.01 -245 178.007)"><stop stop-color="#6C00C1"/><stop offset=".086" stop-color="#5B00A3"/><stop offset=".266" stop-color="#46007C"/><stop offset=".441" stop-color="#2F0054"/><stop offset=".606" stop-color="#22003D"/><stop offset=".759" stop-color="#0F001C"/><stop offset=".894" stop-color="#07000D"/><stop offset="1"/></radialGradient></defs></svg>