<svg width="1920" height="800" fill="none" xmlns="http://www.w3.org/2000/svg"><mask id="mask0" style="mask-type:alpha" maskUnits="userSpaceOnUse" x="0" y="0" width="1920" height="800"><path fill="#C4C4C4" d="M0 0h1920v800H0z"/></mask><g mask="url(#mask0)"><path opacity=".65" d="M2657 1096c864.88 0 1566-448.611 1566-1002S3521.88-908 2657-908 1091-459.389 1091 94s701.12 1002 1566 1002z" fill="url(#paint0_radial)" fill-opacity=".4"/><path stroke="#B961FF" stroke-opacity=".2" d="M1063.75-1010.26l998.597 998.597-70.003 70.004-998.598-998.597zm-362.107-79.1L2026.21 235.207l-70.004 70.003L631.639-1019.356zM545.326-962.677L2054.278 546.275l-70.004 70.003L475.322-892.673zM99.26-1125.74L2031.31 806.309l-70.004 70.003L29.256-1055.737z"/><path stroke="#B961FF" stroke-opacity=".2" d="M2296-1122.61L1129.189 44.2l70.003 70.004 1166.812-1166.811zm6.42 559.575L1412.193 327.19l70.004 70.004 890.227-890.226zm-378.81 944.813l-228.417 228.417 70.004 70.003 228.417-228.416z"/></g><defs><radialGradient id="paint0_radial" cx="0" cy="0" r="1" gradientUnits="userSpaceOnUse" gradientTransform="matrix(1566.02 0 0 1002.01 2657 94.007)"><stop stop-color="#6C00C1"/><stop offset=".086" stop-color="#5B00A3"/><stop offset=".266" stop-color="#46007C"/><stop offset=".441" stop-color="#2F0054"/><stop offset=".606" stop-color="#22003D"/><stop offset=".759" stop-color="#0F001C"/><stop offset=".894" stop-color="#07000D"/><stop offset="1"/></radialGradient></defs></svg>