<svg width="1920" height="566" fill="none" xmlns="http://www.w3.org/2000/svg"><mask id="mask0" style="mask-type:alpha" maskUnits="userSpaceOnUse" x="0" y="0" width="1920" height="566"><path fill="#C4C4C4" d="M0 0h1920v566H0z"/></mask><g mask="url(#mask0)"><path opacity=".41" d="M-246.982 666.035c497.618 0 901.017-403.399 901.017-901.017 0-497.619-403.399-901.018-901.017-901.018C-744.601-1136-1148-732.601-1148-234.982c0 497.618 403.399 901.017 901.018 901.017z" fill="url(#paint0_radial)"/><path opacity=".65" d="M2006 1991c553.39 0 1002-448.61 1002-1002 0-553.389-448.61-1002-1002-1002S1004 435.611 1004 989c0 553.39 448.61 1002 1002 1002z" fill="url(#paint1_radial)" fill-opacity=".6"/><path d="M-67.195 905.232l-106.043-155.668 134.407-137.947 124.35 303.605L221.8 1020.57l105.921-159.561-64.319-191.6 158.781-20.54 225.849-29.261-181.753 298.593 271.347-72.605-15.518 149.243 91.57 204.061 163.672 125.59 145.89 82.35-107.48-237.93-36.333-327.892 335.673-91.982 248.04-67.988 157.83-1.757-82.85 241.06-34.52 100.429-395.44-199.902-122.46 229.272 298.54-157.166 86.33-45.439-149.15-18.715 224.64-255.189 15.24 108.846 21.09 211.761-234.89 35.766 74.42 60.866L1283 1188.05l81.89 73.23 139.01-107.91-71.83-107.7 44.41 357.45 144.91-88.09 132.95-356.763-149.65 62.023 72.47 78.03 51.06 262.48 233.68 335.94 118.84-56.42-25.35-192.1-207.94 40.37 189.72-337.64-212.14-94.9-61.45 110.76 249.38-133.69-291.44-353.677 3.78 194.67 227.02 55.448 114.51-108.807-114.78-378.949-7.57 359.269-130.44-70.922-33.25-150.411 179.42-16.12 30.96 80.312 105.87-92.596-340.58-125.956 39.81-164.086 154.82 179.295 110.24-243.143 34.98 352.709" stroke="#740291" stroke-width=".463" stroke-miterlimit="10"/><path d="M979.428 841.018l228.892-18.902L1283 1188.05l-266.21-19.76-279.164-322.695 241.802-4.577zm0 0l439.342 150.444-53.88 269.818 109.77 140.29-353.16 5.54 161.07-217.72 150.12-142.25 170.91-26.36-99.7 132.59 259.68 13.44-142.19 148.22 415.78-164.08-25.61-117.71-257.13-73.925 9.15 207.495-87.17-67.3 147.07-41.61-218.79-37.61-22.3-126.042-111.82-46.703 250.95-168.102-175.98-102.137 102.07-73.526 108.85-78.399 203.75 138.24-145.88 164.453 177.59-87.116" stroke="#740291" stroke-width=".463" stroke-miterlimit="10"/><path d="M1318.25 829.404l-109.93-7.288 154.64 438.374 107.61-412.945 75.49-273.904 178.44 302.416 29.93 83.259 69.05 98.584-9.15-329.826 222.84 422.876 29.66-330.196 31.46-270.97-146.24-107.979-195.59-16.424 24.33 154.361 207.85 62.652 78.6 175.339-124.66-17.791 9.74 129.62-128.03 129.148 23.16 429.88-122.28-128.07-248.69 42.6 485.42 293.62 93.73-250.79-19.75-296.72M263.402 669.409l-436.64 80.155L85.518 915.222l-154.046-11.455 30.6-291.861 301.33 57.503zm0 0L85.518 915.222m561.784-296.576L327.721 861.01 85.518 915.222l728.16 283.678-132.752-462.974-33.624-117.28z" stroke="#740291" stroke-width=".463" stroke-miterlimit="10"/><path d="M1756.33 429.906c-6.03-.865-4.71-10.25 1.34-9.376 6.04.841 4.72 10.226-1.34 9.376z" fill="#710F9F"/><path d="M1756.77 426.789c.62.098.92-.092 1.08-.223.28-.248.47-.67.54-1.137.11-.724-.03-1.597-1.19-1.767-.62-.098-.92.092-1.08.223-.28.248-.47.669-.54 1.137-.1.7.03 1.597 1.19 1.767z" fill="#F4DDFF"/><path d="M1795.93 267.302c-6.03-.865-4.7-10.25 1.34-9.376 6.03.865 4.71 10.25-1.34 9.376z" fill="#710F9F"/><path d="M1796.37 264.184c1.17.17 1.54-.649 1.64-1.35.11-.725-.02-1.597-1.19-1.767-.62-.099-.91.092-1.07.223-.29.247-.47.669-.54 1.136-.1.701 0 1.588 1.16 1.758z" fill="#F4DDFF"/><path d="M1686.75-602.397l154.39 107.853-76.62 176.717-224.07-239.642-164.84-50.073-42.34 186.752 128.17 156.262-141.1 75.622L1119.58-81.36l63.85-343.68-227.867 164.25-38.502-144.999-158.08-158.259L561.4-623.312l-165.632-25.165 184.96 184.243 150.426 293.607L450.066 34.608 242.347 186.237 95.429 243.939 87.262-10.832 83.858-116.97l440.627 46.413 33.049-257.817L334.277-75.421 269.739-2.28l146.074-35.482-119.347 318.361-52.941-96.358L148.6-6.224l206.874-116.838-91.188-30.49 59.828-233.651-102.554-39.373-91.622 150.246 105.42 75.162L66.859-519.504-37.307-385.718-34.85-4.995l117.837-111.13-95.462-47.206-140.954-227.2-337.766-231.066-91.059 94.951 91.929 170.572 180.045-111.59-57.421 383.027 232.039 13.338 18.099-125.363-185.626 213.555L94.866 243.99 22.162 63.357l-231.885 28.8-68.403 142.387 241.894 313.472-120.55-338.534L-9.659 229.45l84.531 128.793L-87.15 437.04l-57.447-64.077-66.073 124.186 363.084-3.251 21.069 167.526-208.384-112.589-16.717 266.419-157.952-317.286" stroke="#589CFF" stroke-width=".463" stroke-miterlimit="10"/><path d="M94.43 242.455L74.872 358.243 20.856 62.103l-30.054 169.42L94.43 242.455z" stroke="#589CFF" stroke-width=".463" stroke-miterlimit="10"/><path d="M731.154-170.627L523.896-71.632 324.114-387.203l255.872-76.083L955.563-260.79l-224.409 90.163zm0 0l-464.103 15.411-45.491-271.36-152.448-92.16 328.192-130.611-73.242 260.736-89.83 186.317L83.858-116.97l46.08-159.36-247.501 79.668 80.256-189.056-330.394 301.081 65.767 100.915 266.598-22.22-82.227-190.72 105.395 31.974-122.701 91.11 217.856-42.547L148.6-6.224l121.139 3.942L94.866 243.99l200.78 32.973-69.324 104.986-73.908 111.949L-87.15 437.04l77.952-205.517-135.066 144.487" stroke="#589CFF" stroke-width=".463" stroke-miterlimit="10"/><path d="M418.552-39.427l105.344-32.205-300.237-354.893 46.08 424.243 26.727 282.88L22.213 61.258l-57.549-67.2-99.533-67.636 125.67 305.101L-367.7-84.637l89.575 319.181 66.816 264.474 175.078 48.998 188.646-54.118-77.542-135.655-216.576 15.283-135.757-136.012 122.855-27.648-55.117-117.71 73.779-166.169-174.336-393.651 159.795 76.288L66.859-519.504l-558.054-102.093 1.459 267.751 123.853 270.361" stroke="#589CFF" stroke-width=".463" stroke-miterlimit="10"/><path d="M93.79 238.077c5.94-1.331 8.039 7.91 2.074 9.242-5.94 1.356-8.038-7.885-2.074-9.242z" fill="#589CFF"/><path d="M94.482 241.174c-1.152.256-1.204 1.152-1.05 1.844.154.716.589 1.484 1.74 1.228.615-.128.82-.409.922-.588.18-.333.205-.794.103-1.255-.154-.717-.589-1.485-1.715-1.229z" fill="#EEF5FF"/><path d="M72.952 353.635c5.94-1.331 8.038 7.91 2.074 9.242-5.94 1.356-8.039-7.885-2.074-9.242z" fill="#589CFF"/><path d="M73.643 356.732c-.614.128-.819.41-.921.589-.18.333-.205.794-.103 1.255.154.716.59 1.484 1.741 1.228.615-.128.82-.409.922-.588.179-.333.205-.794.102-1.255-.153-.717-.589-1.485-1.74-1.229z" fill="#EEF5FF"/><g opacity=".6"><path d="M241.835 181.322c5.939-1.331 8.039 7.91 2.074 9.241-5.939 1.357-8.038-7.884-2.074-9.241z" fill="#589CFF"/><path d="M242.527 184.419c-.615.128-.82.41-.922.589-.179.333-.205.794-.102 1.254.153.717.588 1.485 1.74 1.229.615-.128.82-.409.922-.589.179-.332.205-.793.102-1.254-.153-.717-.588-1.485-1.74-1.229z" fill="#EEF5FF"/></g><path d="M20.42 57.853c5.94-1.331 8.04 7.91 2.074 9.242-5.939 1.356-8.038-7.885-2.073-9.242z" fill="#589CFF"/><path d="M21.112 60.925c-1.152.256-1.203 1.152-1.05 1.843.154.717.59 1.485 1.741 1.23.615-.129.82-.41.922-.59.18-.332.205-.793.102-1.254-.153-.691-.589-1.485-1.715-1.229z" fill="#EEF5FF"/><path d="M269.227-9.091c5.939-1.332 8.039 7.91 2.074 9.241-5.939 1.331-8.038-7.91-2.074-9.241zm24.756 283.289c5.939-1.331 8.038 7.911 2.073 9.242-5.939 1.357-8.038-7.885-2.073-9.242z" fill="#589CFF"/><path d="M294.674 277.296c-1.152.256-1.204 1.152-1.024 1.843.153.717.588 1.485 1.74 1.229.615-.128.82-.41.922-.589.179-.333.205-.794.102-1.254-.179-.717-.588-1.485-1.74-1.229z" fill="#EEF5FF"/><path d="M150.93 489.622c5.939-1.331 8.038 7.911 2.073 9.242-5.939 1.357-8.013-7.885-2.073-9.242z" fill="#589CFF"/><path d="M151.621 492.72c-.615.128-.819.409-.922.589-.179.332-.205.793-.102 1.254.153.717.589 1.485 1.741 1.229.614-.128.819-.41.921-.589.179-.333.205-.794.103-1.254-.154-.717-.589-1.485-1.741-1.229z" fill="#EEF5FF"/><path d="M225.901-8.722c-2.391 6.294-9.458 9.469-15.752 7.078-6.294-2.392-9.469-9.459-7.078-15.753 2.392-6.293 9.459-9.469 15.753-7.077 6.294 2.391 9.478 9.434 7.077 15.752z" fill="url(#paint2_radial)"/><path opacity=".899" d="M327.152 93.393c-1.991 5.241-7.869 7.882-13.11 5.89-5.241-1.99-7.882-7.869-5.891-13.11 1.991-5.24 7.869-7.881 13.11-5.89 5.241 1.991 7.882 7.87 5.891 13.11z" fill="url(#paint3_radial)"/><path opacity=".601" d="M1078.25 45.85c-2.08 5.457-8.18 8.178-13.61 6.114-5.45-2.073-8.18-8.173-6.11-13.606 2.07-5.456 8.17-8.177 13.6-6.113 5.44 2.064 8.18 8.173 6.12 13.606z" fill="url(#paint4_radial)"/><path opacity=".45" d="M1435.7 15.246c-1.95 5.145-7.73 7.742-12.88 5.787-5.14-1.955-7.74-7.734-5.78-12.88 1.95-5.144 7.73-7.741 12.88-5.786 5.14 1.955 7.74 7.734 5.78 12.88z" fill="url(#paint5_radial)"/><path opacity=".926" d="M1769.16 84.271c-2.6 6.845-10.26 10.287-17.11 7.686-6.84-2.6-10.28-10.261-7.68-17.106 2.6-6.844 10.26-10.286 17.1-7.686 6.85 2.6 10.29 10.262 7.69 17.106z" fill="url(#paint6_radial)"/><path opacity=".401" d="M1398.36-2.585c-1.94 5.097-7.65 7.664-12.75 5.727-5.1-1.936-7.66-7.65-5.73-12.747 1.94-5.097 7.65-7.664 12.75-5.727 5.1 1.937 7.67 7.65 5.73 12.747z" fill="url(#paint7_radial)"/><path opacity=".513" d="M930.486 36.236c5.604 2.13 11.872-.688 14.002-6.291 2.129-5.604-.688-11.873-6.292-14.002-5.603-2.13-11.872.687-14.002 6.29-2.129 5.605.688 11.874 6.292 14.003z" fill="url(#paint8_radial)"/><path opacity=".591" d="M681.282-9.979c-2.192 5.768-8.664 8.676-14.432 6.485-5.767-2.192-8.675-8.664-6.484-14.432 2.192-5.767 8.664-8.675 14.432-6.484 5.767 2.191 8.675 8.664 6.484 14.431z" fill="url(#paint9_radial)"/><path opacity=".77" d="M452.485 97.17a8.96 8.96 0 0011.558-5.193 8.96 8.96 0 00-5.193-11.559 8.96 8.96 0 00-11.558 5.194 8.96 8.96 0 005.193 11.558z" fill="url(#paint10_radial)"/><path opacity=".596" d="M267.321 264.194c-2.3 6.055-9.07 9.097-15.125 6.796-6.054-2.3-9.096-9.07-6.795-15.125 2.3-6.054 9.07-9.096 15.124-6.795 6.046 2.324 9.097 9.07 6.796 15.124z" fill="url(#paint11_radial)"/><path opacity=".37" d="M136.896 371.339c-2.883 7.586-11.37 11.399-18.956 8.517-7.586-2.883-11.399-11.37-8.517-18.956 2.882-7.586 11.369-11.399 18.955-8.517 7.586 2.883 11.4 11.37 8.518 18.956z" fill="url(#paint12_radial)"/><path opacity=".527" d="M648.034 152.629c-1.51 3.972-5.968 5.975-9.94 4.466-3.973-1.509-5.976-5.968-4.467-9.94 1.51-3.973 5.968-5.976 9.94-4.466 3.973 1.509 5.976 5.967 4.467 9.94z" fill="url(#paint13_radial)"/><path opacity=".421" d="M748.045 36.805a10.073 10.073 0 01-13.011 5.846 10.073 10.073 0 01-5.846-13.011 10.073 10.073 0 0113.011-5.847c5.193 1.974 7.829 7.795 5.846 13.012z" fill="url(#paint14_radial)"/><path opacity=".489" d="M962.496 77.4a10.642 10.642 0 01-13.738 6.172 10.64 10.64 0 01-6.172-13.738 10.64 10.64 0 0113.737-6.172 10.641 10.641 0 016.173 13.738z" fill="url(#paint15_radial)"/><path opacity=".86" d="M1669.88 61.227c-2.38 6.27-9.39 9.416-15.66 7.034-6.27-2.383-9.41-9.384-7.03-15.653 2.38-6.27 9.38-9.416 15.65-7.034 6.27 2.383 9.42 9.384 7.04 15.653z" fill="url(#paint16_radial)"/><path opacity=".493" d="M660.467 130.214c-1.555 4.092-6.146 6.154-10.238 4.599-4.092-1.554-6.154-6.145-4.599-10.237 1.554-4.092 6.145-6.155 10.237-4.6 4.107 1.588 6.145 6.169 4.6 10.238z" fill="url(#paint17_radial)"/><path opacity=".615" d="M546.955 201.994a7.263 7.263 0 01-9.378 4.214 7.264 7.264 0 01-4.214-9.378 7.264 7.264 0 019.378-4.214 7.263 7.263 0 014.214 9.378z" fill="url(#paint18_radial)"/><path opacity=".371" d="M208.279 381.098c-2.846 7.491-11.201 11.245-18.692 8.399-7.49-2.846-11.244-11.201-8.398-18.692 2.846-7.49 11.201-11.244 18.691-8.398 7.49 2.846 11.245 11.201 8.399 18.691z" fill="url(#paint19_radial)"/><path opacity=".398" d="M261.587 361.452c-2.61 6.869-10.304 10.326-17.172 7.716-6.869-2.609-10.326-10.304-7.716-17.172 2.609-6.868 10.304-10.325 17.172-7.716 6.868 2.61 10.325 10.304 7.716 17.172z" fill="url(#paint20_radial)"/><path opacity=".637" d="M591.409 219.131a7.577 7.577 0 01-9.775 4.392 7.56 7.56 0 01-4.392-9.775 7.56 7.56 0 019.775-4.392 7.561 7.561 0 014.392 9.775z" fill="url(#paint21_radial)"/><path opacity=".497" d="M751.299 166.123c-1.782 4.69-7.033 7.049-11.724 5.267-4.69-1.782-7.049-7.033-5.267-11.723s7.033-7.05 11.723-5.268c4.691 1.783 7.05 7.033 5.268 11.724z" fill="url(#paint22_radial)"/><path opacity=".545" d="M1018.95 80.611a10.641 10.641 0 01-13.74 6.173 10.641 10.641 0 01-6.17-13.738 10.641 10.641 0 0113.74-6.173 10.645 10.645 0 016.17 13.738z" fill="url(#paint23_radial)"/><path opacity=".566" d="M1521.42 551.272c-1.97 5.169-7.74 7.766-12.91 5.802-5.17-1.964-7.77-7.743-5.81-12.912 1.97-5.169 7.75-7.766 12.92-5.802 5.17 1.964 7.76 7.743 5.8 12.912z" fill="url(#paint24_radial)"/><path opacity=".657" d="M1800.56 419.437c5.74 2.179 12.16-.704 14.34-6.44 2.18-5.736-.71-12.153-6.44-14.332-5.74-2.18-12.16.703-14.34 6.439-2.18 5.736.71 12.153 6.44 14.333z" fill="url(#paint25_radial)"/><path opacity=".747" d="M1892.23 354.255c5.22 1.984 11.06-.64 13.05-5.861 1.98-5.22-.64-11.061-5.86-13.044-5.22-1.984-11.06.64-13.05 5.861-1.98 5.221.64 11.061 5.86 13.044z" fill="url(#paint26_radial)"/><path opacity=".5" d="M1564 575.559a10.07 10.07 0 01-13.01 5.846c-5.21-1.982-7.83-7.794-5.84-13.011a10.07 10.07 0 0113.01-5.847c5.21 1.983 7.83 7.795 5.84 13.012z" fill="url(#paint27_radial)"/><path opacity=".672" d="M1684.17 469.335c-2.23 5.863-8.77 8.801-14.63 6.574-5.87-2.228-8.8-8.767-6.58-14.63 2.23-5.863 8.77-8.801 14.63-6.573 5.87 2.228 8.8 8.766 6.58 14.629z" fill="url(#paint28_radial)"/><path opacity=".525" d="M1596.73 558.116c-2.01 5.289-7.93 7.969-13.24 5.95-5.29-2.009-7.97-7.929-5.95-13.242a10.246 10.246 0 0113.24-5.95 10.249 10.249 0 015.95 13.242z" fill="url(#paint29_radial)"/><path opacity=".832" d="M1190.17 570.719c-2.55 6.701-10.05 10.093-16.78 7.538-6.7-2.546-10.09-10.052-7.54-16.776 2.55-6.701 10.05-10.093 16.78-7.538 6.71 2.579 10.08 10.075 7.54 16.776z" fill="url(#paint30_radial)"/><path opacity=".819" d="M1673.32 411.181c-2.24 5.887-8.84 8.854-14.73 6.618-5.89-2.237-8.86-8.842-6.62-14.729 2.24-5.887 8.84-8.855 14.73-6.618 5.89 2.237 8.86 8.818 6.62 14.729z" fill="url(#paint31_radial)"/><path opacity=".977" d="M1736.93 306.479c-2.15 5.648-8.45 8.482-14.1 6.336-5.65-2.146-8.48-8.454-6.34-14.101 2.15-5.648 8.46-8.482 14.1-6.336 5.63 2.137 8.48 8.453 6.34 14.101z" fill="url(#paint32_radial)"/><path opacity=".83" d="M1938.37 306.715c-1.88 4.93-7.39 7.408-12.32 5.535-4.93-1.873-7.41-7.388-5.54-12.318 1.88-4.93 7.39-7.408 12.32-5.534 4.93 1.873 7.41 7.388 5.54 12.317z" fill="url(#paint33_radial)"/><g opacity=".5"><path opacity=".494" d="M1569.63 636.001c23.27 8.843 49.31-2.856 58.15-26.13 8.85-23.275-2.85-49.311-26.13-58.155-23.27-8.843-49.31 2.856-58.15 26.13-8.84 23.275 2.86 49.311 26.13 58.155z" fill="url(#paint34_radial)"/><path opacity=".583" d="M1735.08 638.918c25.76 9.787 54.58-3.16 64.36-28.92 9.79-25.759-3.16-54.575-28.92-64.362-25.76-9.788-54.57 3.16-64.36 28.919s3.16 54.575 28.92 64.363z" fill="url(#paint35_radial)"/><path opacity=".325" d="M1426.34 575.34c21.45 8.15 45.44-2.632 53.59-24.083 8.16-21.45-2.63-45.446-24.08-53.597-21.45-8.15-45.44 2.632-53.59 24.082-8.16 21.451 2.63 45.447 24.08 53.598z" fill="url(#paint36_radial)"/><path opacity=".651" d="M1133.87 582.795c20.68 7.854 43.8-2.536 51.65-23.206 7.86-20.671-2.53-43.795-23.2-51.649-20.67-7.854-43.8 2.536-51.65 23.207-7.86 20.67 2.53 43.794 23.2 51.648z" fill="url(#paint37_radial)"/><path opacity=".772" d="M899.695 551.6c21.292 8.09 45.11-2.612 53.2-23.904 8.091-21.292-2.612-45.111-23.904-53.201-21.292-8.09-45.111 2.612-53.201 23.904-8.09 21.292 2.613 45.111 23.905 53.201z" fill="url(#paint38_radial)"/><path opacity=".53" d="M744.244 786.52c54.981 20.891 116.487-6.745 137.377-61.726 20.891-54.981-6.745-116.487-61.726-137.378-54.981-20.89-116.487 6.746-137.378 61.727-20.89 54.981 6.746 116.487 61.727 137.377z" fill="url(#paint39_radial)"/><path opacity=".624" d="M612.72 855.976c84.785 32.214 179.631-10.402 211.846-95.186 32.214-84.785-10.402-179.632-95.187-211.846-84.784-32.215-179.631 10.402-211.845 95.186-32.215 84.785 10.401 179.631 95.186 211.846z" fill="url(#paint40_radial)"/><path opacity=".658" d="M1742.63 605.776c24.56 9.33 52.03-3.013 61.36-27.569 9.33-24.557-3.01-52.027-27.57-61.358-24.55-9.33-52.02 3.013-61.36 27.569-9.33 24.557 3.02 52.027 27.57 61.358z" fill="url(#paint41_radial)"/><path opacity=".948" d="M1885.58 466.772c25 9.502 52.98-3.067 62.48-28.073s-3.07-52.98-28.08-62.481c-25-9.501-52.98 3.068-62.48 28.074s3.07 52.979 28.08 62.48z" fill="url(#paint42_radial)"/><path opacity=".531" d="M295.018 530.774c26.064 9.903 55.22-3.198 65.123-29.261 9.903-26.063-3.198-55.219-29.261-65.122-26.063-9.903-55.219 3.197-65.122 29.261-9.903 26.063 3.197 55.219 29.26 65.122z" fill="url(#paint43_radial)"/></g><path opacity=".216" d="M194.216 196.067c33.48 0 60.621-27.141 60.621-60.621 0-33.48-27.141-60.62-60.621-60.62-33.48 0-60.621 27.14-60.621 60.62s27.141 60.621 60.621 60.621z" fill="url(#paint44_radial)"/><path opacity=".118" d="M-61.272 287.203c40.733 0 73.754-33.02 73.754-73.753s-33.02-73.754-73.754-73.754c-40.733 0-73.753 33.021-73.753 73.754 0 40.733 33.02 73.753 73.753 73.753z" fill="url(#paint45_radial)"/><path opacity=".189" d="M-95.37 597.091c57.246 0 103.653-46.407 103.653-103.654S-38.124 389.782-95.37 389.782s-103.654 46.408-103.654 103.655 46.407 103.654 103.654 103.654z" fill="url(#paint46_radial)"/><path opacity=".215" d="M12.098 546.275c49.697 0 89.984-40.287 89.984-89.984 0-49.696-40.287-89.984-89.984-89.984-49.697 0-89.984 40.288-89.984 89.984 0 49.697 40.287 89.984 89.984 89.984z" fill="url(#paint47_radial)"/><path opacity=".273" d="M89.026 466.659c55.663 0 100.787-45.124 100.787-100.787 0-55.663-45.124-100.787-100.787-100.787-55.663 0-100.787 45.124-100.787 100.787 0 55.663 45.124 100.787 100.787 100.787z" fill="url(#paint48_radial)"/><path opacity=".166" d="M794.741 40.342c58.802 0 106.47-47.668 106.47-106.47S853.543-172.6 794.741-172.6s-106.47 47.669-106.47 106.47c0 58.803 47.668 106.471 106.47 106.471z" fill="url(#paint49_radial)"/></g><defs><radialGradient id="paint0_radial" cx="0" cy="0" r="1" gradientUnits="userSpaceOnUse" gradientTransform="translate(-246.99 -234.993) scale(901.029)"><stop stop-color="#003C9B"/><stop offset=".124" stop-color="#00296B"/><stop offset=".297" stop-color="#042965"/><stop offset=".465" stop-color="#011E4D"/><stop offset=".623" stop-color="#001330"/><stop offset=".769" stop-color="#000816"/><stop offset=".899" stop-color="#000206"/><stop offset="1"/></radialGradient><radialGradient id="paint1_radial" cx="0" cy="0" r="1" gradientUnits="userSpaceOnUse" gradientTransform="translate(2006 989.007) scale(1002.01)"><stop stop-color="#7B00DC"/><stop offset=".086" stop-color="#5B00A3"/><stop offset=".266" stop-color="#46007C"/><stop offset=".441" stop-color="#2F0054"/><stop offset=".606" stop-color="#22003D"/><stop offset=".759" stop-color="#0F001C"/><stop offset=".894" stop-color="#07000D"/><stop offset="1"/></radialGradient><radialGradient id="paint2_radial" cx="0" cy="0" r="1" gradientUnits="userSpaceOnUse" gradientTransform="rotate(20.805 142.845 577.634) scale(12.2112)"><stop stop-color="#fff"/><stop offset=".135" stop-color="#CBCBCB"/><stop offset=".311" stop-color="#8E8E8E"/><stop offset=".48" stop-color="#5B5B5B"/><stop offset=".638" stop-color="#343434"/><stop offset=".782" stop-color="#171717"/><stop offset=".907" stop-color="#060606"/><stop offset="1"/></radialGradient><radialGradient id="paint3_radial" cx="0" cy="0" r="1" gradientUnits="userSpaceOnUse" gradientTransform="rotate(20.805 -85.722 910.018) scale(10.1714)"><stop stop-color="#fff"/><stop offset=".135" stop-color="#CBCBCB"/><stop offset=".311" stop-color="#8E8E8E"/><stop offset=".48" stop-color="#5B5B5B"/><stop offset=".638" stop-color="#343434"/><stop offset=".782" stop-color="#171717"/><stop offset=".907" stop-color="#060606"/><stop offset="1"/></radialGradient><radialGradient id="paint4_radial" cx="0" cy="0" r="1" gradientUnits="userSpaceOnUse" gradientTransform="rotate(20.805 419.49 2930.928) scale(10.5598)"><stop stop-color="#fff"/><stop offset=".135" stop-color="#CBCBCB"/><stop offset=".311" stop-color="#8E8E8E"/><stop offset=".48" stop-color="#5B5B5B"/><stop offset=".638" stop-color="#343434"/><stop offset=".782" stop-color="#171717"/><stop offset=".907" stop-color="#060606"/><stop offset="1"/></radialGradient><radialGradient id="paint5_radial" cx="0" cy="0" r="1" gradientUnits="userSpaceOnUse" gradientTransform="rotate(20.805 681.312 3890.821) scale(9.9874)"><stop stop-color="#fff"/><stop offset=".135" stop-color="#CBCBCB"/><stop offset=".311" stop-color="#8E8E8E"/><stop offset=".48" stop-color="#5B5B5B"/><stop offset=".638" stop-color="#343434"/><stop offset=".782" stop-color="#171717"/><stop offset=".907" stop-color="#060606"/><stop offset="1"/></radialGradient><radialGradient id="paint6_radial" cx="0" cy="0" r="1" gradientUnits="userSpaceOnUse" gradientTransform="rotate(20.805 661.693 4824.561) scale(13.2598)"><stop stop-color="#fff"/><stop offset=".135" stop-color="#CBCBCB"/><stop offset=".311" stop-color="#8E8E8E"/><stop offset=".48" stop-color="#5B5B5B"/><stop offset=".638" stop-color="#343434"/><stop offset=".782" stop-color="#171717"/><stop offset=".907" stop-color="#060606"/><stop offset="1"/></radialGradient><radialGradient id="paint7_radial" cx="0" cy="0" r="1" gradientUnits="userSpaceOnUse" gradientTransform="rotate(20.805 711.192 3780.489) scale(9.87052)"><stop stop-color="#fff"/><stop offset=".135" stop-color="#CBCBCB"/><stop offset=".311" stop-color="#8E8E8E"/><stop offset=".48" stop-color="#5B5B5B"/><stop offset=".638" stop-color="#343434"/><stop offset=".782" stop-color="#171717"/><stop offset=".907" stop-color="#060606"/><stop offset="1"/></radialGradient><radialGradient id="paint8_radial" cx="0" cy="0" r="1" gradientUnits="userSpaceOnUse" gradientTransform="rotate(20.805 396.136 2557.904) scale(10.857)"><stop stop-color="#fff"/><stop offset=".135" stop-color="#CBCBCB"/><stop offset=".311" stop-color="#8E8E8E"/><stop offset=".48" stop-color="#5B5B5B"/><stop offset=".638" stop-color="#343434"/><stop offset=".782" stop-color="#171717"/><stop offset=".907" stop-color="#060606"/><stop offset="1"/></radialGradient><radialGradient id="paint9_radial" cx="0" cy="0" r="1" gradientUnits="userSpaceOnUse" gradientTransform="rotate(20.805 373.411 1820.113) scale(11.1877)"><stop stop-color="#fff"/><stop offset=".135" stop-color="#CBCBCB"/><stop offset=".311" stop-color="#8E8E8E"/><stop offset=".48" stop-color="#5B5B5B"/><stop offset=".638" stop-color="#343434"/><stop offset=".782" stop-color="#171717"/><stop offset=".907" stop-color="#060606"/><stop offset="1"/></radialGradient><radialGradient id="paint10_radial" cx="0" cy="0" r="1" gradientUnits="userSpaceOnUse" gradientTransform="rotate(20.805 -13.981 1285.506) scale(8.96742)"><stop stop-color="#fff"/><stop offset=".135" stop-color="#CBCBCB"/><stop offset=".311" stop-color="#8E8E8E"/><stop offset=".48" stop-color="#5B5B5B"/><stop offset=".638" stop-color="#343434"/><stop offset=".782" stop-color="#171717"/><stop offset=".907" stop-color="#060606"/><stop offset="1"/></radialGradient><radialGradient id="paint11_radial" cx="0" cy="0" r="1" gradientUnits="userSpaceOnUse" gradientTransform="rotate(20.805 -580.073 828.292) scale(11.7156)"><stop stop-color="#fff"/><stop offset=".135" stop-color="#CBCBCB"/><stop offset=".311" stop-color="#8E8E8E"/><stop offset=".48" stop-color="#5B5B5B"/><stop offset=".638" stop-color="#343434"/><stop offset=".782" stop-color="#171717"/><stop offset=".907" stop-color="#060606"/><stop offset="1"/></radialGradient><radialGradient id="paint12_radial" cx="0" cy="0" r="1" gradientUnits="userSpaceOnUse" gradientTransform="rotate(20.805 -935.586 518.474) scale(14.6941)"><stop stop-color="#fff"/><stop offset=".135" stop-color="#CBCBCB"/><stop offset=".311" stop-color="#8E8E8E"/><stop offset=".48" stop-color="#5B5B5B"/><stop offset=".638" stop-color="#343434"/><stop offset=".782" stop-color="#171717"/><stop offset=".907" stop-color="#060606"/><stop offset="1"/></radialGradient><radialGradient id="paint13_radial" cx="0" cy="0" r="1" gradientUnits="userSpaceOnUse" gradientTransform="rotate(20.805 -87.833 1820.287) scale(7.71561)"><stop stop-color="#fff"/><stop offset=".135" stop-color="#CBCBCB"/><stop offset=".311" stop-color="#8E8E8E"/><stop offset=".48" stop-color="#5B5B5B"/><stop offset=".638" stop-color="#343434"/><stop offset=".782" stop-color="#171717"/><stop offset=".907" stop-color="#060606"/><stop offset="1"/></radialGradient><radialGradient id="paint14_radial" cx="0" cy="0" r="1" gradientUnits="userSpaceOnUse" gradientTransform="rotate(20.805 278.821 2028.311) scale(10.0874)"><stop stop-color="#fff"/><stop offset=".135" stop-color="#CBCBCB"/><stop offset=".311" stop-color="#8E8E8E"/><stop offset=".48" stop-color="#5B5B5B"/><stop offset=".638" stop-color="#343434"/><stop offset=".782" stop-color="#171717"/><stop offset=".907" stop-color="#060606"/><stop offset="1"/></radialGradient><radialGradient id="paint15_radial" cx="0" cy="0" r="1" gradientUnits="userSpaceOnUse" gradientTransform="rotate(20.805 275.783 2631.208) scale(10.6394)"><stop stop-color="#fff"/><stop offset=".135" stop-color="#CBCBCB"/><stop offset=".311" stop-color="#8E8E8E"/><stop offset=".48" stop-color="#5B5B5B"/><stop offset=".638" stop-color="#343434"/><stop offset=".782" stop-color="#171717"/><stop offset=".907" stop-color="#060606"/><stop offset="1"/></radialGradient><radialGradient id="paint16_radial" cx="0" cy="0" r="1" gradientUnits="userSpaceOnUse" gradientTransform="rotate(20.805 674.242 4545.781) scale(12.1226)"><stop stop-color="#fff"/><stop offset=".135" stop-color="#CBCBCB"/><stop offset=".311" stop-color="#8E8E8E"/><stop offset=".48" stop-color="#5B5B5B"/><stop offset=".638" stop-color="#343434"/><stop offset=".782" stop-color="#171717"/><stop offset=".907" stop-color="#060606"/><stop offset="1"/></radialGradient><radialGradient id="paint17_radial" cx="0" cy="0" r="1" gradientUnits="userSpaceOnUse" gradientTransform="rotate(20.805 -20.498 1842.423) scale(7.9242)"><stop stop-color="#fff"/><stop offset=".135" stop-color="#CBCBCB"/><stop offset=".311" stop-color="#8E8E8E"/><stop offset=".48" stop-color="#5B5B5B"/><stop offset=".638" stop-color="#343434"/><stop offset=".782" stop-color="#171717"/><stop offset=".907" stop-color="#060606"/><stop offset="1"/></radialGradient><radialGradient id="paint18_radial" cx="0" cy="0" r="1" gradientUnits="userSpaceOnUse" gradientTransform="rotate(20.805 -273.038 1570.934) scale(7.26147)"><stop stop-color="#fff"/><stop offset=".135" stop-color="#CBCBCB"/><stop offset=".311" stop-color="#8E8E8E"/><stop offset=".48" stop-color="#5B5B5B"/><stop offset=".638" stop-color="#343434"/><stop offset=".782" stop-color="#171717"/><stop offset=".907" stop-color="#060606"/><stop offset="1"/></radialGradient><radialGradient id="paint19_radial" cx="0" cy="0" r="1" gradientUnits="userSpaceOnUse" gradientTransform="rotate(20.805 -926.568 718.399) scale(14.487)"><stop stop-color="#fff"/><stop offset=".135" stop-color="#CBCBCB"/><stop offset=".311" stop-color="#8E8E8E"/><stop offset=".48" stop-color="#5B5B5B"/><stop offset=".638" stop-color="#343434"/><stop offset=".782" stop-color="#171717"/><stop offset=".907" stop-color="#060606"/><stop offset="1"/></radialGradient><radialGradient id="paint20_radial" cx="0" cy="0" r="1" gradientUnits="userSpaceOnUse" gradientTransform="rotate(20.805 -847.01 856.974) scale(13.3064)"><stop stop-color="#fff"/><stop offset=".135" stop-color="#CBCBCB"/><stop offset=".311" stop-color="#8E8E8E"/><stop offset=".48" stop-color="#5B5B5B"/><stop offset=".638" stop-color="#343434"/><stop offset=".782" stop-color="#171717"/><stop offset=".907" stop-color="#060606"/><stop offset="1"/></radialGradient><radialGradient id="paint21_radial" cx="0" cy="0" r="1" gradientUnits="userSpaceOnUse" gradientTransform="rotate(20.805 -297.32 1699.767) scale(7.56889)"><stop stop-color="#fff"/><stop offset=".135" stop-color="#CBCBCB"/><stop offset=".311" stop-color="#8E8E8E"/><stop offset=".48" stop-color="#5B5B5B"/><stop offset=".638" stop-color="#343434"/><stop offset=".782" stop-color="#171717"/><stop offset=".907" stop-color="#060606"/><stop offset="1"/></radialGradient><radialGradient id="paint22_radial" cx="0" cy="0" r="1" gradientUnits="userSpaceOnUse" gradientTransform="rotate(20.805 -72.273 2104.577) scale(9.09771)"><stop stop-color="#fff"/><stop offset=".135" stop-color="#CBCBCB"/><stop offset=".311" stop-color="#8E8E8E"/><stop offset=".48" stop-color="#5B5B5B"/><stop offset=".638" stop-color="#343434"/><stop offset=".782" stop-color="#171717"/><stop offset=".907" stop-color="#060606"/><stop offset="1"/></radialGradient><radialGradient id="paint23_radial" cx="0" cy="0" r="1" gradientUnits="userSpaceOnUse" gradientTransform="rotate(20.805 295.243 2786.556) scale(10.6547)"><stop stop-color="#fff"/><stop offset=".135" stop-color="#CBCBCB"/><stop offset=".311" stop-color="#8E8E8E"/><stop offset=".48" stop-color="#5B5B5B"/><stop offset=".638" stop-color="#343434"/><stop offset=".782" stop-color="#171717"/><stop offset=".907" stop-color="#060606"/><stop offset="1"/></radialGradient><radialGradient id="paint24_radial" cx="0" cy="0" r="1" gradientUnits="userSpaceOnUse" gradientTransform="rotate(20.805 -735.743 4392.159) scale(10.0155)"><stop stop-color="#fff"/><stop offset=".135" stop-color="#CBCBCB"/><stop offset=".311" stop-color="#8E8E8E"/><stop offset=".48" stop-color="#5B5B5B"/><stop offset=".638" stop-color="#343434"/><stop offset=".782" stop-color="#171717"/><stop offset=".907" stop-color="#060606"/><stop offset="1"/></radialGradient><radialGradient id="paint25_radial" cx="0" cy="0" r="1" gradientUnits="userSpaceOnUse" gradientTransform="rotate(20.805 -211.835 5119.415) scale(11.1004)"><stop stop-color="#fff"/><stop offset=".135" stop-color="#CBCBCB"/><stop offset=".311" stop-color="#8E8E8E"/><stop offset=".48" stop-color="#5B5B5B"/><stop offset=".638" stop-color="#343434"/><stop offset=".782" stop-color="#171717"/><stop offset=".907" stop-color="#060606"/><stop offset="1"/></radialGradient><radialGradient id="paint26_radial" cx="0" cy="0" r="1" gradientUnits="userSpaceOnUse" gradientTransform="rotate(20.805 8.8 5336.018) scale(10.1168)"><stop stop-color="#fff"/><stop offset=".135" stop-color="#CBCBCB"/><stop offset=".311" stop-color="#8E8E8E"/><stop offset=".48" stop-color="#5B5B5B"/><stop offset=".638" stop-color="#343434"/><stop offset=".782" stop-color="#171717"/><stop offset=".907" stop-color="#060606"/><stop offset="1"/></radialGradient><radialGradient id="paint27_radial" cx="0" cy="0" r="1" gradientUnits="userSpaceOnUse" gradientTransform="rotate(20.805 -780.563 4520.128) scale(10.0861)"><stop stop-color="#fff"/><stop offset=".135" stop-color="#CBCBCB"/><stop offset=".311" stop-color="#8E8E8E"/><stop offset=".48" stop-color="#5B5B5B"/><stop offset=".638" stop-color="#343434"/><stop offset=".782" stop-color="#171717"/><stop offset=".907" stop-color="#060606"/><stop offset="1"/></radialGradient><radialGradient id="paint28_radial" cx="0" cy="0" r="1" gradientUnits="userSpaceOnUse" gradientTransform="matrix(10.5948 4.02558 -4.02554 10.5947 1673.58 465.312)"><stop stop-color="#fff"/><stop offset=".135" stop-color="#CBCBCB"/><stop offset=".311" stop-color="#8E8E8E"/><stop offset=".48" stop-color="#5B5B5B"/><stop offset=".638" stop-color="#343434"/><stop offset=".782" stop-color="#171717"/><stop offset=".907" stop-color="#060606"/><stop offset="1"/></radialGradient><radialGradient id="paint29_radial" cx="0" cy="0" r="1" gradientUnits="userSpaceOnUse" gradientTransform="rotate(20.805 -716.597 4600.084) scale(10.2546)"><stop stop-color="#fff"/><stop offset=".135" stop-color="#CBCBCB"/><stop offset=".311" stop-color="#8E8E8E"/><stop offset=".48" stop-color="#5B5B5B"/><stop offset=".638" stop-color="#343434"/><stop offset=".782" stop-color="#171717"/><stop offset=".907" stop-color="#060606"/><stop offset="1"/></radialGradient><radialGradient id="paint30_radial" cx="0" cy="0" r="1" gradientUnits="userSpaceOnUse" gradientTransform="matrix(12.14719 4.6155 -4.61553 12.14728 1178.025 566.123)"><stop stop-color="#fff"/><stop offset=".135" stop-color="#CBCBCB"/><stop offset=".311" stop-color="#8E8E8E"/><stop offset=".48" stop-color="#5B5B5B"/><stop offset=".638" stop-color="#343434"/><stop offset=".782" stop-color="#171717"/><stop offset=".907" stop-color="#060606"/><stop offset="1"/></radialGradient><radialGradient id="paint31_radial" cx="0" cy="0" r="1" gradientUnits="userSpaceOnUse" gradientTransform="rotate(20.805 -277.513 4732.016) scale(11.4206)"><stop stop-color="#fff"/><stop offset=".135" stop-color="#CBCBCB"/><stop offset=".311" stop-color="#8E8E8E"/><stop offset=".48" stop-color="#5B5B5B"/><stop offset=".638" stop-color="#343434"/><stop offset=".782" stop-color="#171717"/><stop offset=".907" stop-color="#060606"/><stop offset="1"/></radialGradient><radialGradient id="paint32_radial" cx="0" cy="0" r="1" gradientUnits="userSpaceOnUse" gradientTransform="rotate(20.805 39.196 4854.233) scale(10.9322)"><stop stop-color="#fff"/><stop offset=".135" stop-color="#CBCBCB"/><stop offset=".311" stop-color="#8E8E8E"/><stop offset=".48" stop-color="#5B5B5B"/><stop offset=".638" stop-color="#343434"/><stop offset=".782" stop-color="#171717"/><stop offset=".907" stop-color="#060606"/><stop offset="1"/></radialGradient><radialGradient id="paint33_radial" cx="0" cy="0" r="1" gradientUnits="userSpaceOnUse" gradientTransform="rotate(20.805 138.593 5406.846) scale(9.53776)"><stop stop-color="#fff"/><stop offset=".135" stop-color="#CBCBCB"/><stop offset=".311" stop-color="#8E8E8E"/><stop offset=".48" stop-color="#5B5B5B"/><stop offset=".638" stop-color="#343434"/><stop offset=".782" stop-color="#171717"/><stop offset=".907" stop-color="#060606"/><stop offset="1"/></radialGradient><radialGradient id="paint34_radial" cx="0" cy="0" r="1" gradientUnits="userSpaceOnUse" gradientTransform="rotate(20.805 -824.667 4615.672) scale(45.0876 45.0878)"><stop stop-color="#DC0046"/><stop offset=".05" stop-color="#CB0041"/><stop offset=".243" stop-color="#8E002D"/><stop offset=".429" stop-color="#5B001D"/><stop offset=".603" stop-color="#340010"/><stop offset=".761" stop-color="#170007"/><stop offset=".898" stop-color="#060002"/><stop offset="1"/></radialGradient><radialGradient id="paint35_radial" cx="0" cy="0" r="1" gradientUnits="userSpaceOnUse" gradientTransform="rotate(20.805 -736.765 5070.165) scale(49.8864)"><stop stop-color="#DC0046"/><stop offset=".05" stop-color="#CB0041"/><stop offset=".243" stop-color="#8E002D"/><stop offset=".429" stop-color="#5B001D"/><stop offset=".603" stop-color="#340010"/><stop offset=".761" stop-color="#170007"/><stop offset=".898" stop-color="#060002"/><stop offset="1"/></radialGradient><radialGradient id="paint36_radial" cx="0" cy="0" r="1" gradientUnits="userSpaceOnUse" gradientTransform="matrix(38.84594 14.75983 -14.7598 38.84584 1441.1 536.5)"><stop stop-color="#DC0046"/><stop offset=".05" stop-color="#CB0041"/><stop offset=".243" stop-color="#8E002D"/><stop offset=".429" stop-color="#5B001D"/><stop offset=".603" stop-color="#340010"/><stop offset=".761" stop-color="#170007"/><stop offset=".898" stop-color="#060002"/><stop offset="1"/></radialGradient><radialGradient id="paint37_radial" cx="0" cy="0" r="1" gradientUnits="userSpaceOnUse" gradientTransform="rotate(20.805 -911.37 3399.719) scale(40.0346)"><stop stop-color="#DC0046"/><stop offset=".05" stop-color="#CB0041"/><stop offset=".243" stop-color="#8E002D"/><stop offset=".429" stop-color="#5B001D"/><stop offset=".603" stop-color="#340010"/><stop offset=".761" stop-color="#170007"/><stop offset=".898" stop-color="#060002"/><stop offset="1"/></radialGradient><radialGradient id="paint38_radial" cx="0" cy="0" r="1" gradientUnits="userSpaceOnUse" gradientTransform="rotate(20.805 -940.172 2746.913) scale(41.2493)"><stop stop-color="#DC0046"/><stop offset=".05" stop-color="#CB0041"/><stop offset=".243" stop-color="#8E002D"/><stop offset=".429" stop-color="#5B001D"/><stop offset=".603" stop-color="#340010"/><stop offset=".761" stop-color="#170007"/><stop offset=".898" stop-color="#060002"/><stop offset="1"/></radialGradient><radialGradient id="paint39_radial" cx="0" cy="0" r="1" gradientUnits="userSpaceOnUse" gradientTransform="rotate(20.805 -1480.053 2473.542) scale(106.506)"><stop stop-color="#DC0046"/><stop offset=".05" stop-color="#CB0041"/><stop offset=".243" stop-color="#8E002D"/><stop offset=".429" stop-color="#5B001D"/><stop offset=".603" stop-color="#340010"/><stop offset=".761" stop-color="#170007"/><stop offset=".898" stop-color="#060002"/><stop offset="1"/></radialGradient><radialGradient id="paint40_radial" cx="0" cy="0" r="1" gradientUnits="userSpaceOnUse" gradientTransform="rotate(20.805 -1577.744 2178.95) scale(164.23)"><stop stop-color="#DC0046"/><stop offset=".05" stop-color="#CB0041"/><stop offset=".243" stop-color="#8E002D"/><stop offset=".429" stop-color="#5B001D"/><stop offset=".603" stop-color="#340010"/><stop offset=".761" stop-color="#170007"/><stop offset=".898" stop-color="#060002"/><stop offset="1"/></radialGradient><radialGradient id="paint41_radial" cx="0" cy="0" r="1" gradientUnits="userSpaceOnUse" gradientTransform="rotate(20.805 -649.064 5072.985) scale(47.5566)"><stop stop-color="#DC0046"/><stop offset=".05" stop-color="#CB0041"/><stop offset=".243" stop-color="#8E002D"/><stop offset=".429" stop-color="#5B001D"/><stop offset=".603" stop-color="#340010"/><stop offset=".761" stop-color="#170007"/><stop offset=".898" stop-color="#060002"/><stop offset="1"/></radialGradient><radialGradient id="paint42_radial" cx="0" cy="0" r="1" gradientUnits="userSpaceOnUse" gradientTransform="rotate(20.805 -196.624 5393.296) scale(48.4324)"><stop stop-color="#DC0046"/><stop offset=".05" stop-color="#CB0041"/><stop offset=".243" stop-color="#8E002D"/><stop offset=".429" stop-color="#5B001D"/><stop offset=".603" stop-color="#340010"/><stop offset=".761" stop-color="#170007"/><stop offset=".898" stop-color="#060002"/><stop offset="1"/></radialGradient><radialGradient id="paint43_radial" cx="0" cy="0" r="1" gradientUnits="userSpaceOnUse" gradientTransform="rotate(20.805 -1160.66 1094.119) scale(50.4919)"><stop stop-color="#DC0046"/><stop offset=".05" stop-color="#CB0041"/><stop offset=".243" stop-color="#8E002D"/><stop offset=".429" stop-color="#5B001D"/><stop offset=".603" stop-color="#340010"/><stop offset=".761" stop-color="#170007"/><stop offset=".898" stop-color="#060002"/><stop offset="1"/></radialGradient><radialGradient id="paint44_radial" cx="0" cy="0" r="1" gradientUnits="userSpaceOnUse" gradientTransform="translate(194.228 135.448) scale(60.61)"><stop stop-color="#79FDFF"/><stop offset=".135" stop-color="#60CACB"/><stop offset=".311" stop-color="#438D8E"/><stop offset=".48" stop-color="#2B5B5B"/><stop offset=".638" stop-color="#193334"/><stop offset=".782" stop-color="#0B1717"/><stop offset=".907" stop-color="#030606"/><stop offset="1"/></radialGradient><radialGradient id="paint45_radial" cx="0" cy="0" r="1" gradientUnits="userSpaceOnUse" gradientTransform="translate(-61.261 213.442) scale(73.7482)"><stop stop-color="#79FDFF"/><stop offset=".135" stop-color="#60CACB"/><stop offset=".311" stop-color="#438D8E"/><stop offset=".48" stop-color="#2B5B5B"/><stop offset=".638" stop-color="#193334"/><stop offset=".782" stop-color="#0B1717"/><stop offset=".907" stop-color="#030606"/><stop offset="1"/></radialGradient><radialGradient id="paint46_radial" cx="0" cy="0" r="1" gradientUnits="userSpaceOnUse" gradientTransform="translate(-95.378 493.437) scale(103.663)"><stop stop-color="#79FDFF"/><stop offset=".135" stop-color="#60CACB"/><stop offset=".311" stop-color="#438D8E"/><stop offset=".48" stop-color="#2B5B5B"/><stop offset=".638" stop-color="#193334"/><stop offset=".782" stop-color="#0B1717"/><stop offset=".907" stop-color="#030606"/><stop offset="1"/></radialGradient><radialGradient id="paint47_radial" cx="0" cy="0" r="1" gradientUnits="userSpaceOnUse" gradientTransform="translate(12.105 456.298) scale(89.9774)"><stop stop-color="#79FDFF"/><stop offset=".135" stop-color="#60CACB"/><stop offset=".311" stop-color="#438D8E"/><stop offset=".48" stop-color="#2B5B5B"/><stop offset=".638" stop-color="#193334"/><stop offset=".782" stop-color="#0B1717"/><stop offset=".907" stop-color="#030606"/><stop offset="1"/></radialGradient><radialGradient id="paint48_radial" cx="0" cy="0" r="1" gradientUnits="userSpaceOnUse" gradientTransform="translate(89.033 365.869) scale(100.781)"><stop stop-color="#79FDFF"/><stop offset=".135" stop-color="#60CACB"/><stop offset=".311" stop-color="#438D8E"/><stop offset=".48" stop-color="#2B5B5B"/><stop offset=".638" stop-color="#193334"/><stop offset=".782" stop-color="#0B1717"/><stop offset=".907" stop-color="#030606"/><stop offset="1"/></radialGradient><radialGradient id="paint49_radial" cx="0" cy="0" r="1" gradientUnits="userSpaceOnUse" gradientTransform="translate(794.743 -66.131) scale(106.467)"><stop stop-color="#79FDFF"/><stop offset=".135" stop-color="#60CACB"/><stop offset=".311" stop-color="#438D8E"/><stop offset=".48" stop-color="#2B5B5B"/><stop offset=".638" stop-color="#193334"/><stop offset=".782" stop-color="#0B1717"/><stop offset=".907" stop-color="#030606"/><stop offset="1"/></radialGradient></defs></svg>