<svg width="1920" height="825" fill="none" xmlns="http://www.w3.org/2000/svg"><g opacity=".7"><mask id="mask0" style="mask-type:alpha" maskUnits="userSpaceOnUse" x="0" y="0" width="1920" height="825"><path fill="#C4C4C4" d="M0 0h1920v825H0z"/></mask><g mask="url(#mask0)"><path transform="rotate(-45 1139 482)" fill="url(#paint0_linear)" fill-opacity=".1" d="M1139 482h551.194v553.258H1139z"/><g opacity=".5" stroke="#589CFF" stroke-width=".463" stroke-miterlimit="10"><path d="M2265.15-576.9l-91.88-164.536-186.95 58.989 217.29 246.977 32.37 169.261-193.3 23.828-143.66-143.167-91.97 133.229-130.79 189.55 354.16-29.818-191.06 210.995 142.2 52.658 142.38 173.172 38.03 202.806 7.12 167.599-165.65-202.527-279.93-178.865-238.33 260.019-176.09 192.153-74.5 140.786L1491 959.43l106.82 13.842 1.8-443.839 264.04-7.569-280.14 197.67-81 57.139 51.97-142.131-334.72 87.64 91.47 62.263 181.88 113.382 140.86-194.735L1654.7 797l242.59-36.643 28.44 106.114-161.87 76.55-64.26-112.495 302.9 199.314-146.63 90.68-384.25-39.93 125.25-106.533 37.14 99.813 213.9 162.89 196.06 359.47-105.95 81.43-162.13-108.44 132.6-168.5-393.2 19.54 12.16-232.64 128.61-5.7-236.19 164.03-185.4-419.185 174.41 90.265-54.7 228.33-151.36 54.18-289.889-272.01 328.599 153.51-3.92-148.64-120.74-96.95-97.48 153.77 58.37 63.57-132.722 53.65 43.389-361.647-166.873-37.495 90.696 218.822-270.926-9.56 303.009 188.7"/><path d="M1723.51 333.251l163.95 4.499 236.48 6.488-121.54 168.525-138.74 9.101-140.15-188.613z"/><path d="M1723.51 333.251l-122.87 196.874 296.65 230.232 105.11-247.594-163.04-394.355-115.85 214.843zm0 0l-66.82 461.156 269.04 72.064 76.24 161.049 168.17-314.322-271.43 47.349-198.1 71.213-102.79 141.512 166.04-30.251-107.8 238.899 199.81-61.4-340.58 299.74-94.66-75.5 51.89-263.59 183.54 100.75-20.65-108.22-105.57 113.35 67.03-212.993-103.75-76.23 9.4-121.154-268.05 150.092-11.12-203.408-113.69 58.776-121.234 62.66 30.964 244.427 216.18-57.48-160.85 120.42"/><path d="M1556.47 631.975l44.17-101.849 325.27 334.248-423.39-87.701-282.75-54.491 191.24 294.998 61.51 63.99 57.32 105.88-294.27-155.31 279.72 388.52-312.47-120.72-259.74-92.65-30.149-179.36 75.495-182.737 128.444 90.657-39.36 214.4 122.38 148.73 41.49-119.75 112.8 66.53 175.98-57.19 378.33 212.55-59.4-166.81 153.41-204.07 41.47 566.39-270.26-27.81-259.38-150.09"/><path d="M1986.19-681.505l56.49 439.124-12.26 149.794-48.86 263.652 21.88 341.051 158.53 34.928-264.68 213.313-33.63-238.493-229.68 181.228 66.6 126.137-65.17 244.471 128.45-130.679 90.52 176.809-5.59 115.59-333.5 184.84 140.77-238.34 252.43 218.8 29.53 276.94"/><path d="M1675.73-63.853l366.95-178.528 160.93-193.089-79.67 779.708-357.62-325.612-90.59-82.48z"/></g><g opacity=".5"><g opacity=".6"><path d="M1314 786.417c2-5.79-7.1-8.792-9.1-2.977-2.03 5.787 7.07 8.79 9.1 2.977z" fill="#589CFF"/><path d="M1310.95 785.423c-.2.6-.5.776-.7.861-.35.145-.82.126-1.28-.022-.7-.224-1.43-.733-1.04-1.856.19-.6.5-.777.69-.861.36-.146.83-.126 1.28.021.71.224 1.44.734 1.05 1.857z" fill="#EEF5FF"/></g><path d="M1705.62 832.507c2-5.79-7.1-8.793-9.1-2.977-2.03 5.787 7.07 8.79 9.1 2.977zm-44.71-35.624c2-5.79-7.1-8.793-9.11-2.977-2.02 5.787 7.08 8.789 9.11 2.977z" fill="#589CFF"/><path d="M1657.86 795.888c-.39 1.124-1.3 1.087-1.98.865-.71-.223-1.44-.733-1.05-1.856.2-.6.5-.776.7-.861.35-.146.82-.126 1.27.022.71.198 1.44.707 1.06 1.83z" fill="#EEF5FF"/><path d="M1509.34 777.854c2-5.79-7.1-8.793-9.1-2.977-2 5.79 7.1 8.792 9.1 2.977z" fill="#589CFF"/><path d="M1506.32 776.862c-.39 1.124-1.3 1.087-1.98.865-.71-.223-1.44-.733-1.05-1.856.2-.6.5-.776.7-.861.35-.146.82-.126 1.27.022.69.195 1.44.707 1.06 1.83z" fill="#EEF5FF"/><path d="M1638.7 705.72c2.01-5.79-7.1-8.792-9.1-2.977-2.03 5.787 7.08 8.764 9.1 2.977z" fill="#589CFF"/><path d="M1635.65 704.726c-.38 1.123-1.29 1.086-1.97.865-.71-.224-1.44-.733-1.05-1.857.19-.6.5-.776.69-.86.36-.146.83-.127 1.28.021.71.198 1.44.708 1.05 1.831z" fill="#EEF5FF"/><path d="M1560.01 636.37c2-5.79-7.1-8.792-9.1-2.977-2 5.79 7.1 8.792 9.1 2.977z" fill="#589CFF"/><path d="M1556.99 635.379c-.39 1.123-1.3 1.086-1.98.865-.71-.224-1.44-.734-1.05-1.857.2-.6.5-.776.7-.861.35-.146.82-.126 1.27.022.69.195 1.44.707 1.06 1.831z" fill="#EEF5FF"/><path d="M1902.97 761.685c2-5.79-7.1-8.792-9.1-2.977-2 5.79 7.1 8.792 9.1 2.977z" fill="#589CFF"/><path d="M1899.95 760.694c-.39 1.123-1.3 1.086-1.98.864-.71-.223-1.43-.733-1.05-1.856.2-.6.51-.776.7-.861.35-.146.82-.126 1.28.022.68.195 1.43.707 1.05 1.831z" fill="#EEF5FF"/><path d="M1867.86 524.311c2-5.79-7.1-8.792-9.11-2.977-2 5.816 7.1 8.793 9.11 2.977z" fill="#589CFF"/><path d="M1864.83 523.32c-.39 1.123-1.3 1.086-1.98.865-.7-.224-1.43-.734-1.05-1.857.2-.6.51-.776.7-.861.36-.146.83-.126 1.28.022.68.221 1.43.733 1.05 1.831z" fill="#EEF5FF"/><path d="M1728.08 334.935c2-5.79-7.1-8.793-9.1-2.977-2.03 5.787 7.1 8.792 9.1 2.977z" fill="#589CFF"/><path d="M1725.06 333.943c-.2.6-.51.777-.7.861-.36.146-.82.126-1.28-.021-.7-.224-1.43-.733-1.05-1.857.2-.599.51-.776.7-.86.36-.146.82-.126 1.28.021.68.221 1.43.733 1.05 1.856z" fill="#EEF5FF"/><path d="M1844.49 121.41c2-5.79-7.1-8.792-9.1-2.977-2.03 5.788 7.07 8.79 9.1 2.977z" fill="#589CFF"/><path d="M1841.44 120.416c-.38 1.123-1.29 1.086-1.98.865-.7-.224-1.43-.733-1.04-1.857.19-.599.5-.776.69-.86.36-.146.83-.126 1.28.021.68.221 1.44.708 1.05 1.831z" fill="#EEF5FF"/><path d="M1225.96 725.288c2-5.79-7.1-8.793-9.11-2.977-2.02 5.787 7.08 8.789 9.11 2.977z" fill="#589CFF"/><path d="M1222.91 724.294c-.39 1.123-1.3 1.086-1.98.839-.71-.224-1.43-.733-1.05-1.856.2-.6.51-.777.7-.861.35-.146.82-.126 1.28.021.7.249 1.43.733 1.05 1.857z" fill="#EEF5FF"/><path d="M827.145 809.674c2.001-5.79-7.101-8.792-9.105-2.977-2 5.79 7.102 8.792 9.105 2.977z" fill="#589CFF"/><path d="M824.119 808.683c-.386 1.123-1.297 1.086-1.978.864-.707-.223-1.434-.733-1.048-1.856.197-.6.504-.776.696-.861.356-.146.824-.126 1.278.022.684.195 1.438.707 1.052 1.831z" fill="#EEF5FF"/><path d="M1606.12 531.563c2-5.79-7.1-8.792-9.1-2.977-2 5.79 7.1 8.792 9.1 2.977z" fill="#589CFF"/><path d="M1603.1 530.571c-.39 1.124-1.3 1.087-1.98.865-.71-.223-1.44-.733-1.05-1.856.39-1.123 1.3-1.086 1.98-.839.68.195 1.43.707 1.05 1.83z" fill="#EEF5FF"/></g><path transform="rotate(-135 381.167 1014.52)" fill="url(#paint1_linear)" d="M381.167 1014.52h612.59v410.626h-612.59z"/></g></g><defs><linearGradient id="paint0_linear" x1="1148.23" y1="490.484" x2="1692.67" y2="1032.82" gradientUnits="userSpaceOnUse"><stop stop-color="#6411A6"/><stop offset="1" stop-color="#3F046D" stop-opacity="0"/></linearGradient><linearGradient id="paint1_linear" x1="687.462" y1="1014.52" x2="687.462" y2="1425.15" gradientUnits="userSpaceOnUse"><stop stop-color="#F28D55" stop-opacity="0"/><stop offset="1" stop-color="#F28D55" stop-opacity=".1"/></linearGradient></defs></svg>