<svg width="382" height="321" fill="none" xmlns="http://www.w3.org/2000/svg"><mask id="mask0" style="mask-type:alpha" maskUnits="userSpaceOnUse" x="0" y="0" width="383" height="321"><path fill="#C4C4C4" d="M0 0h382v321H0z"/></mask><g mask="url(#mask0)"><path opacity=".22" fill="url(#paint0_linear)" fill-opacity=".7" d="M0 0h382v321H0z"/><path stroke="#B961FF" stroke-opacity=".2" d="M284.702-288.855l503.133 503.133-26.176 26.175-503.133-503.132zm-59.426 48.163L798.508 332.54l-26.176 26.175L199.1-214.516zM55.691-302.688l734.083 734.083-26.176 26.176L29.515-276.512zm-160.196-52.605L807.96 557.172l-26.176 26.175-912.465-912.464zm-53.797 53.796L804.855 661.66l-26.175 26.176-963.158-963.157zm-68.815 38.773L836.81 801.203l-26.176 26.176L-253.293-236.548zm66.375 173.966L869.385 941.369l-26.176 26.176L-186.918-62.582zm95.167 202.756L985.836 1165.41l-26.176 26.176L-91.75 140.174zm48.85 156.441l852.375 852.375-26.176 26.175L-42.9 296.615z"/><path stroke="#B961FF" stroke-opacity=".2" d="M151.368-207.564L-45.718-10.48l26.176 26.176 197.086-197.085zm296.47-81.292L-55.295 214.277l26.176 26.175L474.014-262.68zm229.012-13.831L-57.231 431.396l26.175 26.176 734.084-734.083zm213.992 1.189L-72.316 661.659l26.176 26.176 963.158-963.157zm2.441 212.74L-136.845 941.369l26.176 26.176L919.459-62.583zM749.267 270.438l-852.375 852.375 26.176 26.176 852.375-852.375z"/></g><defs><linearGradient id="paint0_linear" x1="191" y1="0" x2="191" y2="321" gradientUnits="userSpaceOnUse"><stop offset="0" stop-color="#6411A6"/><stop offset="1" stop-color="#3F046D"/></linearGradient></defs></svg>