<svg width="1920" height="470" fill="none" xmlns="http://www.w3.org/2000/svg"><g opacity=".5" stroke="#589CFF" stroke-width=".463" stroke-miterlimit="10"><path d="M-295.899 10.23l-98.719 160.524 142.767 134.335 109.423-310.22L-10.526-116.03 104.658 41.015 49.876 236.298l161.172 15.195 229.283 21.578L241.364-21.435 518.79 42.262l-23.484-149.801 81.595-208.813 158.41-132.223 142.78-88.057-95.846 243.458-19.397 331.623 343.292 81.012 253.67 59.832 159.24-3.729-96.22-239.986-40.08-99.978-388.2 215.17-135.542-226.725L1168.31-28.013l89.41 42.782-149.41 24.053 239.93 249.305 9.67-110.23 10.13-214.088-238.72-27.826 71.83-63.941-150.44-193.809 78.71-76.635 145.85 103.875-66.79 111.018 26.02-361.664 150.74 83.678 152.79 354.823-154.13-57.283 68.97-81.147 37.69-266.203 217.96-346.637 122.8 52.699-15.46 194.431-211.8-33.423 209.06 333.586-208.95 102.99-67.78-109.452 258.48 126.016-275.28 366.487-6.39-196.276 225.97-63.766 121.19 105.636-95.81 385.799-26.51-361.718-127.8 76.001-25.64 152.71 181.79 9.98 26.98-81.985 111.62 89.628-336.78 138.736 48.77 163.933 146.67-186.004 123.95 241.097 16.71-356.571"/><path d="M1519.37 173.795l65.23 99.983-70.71-296.337 96.77 145.734-91.29 50.62zM762.848 38.449l-76.13-145.264-109.817-209.537 206.416 23.769 75.691 116.628-96.16 214.404z"/><path d="M762.848 38.45l231.809 11.09 56.053-371.308-267.394 29.184L518.79 42.262l244.058-3.813zm0 0l435.072-166.875-68.5-269.977 103.32-145.177-356.423 6.738 173.863 213.746 158.88 138.1 173.69 20.595-107.48-130.127 261.12-22.584-151.15-144.384 427.88 150.846-19.66 119.473-255.37 83.434-1.7-209.369-84.36 70.868 150.48 36.777-218.61 45.511-15.86 127.764-110.32 50.96 261.88 160.623-172.08 109.037 106.81 70.512 113.88 75.196 198.18-146.379-155.73-160.583 183.64 81.56"/><path d="M1105.1 38.345L994.657 49.541 1127.5-397.534l130.22 412.303 90.52 273.358 164.05-310.942 25.8-84.927 64.42-101.724 8.15 332.641 202.46-433.824 47.24 331.635 45.99 271.902-141.8 113.897-196.34 23.352 16.39-156.359 206.32-70.352 70.04-179.42-124.77 22.268 2.98-130.923-135.85-125.642.74-433.944-116.56 133.294-253-34.232 474.02-312.769 107.7 249.43-4.31 299.643M49.876 236.298l-444.494-65.544 252.19-175.886-154.727 16.909 46.189 292.966 300.842-68.445zm0 0L-142.428-5.132"/><path d="M-250.965 304.743L104.658 41.015l136.706-62.45 253.942-86.104 286.939-185.635-46.934-155.402 315.399 126.809-191.702 145.812L1129.32-64.017l77.55-119.714 245.16-62.512-176.76-48.284 110.09-165.331 103.61-51.564 324.15 200.773-276.73-6.462 67.67-327.124 227.26-161.008"/><path d="M439.645 274.066L104.658 41.016-142.428-5.133l719.329-311.22-109.517 471.085-27.739 119.333z"/></g><g opacity=".5"><path d="M1903 286.521c-6.03 1.081-4.21 10.491 1.84 9.399 6.04-1.058 4.22-10.467-1.84-9.399z" fill="#589CFF"/><path d="M1903.62 289.669c1.17-.212 1.58.601 1.7 1.314.15.726.06 1.61-1.11 1.821-.62.121-.93-.06-1.09-.187-.31-.239-.52-.658-.61-1.126-.13-.736-.06-1.61 1.11-1.822z" fill="#EEF5FF"/><path d="M1791.9 197.852c-6.03 1.082-4.2 10.491 1.85 9.4 6.04-1.058 4.22-10.467-1.85-9.4z" fill="#589CFF"/><path d="M1792.52 201.001c1.17-.212 1.59.601 1.73 1.304.15.726.06 1.609-1.11 1.821-.62.121-.93-.061-1.09-.187-.31-.24-.52-.658-.61-1.126-.15-.726-.09-1.624 1.08-1.812z" fill="#EEF5FF"/><path d="M1858.93 18.996c-6.03 1.082-4.21 10.491 1.85 9.4 6.03-1.082 4.2-10.491-1.85-9.4z" fill="#589CFF"/><path d="M1859.54 22.122c1.17-.212 1.58.6 1.72 1.303.15.726.06 1.61-1.11 1.822-.62.12-.92-.061-1.09-.188-.3-.24-.51-.657-.6-1.126-.14-.702-.06-1.61 1.08-1.811z" fill="#EEF5FF"/><path d="M1736.18 40.89c-6.03 1.082-4.2 10.49 1.85 9.4 6.03-1.082 4.18-10.481-1.85-9.4z" fill="#589CFF"/><path d="M1736.79 44.015c1.17-.212 1.59.601 1.73 1.304.15.726.06 1.61-1.11 1.821-1.17.212-1.58-.6-1.72-1.303-.14-.703-.06-1.61 1.1-1.822z" fill="#EEF5FF"/><path d="M1765.88 277.601c-6.03 1.082-4.21 10.491 1.85 9.4 6.04-1.058 4.21-10.467-1.85-9.4z" fill="#589CFF"/><path d="M1766.5 280.75c1.17-.212 1.58.601 1.72 1.304.15.726.06 1.61-1.11 1.821-.62.121-.92-.061-1.09-.187-.3-.239-.51-.658-.6-1.126-.18-.716-.1-1.624 1.08-1.812z" fill="#EEF5FF"/><path d="M1609.48 117.216c-6.03 1.082-4.2 10.491 1.85 9.399 6.03-1.081 4.21-10.49-1.85-9.399z" fill="#589CFF"/><path d="M1610.09 120.341c.62-.12.93.061 1.1.188.3.239.51.658.6 1.126.15.726.06 1.61-1.11 1.822-.62.12-.92-.061-1.09-.188-.3-.239-.51-.658-.6-1.126-.12-.712-.04-1.62 1.1-1.822z" fill="#EEF5FF"/><path d="M1518.18 169.476c-6.03 1.081-4.2 10.491 1.85 9.399 6.04-1.058 4.21-10.467-1.85-9.399z" fill="#589CFF"/><path d="M1518.8 172.625c1.17-.212 1.58.601 1.72 1.303.15.726.06 1.61-1.1 1.822-.62.121-.93-.061-1.1-.188-.3-.239-.51-.657-.6-1.126-.15-.726-.06-1.609 1.08-1.811z" fill="#EEF5FF"/><path d="M1584.5 268.745c-6.03 1.082-4.21 10.491 1.85 9.4 6.04-1.058 4.21-10.467-1.85-9.4z" fill="#589CFF"/><path d="M1585.12 271.894c.62-.121.93.061 1.09.188.3.239.52.657.61 1.126.15.726.06 1.61-1.11 1.821-.62.121-.92-.06-1.09-.187-.3-.239-.51-.658-.61-1.126-.15-.726-.06-1.61 1.11-1.822z" fill="#EEF5FF"/><g opacity=".6"><path d="M1358.28 174.525c-6.03 1.082-4.2 10.491 1.85 9.399 6.04-1.057 4.22-10.466-1.85-9.399z" fill="#589CFF"/><path d="M1358.91 177.674c.62-.121.92.061 1.09.188.3.239.51.657.6 1.125.15.727.06 1.61-1.11 1.822-.61.121-.92-.061-1.09-.187-.3-.24-.51-.658-.6-1.126-.15-.726-.06-1.61 1.11-1.822z" fill="#EEF5FF"/></g><path d="M1255.42 8.24c-6.03 1.082-4.2 10.49 1.85 9.4 6.03-1.082 4.2-10.491-1.85-9.4z" fill="#589CFF"/><path d="M1256.03 11.365c1.17-.212 1.59.601 1.72 1.304.15.726.07 1.61-1.1 1.821-.62.121-.93-.06-1.09-.187-.31-.24-.52-.658-.61-1.126-.16-.692-.08-1.6 1.08-1.812z" fill="#EEF5FF"/><path d="M1107.21 33.112c-6.03 1.081-4.2 10.49 1.85 9.399 6.03-1.082 4.2-10.49-1.85-9.4z" fill="#589CFF"/><path d="M1107.82 36.237c1.17-.212 1.58.6 1.72 1.303.15.726.06 1.61-1.1 1.822-.62.12-.93-.06-1.1-.188-.3-.239-.51-.657-.6-1.125-.16-.693-.09-1.6 1.08-1.812z" fill="#EEF5FF"/><path d="M762.086 33.639c-6.03 1.082-4.205 10.49 1.848 9.4 6.04-1.059 4.205-10.492-1.848-9.4z" fill="#589CFF"/><path d="M762.698 36.764c.62-.12.924.061 1.092.188.301.24.512.657.605 1.126.15.726.061 1.61-1.108 1.821-.619.121-.923-.06-1.091-.187-.301-.24-.512-.658-.605-1.126-.14-.702-.061-1.61 1.107-1.822z" fill="#EEF5FF"/><path d="M518.905 36.32c-6.029 1.082-4.205 10.49 1.848 9.4 6.04-1.058 4.216-10.468-1.848-9.4z" fill="#589CFF"/><path d="M519.528 39.469c1.168-.212 1.581.6 1.72 1.303.15.726.061 1.61-1.108 1.822-.619.12-.923-.061-1.091-.188-.301-.239-.512-.657-.605-1.125-.14-.703-.085-1.6 1.084-1.812z" fill="#EEF5FF"/><path d="M439.325 268.026c-6.029 1.081-4.205 10.49 1.848 9.399 6.04-1.058 4.216-10.467-1.848-9.399z" fill="#589CFF"/><path d="M439.948 271.174c1.169-.211 1.581.601 1.721 1.304.15.726.06 1.61-1.108 1.822-1.169.211-1.581-.601-1.721-1.304-.126-.736-.061-1.61 1.108-1.822z" fill="#EEF5FF"/><path d="M49.395 231.171c-6.029 1.082-4.205 10.491 1.849 9.399 6.04-1.057 4.215-10.466-1.849-9.399z" fill="#589CFF"/><path d="M50.018 234.32c1.169-.212 1.581.601 1.72 1.303.15.727.062 1.61-1.107 1.822-1.169.212-1.58-.601-1.697-1.313-.173-.717-.084-1.6 1.084-1.812z" fill="#EEF5FF"/><path d="M103.492 36.883c-6.03 1.082-4.205 10.491 1.848 9.4 6.064-1.068 4.216-10.468-1.848-9.4z" fill="#589CFF"/><path d="M104.105 40.008c1.168-.212 1.581.601 1.72 1.304.15.726.061 1.61-1.108 1.822-.619.12-.923-.061-1.091-.188-.301-.24-.512-.658-.606-1.126-.139-.702-.06-1.61 1.085-1.812z" fill="#EEF5FF"/><path d="M1347.93 281.209c-6.03 1.082-4.2 10.491 1.85 9.4 6.04-1.058 4.22-10.467-1.85-9.4z" fill="#589CFF"/><path d="M1348.55 284.358c1.17-.212 1.59.601 1.7 1.313.15.726.06 1.61-1.11 1.822-.62.121-.92-.061-1.09-.187-.3-.24-.51-.658-.6-1.126-.13-.737-.06-1.61 1.1-1.822z" fill="#EEF5FF"/><path d="M1567.84 425.583c-6.03 1.082-4.2 10.491 1.85 9.4 6.04-1.058 4.19-10.457-1.85-9.4z" fill="#589CFF"/><path d="M1568.46 428.732c.62-.121.93.061 1.1.188.3.239.51.657.6 1.126.15.726.06 1.609-1.11 1.821-.62.121-.92-.061-1.09-.187-.3-.24-.51-.658-.6-1.126-.15-.726-.06-1.61 1.1-1.822z" fill="#EEF5FF"/><path d="M1763.41 403.232c-6.03 1.081-4.21 10.49 1.85 9.399 6.03-1.082 4.2-10.491-1.85-9.399z" fill="#589CFF"/><path d="M1764.02 406.357c1.17-.211 1.58.601 1.72 1.304.15.726.06 1.61-1.11 1.821-1.16.212-1.58-.6-1.72-1.303-.14-.702-.06-1.61 1.11-1.822z" fill="#EEF5FF"/><path d="M993.232 44.052c-6.029 1.082-4.205 10.49 1.848 9.4 6.03-1.082 4.205-10.491-1.848-9.4z" fill="#589CFF"/><path d="M993.845 47.177c1.168-.212 1.581.601 1.72 1.304.15.726.061 1.61-1.108 1.821-1.168.212-1.58-.6-1.696-1.313-.164-.692-.085-1.6 1.084-1.812z" fill="#EEF5FF"/></g></svg>