<svg width="1920" height="683" fill="none" xmlns="http://www.w3.org/2000/svg"><mask id="mask0" style="mask-type:alpha" maskUnits="userSpaceOnUse" x="0" y="0" width="1920" height="683"><path fill="#C4C4C4" d="M0 0h1920v683H0z"/></mask><g mask="url(#mask0)"><path stroke="#B961FF" stroke-opacity=".2" d="M1763.71-76.293l240.5 240.5-70.004 70.003-240.5-240.5zm-282.25.754l519.557 519.557-70.004 70.003L1411.456-5.535zm-417.71-134.717l998.597 998.597-70.003 70.004-998.598-998.597zm-362.107-79.105L2026.21 1035.206l-70.004 70.003L631.639-219.357zM545.326-162.677l1508.952 1508.952-70.004 70.003L475.322-92.673zM99.26-325.743l1932.05 1932.049-70.004 70.003L29.256-255.74zm-421.371-138.371l2401.25 2401.25-70.004 70.003-2401.25-2401.25zm-141.5 141.5l2534.596 2534.596-70.004 70.004L-533.615-252.61zm-181.011 101.989L2155.033 2579.03l-70.004 70.004L-714.626-150.621zm174.59 457.589l2710.75 2710.75-70.003 70.004-2710.75-2710.75z"/><path stroke="#B961FF" stroke-opacity=".2" d="M350.923-75.54l-519.557 519.558 70.004 70.003L420.927-5.535zm779.817-213.82L-193.827 1035.207l70.004 70.003L1200.744-219.356zm602.39-36.383l-1932.05 1932.05 70.004 70.003 1932.05-1932.05zm562.87 3.129L-238.597 2211.983l70.004 70.003L2366.004-252.61zm6.42 559.578L-408.331 2947.715l70.003 70.004L2372.424 306.968z"/><g opacity=".4"><path d="M1915.74 1106.74l-94.41 114.31-149.97-58.46 208.07-165.286 45.17-122.537-159.04-32.977-135.42 94.403-62.62-105.787-89.05-150.504 292.87 50.192-137.14-171.146 124.5-27.619 137.56-116.685 53.49-146.883 23.89-123.316-160.15 136.532-253.15 109.959-171.41-211.139-126.64-156.028-47.22-109.986 217.9-4.174 90.78-1.74-45.99 328.21 219.92 26.582-213.03-168.377-61.6-48.673 28.24 109.189-270.44-91.387 83.13-38.751 164.17-69.35 96.92 155.136 27.37-67.765 198.88 46.367 35.12-76.174-127.12-69.449-65.76 78.043 274.54-123.25-112.87-78.678-325.5-1.031 93.31 88.702 41.73-70.827 196.24-103.396 202.36-250.122-79.86-68.613-147.13 67.265 92.81 135.092-326.6-45.696-14.73 172.922 106.91 14.438-179.9-140.02-199.84 295.107 155.46-52.855-21.3-173.124-120.74-52.076-271.435 178.014 291.125-87.344-19.18 109.554-111.31 62.063-65.04-121.406 55.6-42.354L1003-316.367l-2.43 270.763-143.507 14.45 99.233-154.537-227.508-14.468 273.492-115.394" stroke="#589CFF" stroke-width=".463" stroke-miterlimit="10"/><path d="M1560.34 390.936l137.53 9.706 198.39 14.002-83.57-134.228-115.01-17.755-137.34 128.275z" stroke="#589CFF" stroke-width=".463" stroke-miterlimit="10"/><path d="M1560.34 390.936l-81.65-155.288 272.63-146.597 61.37 191.366-178.49 278.531-73.86-168.012zm0 0l-6.52-346.18 232.63-31.88 80.96-112.982 106.95 245.703-221.84-56.574-157.98-68.384-70.79-112.77 135.57 35.558-64.55-185.151 160.46 61.265-252.64-248.626-87.21 48.281 15.17 198.96 164.22-59.88-28.85 78.349-76.12-92.179 33.24 162.767-94.88 48.099-5.11 90.3-208.02-132.25-31.06 149.468-88.76-52.483-94.64-55.951 52.04-178.207 174.57 59.671-121.58-101.8" stroke="#589CFF" stroke-width=".463" stroke-miterlimit="10"/><path d="M1452.67 156.854l26.02 78.794 307.68-221.207-363.32 31.17-242.2 17.802 191.43-202.851 58.27-42.407 59.25-73.709-262.62 91.414 275.41-264.945-274.14 64.393-227.04 47.833-44.394 130.181 43.554 141.073 117.08-56.8-9.96-161.607 118.22-100.206 21.87 91.815 101.41-40.213 140.99 56.264 339.01-127.036-67.5 118.579L1868.1-101.78l95.27-415.352-228.9-.925-232.89 90.319" stroke="#589CFF" stroke-width=".463" stroke-miterlimit="10"/><path d="M1671.36 1161.88l94.2-320.091 5.78-111.695-12.63-198.766 54.78-250.351 136.26-13.216-198.43-178.71-53.64 173.61-172.61-152.213 69.17-87.941-28.32-185.882 93.4 106.802 94.59-123.496 7.69-85.886-259.01-163.13 92.18 187.361 234.42-141.664 54.32-202.358" stroke="#589CFF" stroke-width=".463" stroke-miterlimit="10"/><path d="M1477.9 680.66l287.66 161.129 113.87 155.515 16.83-582.66-333.8 212.252-84.56 53.764z" stroke="#589CFF" stroke-width=".463" stroke-miterlimit="10"/><g opacity=".6"><path d="M1266.5 23.424c1.05 4.438-6.88 5.934-7.93 1.477-1.08-4.44 6.85-5.935 7.93-1.477z" fill="#589CFF"/><path d="M1263.84 23.916c-.1-.46-.34-.614-.49-.692-.28-.136-.68-.159-1.07-.086-.62.11-1.28.428-1.08 1.29.1.459.34.614.49.691.28.137.68.16 1.07.086.62-.109 1.28-.428 1.08-1.289z" fill="#EEF5FF"/></g><path d="M1598.81 20.485c1.05 4.439-6.88 5.935-7.93 1.477-1.08-4.439 6.85-5.935 7.93-1.477z" fill="#589CFF"/><path d="M1596.15 20.978c-.2-.86-.97-.906-1.56-.796-.62.109-1.28.428-1.08 1.289.1.459.34.614.49.692.29.136.68.158 1.07.085.62-.09 1.28-.409 1.08-1.27z" fill="#EEF5FF"/><path d="M1557.62 43.263c1.05 4.439-6.88 5.935-7.93 1.477-1.08-4.439 6.85-5.935 7.93-1.477z" fill="#589CFF"/><path d="M1554.96 43.756c-.2-.861-.97-.907-1.56-.797-.62.11-1.28.428-1.08 1.29.1.458.34.613.49.69.28.137.68.16 1.07.087.62-.09 1.28-.41 1.08-1.27z" fill="#EEF5FF"/><path d="M1428.88 45.28c1.05 4.44-6.88 5.935-7.93 1.477-1.06-4.438 6.87-5.934 7.93-1.476z" fill="#589CFF"/><path d="M1426.24 45.774c-.2-.861-.97-.906-1.56-.797-.62.11-1.28.429-1.08 1.29.1.459.34.614.49.691.29.137.68.16 1.08.086.59-.09 1.27-.409 1.07-1.27z" fill="#EEF5FF"/><path d="M1529.3 108.881c1.05 4.439-6.88 5.935-7.93 1.477-1.07-4.439 6.86-5.915 7.93-1.477z" fill="#589CFF"/><path d="M1526.64 109.375c-.2-.861-.97-.906-1.56-.797-.61.109-1.28.428-1.07 1.289.1.46.33.614.49.692.28.136.67.159 1.07.086.61-.09 1.27-.409 1.07-1.27z" fill="#EEF5FF"/><path d="M1456.1 153.887c1.05 4.439-6.88 5.935-7.93 1.477-1.06-4.439 6.87-5.935 7.93-1.477z" fill="#589CFF"/><path d="M1453.46 154.381c-.2-.862-.97-.906-1.56-.797-.62.109-1.28.428-1.08 1.289.1.459.34.614.49.692.29.136.68.159 1.07.086.6-.09 1.28-.409 1.08-1.27z" fill="#EEF5FF"/><path d="M1790.06 12.584c1.05 4.438-6.88 5.934-7.93 1.476-1.05-4.438 6.88-5.934 7.93-1.476z" fill="#589CFF"/><path d="M1787.42 13.076c-.2-.86-.96-.906-1.56-.796-.61.109-1.27.428-1.07 1.289.2.861.97.906 1.56.797.59-.11 1.28-.428 1.07-1.29z" fill="#EEF5FF"/><path d="M1756.21 88.521c1.05 4.439-6.88 5.934-7.93 1.477-1.05-4.439 6.88-5.935 7.93-1.477z" fill="#589CFF"/><path d="M1753.57 89.013c-.2-.86-.97-.906-1.56-.796-.61.109-1.28.428-1.08 1.289.11.46.34.614.5.692.28.136.67.159 1.07.086.59-.09 1.27-.41 1.07-1.27z" fill="#EEF5FF"/><path d="M1816.57 280.279c1.05 4.438-6.88 5.934-7.93 1.476-1.06-4.457 6.87-5.934 7.93-1.476z" fill="#589CFF"/><path d="M1813.93 280.772c-.2-.861-.97-.906-1.56-.796-.62.109-1.28.428-1.08 1.289.1.459.34.614.49.692.28.136.68.158 1.07.085.6-.109 1.28-.428 1.08-1.27z" fill="#EEF5FF"/><path d="M1701.45 261.185c1.06 4.439-6.87 5.935-7.93 1.477-1.05-4.458 6.88-5.934 7.93-1.477z" fill="#589CFF"/><path d="M1698.82 261.679c-.21-.862-.97-.907-1.57-.797-.61.109-1.27.428-1.07 1.289.1.459.34.614.49.692.28.136.67.159 1.07.086.59-.11 1.28-.428 1.08-1.27z" fill="#EEF5FF"/><path d="M1564.34 390.055c1.06 4.439-6.87 5.935-7.93 1.477-1.07-4.439 6.88-5.935 7.93-1.477z" fill="#589CFF"/><path d="M1561.71 390.548c-.1-.459-.34-.614-.49-.691-.29-.137-.68-.159-1.07-.086-.62.109-1.28.428-1.08 1.289.1.459.34.614.49.692.28.136.68.158 1.07.086.59-.11 1.28-.428 1.08-1.29z" fill="#EEF5FF"/><path d="M1762.99 530.45c1.05 4.438-6.88 5.934-7.93 1.476-1.07-4.458 6.86-5.934 7.93-1.476z" fill="#589CFF"/><path d="M1760.33 530.943c-.2-.862-.97-.907-1.56-.778-.62.109-1.28.428-1.08 1.289.1.459.34.614.49.692.29.136.68.159 1.08.086.59-.129 1.27-.447 1.07-1.289z" fill="#EEF5FF"/><path d="M1900.47 414.261c1.05 4.439-6.88 5.935-7.93 1.477-1.08-4.439 6.85-5.935 7.93-1.477z" fill="#589CFF"/><path d="M1897.81 414.754c-.2-.861-.97-.906-1.56-.797-.62.11-1.28.428-1.08 1.29.2.861.97.906 1.56.777.62-.109 1.28-.428 1.08-1.27z" fill="#EEF5FF"/><path d="M1638.81 557.137c1.05 4.438-6.88 5.934-7.93 1.476-1.07-4.438 6.86-5.934 7.93-1.476z" fill="#589CFF"/><path d="M1636.15 557.63c-.2-.862-.97-.906-1.56-.797-.61.109-1.28.428-1.07 1.289.1.459.33.614.49.692.28.136.67.159 1.07.086.59-.11 1.27-.409 1.07-1.27z" fill="#EEF5FF"/><path d="M1482.73 679.118c1.05 4.439-6.88 5.935-7.93 1.477-1.08-4.439 6.85-5.935 7.93-1.477z" fill="#589CFF"/><path d="M1480.07 679.611c-.2-.861-.97-.906-1.56-.797-.62.11-1.28.428-1.08 1.29.2.861.97.906 1.56.796.62-.128 1.28-.428 1.08-1.289z" fill="#EEF5FF"/><path d="M1186.35 61.61c1.06 4.439-6.87 5.934-7.93 1.477-1.07-4.44 6.86-5.935 7.93-1.477z" fill="#589CFF"/><path d="M1183.7 62.102c-.21-.861-.97-.906-1.57-.777-.61.109-1.27.427-1.07 1.289.1.459.34.614.49.692.28.136.67.158 1.07.085.62-.128 1.28-.428 1.08-1.289z" fill="#EEF5FF"/><path d="M1483.43 235.021c1.05 4.439-6.88 5.934-7.93 1.477-1.05-4.439 6.88-5.935 7.93-1.477z" fill="#589CFF"/><path d="M1480.79 235.514c-.2-.861-.97-.906-1.56-.797-.61.109-1.28.428-1.07 1.289.2.862.96.906 1.56.778.59-.09 1.27-.409 1.07-1.27z" fill="#EEF5FF"/></g><path opacity=".65" d="M-245 1180c864.878 0 1566-448.611 1566-1002S619.878-824-245-824c-864.88 0-1566 448.611-1566 1002s701.12 1002 1566 1002z" fill="url(#paint0_radial)" fill-opacity=".4"/></g><defs><radialGradient id="paint0_radial" cx="0" cy="0" r="1" gradientUnits="userSpaceOnUse" gradientTransform="matrix(1566.02 0 0 1002.01 -245 178.007)"><stop stop-color="#6C00C1"/><stop offset=".086" stop-color="#5B00A3"/><stop offset=".266" stop-color="#46007C"/><stop offset=".441" stop-color="#2F0054"/><stop offset=".606" stop-color="#22003D"/><stop offset=".759" stop-color="#0F001C"/><stop offset=".894" stop-color="#07000D"/><stop offset="1"/></radialGradient></defs></svg>