<svg width="124" height="331" fill="none" xmlns="http://www.w3.org/2000/svg"><path d="M.256 90.4s4.073-8.01 3.523-10.391c-.55-2.381 2.866-7.466 2.866-7.466l-.22-8.437s.471.863 2.93 1.618c.208-.272.433-.54.667-.794.89-.924 1.88-1.747 2.952-2.454l4.329-9.308 4.186-6.388s6.601-13.37 13.42-16.32l1.073-2.092a.164.164 0 01-.065-.212l1.09-2.126a.17.17 0 01.213-.078l1.043-2.036a16.318 16.318 0 013.03-7.284c.108-.151.225-.29.338-.432l-1.697-.06c-1.49-.056-3.151-.186-4.151-1.294a3.779 3.779 0 01-.775-1.423 6.015 6.015 0 01-.251-1.264v-1.242c0-.09.047-.298.073-.432 0-.056 0-.112.035-.168.036-.169.08-.336.134-.5a.661.661 0 00.03-.1 7.39 7.39 0 01.23-.582 6.64 6.64 0 01.255-.491l.026-.052a1.72 1.72 0 01.108-.194c1.173-1.838 3.234-2.912 5.195-3.882a60.135 60.135 0 015.627-2.588 30.404 30.404 0 0122.078.31 8.75 8.75 0 011.965 1.044 10.127 10.127 0 012.143 2.51l3.354 4.94c.47.6.836 1.273 1.087 1.992.628 2.346-1.342 4.697-1.121 7.117.112 1.203.762 2.307.887 3.51.16 1.553-.563 3.05-1.268 4.452l-4.8 9.488a91.86 91.86 0 00.843 3.757c2.212 2.278 2.957 3.52 3.16 4.193l.065.034a3.89 3.89 0 011.109 1.078l4.562 4.417s7.93 2.053 9.58 4.654c0 0 12.445-.544 12.337 16.774 0 0 .55 6.495.866 7.362.316.867 0 9.631 0 9.631l.147 17.753s.476 9.416 0 12.771c-.476 3.356-1.026 16.127-1.026 16.127s-2.974 12.448-1.874 16.886c1.056 4.249 0 13.539-1.732 13.578-.329.677-.706 1.009-1.117.819a4.853 4.853 0 00-.55-.198v10.606s2.143 14.859-.26 17.684c1.594 2.26 3.464 6.116 3.94 7.129l16.839-.901 2.143.6 1.965.547 1.191 27.29-.476.034.034.832-1.125.082 1.567 27.484-23.311 1.91c1.026 2.291 2.216 4.745 2.679 4.982.866.431 2.754-.863 3.195-.328.442.535 1.762 1.191 3.303.863 1.541-.328 2.532 1.406 2.532 1.406s-.225.198-.562.565c2.502-.302 5.666 1.035 7.385 1.898.77.388 1.251.677 1.251.677H124l-2.498 15.877-1.762 1.199-.432 12.508s-7.048 21.647-10.277 21.505a1.456 1.456 0 01-1.087-.543c-1.731-1.993-.532-8.838-.532-8.838V300.6s-2.641-1.156-2.346-2.023c.294-.867-4.26-10.352-4.667-11.214a.086.086 0 01-.027-.03.067.067 0 01-.007-.039c0-.975-1.983-2.058-1.87-2.489.112-.431-4.849-3.14-5.195-5.521-.346-2.381-3.632-1.082-3.632-1.082l-4.182-4.788c-.125 5.836-.363 9.92-.775 10.955-1.982 4.982-2.753 12.776-2.753 12.776s1.212 5.952 0 7.901c-.744 1.191-2.476 2.468-3.68 3.524 1.252 3.779 1.074 11.81 1.074 11.81v4.615l-9.25 2.588s-.29-2.308-.732-2.308-6.316 4.473-6.316 4.473-22.614.289-28.336 0c-2.165-.108-2.754-1.035-2.42-2.157.55-1.867 3.636-4.287 6.38-4.473 4.407-.288 9.987-4.904 9.987-4.904s-.433-1.013 1.91-2.454c1.618-.992 6.098-5.007 8.869-7.358-.13-.177-.264-.354-.39-.543 0 0 3.745-5.176 2.97-7.471-.775-2.294.333-5.607.333-5.607s2.091-6.388 2.091-9.635c0-2.058.312-13.759.537-22.058l-1.93.16-.04-.828-.865.077-8.186.751.25-8.717c-3.943-1.725-7.224-3.325-8.583-4.348-4.623-3.45-8.589-3.679-8.589-3.679s-9.359-4.977-10.792-7.034c-1.432-2.058-1.298-16.994-1.298-16.994l.77-32.012v-.026s.658-15.476 1.983-18.831c.485-1.242 1.684-5.383 2.996-10.11a7.82 7.82 0 00-2.26.095 90.416 90.416 0 00-.078 2.221c0 1.837-2.64 3.399-2.64 3.399l1.87-41.406v-28.17c-5.767 1.83-19.71 2.399-19.71 2.399-10.047-.526-7.627-9.636-7.627-9.636zm54.387-35.576h.03a28.645 28.645 0 00-.8-3.213l.77 3.213zm37.843 142.019c-3.415.561-7.359.397-7.658-.263-.03-.065-.069-.181-.12-.332-.11.189-.213.384-.321.582l.333 6.245v.143l11.255-.604c-.788-3.343-2.277-4.973-3.489-5.771zm-37.518 31.512l.29-10.115c-.502-1.863-.952-3.554-1.338-5.003a102.24 102.24 0 00-.433 3.334c-1.064 9.597.507 11.469 1.481 11.784zM22.934 76.713c.645.246 3.1-1.293 5.429-2.89 0-.292-.022-.581-.035-.862C28 66.358 38.791 62.247 42.094 61.488c.801-.206 1.58-.495 2.32-.862a54.171 54.171 0 005.126-2.886l-.044-.125s4.26-2.687 4.35-6.038a57.205 57.205 0 00-3.661-8.855c-.083-.169-.174-.345-.26-.514a17.012 17.012 0 01-5.541-2.924c-.662 8.626-13.19 16.05-13.19 16.05l-1.338 2.156-.316.509c.676.397 1 .716.77.901-.951.76-3.254 5.055-4.207 6.871-.26.492-.433.798-.433.798s-2.047 5.551-3.22 10.196a.87.87 0 01.493-.052h-.009z" fill="url(#paint0_linear_284:80)"/><path d="M18.095 54.342l.147.194.502.668 9.632 6.78 2.043-3.347 1.299-2.156S50.916 45.008 42.66 33.949 22.207 47.967 22.207 47.967l-4.112 6.375z" fill="#FFC5D3"/><path d="M37.466 27.325a.165.165 0 01.294.147l-1.07 2.119a.165.165 0 01-.222.072.164.164 0 01-.073-.22l1.071-2.118zm10.991 2.962l.004.002a.09.09 0 01.04.122l-.319.631a.091.091 0 01-.122.04l-.004-.001a.09.09 0 01-.04-.122l.32-.632a.09.09 0 01.121-.04zm-.874 1.496a.104.104 0 01.14-.046.103.103 0 01.046.14l-.606 1.197a.104.104 0 01-.14.046.103.103 0 01-.045-.139l.605-1.198zm-.933 1.865a.1.1 0 01.133-.044c.05.025.07.084.044.133l-.615 1.217a.1.1 0 01-.134.044.099.099 0 01-.044-.133l.616-1.217z" fill="#3A3768"/><path d="M40.826 23.165l8.088 4.058c.478.24.67.821.43 1.298L40.165 46.68a.971.971 0 01-1.302.428l-8.088-4.058a.964.964 0 01-.43-1.298l9.178-18.159a.971.971 0 011.303-.428z" fill="#3A3768"/><path d="M41.86 24.318a.39.39 0 01.216.379.386.386 0 01-.042.147l-.035.073a.39.39 0 00.173.53l4.165 2.088a.392.392 0 00.528-.172l.039-.073a.392.392 0 01.528-.177l.81.41a.745.745 0 01.413.723.74.74 0 01-.08.281l-8.849 17.499a.757.757 0 01-1.013.332l-7.263-3.645a.756.756 0 01-.334-1.009l8.853-17.507a.752.752 0 011.013-.332l.879.453z" fill="#6C63FF"/><path d="M44.28 25.643l1.094.549a.155.155 0 11-.14.277l-1.094-.549a.155.155 0 01-.069-.208.156.156 0 01.21-.07zm-.567.051a.177.177 0 110-.355.177.177 0 010 .355z" fill="#E6E8EC"/><path d="M35.627 91.434l2.706 72.34s-9.091-3.019-10.498-.755c-1.407 2.265 1.515-36.23 1.515-36.23l6.277-35.355z" fill="#5F5570"/><path opacity=".15" d="M35.627 91.434l2.706 72.34s-9.091-3.019-10.498-.755c-1.407 2.265 1.515-36.23 1.515-36.23l6.277-35.355z" fill="#000"/><path d="M35.194 329.877c5.627.289 27.847 0 27.847 0s5.775-4.455 6.208-4.455c.433 0 .718 2.298.718 2.298l9.09-2.587v-4.598s.29-13.091-2.45-13.66c-2.74-.569-14.865 0-14.865 0-.432-.142-8.657 7.621-10.964 9.058-2.308 1.436-1.875 2.445-1.875 2.445s-5.485 4.598-9.813 4.887c-2.697.181-5.732 2.588-6.273 4.455-.329 1.126.255 2.049 2.377 2.157z" fill="#BC8487"/><path opacity=".1" d="M35.194 329.877c5.627.289 27.847 0 27.847 0s5.775-4.455 6.208-4.455c.433 0 .718 2.299.718 2.299l9.09-2.588v-4.508l-8.51 3.071-6.783 4.025H32.817c-.329 1.125.256 2.048 2.377 2.156z" fill="#000"/><g opacity=".1"><path d="M60.461 323.123s-6.926-6.612-11.558-4.745l11.558 4.745z" fill="#000"/><path d="M60.461 323.123s-6.926-6.612-11.558-4.745" stroke="#000" stroke-miterlimit="10"/></g><path d="M104.313 298.823c-.29.862 2.307 2.014 2.307 2.014v11.356s-1.177 6.819.524 8.808a1.427 1.427 0 001.065.539c3.173.142 10.099-21.424 10.099-21.424l.433-12.46 1.731-1.195 2.455-15.816h-4.476s-.472-.289-1.23-.677c-2.164-1.1-6.696-3.019-9.159-1.191l-8.368 18.784s4.904 10.399 4.619 11.262z" fill="#BC8487"/><path opacity=".1" d="M107.144 321.001a1.427 1.427 0 001.065.539c3.173.142 10.099-21.423 10.099-21.423l.433-12.461 1.731-1.195 2.455-15.816h-4.476s-.472-.289-1.23-.677l-1.078 16.204-.575 13.945s-5.437 15.182-8.424 20.884z" fill="#000"/><path d="M26.861 239.914c1.407 2.048 10.606 7.009 10.606 7.009s3.896.215 8.44 3.666c2.352 1.785 10.52 5.326 17.857 8.333a632.18 632.18 0 0012.987 5.145l7.065 8.195 5.38 6.241s3.247-1.294 3.572 1.079c.324 2.372 5.194 5.068 5.086 5.499-.108.431 1.84 1.509 1.84 2.48 0 .97 7.251-7.009 7.142-11.861-.108-4.853 3.68-8.195 3.68-8.195s-.974-1.725-2.489-1.402c-1.515.324-2.814-.323-3.247-.863-.433-.539-2.272.755-3.138.324-.866-.431-4.33-8.95-4.33-8.95l-13.492-9.019-26.84-17.925-1.238-.828s-3.571 1.63-2.121-11.728c.281-2.587.753-5.732 1.472-9.562 4.437-23.614-11.472-26.31-11.472-26.31l-13.96 4.637-3.355 5.176v.025l-.758 31.892s-.095 14.893 1.312 16.942z" fill="#433A59"/><path opacity=".1" d="M63.872 255.01l-.108 3.912a632.18 632.18 0 0012.987 5.145l7.064 8.195c.117-6.793.091-15.617 0-24.662l-26.838-17.925c3.32 12.262 6.895 25.335 6.895 25.335zM26.32 191.068v.026l20.995.405s3.68 14.341 4.22 17.36c.135.742.948 3.912 2.1 8.269.281-2.588.753-5.732 1.472-9.563 4.437-23.614-11.472-26.31-11.472-26.31l-13.96 4.637-3.355 5.176z" fill="#000"/><path d="M81.62 151.926l2.706 51.757s1.948 76.019 0 80.979c-1.948 4.961-2.705 12.724-2.705 12.724s1.19 5.931 0 7.872c-1.19 1.941-4.978 4.097-4.87 5.175.108 1.079-11.58 6.901-17.64-2.372 0 0 3.68-5.176 2.922-7.44-.758-2.264.325-5.607.325-5.607s2.056-6.362 2.056-9.61c0-3.248.757-30.407.757-30.407s-11.796-43.132-12.337-46.151c-.541-3.019-4.22-17.36-4.22-17.36l-22.294-.432s.65-15.419 1.948-18.762c1.299-3.342 7.684-27.819 7.684-27.819l45.669 7.453z" fill="#433A59"/><path d="M118.827 202.666l1.935.552.078 1.906-58.015.746v-.75l56.002-2.454z" fill="#7B728F"/><path d="M50.397 43.934c8.441 17.058 3.199 20.625 2.363 21.065 1.788-.828 25.025-11.706 21.97-14.466-1.988-1.799-3.689-9.623-4.689-15.23-.593-3.347-.94-5.905-.94-5.905l-24.384 4.456c2.364 3.796 4.243 7.138 5.68 10.08z" fill="#FFC5D3"/><path opacity=".1" d="M18.225 54.535l.502.669 9.649 6.78 2.043-3.347c-2.974-1.725-11.891-4.744-11.891-4.744l-.303.642z" fill="#000"/><path d="M9.33 70.084c.865 3.02 15.475 0 15.475 0l1.515-2.372s.151-.302.407-.794c.935-1.807 3.199-6.085 4.134-6.845 1.19-.97-12.77-5.714-12.77-5.714l-4.277 9.273a17.225 17.225 0 00-2.9 2.445c-1.083 1.17-1.979 2.631-1.585 4.007z" fill="#E5E8EF"/><path d="M33.57 71.473s-8.657 6.806-9.956 6.315C22.316 77.296 1.322 91.42 1.322 91.42s-2.38 9.058 7.467 9.597c0 0 20.887-.863 21.753-3.882.865-3.019 3.03-25.663 3.03-25.663z" fill="#5F5570"/><path opacity=".1" d="M57.163 57.792l9.415 9.704-13.203 83.675-5.194-3.019s-13.42 5.93-14.502.431c-1.082-5.499-.784-27.173-.784-27.173l1.758-39.154s6.169-13.694 6.169-14.126c0-.431 8.895-7.116 8.895-7.116l4.2-3.235 3.246.013z" fill="#000"/><path d="M57.163 56.498l9.415 9.704-13.203 83.675-5.194-3.019s-13.42 5.93-14.502.431c-1.082-5.499-.784-27.173-.784-27.173l1.758-39.154s6.169-13.694 6.169-14.126c0-.43 8.895-7.116 8.895-7.116l4.2-3.235 3.246.013z" fill="#E5E8EF"/><path opacity=".1" d="M56.622 57.9l2.597 5.283-2.597 2.73s-9.307 18.728-7.467 29.834l-1.948 36.554-6.277 6.146-4.978-5.728 2.38-33.21s6.386-27.39 13.095-35.908l1.948-7.547 3.247 1.846z" fill="#000"/><path d="M56.622 57.037l2.597 5.284-2.597 2.73s-9.307 18.727-7.467 29.834l-1.948 36.553-6.277 6.147-4.978-5.728 2.38-33.211s6.386-27.389 13.095-35.907l1.948-7.548 3.247 1.846z" fill="#BC8487"/><path opacity=".1" d="M44.718 33.854c2.363 3.796 4.224 7.138 5.679 10.08 1.532.45 3.121.678 4.718.677 5.35 0 8.433-3.688 11.463-7.604.693-.889 2.97-.682 3.463-1.725-.593-3.347-.94-5.905-.94-5.905l-24.383 4.477z" fill="#000"/><path d="M38.523 27.643c0 3.937 1.41 7.745 3.978 10.739a16.608 16.608 0 0010.025 5.59c3.903.614 7.898-.18 11.266-2.239A16.542 16.542 0 0070.9 32.74a16.477 16.477 0 00-.46-11.438 16.556 16.556 0 00-7.806-8.398 16.647 16.647 0 00-11.41-1.333 16.595 16.595 0 00-9.544 6.372 16.491 16.491 0 00-3.156 9.7z" fill="#FFC5D3"/><path opacity=".1" d="M60.41 64.477l13.635-16.39s1.26-.504-2.995-4.943c0 0-15.627 12.138-16.597 14.2-.97 2.061 5.956 7.133 5.956 7.133z" fill="#000"/><path d="M60.843 63.615l13.635-16.39s1.26-.505-2.995-4.943c0 0-15.627 12.137-16.597 14.199-.97 2.061 5.956 7.134 5.956 7.134z" fill="#E5E8EF"/><path d="M26.32 167.928s2.597-1.553 2.597-3.386c0-1.833 1.299-27.712 1.299-27.712s1.904-15.445 3.896-27.721c1.169-7.233 2.368-13.37 3.216-14.587l.035-.051c2.272-2.912 1.84-17.145 16.016-37.956-.19.13-5.077 3.545-8.657 5.262-.729.365-1.493.654-2.282.863-3.246.755-13.852 4.852-13.527 11.43.325 6.577-.758 21.673-.758 21.673v30.938l-1.835 41.247zm0-100.216s-4.546 12.508-3.896 15.635c.65 3.127-10.498 15.42-10.498 15.42L1.321 91.433s4.004-7.98 3.463-10.351c-.541-2.373 2.814-7.44 2.814-7.44L7.38 65.24s1.948 3.645 18.939 2.472z" fill="#5F5570"/><path opacity=".1" d="M41.679 17.943l8.224.31a9.193 9.193 0 012.381.298c2.94.902 4.294 4.016 4.403 6.815.108 2.8 1.731 5.935 4.878 6.18a1.22 1.22 0 00.896-.198c.2-.211.333-.477.381-.763a16.666 16.666 0 012.07-4.607c1.298.233 2.26 1.462 2.597 2.748.338 1.285.247 2.64.242 3.972a25.55 25.55 0 00.49 5.042 16.474 16.474 0 001.15-18.482 16.552 16.552 0 00-4.36-4.847 16.652 16.652 0 00-18.564-.88 16.568 16.568 0 00-4.801 4.412h.013z" fill="#000"/><path d="M52.713 18.12a9.189 9.189 0 00-2.381-.298l-9.987-.37c-1.463-.057-3.095-.186-4.077-1.269a3.796 3.796 0 01-.762-1.419 6.105 6.105 0 01.645-5.016c1.155-1.833 3.181-2.898 5.112-3.882a59.512 59.512 0 015.528-2.587 29.536 29.536 0 0121.688.31 8.763 8.763 0 011.93 1.03 9.95 9.95 0 012.104 2.503l3.286 4.934a6.786 6.786 0 011.034 1.992c.62 2.342-1.299 4.685-1.1 7.095.113 1.2.75 2.3.866 3.498.156 1.549-.554 3.02-1.25 4.43l-5.775 11.607a25.631 25.631 0 01-1.398-8.41c0-1.334.112-2.688-.243-3.973-.355-1.286-1.299-2.515-2.597-2.748a16.603 16.603 0 00-2.074 4.607c-.047.286-.18.552-.38.763a1.22 1.22 0 01-.897.198c-3.164-.245-4.761-3.35-4.878-6.18-.117-2.83-1.455-5.914-4.394-6.815z" fill="#8F7080"/><path d="M120.762 203.218l-4.043-1.152-60.963 3.308 6.71.863 58.296-3.019z" fill="#7B728F"/><path opacity=".1" d="M120.762 203.218l-4.043-1.152-60.963 3.308 6.71.863 58.296-3.019z" fill="#000"/><path d="M54.098 263.602l8.043-.747 2.822-.258v-44.572l-.744-10.348-.165-2.303h-8.298l-1.658 58.228z" fill="#7B728F"/><path opacity=".1" d="M56.297 262.019l6.415-.708 2.251-.246v-42.26l-.593-9.808-.13-2.186h-6.618l-1.325 55.208z" fill="#000"/><path d="M100.291 203.218s-4.004-8.752-5.684-9.024c-1.68-.271-4.761 0-4.761 0l.272 2.537s4.113.323 5.411 7.168l4.762-.681z" fill="#7B728F"/><path opacity=".1" d="M100.291 203.218s-4.004-8.752-5.684-9.024c-1.68-.271-4.761 0-4.761 0l.272 2.537s4.113.323 5.411 7.168l4.762-.681z" fill="#000"/><path d="M84.759 193.28s-10.766 5.336-9.359 11.59l5.844-.324s2.814-9.325 5.03-9.812c2.216-.488-1.515-1.454-1.515-1.454z" fill="#7B728F"/><path d="M44.717 108.795v.315l.217 35.915s5.519 30.192 7.034 31.378c1.515 1.186 34.74-2.049 34.74-2.049L101.75 73.319c.108-17.252-12.121-16.713-12.121-16.713-1.623-2.588-9.415-4.637-9.415-4.637l-4.33-4.205-.138-.194a3.841 3.841 0 00-1.09-1.074c-.892-.513-1.46.164-1.784.832-.146.314-.26.642-.338.98-17.536 12.814-27.817 60.487-27.817 60.487z" fill="#5F5570"/><path opacity=".1" d="M45.15 109.226v.315c5.442-9.92 26.406-47.505 32.142-49.377l-2.208-1.51s-1.471-.862 1.234-1.725c0 0 4.22.54 4.329-4.529l-4.467-4.399-1.091-1.074-1.784.832a5.01 5.01 0 00-.337.98C55.43 61.553 45.15 109.226 45.15 109.226z" fill="#000"/><path d="M44.718 108.794v.315c5.441-9.92 26.406-47.504 32.141-49.376l-2.207-1.51s-1.472-.863 1.233-1.725c0 0 4.22.539 4.33-4.529l-4.468-4.4-1.091-1.073-1.784.832a4.978 4.978 0 00-.337.98c-17.536 12.813-27.817 60.486-27.817 60.486z" fill="#433A59"/><path opacity=".1" d="M36.891 94.936l.035-.051c2.272-2.912 1.84-17.145 16.016-37.956-.19.13-5.077 3.546-8.657 5.262l1 3.287-2.165 1.151-6.229 28.307z" fill="#000"/><path d="M37.324 94.505l.035-.051c2.272-2.912 1.84-17.145 16.016-37.956-.19.13-5.078 3.545-8.657 5.262l1 3.287-2.165 1.151-6.23 28.307z" fill="#433A59"/><path opacity=".1" d="M53.998 53.177l.888 3.735s-.65 3.74-4.541 4.063l-.628-1.781s4.2-2.683 4.281-6.017z" fill="#000"/><path d="M53.998 52.745l.888 3.736s-.65 3.739-4.541 4.063l-.628-1.782s4.2-2.683 4.281-6.017z" fill="#E5E8EF"/><path opacity=".1" d="M59.596 205.978l2.545 56.878 2.822-.259v-44.572l-.744-10.347-4.623-1.7z" fill="#000"/><path d="M120.182 227.945l1.731 30.766-58.872 4.891-2.58-57.624 59.721 21.967z" fill="#7B728F"/><path opacity=".1" d="M121.48 231.253l-1.151-27.173-60.3 2.761 2.87 28.725 58.581-4.313z" fill="#000"/><path d="M121.913 230.39l-1.151-27.172-60.3 2.76 2.87 28.726 58.581-4.314z" fill="#7B728F"/><path d="M89.305 230.425h7.25v8.411h-7.25v-8.411z" fill="#C3BBC8"/><path d="M95.473 175.325l1.082 2.911s2.272 15.959-.541 17.9c-2.814 1.94-11.147 2.048-11.58 1.078-.433-.971-3.463-11.969-3.463-11.969s-2.706 8.087-4.112 7.44c-1.407-.647 3.246-16.019 3.246-16.019l15.368-1.341z" fill="#FFC5D3"/><path opacity=".1" d="M96.555 163.248v15.419s-11.471 2.157-16.45-1.57c0 0 4.654-14.927 2.923-18.701-1.732-3.774 13.527 4.852 13.527 4.852z" fill="#000"/><path d="M96.555 162.817v15.419s-11.471 2.157-16.45-1.57c0 0 4.654-14.927 2.923-18.701-1.732-3.774 13.527 4.852 13.527 4.852z" fill="#E5E8EF"/><path opacity=".1" d="M97.854 72.564l3.03 1.618s.541 6.47.866 7.332c.324.863 0 9.597 0 9.597l.147 17.684s.467 9.381 0 12.723c-.468 3.343-.991 16.067-.991 16.067s-2.927 12.4-1.844 16.821c1.082 4.421-.109 14.341-1.948 13.479-1.84-.863-18.83-4.206-19.697-4.853-.865-.647-.433-6.685 0-7.44.433-.755 3.03-10.998 2.814-13.371-.216-2.372.758-23.183.758-23.183s-1.624-22.212-2.273-27.388c-.65-5.176 1.299-20.38 3.03-20.595 1.732-.216 6.8-11.97 16.108 1.51z" fill="#000"/><path d="M98.72 71.702l3.03 1.617s.541 6.47.865 7.333c.325.862 0 9.596 0 9.596l.148 17.684s.467 9.381 0 12.724c-.468 3.343-.992 16.066-.992 16.066s-2.926 12.401-1.844 16.822c1.082 4.42-.108 14.341-1.948 13.478-1.84-.863-18.83-4.205-19.696-4.852-.866-.647-.433-6.686 0-7.44.433-.755 3.03-10.999 2.814-13.371-.217-2.372.757-23.183.757-23.183s-1.623-22.213-2.272-27.389c-.65-5.175 1.298-20.38 3.03-20.595 1.732-.215 6.8-11.969 16.108 1.51z" fill="#5F5570"/><path opacity=".1" d="M65.99 23.93c1.298.232 2.259 1.462 2.597 2.747.337 1.285.246 2.64.242 3.972a25.626 25.626 0 001.394 8.41l5.779-11.606c.112-.228.23-.465.342-.703a15.654 15.654 0 01-.992 2.32l-5.779 11.607a25.623 25.623 0 01-1.393-8.41c0-1.333.108-2.687-.243-3.973-.35-1.285-1.299-2.514-2.597-2.747-.42.654-.794 1.336-1.121 2.04a16.79 16.79 0 011.77-3.658zM36.047 9.933a6.086 6.086 0 00.104 3.214c.15.522.412 1.005.766 1.419.982 1.082 2.597 1.212 4.078 1.268l9.982.37a9.222 9.222 0 012.385.298c2.935.902 4.294 4.016 4.402 6.815.109 2.8 1.732 5.935 4.879 6.18a1.22 1.22 0 00.896-.198c-.1.28-.195.565-.277.863a1.422 1.422 0 01-.377.763 1.22 1.22 0 01-.896.199c-3.168-.246-4.761-3.351-4.878-6.181-.117-2.83-1.468-5.913-4.403-6.815a9.222 9.222 0 00-2.385-.297l-9.982-.371c-1.463-.056-3.095-.186-4.078-1.268a3.805 3.805 0 01-.766-1.42 6.103 6.103 0 01.55-4.839zm16.254 176.903s-3.748-1.94-5.194-1.833c-1.446.108-14.428 16.558-14.428 16.558L52.3 186.836zm38.453-111.33s6.853 2.916 6.671 4.93c-.182 2.014-6.67-4.93-6.67-4.93zm3.338 9.532s7.19 9.16 5.602 9.467c-1.589.306-5.602-9.467-5.602-9.467zM70.041 98.767s-.658 20.487 4.615 23.075L70.04 98.767zm27.402 54.703s-5.073-2.872-6.238-2.299c-1.164.574 6.238 2.299 6.238 2.299zm-.888 3.973s-3.203.228-4.722-.432c-1.52-.66 4.722.432 4.722.432zM20.086 82.001s-3.974 11.374-6.264 11.374l6.264-11.374zm56.509 217.831s-7.454-2.014-8.554 0c-1.1 2.014 8.554 0 8.554 0zm23.696-29.864s1.857 2.834-.597 3.696c-2.455.863.597-3.696.597-3.696zm-49.513-39.543s-5.628 4.995-8.286 5.141c-2.657.147 8.286-5.141 8.286-5.141z" fill="#000"/><defs><linearGradient id="paint0_linear_284:80" x1="61.998" y1="329.877" x2="61.998" y2="-.004" gradientUnits="userSpaceOnUse"><stop stop-color="gray" stop-opacity=".25"/><stop offset=".54" stop-color="gray" stop-opacity=".12"/><stop offset="1" stop-color="gray" stop-opacity=".1"/></linearGradient></defs></svg>