<svg width="47" height="47" fill="none" xmlns="http://www.w3.org/2000/svg"><path d="M41.125 25.63v-1.47a.735.735 0 00.734-.734V19.02a.735.735 0 00-.734-.734h-3.966l-.142-.552a13.568 13.568 0 00-1.498-3.588l-.294-.491 2.816-2.82a.728.728 0 000-1.029l-3.12-3.123a.745.745 0 00-1.028 0l-2.82 2.82-.491-.293a13.603 13.603 0 00-3.593-1.499l-.552-.143v-3.97a.734.734 0 00-.734-.734h-4.406a.734.734 0 00-.735.735v3.965l-.551.143a13.6 13.6 0 00-3.589 1.497l-.491.294-2.82-2.815a.745.745 0 00-1.032 0l-3.12 3.119a.73.73 0 000 1.033l2.821 2.82-.294.491a13.57 13.57 0 00-1.498 3.588l-.144.552H5.875a.734.734 0 00-.734.734v4.407c0 .405.328.734.734.734v1.469a2.203 2.203 0 01-2.203-2.203V19.02c0-1.216.986-2.203 2.203-2.203h2.841a14.997 14.997 0 011.222-2.925l-2.02-2.019a2.197 2.197 0 010-3.11l3.122-3.12a2.249 2.249 0 013.11 0l2.019 2.018c.929-.509 1.91-.918 2.925-1.22V3.599c0-1.217.986-2.203 2.203-2.203h4.406c1.217 0 2.203.986 2.203 2.203V6.44a15 15 0 012.925 1.221l2.02-2.02a2.25 2.25 0 013.11 0l3.12 3.12a2.196 2.196 0 010 3.11l-2.02 2.02c.51.93.92 1.91 1.223 2.925h2.841c1.217 0 2.203.987 2.203 2.203v4.407a2.203 2.203 0 01-2.203 2.203z" fill="#B961FF"/><path d="M33.781 21.224h-1.468a8.813 8.813 0 00-17.626 0H13.22c0-5.679 4.603-10.282 10.281-10.282 5.678 0 10.281 4.603 10.281 10.282z" fill="#B961FF"/><path d="M23.5 27.099a4.406 4.406 0 110-8.813 4.406 4.406 0 010 8.813zm0-7.344a2.938 2.938 0 100 5.875 2.938 2.938 0 000-5.875zm12.484 10.281a4.406 4.406 0 110-8.813 4.406 4.406 0 010 8.813zm0-7.344a2.938 2.938 0 100 5.876 2.938 2.938 0 000-5.876zm-24.968 7.344a4.406 4.406 0 110-8.813 4.406 4.406 0 010 8.813zm0-7.344a2.938 2.938 0 100 5.876 2.938 2.938 0 000-5.876z" fill="#B961FF"/><path d="M42.642 31.92a6.535 6.535 0 00-3.72-1.15h-5.875a6.577 6.577 0 00-1.066.097 6.59 6.59 0 00-1.798-1.866 2.86 2.86 0 00-.339-.22 6.558 6.558 0 00-3.407-.948h-5.875a6.536 6.536 0 00-5.541 3.034 6.604 6.604 0 00-1.068-.097H8.078a6.536 6.536 0 00-3.718 1.15 6.61 6.61 0 00-2.891 5.46v2.938a5.145 5.145 0 002.99 4.667 4.978 4.978 0 002.15.474h7.344V43.99h-6.61v-8.078H5.876v8.005a3.447 3.447 0 01-.8-.266 3.68 3.68 0 01-2.138-3.333V37.38a5.146 5.146 0 012.252-4.25 5.08 5.08 0 012.89-.89h5.874c.13 0 .254.013.38.022a6.61 6.61 0 00-.38 2.18v7.344a3.676 3.676 0 003.672 3.672h2.203v-11.75H18.36v10.281h-.734a2.203 2.203 0 01-2.203-2.203v-7.344a5.14 5.14 0 015.14-5.14h5.875a5.13 5.13 0 012.677.755c.075.041.146.087.214.138a5.2 5.2 0 011.647 1.836 5.12 5.12 0 01.603 2.411v7.344a2.203 2.203 0 01-2.203 2.203h-.734V33.708h-1.47v11.75h2.204a3.676 3.676 0 003.672-3.672v-7.344a6.626 6.626 0 00-.38-2.18c.127-.009.251-.023.38-.023h5.875a5.083 5.083 0 012.89.893 5.147 5.147 0 012.25 4.248v2.937a3.677 3.677 0 01-2.15 3.339 3.384 3.384 0 01-.787.26V35.91h-1.469v8.078h-6.61v1.469h7.345a4.965 4.965 0 002.137-.469 5.147 5.147 0 003.003-4.672V37.38a6.61 6.61 0 00-2.89-5.46z" fill="#B961FF"/><path d="M20.563 43.99h5.875v1.468h-5.875v-1.469z" fill="#B961FF"/></svg>