<svg width="49" height="49" fill="none" xmlns="http://www.w3.org/2000/svg"><g clip-path="url(#clip0)" fill="#B961FF"><path d="M48.183 31.033H.817A.816.816 0 010 30.217V4.9a3.271 3.271 0 013.267-3.268h42.466A3.271 3.271 0 0149 4.901v25.316a.816.816 0 01-.817.816zM1.633 29.4h45.734V4.9c0-.9-.733-1.633-1.634-1.633H3.267c-.901 0-1.634.732-1.634 1.634V29.4z"/><path d="M45.733 37.567H3.267A3.271 3.271 0 010 34.3v-4.083c0-.452.366-.817.817-.817h47.366c.451 0 .817.365.817.817V34.3a3.271 3.271 0 01-3.267 3.267zm-44.1-6.533V34.3c0 .901.733 1.634 1.634 1.634h42.466c.901 0 1.634-.733 1.634-1.634v-3.266H1.633z"/><path d="M26.95 34.3h-4.9a.816.816 0 110-1.633h4.9a.816.816 0 110 1.633zm17.967-3.266H4.083a.816.816 0 01-.816-.817v-24.5c0-.452.365-.817.816-.817h40.834c.45 0 .816.365.816.817v24.5a.816.816 0 01-.816.817zM4.9 29.4h39.2V6.534H4.9V29.4zm30.217 17.967H13.884c-1.351 0-2.45-1.1-2.45-2.45a2.453 2.453 0 012.45-2.45h21.233c1.35 0 2.45 1.099 2.45 2.45 0 1.35-1.1 2.45-2.45 2.45zM13.884 44.1a.818.818 0 000 1.633h21.233a.818.818 0 000-1.633H13.884z"/><path d="M33.483 44.1H15.516a.817.817 0 110-1.633c2.71 0 4.083-1.923 4.083-5.717 0-.451.366-.816.817-.816h8.167c.45 0 .816.365.816.816 0 3.794 1.374 5.717 4.084 5.717a.816.816 0 110 1.633zm-13.99-1.633h10.012c-1.006-1.113-1.598-2.773-1.716-4.9H21.21c-.119 2.127-.71 3.787-1.716 4.9zm20.524-14.7H23.683a.816.816 0 01-.469-1.486l8.167-5.716a.818.818 0 01.936 0l8.167 5.716a.815.815 0 01-.468 1.486zm-13.743-1.634h11.151l-5.575-3.902-5.576 3.902z"/><path d="M40.017 27.767a.813.813 0 01-.468-.148l-7-4.9a.816.816 0 010-1.338l7-4.9a.815.815 0 011.285.669v9.8a.817.817 0 01-.818.817zM34.44 22.05l4.76 3.331V18.72l-4.76 3.331zm-10.756 5.717a.814.814 0 01-.817-.817v-9.8a.817.817 0 011.285-.67l7 4.9a.817.817 0 010 1.338l-7 4.9a.807.807 0 01-.468.149zm.816-9.048v6.662l4.76-3.33-4.76-3.332z"/><path d="M33.017 22.866a.817.817 0 01-.468-.147l-.699-.489-.698.49a.818.818 0 01-.936 0l-5.367-3.757a.815.815 0 01-.349-.67v-9.31c0-.451.366-.817.817-.817h13.066c.451 0 .817.366.817.817v9.31c0 .266-.13.516-.349.669l-5.366 3.757a.819.819 0 01-.468.147zm-1.167-2.45c.164 0 .328.05.468.148l.698.49 4.55-3.185v-8.07H26.134v8.07l4.55 3.184.698-.49a.827.827 0 01.469-.146z"/><path d="M33.483 13.883h-3.267a.816.816 0 110-1.633h3.267a.816.816 0 110 1.633zm1.634 3.267h-6.534a.816.816 0 110-1.633h6.534a.817.817 0 110 1.633zM19.6 18.784h-7.35a.816.816 0 110-1.634h7.35a.816.816 0 110 1.634zm-10.616 0h-.817a.816.816 0 110-1.634h.817a.816.816 0 110 1.634zm4.899-3.267H9.8a.816.816 0 110-1.634h4.083a.817.817 0 110 1.634zm4.083 0h-.816a.816.816 0 110-1.634h.816a.817.817 0 110 1.634zm-4.083 6.533H9.8a.816.816 0 110-1.634h4.083a.817.817 0 110 1.634zm4.083 0h-.816a.816.816 0 110-1.634h.816a.817.817 0 110 1.634z"/></g><defs><clipPath id="clip0"><path fill="#fff" d="M0 0h49v49H0z"/></clipPath></defs></svg>