<svg width="157" height="337" fill="none" xmlns="http://www.w3.org/2000/svg"><path d="M49.526 327.147h9.316l4.431-36.137H49.525l.001 36.137z" fill="#FFB8B8"/><path d="M47.15 336.228l30.038-.001v-.382c0-3.118-1.233-6.109-3.425-8.314a11.658 11.658 0 00-8.267-3.444l-18.346.001v12.14z" fill="#2F2E41"/><path d="M8.411 304.115l6.047 7.127 30.21-20.067-8.925-10.518-27.332 23.458z" fill="#FFB8B8"/><path d="M0 308.191l19.497 22.98.29-.248a11.781 11.781 0 004.065-8.017 11.804 11.804 0 00-2.76-8.56h-.001L9.182 300.311 0 308.191zM115.669 149.43l2.9 26.896-117.22-1.682 51.12-83.773 41.74-1.508 21.46 60.067z" fill="#2F2E41"/><path opacity=".28" d="M115.669 149.43l2.9 26.896-117.22-1.682 51.12-83.773 41.74-1.508 21.46 60.067z" fill="#000"/><path d="M92.62 154.047l4.138 24.61v21.997l-33.366 10.954s3.906 85.442-1.301 90.884l.127 13.137-14.555.666-.119-9.246-6.171-69.107-3.635-50.738 5.893-38.469 48.989 5.312z" fill="#2F2E41"/><path d="M66.77 175.232l29.988 25.423s1.755 45.869-2.702 51.248c-3.828 4.62-53.617 44.471-53.617 44.471s-8.849 8.163-13.808 8.294c-4.959.13-10.726-10.331-10.726-10.331l11.485-8.776s29.752-27.931 38.586-39.037c3.566-4.483 3.566-4.931 3.566-4.931l-1.218-18.641-12.256-34.596 10.701-13.124zM98.608 53.456l12.929-1.202 11.728 1.966 24.834.008 2.116 18.101-22.663 5.101-5.522-2.722-23.022 8.821-.4-30.073z" fill="#2F2E41"/><path d="M83.165 53.398s-27.44-2.586-33.68 2.345c-6.24 4.931-19.61 102.652-19.61 102.652l53.29 3.025 9.554-6.611-2.712-48.786-6.842-52.625z" fill="#CCC"/><path d="M74.79 52.79l30.268.668 28.22 128.247-22.285 4.931L74.789 52.79zm-21.518-1.084L29.43 59.211l1.355 52.693L1.35 174.901l34.603 3.666 27.35-68.025-10.03-58.836z" fill="#2F2E41"/><path d="M13.954 181.301a7.662 7.662 0 01-1.946-2.682 7.697 7.697 0 01.16-6.48 7.655 7.655 0 012.075-2.582l-4.797-16.829 9.458-5.426 6.442 23.862a7.734 7.734 0 01-1.219 10.157 7.63 7.63 0 01-10.173-.02z" fill="#FFB8B8"/><path d="M43.245 60.675l-14.108-1.23S16.471 72.766 13.59 83.082c-2.881 10.315-6.001 42.59-6.001 42.59l1.301 47.214 16.491-11.263 1.106-40.61 16.758-60.339z" fill="#2F2E41"/><path d="M46.65 36.943c-5.298-9.747-1.737-21.967 7.955-27.296 9.691-5.328 21.843-1.746 27.14 8.001 5.298 9.747 1.736 21.968-7.955 27.296-9.692 5.329-21.843 1.746-27.14-8z" fill="#FFB8B8"/><path d="M66.427 18.898c2.624-.61 5.347.066 8.005.504 2.658.438 5.587.583 7.834-.909 1.66-1.1 2.681-2.923 3.64-4.675a5.4 5.4 0 00.783-2.064c.113-1.296-.707-2.478-1.578-3.44-4.044-4.471-9.953-6.918-15.913-7.696a27.35 27.35 0 00-14.53 1.785c-4.524 1.996-8.412 5.65-10.191 10.285a29.352 29.352 0 00-1.522 7.344 22.067 22.067 0 00-.103 5.563c.24 1.372.599 2.72 1.072 4.03l2.946 8.947a5.908 5.908 0 001.159 2.306 2.002 2.002 0 002.347.517 7.387 7.387 0 01-.106-2.968 2.51 2.51 0 01.68-1.3 2.49 2.49 0 011.285-.693c1.086-.116 2.014.73 3.044 1.096a3.723 3.723 0 002.85-.301 3.75 3.75 0 001.877-2.53c.163-1.023-.11-2.117.275-3.078.452-1.126 1.65-1.715 2.55-2.524a5.908 5.908 0 001.694-2.83 5.934 5.934 0 00-.084-3.303c-.241-.745-.922-1.083-.785-1.939.178-1.122 1.823-1.906 2.77-2.127z" fill="#2F2E41"/><path d="M148.23 70.757c-4.384 0-7.939-3.575-7.939-7.985s3.555-7.985 7.939-7.985c4.385 0 7.94 3.575 7.94 7.985s-3.555 7.985-7.94 7.985z" fill="#FFB8B8"/></svg>