<svg width="114" height="337" fill="none" xmlns="http://www.w3.org/2000/svg"><path d="M107.713 166.989l-.764 4.242s1.147 29.341-7.26 20.15c-8.408-9.191-2.676-21.564-2.676-21.564l2.293-3.535 8.407.707zM58.797 31.244s-1.529 14.847-2.293 15.554c-.764.707 11.465 14.14 11.465 14.14l10.7-9.19s-.764-13.434 1.529-16.262c2.293-2.828-21.4-4.242-21.4-4.242z" fill="#FBBEBE"/><path opacity=".1" d="M58.797 31.244s-1.529 14.847-2.293 15.554c-.764.707 11.465 14.14 11.465 14.14l10.7-9.19s-.764-13.434 1.529-16.262c2.293-2.828-21.4-4.242-21.4-4.242z" fill="#000"/><path d="M30.517 302.026v12.726l-5.35.708-7.643-2.121 2.292-13.434 10.701 2.121z" fill="#3F3D56"/><path d="M23.639 308.389s-2.293-5.656-6.115-4.949c-3.821.707-4.586 4.949-4.586 4.949s-3.057 10.605-7.643 14.14-9.171 12.726 0 14.14c9.172 1.414 16.815-2.121 16.815-2.828 0-.707 2.293-4.949 6.115-5.656 3.821-.707 6.879-1.414 6.879-4.242 0-2.828-2.293-5.656-2.293-5.656s-.765-13.411-2.293-11.654a13.603 13.603 0 00-2.293 4.584l-4.586-2.828z" fill="#2F2E41"/><path d="M63.383 295.664l-3.057 10.605 7.643 1.414 3.822-3.535.764-9.191-9.172.707z" fill="#3F3D56"/><path d="M62.62 304.854s3.056-2.121 4.585-2.121h2.293s0-4.949 3.822-4.949c3.821 0 3.057 3.535 3.057 3.535s8.407 12.019 10.7 14.14c2.293 2.121 14.522 8.484 4.586 11.312-9.936 2.828-16.815 2.828-21.4-2.121 0 0-4.587-2.121-7.644-2.121-3.057 0-6.879-1.414-6.879-3.535 0-2.121 2.293-6.363 2.293-6.363s1.529-12.726 2.293-11.312c.764 1.414 2.293 3.535 2.293 3.535z" fill="#2F2E41"/><path d="M29.753 133.053v23.331s-8.407 45.248-8.407 60.095c0 14.847-12.993 85.548-6.879 86.962 6.115 1.414 20.637 3.535 21.401 1.414.764-2.121 6.114-69.287 6.879-69.994.764-.707 16.815-56.56 16.815-56.56l3.057.707 1.529 63.63s-7.643 57.268-3.822 57.268c3.822 0 19.872-.707 19.872-4.95 0-4.242 8.408-82.719 8.408-82.719s9.936-62.216 6.114-68.579c-3.821-6.363-3.821-9.898-3.821-9.898l-61.146-.707z" fill="#2F2E41"/><path d="M71.408 42.203c8.443 0 15.287-6.33 15.287-14.14 0-7.81-6.844-14.14-15.287-14.14-8.442 0-15.286 6.33-15.286 14.14 0 7.81 6.844 14.14 15.286 14.14z" fill="#FBBEBE"/><path d="M67.969 52.455s-9.554-7.424-10.318-10.252c0 0-4.968 4.596-4.968 5.303 0 .707-21.401 2.828-26.751 8.484-5.35 5.656-9.936 17.675-9.936 17.675l12.993 22.624s.764 12.726.764 14.14c0 1.414-3.821 24.038-2.293 24.745 1.529.707 16.815 7.777 29.809 6.363 12.993-1.414 25.986-3.535 29.808-3.535 3.822 0 6.879 1.414 6.879 0s-2.293-4.242-2.293-5.656c0-1.414-.764-4.949-.764-7.07 0-2.121-1.53-5.656-1.53-8.484 0-2.828 16.816-41.006 16.816-41.006s-.765-12.02-12.994-17.675c-12.229-5.656-13.757-7.777-13.757-7.777s-.239-4.242-.884-4.242-2.938 6.363-9.052 7.07l-1.529-.707z" fill="#D0CDE1"/><path d="M26.695 146.486l5.35 7.777 13.758-2.828-9.936-10.605-9.172 5.656z" fill="#FBBEBE"/><path d="M101.599 70.13l4.586 5.656s9.172 41.006 7.643 55.853c-1.528 14.847-3.057 26.159-3.057 26.159s3.057 10.605.764 10.605-16.05.707-16.05-1.414 1.528-15.554 1.528-15.554l-3.821-31.108-8.408-10.605L101.6 70.13z" fill="#D0CDE1"/><path d="M61.026 21.198c.937-.367 2.02-.07 3.023-.226 1.179-.184 2.233-.992 3.423-.89a6.958 6.958 0 011.63.49 2.272 2.272 0 001.669.055.943.943 0 00.33-.235.86.86 0 00.19-.344.812.812 0 00.011-.386.847.847 0 00-.168-.353 4.915 4.915 0 002.715-1.081c.15-.145.326-.266.518-.36a1.825 1.825 0 011.332.192l1.749.746c.394.129.74.358 1 .661.207.3.248.704.543.934.375.293.937.15 1.428.178.446.04.86.23 1.164.534.304.304.477.7.486 1.114-.007.475-.194 1.057.212 1.348.236.168.57.141.846.245.715.268.718 1.189.612 1.896-.106.707-.053 1.64.681 1.857.518.154 1.046-.173 1.584-.246.811-.11 1.561.36 2.283.718.722.36 1.681.601 2.307.112.582-.456.545-1.29.385-1.98a10.396 10.396 0 00-1.122-2.835 1.713 1.713 0 01-.325-.883c.044-.222.138-.433.276-.62.138-.185.317-.342.526-.46.884-.646 1.902-1.298 2.188-2.306.21-.74-.026-1.522-.008-2.287.022-.931.422-1.858.235-2.773-.34-1.66-2.336-2.457-3.624-3.653-1.77-1.644-2.345-4.272-4.434-5.556-1.672-1.027-3.858-.904-5.761-1.492-2.09-.645-3.774-2.128-5.836-2.847a8.744 8.744 0 00-3.525-.436 8.605 8.605 0 00-3.388.997 7.142 7.142 0 01-2.033.96 7.895 7.895 0 01-1.85-.02 7.635 7.635 0 00-3.528.674 1.933 1.933 0 00-.988.801c-.37.759.167 1.945-.642 2.308-.378.169-.823.007-1.242.015-.816.017-1.443.673-1.83 1.336a6.348 6.348 0 01-1.283 1.91c-.997.807-2.807.94-3.067 2.142a10.77 10.77 0 00.093 1.522c-.075 1.064-1.307 1.873-1.243 2.939.075 1.228 1.762 1.829 2.213 2.986.344.882-.108 1.835-.42 2.727-.31.892-.404 2.035.4 2.606.314.223.72.315 1.04.531.832.56.821 1.688.729 2.635a1.148 1.148 0 00-.001.599c.053.197.157.378.303.53a1.216 1.216 0 00.924.103 3.91 3.91 0 001.378-.604 3.59 3.59 0 001.008-1.058c.268-.41.322-.77.808-.988.33-.147.73-.016 1.066-.207 1.598-.91 1.048-3.506 3.01-4.275z" fill="#2F2E41"/><path d="M18.289 71.544l-2.293 2.121s-13.758 38.178-9.172 46.662c4.586 8.484 13.758 29.694 16.815 28.987 3.057-.707 13.758-7.07 13.758-7.777 0-.707-12.994-20.503-12.994-20.503s-1.528-4.242-.764-4.949c.764-.707.764 0 0-1.414s-.764 0 .764-1.414c1.529-1.414 1.529-1.414 1.529-2.121 0-.707 4.586-18.382 4.586-18.382l-12.23-21.21z" fill="#D0CDE1"/><path d="M30.135 154.617l16.816-4.949 2.292 4.949-18.343 3.535-.765-3.535z" fill="#2F2E41"/><path opacity=".1" d="M30.135 154.617l16.816-4.949 2.292 4.949-18.343 3.535-.765-3.535zM53.065 47.86l12.993 9.897 1.529-2.12-14.523-7.778zm25.986 2.828l-9.171 4.948.764 2.121 8.407-7.07z" fill="#000"/></svg>