<svg width="205" height="290" fill="none" xmlns="http://www.w3.org/2000/svg"><mask id="mask0" style="mask-type:alpha" maskUnits="userSpaceOnUse" x="0" y="0" width="205" height="205"><path transform="rotate(-45 0 102.5)" fill="#B961FF" d="M0 102.5h144.957v144.957H0z"/></mask><g mask="url(#mask0)"><path fill="#000" d="M0 102.5L102.5 0 205 102.5 102.5 205z"/><path transform="rotate(-45 2.121 102.5)" fill="url(#paint0_linear)" fill-opacity=".2" stroke="url(#paint1_linear)" stroke-width="3" d="M2.121 102.5h141.957v141.957H2.121z"/><path stroke="#B961FF" stroke-opacity=".2" d="M183.124-33.8l279.724 279.723-14.255 14.255L168.869-19.546zM150.046-6.994l318.74 318.74L454.53 326 135.79 7.26zM55.658-41.5l408.269 408.27-14.256 14.255L41.403-27.244zm-89.163-29.28l507.552 507.553-14.255 14.255L-47.76-56.524zm-29.942 29.942l535.77 535.77-14.256 14.254-535.77-535.769zm-38.303 21.582L490.105 572.6l-14.255 14.255L-116.005-5zm36.944 96.826l573.044 573.043-14.255 14.256L-79.061 91.825zm52.969 112.852L573.05 775.31l-14.255 14.255-584.887-584.887z"/><path stroke="#B961FF" stroke-opacity=".2" d="M108.91 11.443L-.47 120.825l14.255 14.255L123.166 25.7zM273.923-33.8L-5.801 245.922l14.255 14.255L288.178-19.545zm127.466-7.7L-6.88 366.769l14.255 14.255 408.27-408.269zm119.104.662l-535.77 535.77 14.256 14.255 535.77-535.77zm1.359 118.408L-51.192 650.614l14.255 14.255L536.107 91.826z"/></g><path transform="rotate(-45 60.696 246.238)" stroke="url(#paint2_linear)" stroke-width="2" d="M60.696 246.238h59.15v59.15h-59.15z"/><defs><linearGradient id="paint0_linear" x1="72.478" y1="102.5" x2="72.478" y2="247.457" gradientUnits="userSpaceOnUse"><stop offset="0" stop-color="#6411A6"/><stop offset="1" stop-color="#3F046D"/></linearGradient><linearGradient id="paint1_linear" x1="72.478" y1="102.5" x2="72.478" y2="247.457" gradientUnits="userSpaceOnUse"><stop offset="0" stop-color="#6411A6"/><stop offset="1" stop-color="#3F046D"/></linearGradient><linearGradient id="paint2_linear" x1="89.857" y1="246.238" x2="89.857" y2="307.388" gradientUnits="userSpaceOnUse"><stop offset="0" stop-color="#6411A6"/><stop offset="1" stop-color="#3F046D"/></linearGradient></defs></svg>