<svg width="24" height="24" fill="none" xmlns="http://www.w3.org/2000/svg"><g clip-path="url(#clip0)"><path d="M21.966 2.515a6.766 6.766 0 00-9.466.001L1.472 13.546a5.167 5.167 0 007.307 7.307l9.988-9.988a3.325 3.325 0 10-4.702-4.701L4.51 15.717a.868.868 0 001.228 1.228l9.553-9.553a1.588 1.588 0 012.246 2.246L7.55 19.625a3.43 3.43 0 01-4.85-4.851l11.029-11.03a5.032 5.032 0 117.117 7.114l-11.03 11.03a.868.868 0 101.225 1.224l11.03-11.029a6.766 6.766 0 00-.105-9.568z" fill="#fff"/></g><defs><clipPath id="clip0"><path fill="#fff" d="M0 0h24v24H0z"/></clipPath></defs></svg>