<svg width="173" height="248" fill="none" xmlns="http://www.w3.org/2000/svg"><path d="M87.81 87.444c20.156 0 36.496-16.286 36.496-36.375 0-20.09-16.34-36.376-36.495-36.376-20.156 0-36.496 16.286-36.496 36.376 0 20.09 16.34 36.375 36.496 36.375z" fill="#FEB8B8"/><path d="M121.897 19.687a42.131 42.131 0 00-23.978-18.27l-4.48 3.26V.445a38.923 38.923 0 00-7.247-.42L82.326 3.51V.314a41.839 41.839 0 00-16.193 5.53 41.695 41.695 0 00-12.606 11.544c-8.394 12.061-9.811 28.842-1.555 41 2.267-6.942 5.018-13.456 7.285-20.398 1.78.242 3.586.25 5.37.026l2.757-6.413.77 6.142c8.548-.742 21.225-2.372 29.327-3.865l-.788-4.712 4.714 3.915c2.482-.57 3.956-1.086 3.835-1.48 6.026 9.682 13.401 15.867 19.426 25.55 2.289-13.654 4.923-25.007-2.771-37.466z" fill="#2F2E41"/><path d="M166.301 144.609c-1.255-7.526-2.549-15.195-6.058-21.974-2.306-4.441-5.967-8.672-10.902-9.55a10.616 10.616 0 01-2.839-.655c-1.446-.694-20.877-11.75-23.966-13.676-2.652-1.653-6.838-4.714-8.948-4.714-2.124-.047-10.266 1.842-42.046-.634 0 0-8.73 3.43-15.486 7.589-.102-.067-32.985 17.532-34.22 17.486-2.34-.098-4.515 1.395-5.856 3.275-1.34 1.88-1.97 4.208-2.628 6.458 7.182 15.942 13.753 31.904 20.936 47.846.336.6.515 1.276.52 1.963a4.788 4.788 0 01-.894 1.964c-3.523 5.639-3.41 12.733-3.026 19.361.385 6.628.861 13.63-2.11 19.571-.809 1.631-1.86 3.124-2.629 4.755-1.8 3.694-2.451 15.51-1.4 19.479l131.757 3.762c-2.833-7.761 9.795-102.306 9.795-102.306z" fill="#6C63FF"/><path d="M1.963 176.766a23.11 23.11 0 00-.079 5.718l1.888 27.031c.178 2.548.352 5.089.592 7.631.453 4.932 1.13 9.824 1.97 14.71.02.694.313 1.352.819 1.829.505.478 1.18.736 1.875.719 8.313 1.753 16.901 1.683 25.385 1.205 12.946-.72 46.066-2.083 48.09-4.702 2.023-2.62.844-6.858-1.794-8.977-2.639-2.118-46.346-7.283-46.346-7.283.427-3.373 1.716-6.55 2.938-9.752 2.195-5.681 4.245-11.547 4.285-17.632.039-6.085-2.261-12.483-7.262-15.969-4.114-2.862-9.41-3.392-14.423-3.275-3.648.105-9.95-.766-13.281.655-2.636 1.157-4.165 5.519-4.657 8.092z" fill="#FBBEBE"/><path d="M12.972 128.699a6.773 6.773 0 00-1.459 2.325 109.65 109.65 0 00-9.265 37.739 3.764 3.764 0 01-.427 1.828c-.29.375-.614.723-.966 1.041a3.617 3.617 0 00-.842 2.637 3.606 3.606 0 001.46 2.603c1.084-2.034 3.68-2.698 5.986-2.875 11.046-.871 21.836 4.251 32.916 3.865-.782-2.692-1.906-5.279-2.544-8.004-2.819-12.097 4.212-25.268-.098-36.921-.861-2.331-2.3-4.624-4.567-5.646a12.22 12.22 0 00-2.924-.771c-2.8-.504-8.373-2.659-11.08-1.794-.998.321-1.392 1.257-2.22 1.823-1.259.801-2.928 1.095-3.97 2.15z" fill="#6C63FF"/><path d="M166.38 168.674c-3.331-1.421-9.633-.55-13.281-.655-5.012-.117-10.309.413-14.423 3.275-5.001 3.486-7.301 9.884-7.261 15.969.039 6.085 2.089 11.951 4.284 17.632 1.222 3.202 2.511 6.379 2.938 9.752 0 0-43.707 5.165-46.346 7.283-2.638 2.119-3.817 6.357-1.794 8.977 2.024 2.619 65.162 5.25 73.475 3.497a2.633 2.633 0 001.875-.719 2.61 2.61 0 00.819-1.829c.84-4.886 1.517-9.778 1.97-14.71.24-2.542.414-5.083.592-7.631l1.888-27.031c.21-1.902.184-3.822-.079-5.718-.492-2.573-2.02-6.935-4.657-8.092z" fill="#FBBEBE"/><path d="M156.059 126.549c-.828-.566-1.222-1.502-2.222-1.823-2.706-.865-8.279 1.29-11.079 1.794a12.179 12.179 0 00-2.924.772c-2.267 1.021-3.706 3.314-4.567 5.646-4.311 11.652 2.721 24.823-.098 36.92-.638 2.725-1.762 5.312-2.544 8.004 11.08.386 21.87-4.736 32.916-3.865 2.307.177 4.902.842 5.986 2.875a3.589 3.589 0 001.067-1.247 3.6 3.6 0 00-.449-3.992 8.077 8.077 0 01-.966-1.042 3.77 3.77 0 01-.427-1.827 109.656 109.656 0 00-9.265-37.739 6.779 6.779 0 00-1.459-2.326c-1.042-1.055-2.711-1.349-3.969-2.15z" fill="#6C63FF"/><path d="M77.002 235.695c5.44 0 9.85-4.396 9.85-9.818s-4.41-9.817-9.85-9.817c-5.44 0-9.85 4.395-9.85 9.817 0 5.422 4.41 9.818 9.85 9.818zm21.811 0c5.44 0 9.85-4.396 9.85-9.818s-4.41-9.817-9.85-9.817c-5.44 0-9.85 4.395-9.85 9.817 0 5.422 4.41 9.818 9.85 9.818z" fill="#FBBEBE"/><path d="M159.615 248H24.289a5.975 5.975 0 01-4.211-1.742 5.936 5.936 0 01-1.748-4.198v-81.828a5.935 5.935 0 011.748-4.197 5.975 5.975 0 014.212-1.742h135.325a5.973 5.973 0 014.211 1.742 5.933 5.933 0 011.748 4.197v81.828a5.933 5.933 0 01-1.748 4.198 5.973 5.973 0 01-4.211 1.742z" fill="#3F3D56"/><path d="M91.624 205.077a3.937 3.937 0 003.943-3.93 3.936 3.936 0 00-3.943-3.93 3.936 3.936 0 00-3.943 3.93c0 2.17 1.765 3.93 3.943 3.93z" fill="#fff"/><path d="M54.25 64.626c-5.863 0-10.617-5.123-10.617-11.442v-5.721c0-6.32 4.754-11.443 10.618-11.443v28.606zm67.771-28.606c5.864 0 10.618 5.123 10.618 11.443v5.72c0 6.32-4.754 11.443-10.618 11.443V36.02z" fill="#6C63FF"/><path d="M127.585 48.362H125.9c0-23.025-17.382-41.757-38.747-41.757S48.406 25.337 48.406 48.362h-1.684c0-24.026 18.137-43.573 40.431-43.573 22.294 0 40.432 19.547 40.432 43.573z" fill="#6C63FF"/></svg>