<svg width="406" height="453" fill="none" xmlns="http://www.w3.org/2000/svg"><g opacity=".5"><path d="M-800.456 1231.71l-177.287-63.52 26.797-186.487 279.389 170.877 171.987 6.2-8.868-187.417-164.916-115.91 115.739-106.886 164.675-152.029 29.87 341.383 175.705-212.498 75.596 127.666 194.23 110.324 205.949 6.711 166.131-17.587L227.53 824.331 4.7 583.938l216.046-264.614 159.664-195.51 126.095-91.372 75.566 239.192 31.483 99.646-436.5 66.229 36.699 252.383 147.696-295.337 42.69-85.39-131.187 70.121 30.285-331.288L379.807 126 521.8 282.608 353.704 444.965l95.883 6.069 4.5 236.195 109.185 11.638 48.272-165.172-121.456-44.808 246.8 259.289 64.722-152.723-103.541-359.879-83.902 134.689 104.441 20.828 196.064 179.884 386.548 134.332 62.43-112.674-133.83-138.523-143.66 150.68-46.51-377.033-226.914 45.39 15.891 123.228 121.94-248.622-443.533-115.5 117.99 152.856 215.568-85.25 28.009-151.926-316.16-236.332L758.451 2.005l-146.933 17.88L495.919-80.929 630.948-196.05l72.328 46.308L733.88-283.85l-348.656 93.865-64.801-153.357 230.519 54.502-54.707-256.443 236.367 260.932" stroke="#589CFF" stroke-width=".463" stroke-miterlimit="10"/><path d="M4.7 583.938L177.907 438.38l276.179 248.849-226.094 136.02-415.358-97.826L4.7 583.938zm0 0l442.668-130.637 115.904 245.566 171.243 49.145-281.222 205.733 1.217-265.195 36.962-198.879L613.553 371.28l-2.009 162.415 217.083-137.32-27.017 199.078 238.04-367.696-90.128-79.109-250.733 87.701 129.838 160.026-109.955-3.922 93.905-116.95-198.41 94.76-92.367-87.655-117.661 26.557L507.034 32.252 304.992 51.236l38.835-116.74 41.397-124.481 245.724-6.065-20.425 214.088 91.623-170.581" stroke="#589CFF" stroke-width=".463" stroke-miterlimit="10"/><path d="M270.757 381.546l-92.85 56.834 383.33 260.964-157.098-390.18L303.237 47.998 625.532 187.11l73.257 49.24 113.788 39.154L610.523 18.037l429.127 209.72L868.601-52.067 733.999-285.781l-181.559-2.618-167.216 98.413L495.918-80.929l204.424-68.624 166.829 94.84L756.254 2.186l84.338 97.673-26.864 175.788L1086.16 604.79l-174.097-32.279-175.175 175.665 564.332-42.869-72.55-253.159-191.08-225.028" stroke="#589CFF" stroke-width=".463" stroke-miterlimit="10"/><path d="M-950.04 981.442l441.602-10.079 145.368-33.442 251.301-84.832 339.299-28.758 60.88 145.793 165.676-282.895-240.333 2.663 139.951-244.927 135.271 45.043 229.697-97.555-107.128 141.242 189.14 60.438 112.823-22.128 126.143-344.248-211.023 168.618L1086.16 604.79l277.49-12.157" stroke="#589CFF" stroke-width=".463" stroke-miterlimit="10"/><path d="M382.208 128.339c-5.364 2.746-9.841-5.48-4.452-8.232 5.356-2.77 9.833 5.456 4.452 8.232z" fill="#589CFF" opacity=".6"/><path d="M275.674 384.272c-5.363 2.746-9.84-5.48-4.452-8.232 5.364-2.745 9.841 5.48 4.452 8.232z" fill="#589CFF"/><path d="M274.192 381.536c1.041-.531.853-1.392.521-2.008-.338-.64-.961-1.259-2.002-.728-.558.275-.68.593-.731.788-.084.36.014.802.235 1.213.307.623.936 1.265 1.977.735z" fill="#EEF5FF"/><path d="M307.33 53.436c-5.364 2.746-9.841-5.48-4.452-8.232 5.356-2.77 9.833 5.456 4.452 8.232z" fill="#589CFF"/><path d="M305.841 50.676c1.041-.53.852-1.392.496-2.001-.338-.64-.961-1.26-2.002-.729-.558.275-.68.593-.731.788-.084.36.014.803.235 1.214.363.634.961 1.258 2.002.728z" fill="#EEF5FF"/></g></svg>