<svg width="406" height="453" fill="none" xmlns="http://www.w3.org/2000/svg"><g opacity=".5"><path d="M1183.07 984.943l-41.76 164.647-169.752-8 129.372-265.568-9.25-154.956-167.514 24.102-89.869 158.055-105.938-94.714-150.683-134.765 303.945-56.218-205.927-139.46 108.118-78.87 82.33-183.895-11.71-185.493-30.098-147.65-95.562 214.868L532.119 317.8 275.925 146.606 86.632 20.086l-92.9-105.35 208.256-88.446 86.759-36.849 97.055 386.217 223.447-54.685L331.355 13.795l-80.346-30.977 74.257 111.75-300.061 1.338 63.44-75.467L217.033-120.54 377.284 16.407l-2.808-86.613 211.685-24.38 1.047-99.037-152.461-29.118-29.772 112.911 211.554-243.924-142.699-44.96-314.208 123.958 128.159 63.734 9.707-95.568 144.627-191.532 87.324-358.642-106.542-46.346-112.851 132.086 147.663 116.015-334.522 74.231 60.296 199.83 109.274-24.88-233.732-88.076L-6.483-85.722 120.6-204.825 25.493-391.036l-138.821-12.065-184.969 304.224 243.004-209.98 28.707 130.387-80.562 112.475-114.994-111.325 35.35-68.929-123.047-15.929 114.304 304.965-132.114 71.389 29.083-211.67-225.541 71.205 213.928-234.699" stroke="#589CFF" stroke-width=".463" stroke-miterlimit="10"/><path d="M532.119 317.8L386.51 174.817 586.161-94.587 727.76 96.703l-52.066 381.363L532.119 317.8zm0 0L376.702-68.409l210.506-125.214 29.378-157.987 208.94 234.784L587.31-95.081l-181.75-16.06-116.813-99.418 146-12.182-141.99-183.088 181.073 7.114-350.643-182.064-63.268 87.735L160.256-275.47l132.501-130.359 5.947 99.063-113.092-74.243L287.78-211.022l-70.748 90.482 33.977 103.358-257.493-68.54L27.96 94.051-80.203 69.235l-115.333-26.449-26.606-220.106 193.982-.098-161.05-67.576" stroke="#589CFF" stroke-width=".463" stroke-miterlimit="10"/><path d="M327.485 96.344l59.025 78.474 201.301-366.655L251.009-17.182 25.205 95.905l97.149-301.359 37.902-70.016 25.356-105.538-213.771 203.591 151.346-403.361-236.515 177.677-198.254 140.982 13.285 163.241 102.762 141.665 88.387-108.782-79.22-177.636 70.787-157.959 60.64 94.69 80.434-84.136 160.148 8.982 272.068-272.955-13.99 159.098 172.81 142.157-87.09-503.01-221.055 86.949-185.591 190.937" stroke="#589CFF" stroke-width=".463" stroke-miterlimit="10"/><path d="M971.246 1140.8l-47.08-395.632-42.545-127.642-97.809-218.33-55.04-302.17 125.66-67.218L586.161-94.586l23.087 215.559L377.284 16.407l28.793-125.335-107.372-197.837 136.042 84.024 37.978-175.029-29.584-99.395-319.954-83.613 169.57 174.95 164.952-249.181-34.812-248.101" stroke="#589CFF" stroke-width=".463" stroke-miterlimit="10"/><path d="M90.54 18.081c2.926 4.58-4.074 9.307-7.009 4.706-2.948-4.57 4.052-9.298 7.008-4.706z" fill="#589CFF" opacity=".6"/><path d="M329.509 91.694c2.927 4.58-4.073 9.307-7.008 4.706-2.927-4.58 4.073-9.307 7.008-4.706z" fill="#589CFF"/><path d="M327.18 93.26c-.566-.889-1.323-.645-1.847-.294-.546.359-1.048.972-.482 1.86.295.477.591.56.771.589.33.044.719-.082 1.069-.316.532-.329 1.055-.95.489-1.839z" fill="#EEF5FF"/><path d="M29.736 91.763c2.927 4.58-4.073 9.307-7.008 4.706-2.948-4.571 4.052-9.299 7.008-4.706z" fill="#589CFF"/><path d="M27.386 93.337c-.566-.889-1.323-.645-1.84-.273-.546.36-1.047.972-.481 1.86.294.478.59.56.77.59.33.044.72-.082 1.07-.316.537-.38 1.047-.972.48-1.86z" fill="#EEF5FF"/></g></svg>