<svg width="406" height="453" fill="none" xmlns="http://www.w3.org/2000/svg"><g opacity=".5"><path d="M768.466-606.158l186.777 24.072 13.766 187.898-309.504-107.076-169.323 30.783 48.803 181.168 185.914 77.898-90.161 129.196-128.292 183.77-102.294-327.063L278.038 19.687 176.852-88.826-36.5-154.99l-202.607 37.553-158.509 52.761 249.202 76.61 269.146 187.089L-33.626 503.77l-114.085 225.17-103.6 116.259-125.041-217.457-52.094-90.592 412.185-158.18-89.902-238.666-81.014 320.117-23.41 92.552 113.124-96.591 41.372 330.086-91.499-59.792-172.24-122.562 129.421-194.592-94.957 14.608-54.983-229.751-109.144 12.017-11.776 171.679 128.234 17.755-296.607-200.413-30.51 163.041 178.216 329.351 53.108-149.533-106.478 2.024-230.042-133.717-406.352-48.424-36.84 123.43 160.38 106.646 108.061-177.953 126.184 358.322 211.926-92.937-41.915-116.965-65.86 268.97 457.978 17.825-147.991-124.039-192.307 129.443 5.18 154.399 359.441 163.13-263.428-239.539 139.694-48.935 134.509 73.715-107.239 141.369-80.568-29.74-1.171 137.55 320.462-166.36 96.142 135.92-236.842-3.87 108.362 238.78-286.769-204.25" stroke="#589CFF" stroke-width=".463" stroke-miterlimit="10"/><path d="M120.732 199.025L56.357 54.084-36.5-154.989l-112.134 168.08 42.472 127.214 226.894 58.72z" stroke="#589CFF" stroke-width=".463" stroke-miterlimit="10"/><path d="M120.732 199.024L-17.28 378.302l-323.07-183.923 191.715-181.287 426.672 6.595-157.306 179.337zm0 0L-283.684 421.44l-165.809-215.044-177.796-11.328 230.633-261.19 55.611 259.302 6.491 202.179-93.892 141.791-32.823-159.075-182.635 180.627-16.248-200.244-153.763 410.146 104.979 57.97 226.131-139.368-161.099-128.504 108.243-19.718-66.677 134.348 173.51-135.056 108.998 65.838 109.243-51.141-41.199 292.524 193.288-61.815-12.931 122.35-13.775 130.458-238.723 58.55-25.902-213.492-52.963 186.242" stroke="#589CFF" stroke-width=".463" stroke-miterlimit="10"/><path d="M-95.803 453.704l78.523-75.402-430.328-172.807 237.021 347.478 154.496 233.495-344.611-66.854-82.103-32.407-119.533-13.875 252.509 208.216-464.086-112.944 227.011 236.696 181.535 199.46 177.906-36.33 142.259-131.94-131.484-82.818-184.982 110.818-183.271-56.91 96.158-79.336-103.301-77.343-11.409-177.462-336.606-263.156 176.971-5.759 133.486-209.107L-1171.7 358.16l125.09 231.743 234.839 178.883" stroke="#589CFF" stroke-width=".463" stroke-miterlimit="10"/><path d="M968.181-393.739L538.985-289.312l-134.833 63.8-227.3 136.686-325.266 100.761-90.693-129.37-101.242 311.814 234.186-54.074-84.246 269.217-141.778-15.025-203.474 144.487 74.392-160.909-197.696-18.526-105.465 45.778-49.485 363.277 170.011-209.901-296.195-148.42-268.441 71.306" stroke="#589CFF" stroke-width=".463" stroke-miterlimit="10"/><path d="M507.65 101.646l31.335-390.958 120.52-211.952L-36.5-154.989 397.67 49.774l109.98 51.872z" stroke="#589CFF" stroke-width=".463" stroke-miterlimit="10"/><path d="M117.488 195.536c4.651-3.831 10.786 3.245 6.112 7.087-4.639 3.853-10.786-3.245-6.112-7.087z" fill="#589CFF"/><path d="M119.522 197.889c-.486.388-.537.725-.545.927-.005.369.185.781.489 1.135.468.552 1.209 1.023 2.112.282.486-.388.537-.725.545-.926.005-.37-.185-.781-.489-1.135-.456-.531-1.209-1.024-2.112-.283z" fill="#EEF5FF"/><path d="M273.361 16.163c4.651-3.83 10.786 3.245 6.112 7.088-4.639 3.852-10.774-3.224-6.112-7.088z" fill="#589CFF"/></g></svg>