<svg width="406" height="453" fill="none" xmlns="http://www.w3.org/2000/svg"><g opacity=".5"><path d="M-648.285-1148.1l115.018-135.17 155.501 85.71-243.666 189.44-62.714 149.58 168.194 54.569 157.093-106.82 55.713 137.626 79.224 195.799-310.935-87.304 128.867 225.653-137.726 24.154-161.926 134.525-74.474 179.347-39.796 152.33 188.605-157.475 286.127-116.443 161.388 278.57 119.229 205.855 38.586 141.592-236.046-12.998-98.337-5.412 86.91-406.901-234.738-51.657 211.229 228.533 61.076 66.064-18.154-139.007L27.972 219.042l-94.261 41.545-185.346 73.061-87.192-202.254-37.269 82.519-209.747-74.658-46.607 92.392 129.561 97.544 79.937-92.17-310.766 131.287 113.108 107.903 351.767 28.507-90.824-118.811-53.13 85.151-223.867 112.987-247.114 296.1 78.562 92.546 166.682-71.879-85.029-176.825 347.906 84.499 35.516-215.176-113.938-27.009 178.615 190.274 249.478-352.608-174.048 53.147 3.406 218.442 124.626 75.268 313.614-200.083-324.62 84.965 33.146-135.5 127.367-68.363 56.552 157.375-64.905 48.356 108.053 71.625 33.302-338.651 156.783-6.084-124.788 185.102 244.313 37.131-308.743 121.542" stroke="#589CFF" stroke-width=".463" stroke-miterlimit="10"/><path d="M-27.446 404.249l104.952 27.594-278.827 26.387 153.42 41.715 20.455-95.696z" stroke="#589CFF" stroke-width=".463" stroke-miterlimit="10"/><path d="M-345.181-222.579l70.679 201.168-311.342 160.665-44.663-244.621 224.517-333.651 60.809 216.439zm0 0l-32.175 433.78-255.094 20.446-100.334 134.624-87.778-316.434 233.413 89.351 163.044 98.792 63.745 147.048-142.529-55.837 48.809 237.11-166.53-90.09 244.953 332.275 99.75-53.13 6.14-250.261-184.313 61.206 40.06-95.639 71.854 121.724-17.501-206.479 108.031-52.259 15.753-112.581 209.897 182.9 50.52-184.456 90.001 73.102 95.972 77.935-76.45 218.671-181.959-89.275 119.9 137.566" stroke="#589CFF" stroke-width=".463" stroke-miterlimit="10"/><path d="M-255.3 79.372L-274.502-21.41l-357.691 251.106 396.31-8.628 263.855-2.025-229.939 237.855-67.799 48.198-72.4 87.291 294.264-92.442-327.755 308.542 303.655-57.662 250.869-40.878 62.745-159.205-31.105-180.192-133.002 61.294-7.544 203.081-139.154 115.52-13.244-116.735-114.191 41.846-146.047-82.202-380.888 130.634 86.413-142.754-96.568-212.925-150.06 511.837 247.359 20.298 262.008-93.558" stroke="#589CFF" stroke-width=".463" stroke-miterlimit="10"/><path d="M21.816 220.84c-.636-5.643 8.107-6.852 8.74-1.185.659 5.645-8.084 6.853-8.74 1.185z" fill="#589CFF"/><path d="M24.744 220.445c.12 1.095.943 1.215 1.6 1.104.676-.085 1.429-.429 1.308-1.523-.057-.583-.297-.797-.452-.907-.29-.194-.712-.255-1.148-.196-.68.109-1.43.428-1.308 1.522z" fill="#EEF5FF"/><path d="M206.412 371.588c-.635-5.643 8.108-6.852 8.74-1.185.659 5.645-8.081 6.83-8.74 1.185z" fill="#589CFF"/><path d="M209.341 371.195c.057.583.297.796.452.906.289.194.712.255 1.148.197.677-.085 1.43-.429 1.308-1.523-.056-.583-.296-.797-.451-.907-.289-.193-.712-.255-1.148-.196-.677.085-1.43.428-1.309 1.523z" fill="#EEF5FF"/><path d="M361.815 365.696c-.636-5.643 8.107-6.852 8.74-1.185.635 5.643-8.108 6.852-8.74 1.185z" fill="#589CFF"/><path d="M364.72 365.3c.121 1.094.943 1.214 1.597 1.127.677-.085 1.43-.429 1.309-1.523-.057-.583-.297-.797-.452-.907-.289-.193-.712-.255-1.148-.196-.651.063-1.427.404-1.306 1.499z" fill="#EEF5FF"/></g></svg>