<svg width="272" height="357" fill="none" xmlns="http://www.w3.org/2000/svg"><path d="M67.274 131.506v-16.298a21.803 21.803 0 00-6.418-15.443 21.95 21.95 0 00-15.494-6.396 21.95 21.95 0 00-15.495 6.396 21.802 21.802 0 00-6.418 15.443v16.298c.001.778.312 1.523.863 2.073.552.55 1.3.86 2.08.861H64.33a2.953 2.953 0 002.08-.861 2.93 2.93 0 00.864-2.073z" fill="#2F2E41"/><path d="M12.96 343.604l7.73 2.132 11.928-28.696-11.407-3.146-8.25 29.71z" fill="#FFB8B8"/><path d="M26.82 345.058l-14.904-4.111-2.597 9.353 24.29 6.7a9.676 9.676 0 00-.913-7.372 9.737 9.737 0 00-5.875-4.57z" fill="#2F2E41"/><path d="M93.536 349.529h8.019l3.816-30.827H93.535l.001 30.827z" fill="#FFB8B8"/><path d="M107.283 347.246H91.818v9.705h25.203a9.68 9.68 0 00-2.852-6.863 9.75 9.75 0 00-6.886-2.842z" fill="#2F2E41"/><path d="M103.206 177.243a6.583 6.583 0 01-7.709 2.192 6.576 6.576 0 01-2.359-1.594l-21.317 9.556 1.939-11.951 19.946-7.242a6.624 6.624 0 014.449-1.505 6.62 6.62 0 014.329 1.819 6.575 6.575 0 01.722 8.725z" fill="#FFB8B8"/><path d="M58.914 249.109c6.698 0 13.631-.994 19.459-3.951a25.11 25.11 0 008.053-6.342 25.01 25.01 0 004.838-9.021c3.037-9.583-.792-18.997-4.494-28.101-2.295-5.642-4.462-10.97-5.024-16.222l-.196-1.865c-.876-8.375-1.632-15.609-5.82-18.322-2.17-1.406-5.089-1.486-8.922-.246l-36.005 11.657 1.324 68.119.22.073c.188.063 12.88 4.221 26.567 4.221z" fill="#2F2E41"/><path d="M67.437 143.832s-17.66-5.215-31.396-3.259c0 0 7.849 43.026 5.233 57.368-2.617 14.343 45.46 5.542 35.648-8.148l-3.27-16.298s6.54-6.52.653-14.343l-6.868-15.32z" fill="#6C63FF"/><path d="M76.124 247.818l21.766-4.068-7.6-58.286c-.51-1.627-12.282-38.556-17.628-40.554a91.508 91.508 0 00-11.883-3.29l-.774-.154 4.364 6.524 17.376 41.498-5.621 58.33z" fill="#2F2E41"/><path d="M87.465 342.387l28.123-4.672-15.782-64.229-23.485-87.837-.231 1.559c-.019.117-2.213 11.591-34.766 6.5l-.286-.045-.08.278L1.615 332.498l32.044 5.323L62.885 236.73l24.58 105.657z" fill="#2F2E41"/><path d="M48.486 258.725l-.018-.493c-.02-.548-1.954-55.004-1.308-76.905.649-21.975-6.49-41.006-6.562-41.196l-.058-.152-.158-.046c-9.235-2.629-17.247 5.219-17.327 5.299l-.113.112 2.63 21.628-11.26 78.648 34.174 13.105z" fill="#2F2E41"/><path d="M49.864 134.06c-8.872 0-16.065-7.168-16.065-16.011s7.193-16.012 16.065-16.012c8.873 0 16.065 7.169 16.065 16.012s-7.192 16.011-16.065 16.011z" fill="#FFB8B8"/><path d="M72.458 116.512a17.267 17.267 0 00-5.083-12.21 17.382 17.382 0 00-12.25-5.066h-3.271a17.381 17.381 0 00-12.251 5.066 17.267 17.267 0 00-5.083 12.21v.326h6.912l2.357-6.579.472 6.579h3.572l1.189-3.319.238 3.319h23.198v-.326z" fill="#2F2E41"/><path d="M51.445 136.272a2.884 2.884 0 00.23-3.068c-3.465-6.57-8.318-18.71-1.877-26.197l.463-.538H31.562v27.98l16.987 2.987a2.943 2.943 0 002.896-1.164z" fill="#2F2E41"/><path d="M126.73 20.75A88.46 88.46 0 01172.816.67a88.577 88.577 0 0149.612 8.252 88.208 88.208 0 0137.045 33.91 87.795 87.795 0 0112.462 48.566 87.831 87.831 0 01-16.162 47.472 88.274 88.274 0 01-39.544 30.979 88.59 88.59 0 01-50.1 4.437 88.403 88.403 0 01-44.406-23.543l-108.33 91.104a8.158 8.158 0 01-11.47-.957 8.094 8.094 0 01.961-11.431l.012-.01 108.33-91.104a87.8 87.8 0 01-15.103-61.79A87.949 87.949 0 01126.73 20.75zm6.983 108.822a66.188 66.188 0 0032.229 20.834 66.376 66.376 0 0038.411-.522 66.18 66.18 0 0031.646-21.704 65.816 65.816 0 0014.214-35.569 65.762 65.762 0 00-8.008-37.445 66.068 66.068 0 00-27.531-26.7 66.358 66.358 0 00-37.775-6.956 66.274 66.274 0 00-35.286 15.133 65.983 65.983 0 00-16.104 20.112 65.739 65.739 0 00-4.275 50.292 65.865 65.865 0 0012.479 22.525z" fill="#3F3D56"/><path opacity=".3" d="M226.953 137.445a65.887 65.887 0 0022.975-42.142 65.78 65.78 0 00-11.747-46.511 65.866 65.866 0 0116.149 26.514 65.724 65.724 0 012.881 25.571 65.766 65.766 0 01-7.156 24.722 65.983 65.983 0 01-16.104 20.112 66.228 66.228 0 01-22.6 12.438 66.377 66.377 0 01-25.656 2.872 66.325 66.325 0 01-24.805-7.133 66.125 66.125 0 01-23.507-20.326 66.27 66.27 0 0044.025 19.365 66.31 66.31 0 0045.545-15.482z" fill="#000"/><path d="M44.706 205.235a6.602 6.602 0 01-5.457-1.086 6.538 6.538 0 01-2.669-4.868l-22.523-6.23 9.156-7.956 19.984 7.136a6.629 6.629 0 014.387 1.677 6.572 6.572 0 011.01 8.696 6.612 6.612 0 01-3.888 2.631z" fill="#FFB8B8"/><path d="M35.345 201.937l1.37-12.977-18.813-10.346 12.266-14.798-2.001-16.624-4.984-2.129-.155.199C20.678 148.274.066 174.781.066 178.058c0 3.365 3.943 13.249 9.338 15.937 5.204 2.594 24.745 7.634 25.574 7.848l.367.094z" fill="#2F2E41"/></svg>