<svg width="188" height="219" fill="none" xmlns="http://www.w3.org/2000/svg"><path fill-rule="evenodd" clip-rule="evenodd" d="M6.517 118.478a4.076 4.076 0 00-3.183 1.519 4.038 4.038 0 00-.796 3.419s0-.001 0 0l5.378 23.82a4.052 4.052 0 001.431 2.277c.724.576 1.623.89 2.55.89h24.678c.243 0 .44.196.44.437a.438.438 0 01-.44.437H11.896a4.981 4.981 0 01-3.098-1.082 4.928 4.928 0 01-1.74-2.768l-5.378-23.82a4.898 4.898 0 01.968-4.156 4.958 4.958 0 013.869-1.847.44.44 0 01.44.437.438.438 0 01-.44.437zm45.519 0a4.076 4.076 0 00-3.183 1.519 4.036 4.036 0 00-.796 3.419s0-.001 0 0l5.377 23.82a4.052 4.052 0 001.432 2.277c.724.576 1.623.89 2.55.89h24.678c.243 0 .44.196.44.437a.438.438 0 01-.44.437H57.415a4.981 4.981 0 01-3.098-1.082 4.928 4.928 0 01-1.74-2.768l-5.378-23.82a4.9 4.9 0 01.968-4.156 4.978 4.978 0 013.869-1.847.44.44 0 01.439.437.438.438 0 01-.44.437z" fill="#6562CF"/><path d="M55.083 126.445h-41.88a6.782 6.782 0 01-4.198-1.454 6.706 6.706 0 01-2.378-3.733L.592 95.501a5.688 5.688 0 011.1-4.857 5.754 5.754 0 012.006-1.595 5.79 5.79 0 012.504-.569h41.883c1.524 0 3.003.513 4.197 1.454a6.702 6.702 0 012.376 3.733l6.035 25.762a5.692 5.692 0 01-1.102 4.853 5.779 5.779 0 01-4.508 2.163z" fill="#fff"/><path fill-rule="evenodd" clip-rule="evenodd" d="M6.202 88.917c-.801 0-1.592.18-2.313.525a5.315 5.315 0 00-1.854 1.474 5.272 5.272 0 00-1.015 4.486l6.035 25.757a6.27 6.27 0 002.223 3.49 6.339 6.339 0 003.924 1.359h41.88a5.344 5.344 0 004.165-1.998 5.273 5.273 0 001.018-4.482m0 0L54.23 93.766a6.266 6.266 0 00-2.222-3.49 6.335 6.335 0 00-3.923-1.36H6.202m48.881 37.529v.437h-41.88a7.22 7.22 0 01-4.471-1.549 7.141 7.141 0 01-2.532-3.976L.164 95.6a6.123 6.123 0 011.183-5.227 6.19 6.19 0 012.16-1.717 6.23 6.23 0 012.695-.613h41.883a7.22 7.22 0 014.47 1.55 7.138 7.138 0 012.53 3.975l6.036 25.762v.001a6.124 6.124 0 01-1.186 5.222 6.203 6.203 0 01-4.852 2.329v-.437z" fill="#6562CF"/><path d="M83.36 144.898H16.19a2.98 2.98 0 00-2.99 2.971 2.98 2.98 0 002.99 2.971h67.17a2.98 2.98 0 002.989-2.971 2.98 2.98 0 00-2.99-2.971z" fill="#EAEEFF"/><path fill-rule="evenodd" clip-rule="evenodd" d="M16.19 145.335a2.542 2.542 0 00-2.55 2.534c0 1.4 1.142 2.534 2.55 2.534h67.17a2.542 2.542 0 002.55-2.534 2.542 2.542 0 00-2.55-2.534H16.19zm-3.429 2.534c0-1.882 1.535-3.407 3.429-3.407h67.17c1.893 0 3.428 1.525 3.428 3.407 0 1.882-1.535 3.408-3.429 3.408H16.19c-1.894 0-3.429-1.526-3.429-3.408z" fill="#6562CF"/><path fill-rule="evenodd" clip-rule="evenodd" d="M22.39 151.277c-2.864 0-5.257 2.34-5.406 5.365l-.001.019-8.342 61.777a.44.44 0 01-.87-.116l8.336-61.741c.18-3.446 2.922-6.178 6.283-6.178h14.412c3.362 0 6.104 2.732 6.285 6.178l8.337 61.741a.44.44 0 01-.871.116l-8.342-61.777v-.019c-.152-3.025-2.545-5.365-5.41-5.365h-14.41zm38.34-.437c0-.241.197-.437.44-.437h13.992c3.282 0 5.94 2.744 6.115 6.178l8.25 61.741a.44.44 0 01-.871.115L80.4 156.66v-.018c-.147-3.037-2.477-5.365-5.239-5.365H61.17a.438.438 0 01-.44-.437z" fill="#6562CF"/><path d="M127.202 89.642c.908.596 3.015 5.032 3.054 5.567.039.534-2.381 4.505-2.381 4.505s-.962.021-1.144-2.163c-.224-2.587-1.366-3.567-3.022-3.935-.692-.154-1.964.37-2.054 1.383-.09 1.013 2.543 1.685 3.072 2.3.803.93.351 2.239.351 2.27 0 0-4.063-1.222-4.843-1.45-.703-.207-3.842-3.043-5.8-5.855a20.276 20.276 0 01-2.285 1.44c-4.921 2.631-21.792 8.749-30.532 7.362C72.84 99.669 79.85 71.9 79.85 71.9c12.71.583 18.032-1.025 19.002-1.366L96.88 83.371c5.341-.157 18.483 2.007 18.49 2.008 3.693.482 10.526 3.41 11.832 4.263z" fill="#F1921B"/><path d="M79.79 71.887h.075c12.71.584 18.032-1.025 19.002-1.365l-.465 3.143s-9.43 4.412-19.916 4.017l1.304-5.795z" fill="#EB7200"/><path d="M81.064 106.988c3.02-.22 8.492-35.136 8.492-35.136 6.74.098 14.89-3.026 14.89-3.026s-5.573-18.15-7.494-21.893c-1.921-3.742-15.71-10.213-17.338-10.681l-26.879-6.113s-22.944 5.664-30.18 11.476c-7.235 5.813-12.889 30.33-12.889 30.33 13.288 5.325 27.065 4.54 27.065 4.54l-4.683 28.054c-1.517 6.812-6.362 28.436 2.18 38.936 0 0 6.874-33.571 46.836-36.487z" fill="#EAEEFF"/><path d="M63.4 39.121l-8.04 4.875-10.193-11.779 7.652-4.554a1.967 1.967 0 012.7.698l7.88 10.76zm12.225 1.118l5.657 3.318-.272-6.745-1.396-.56s-2.485 1.655-3.99 3.987z" fill="#DBDAFF"/><path fill-rule="evenodd" clip-rule="evenodd" d="M38.664 69.162c-.408 2.582-.957 5.64-1.512 7.447l-.84-.254c.534-1.74 1.074-4.74 1.484-7.329a181.926 181.926 0 00.676-4.69l.003-.024.436.055.436.055-.004.025-.009.073a122.606 122.606 0 01-.175 1.3c-.12.861-.29 2.046-.495 3.342zm24.921-30.025l-.337.281.337-.28.022.025.063.076a165.224 165.224 0 011.104 1.325 191.34 191.34 0 012.63 3.254c.961 1.218 1.933 2.491 2.68 3.56.372.535.693 1.024.93 1.434.118.205.218.396.293.567.073.164.134.335.156.493.056.417.12 1.736.187 3.44.067 1.717.136 3.86.2 5.953a1728.956 1728.956 0 01.207 7.488l.007.263h3.56v.873h-3.989a.438.438 0 01-.44-.426l.44-.01-.44.01-.004-.179a5512.657 5512.657 0 01-.06-2.338c-.041-1.52-.097-3.563-.16-5.655a707.674 707.674 0 00-.199-5.946c-.067-1.728-.131-2.992-.18-3.357a1.11 1.11 0 00-.09-.258 5.34 5.34 0 00-.251-.484 19.692 19.692 0 00-.89-1.37c-.731-1.048-1.69-2.305-2.648-3.52a190.462 190.462 0 00-3.477-4.271l-.087-.104-7.567 4.392-.443-.754 7.888-4.578a.441.441 0 01.558.096z" fill="#C7BFFF"/><path fill-rule="evenodd" clip-rule="evenodd" d="M75.403 40.303a.44.44 0 01.587-.147l5.359 3.014-.433.76-4.992-2.808a101.721 101.721 0 00-2.182 3.666c-.598 1.06-1.188 2.168-1.62 3.114-.216.474-.389.9-.504 1.254-.119.368-.16.613-.15.746l-.878.056c-.02-.306.067-.683.192-1.07a13.2 13.2 0 01.54-1.347c.447-.979 1.05-2.11 1.653-3.18a97.697 97.697 0 012.372-3.97l.041-.066.015-.023.371.234-.371-.233zm-37.82 32.516l.004.138.013.437h-.013l-.038.001a27.582 27.582 0 01-.708.01c-.487.004-1.194.003-2.072-.015a92.028 92.028 0 01-6.964-.408c-5.508-.537-12.32-1.739-17.391-4.423l.413-.77c4.912 2.6 11.583 3.79 17.063 4.324a91.24 91.24 0 006.897.404 75.33 75.33 0 002.74.005h.047l.01.296z" fill="#C7BFFF"/><path d="M88.401 100.597c0 .802-8.284.51-9.451.51-1.167 0-8.477.276-10.194 0-9.334.764-50.967 3.771-55.809-2.916-5.604-7.744-.597-25.261-.597-25.261 12.575 4.34 24.381 3.55 24.381 3.55L35.7 83.133c9.98 1.222 27.991 7.51 34.114 9.712 1.313-.418 6.312-1.921 8.842-1.349 2.928.656 6.445 3.275 6.81 4.004.366.728 2.936 4.298 2.936 5.097z" fill="#F1921B"/><path d="M78.945 101.108c1.167 0 9.451.291 9.451-.509s-2.564-4.366-2.93-5.094c-.365-.728-3.88-3.348-6.81-4.003 0 0 3.615 4.99.288 9.606zM12.343 72.935s12.87 4.499 24.388 3.547l-1.031 6.65s-15.371-2.444-23.902-7.977l.545-2.22z" fill="#EB7200"/><path d="M123.69 219.009H95.231a14.217 14.217 0 01-.03-1.24h28.526a5.91 5.91 0 01-.037 1.24z" fill="#3F4D79"/><path d="M98.132 206.347c.102 3.084-2.898 5.039-2.898 11.413h28.457s.413-5.347-5.273-6.58c-5.685-1.233-10.866-2.88-11.383-4.833h-8.903z" fill="#FFB000"/><path fill-rule="evenodd" clip-rule="evenodd" d="M110.073 207.925a.436.436 0 01.118.607l-2.597 3.821a.44.44 0 01-.61.117.435.435 0 01-.119-.606l2.598-3.821a.441.441 0 01.61-.118zm1.876.779a.435.435 0 01.111.607l-2.443 3.511a.441.441 0 01-.611.111.434.434 0 01-.111-.608l2.442-3.51a.441.441 0 01.612-.111zm2.162.451a.435.435 0 01.145.601l-1.975 3.201a.442.442 0 01-.605.144.435.435 0 01-.144-.6l1.975-3.202a.441.441 0 01.604-.144z" fill="#3F4D79"/><path d="M67.526 109.459s43.435-2.7 53.99 9.641c10.556 12.34-9.933 56.352-12.004 83.089 0 0-10.393 1.028-14.613 0-4.22-1.029-7.893-46.74 2.74-59.286 0 0-40.422 9.24-56.185-2.414-15.763-11.654 19.515-30.81 26.072-31.03z" fill="#3C4564"/><path d="M107.031 206.347a13.982 13.982 0 01-8.898 0l-.842-3.814s5.529.277 10.58-.203l-.84 4.017z" fill="#F1921B"/><path d="M188 176.186l-22.575 17.218a17.36 17.36 0 01-.866-1.137l22.485-17.15c.359.319.679.677.956 1.069z" fill="#3F4D79"/><path d="M159.796 181.51c1.972 2.386.787 5.751 4.694 10.809l22.575-17.218s-2.949-4.492-8.22-2.028c-5.27 2.464-10.383 4.291-11.991 3.053l-7.058 5.384z" fill="#FFB000"/><path fill-rule="evenodd" clip-rule="evenodd" d="M170.296 175.416a.439.439 0 01.466.408l.279 4.452a.439.439 0 01-.877.055l-.279-4.452a.437.437 0 01.411-.463zm1.712-.62a.439.439 0 01.469.405l.279 3.987a.436.436 0 01-.408.466.437.437 0 01-.468-.405l-.28-3.987a.438.438 0 01.408-.466zm1.711-.619a.438.438 0 01.473.401l.279 3.522a.44.44 0 01-.876.069l-.279-3.523a.437.437 0 01.403-.469z" fill="#3F4D79"/><path d="M34.229 141.729c.65 3.482 37.61 11.921 76.939-12.749 0 0 2.585 29.76 42.324 51.346 0 0 8.647-3.102 12.532-9.918 0 0-25.922-30.125-35.903-57.789-4.19-11.616-56.924-5.535-64.634-3.16-7.71 2.375-34.156 16.749-31.258 32.27z" fill="#3F4D79"/><path d="M166.854 176.126s-1.703 5.211-7.058 5.384l-3.49-2.459a26.932 26.932 0 008.26-6.491l2.288 3.566zM68.19 20.539s-1.643 4.292-12.302 8.383c0 0 7.501 10.203 15.13 19.79 0 0 3.058-8.808 8.586-12.457L68.19 20.54z" fill="#F1921B"/><path d="M79.614 36.252c-1.63 1.105-3.002 2.598-4.137 4.191-3.515-2.62-7.468-7.218-8.638-10.554-.578-1.65.953-6.113 1.84-8.69l10.935 15.053z" fill="#EB7200"/><path d="M67.976 21.377c0 1.397-1.221 5.699.257 7.424 2.703 3.156 10.446 8.209 14.255 7.998 2.713-.145 6.557-11.843 7.13-13.591.573-1.749 3.047-8.76 1.29-10.633C89.15 10.7 74.459 6.6 71.54 12.64c-3.235 6.694-3.564 8.737-3.564 8.737z" fill="#F1921B"/><path d="M96.952 8.51c-1.443 9.38-7.59 10.606-19.702 3.56-5.548-3.225-1.625 2.552-4.745 7.568l-1.02.377c.034-.505.106-2.59-.938-2.595-1.537 0-2.01 2.312-2.158 3.739l-.59.218s-.064-10.456 1.428-13.78C72.918-.63 83.586 3.816 86.203 5.215 94.46 9.625 96.952 8.51 96.952 8.51z" fill="#FFB000"/><path fill-rule="evenodd" clip-rule="evenodd" d="M88.236 17.907c-3.26-.765-7.152-2.889-11.476-6.28l.436-.549c4.288 3.364 8.085 5.418 11.201 6.15 3.104.728 5.482.139 7.05-1.715l.538.45c-1.791 2.117-4.477 2.713-7.75 1.944z" fill="#FFB000"/><path d="M69.795 14.425l-.017-.005c-2.061-.582-4.208.606-4.794 2.654l-.478 1.67c-.587 2.049.61 4.181 2.67 4.764l.017.005c2.062.583 4.208-.605 4.795-2.654l.478-1.67c.586-2.048-.61-4.181-2.67-4.764z" fill="#fff"/><path fill-rule="evenodd" clip-rule="evenodd" d="M69.658 14.84a3.443 3.443 0 00-4.251 2.354l-.478 1.67a3.417 3.417 0 002.368 4.224l.017.005a3.443 3.443 0 004.251-2.354l.478-1.67a3.417 3.417 0 00-2.368-4.224l-.017-.005zm-5.097 2.115c.653-2.28 3.043-3.603 5.337-2.955l.017.005c2.295.649 3.626 3.023 2.973 5.304l-.478 1.67c-.653 2.28-3.042 3.603-5.337 2.954l-.017-.005c-2.294-.649-3.625-3.023-2.973-5.303l.478-1.67z" fill="#3F4D79"/><path d="M72.609 18.688l-.77 2.69a3.333 3.333 0 01-1.592 1.995 3.369 3.369 0 01-2.545.294l-1.04-.295a2.078 2.078 0 01-.136-.042 3.36 3.36 0 002.472-.36 3.321 3.321 0 001.528-1.965l.77-2.69a3.3 3.3 0 00-.26-2.468 3.334 3.334 0 00-1.909-1.599l.137.035 1.035.29a3.346 3.346 0 012.017 1.58 3.304 3.304 0 01.293 2.535z" fill="#fff"/><path fill-rule="evenodd" clip-rule="evenodd" d="M68.99 14.663l.246-.838.142.036 1.04.291A3.788 3.788 0 0172.7 15.94a3.736 3.736 0 01.331 2.868l-.77 2.689a3.77 3.77 0 01-1.8 2.258 3.81 3.81 0 01-2.88.332l-1.037-.295a2.44 2.44 0 01-.162-.05l.248-.837a2.91 2.91 0 002.146-.313 2.884 2.884 0 001.327-1.705v-.001l.77-2.69a2.865 2.865 0 00-.225-2.144 2.895 2.895 0 00-1.658-1.389zm.368 8.599a2.896 2.896 0 002.059-2.004l.77-2.69.422.12-.422-.121a2.864 2.864 0 00-.697-2.796c.402.829.484 1.777.228 2.665l-.769 2.688a3.757 3.757 0 01-1.591 2.138z" fill="#3F4D79"/><path fill-rule="evenodd" clip-rule="evenodd" d="M77.102 1.005a3.462 3.462 0 00-2.617.302A3.435 3.435 0 0072.85 3.36l-3.163 11.038a.44.44 0 01-.845-.239l3.163-11.037A4.285 4.285 0 0174.058.543a4.339 4.339 0 013.284-.379m0 0l11.248 3.18c.782.22 1.396.652 1.747 1.267.352.616.407 1.36.183 2.142a.44.44 0 01-.845-.24c.173-.603.111-1.097-.102-1.471-.214-.375-.613-.686-1.223-.858L77.102 1.005" fill="#3F4D79"/><path d="M121.815 101.547H72.501c-2.25 0-3.678-2.237-2.592-4.064l16.696-28.06c1.452-2.446 4.218-3.958 7.234-3.958h49.315c2.252 0 3.679 2.237 2.593 4.064l-16.697 28.06c-1.457 2.442-4.226 3.958-7.235 3.958z" fill="#EAEEFF"/><path d="M121.332 102.448h-47.29c-2.205 0-3.602-2.192-2.537-3.982l16.357-27.491c1.424-2.393 4.139-3.877 7.088-3.877h47.289c2.205 0 3.602 2.192 2.537 3.982l-16.357 27.49c-1.423 2.392-4.138 3.878-7.087 3.878z" fill="#C0C1FF"/><path fill-rule="evenodd" clip-rule="evenodd" d="M93.84 65.902c-2.872 0-5.489 1.44-6.856 3.742L70.288 97.706c-.886 1.49.247 3.406 2.214 3.406h49.313c2.863 0 5.484-1.443 6.857-3.744l16.696-28.06c.886-1.49-.247-3.405-2.214-3.405H93.839zM86.226 69.2c1.536-2.587 4.452-4.173 7.612-4.173h49.315c2.536 0 4.257 2.559 2.971 4.723l-16.697 28.061c-1.541 2.583-4.459 4.172-7.613 4.172H72.502c-2.536 0-4.258-2.559-2.971-4.723L86.227 69.2z" fill="#6562CF"/><path d="M122.479 101.584H32.431c-.95 0-1.719.765-1.719 1.708v.377c0 .944.77 1.708 1.719 1.708h90.048c.949 0 1.719-.764 1.719-1.708v-.377c0-.943-.77-1.708-1.719-1.708z" fill="#D1D1FF"/><path fill-rule="evenodd" clip-rule="evenodd" d="M32.43 102.108c-.657 0-1.19.53-1.19 1.184v.377c0 .654.533 1.184 1.19 1.184h90.049c.658 0 1.192-.53 1.192-1.184v-.377c0-.654-.534-1.184-1.192-1.184H32.431zm-2.245 1.184a2.239 2.239 0 012.246-2.232h90.048c1.241 0 2.246.999 2.246 2.232v.377a2.238 2.238 0 01-2.246 2.232H32.431a2.239 2.239 0 01-2.246-2.232v-.377z" fill="#6562CF"/></svg>