<svg width="235" height="315" fill="none" xmlns="http://www.w3.org/2000/svg"><path d="M221.064 119.997H119.901a4.2 4.2 0 00-4.195 4.192v1.11a4.194 4.194 0 004.195 4.191h100.958" fill="#fff"/><path fill-rule="evenodd" clip-rule="evenodd" d="M118.567 120.97a3.488 3.488 0 011.334-.265h101.163a.709.709 0 100-1.416H119.901a4.89 4.89 0 00-3.467 1.434 4.891 4.891 0 00-1.437 3.466v1.11a4.902 4.902 0 004.904 4.9h100.958a.708.708 0 000-1.417H119.901a3.488 3.488 0 01-3.486-3.484v-1.109a3.488 3.488 0 011.021-2.464c.323-.323.708-.58 1.131-.755z" fill="#3F4D79"/><path d="M144.005 176.054v-46.408h-9.134v46.196" fill="#fff"/><path d="M144.005 132.56v-2.914h-9.134v10.128l9.134-7.214z" fill="#F0E1D4"/><path fill-rule="evenodd" clip-rule="evenodd" d="M144.714 128.938h-10.551v46.455a.708.708 0 001.417 0v-45.039h7.717v42.158a.708.708 0 001.417 0v-43.574z" fill="#3F4D79"/><path d="M134.501 115.826v2.57l37.138-9.024 37.138 9.024v-2.57l-33.25-10.773V73.251h-8.26v31.96l-32.766 10.615z" fill="#fff"/><path fill-rule="evenodd" clip-rule="evenodd" d="M176.235 72.543h-9.677v32.153l-32.766 10.615v3.986l37.847-9.196 37.846 9.196v-3.986l-33.25-10.773V72.543zm-1.417 1.416v31.609l33.25 10.773v1.153l-36.429-8.851-36.43 8.851v-1.152l32.766-10.615V73.959h6.843z" fill="#D8BAA3"/><path d="M113.795 94.856h105.79c1.248 0 2.27-1.057 2.362-2.403.009-.14.025-.28.048-.419l12.244-66.341a2.706 2.706 0 00-.181-1.653 2.37 2.37 0 00-2.112-1.417h-105.79c-1.248 0-2.27 1.06-2.362 2.406a4.14 4.14 0 01-.048.416l-12.24 66.344a2.707 2.707 0 00.182 1.653 2.362 2.362 0 002.107 1.415z" fill="#fff"/><path fill-rule="evenodd" clip-rule="evenodd" d="M231.954 21.915H126.156c-1.678 0-2.956 1.41-3.069 3.066l-.001.002v.003a3.19 3.19 0 01-.038.337l-.001.006-12.235 66.317-.001.008a3.41 3.41 0 00.23 2.076 3.066 3.066 0 002.737 1.835l.017-.709v.709h105.79c1.678 0 2.956-1.407 3.069-3.064l.001-.002v-.002a3.54 3.54 0 01.038-.341l12.242-66.328a3.41 3.41 0 00-.23-2.075 3.069 3.069 0 00-2.743-1.838h-.008zm-118.15 72.233a1.653 1.653 0 01-1.467-.99l-.001-.003-.001-.003a1.998 1.998 0 01-.135-1.22l.002-.007 12.242-66.358.001-.006c.027-.16.046-.323.056-.485.071-1.035.839-1.745 1.655-1.745h105.781a1.655 1.655 0 011.471.992l.002.004.001.003c.172.383.219.81.134 1.22l-.001.007-12.247 66.356-.002.007a5.283 5.283 0 00-.055.486c-.071 1.033-.838 1.742-1.655 1.742H113.804z" fill="#D8BAA3"/><path d="M116.736 91.668h100.92c1.204 0 2.18-1.072 2.18-2.4l11.338-61.455c0-1.325-.976-2.399-2.181-2.399H128.076c-1.202 0-2.18 1.074-2.18 2.4l-11.338 61.455c0 1.327.976 2.4 2.178 2.4z" fill="#fff"/><path fill-rule="evenodd" clip-rule="evenodd" d="M230.464 27.754l-11.337 61.45v.065c0 1.001-.72 1.691-1.471 1.691h-100.92c-.733 0-1.44-.661-1.468-1.63l11.336-61.451v-.065c0-.999.723-1.691 1.472-1.691h100.917c.736 0 1.443.664 1.471 1.63zm1.418.06c0-1.65-1.23-3.108-2.889-3.108H128.076c-1.633 0-2.855 1.417-2.888 3.04l-11.339 61.459v.064c0 1.653 1.231 3.108 2.887 3.108h100.92c1.635 0 2.854-1.414 2.888-3.039l11.338-61.46v-.064z" fill="#D8BAA3"/><path d="M86.429 297.253l-3.149-21.617c10.485 1.181 15.197 0 15.197 0l-3.585 16.422c.078 2.664 5.669 13.342 8.626 14.245 2.957.902-10.58 3.643-17.09-9.05z" fill="#FFCFC9"/><path d="M111.287 314.804H85.571s-4.388-8.265-3.703-13.768c.876-7.084 4.785-7.913 4.785-7.913 3.607 0 2.679 8.993 9.561 12.126 3.43 1.561 6.364.581 9.331 1.486 6.63 2.021 5.742 8.069 5.742 8.069z" fill="#3F4D90"/><path d="M125.78 197.35c-2.284 4.185-16.912 33.578-27.305 78.286 0 0-4.873 1.537-15.197 0 0 0-9.403-54.107.961-71.395l41.541-6.891z" fill="#642648"/><path d="M44.149 142.117s-14.756 36.948-6.867 51.037c13.147 23.461 88.498 4.196 88.498 4.196s-16.451 20.208 2.683 77.93c0 0 .69 2.347 15.474.472 0 0 18.121-83.243 18.124-100.982 0-14.524-25.983-19.044-68.468-15.992 0 0-5.612-5.04-9.84-15.586 0-.015-12.377 3.854-39.604-1.075z" fill="#722D54"/><path d="M131.543 297.253l-3.148-21.617c10.485 1.181 15.433 0 15.433 0l-3.821 16.422c.077 2.664 5.668 13.343 8.626 14.245 2.957.902-10.58 3.643-17.09-9.05z" fill="#FFCFC9"/><path d="M156.401 314.804h-25.715s-4.389-8.265-3.704-13.768c.877-7.084 4.786-7.913 4.786-7.913 3.607 0 2.678 8.993 9.561 12.126 3.43 1.561 6.364.581 9.33 1.486 6.63 2.021 5.742 8.069 5.742 8.069z" fill="#3F4D90"/><path d="M33.491 90.736c4.143 16.922 9.92 46.488 10.084 50.498.163 4.01 28.261 6.572 40.768 2.886 0 0 3.456-19.87 4.32-30.634 6.555 9.21 13.242 16.366 17.786 16.366 16.676 0 44.184-9.35 46.27-11.593l-1.212-6.305c-6.895.16-40.728-3.911-40.728-3.911S97.334 73.844 88.543 66.781l-.038-.033c-5.773-5.328-20.76-7.035-24.119-7.862-3.474-.855-21.194-3.259-21.194-3.259-6.011 3.883-13.388 20.038-9.7 35.109z" fill="#F3E7DD"/><path d="M84.28 64.802a1.94 1.94 0 003.41 1.266 18.376 18.376 0 00-3.278-1.96 1.89 1.89 0 00-.133.694zm-6.076 1.941a1.939 1.939 0 110-3.878 1.939 1.939 0 010 3.878zm-8.016 0a1.939 1.939 0 11-.001-3.878 1.939 1.939 0 010 3.878zm-8.015 0a1.939 1.939 0 110-3.878 1.939 1.939 0 010 3.878zm-8.016 0a1.939 1.939 0 11-.001-3.878 1.939 1.939 0 010 3.878zm-8.015 0a1.939 1.939 0 110-3.878 1.939 1.939 0 010 3.878zm-9.93-1.629a1.938 1.938 0 101.913-2.253 1.89 1.89 0 00-.944.236c-.329.663-.655 1.318-.969 2.017zm52.076 5.117a1.936 1.936 0 003.82.473 29.578 29.578 0 00-1.969-2.4 1.937 1.937 0 00-1.851 1.927zm-6.075 1.941a1.939 1.939 0 110-3.877 1.939 1.939 0 010 3.877zm-8.017 0a1.939 1.939 0 110-3.877 1.939 1.939 0 010 3.877zm-8.015 0a1.939 1.939 0 110-3.877 1.939 1.939 0 010 3.877zm-8.016 0a1.94 1.94 0 110-3.878 1.94 1.94 0 010 3.879zm-8.015 0a1.939 1.939 0 110-3.877 1.939 1.939 0 010 3.877zm-8.016 0a1.94 1.94 0 110-3.878 1.94 1.94 0 010 3.879zm-8.348-.032a1.94 1.94 0 001.1-3.686 39.21 39.21 0 00-1.1 3.685zM64.24 59.115a1.939 1.939 0 003.82.473c-1.64-.295-2.937-.52-3.674-.709l-.125-.03a1.38 1.38 0 00-.021.267zm-8.014.001a1.938 1.938 0 003.278 1.42 1.94 1.94 0 00.265-2.492c-.884-.144-1.838-.29-2.835-.444a1.936 1.936 0 00-.708 1.516zm-6.076 1.938a1.939 1.939 0 110-3.878 1.939 1.939 0 010 3.878zm-8.016 0a1.94 1.94 0 110-3.878 1.94 1.94 0 010 3.878zM86.22 78.116a1.939 1.939 0 110-3.878 1.939 1.939 0 010 3.878zm6.076-1.938a1.936 1.936 0 003.78.618 91.475 91.475 0 00-1.534-2.531 1.942 1.942 0 00-2.246 1.913zm-14.092 1.938a1.939 1.939 0 110-3.878 1.939 1.939 0 010 3.878zm-8.016 0a1.939 1.939 0 11-.001-3.878 1.939 1.939 0 010 3.878zm-8.015 0a1.939 1.939 0 110-3.878 1.939 1.939 0 010 3.878zm-8.016 0a1.939 1.939 0 11-.001-3.878 1.939 1.939 0 010 3.878zm-8.015 0a1.939 1.939 0 110-3.878 1.939 1.939 0 010 3.878zm-8.017 0a1.939 1.939 0 110-3.878 1.939 1.939 0 010 3.878zm52.102 5.429a1.939 1.939 0 110-3.878 1.939 1.939 0 010 3.878zm6.077-1.938a1.938 1.938 0 003.206 1.469 162.054 162.054 0 00-1.774-3.34 1.937 1.937 0 00-1.432 1.87zm-14.091 1.938a1.939 1.939 0 110-3.878 1.939 1.939 0 010 3.878zm-8.017 0a1.939 1.939 0 110-3.878 1.939 1.939 0 010 3.878zm-8.015 0a1.939 1.939 0 110-3.878 1.939 1.939 0 010 3.878zm-8.016 0a1.94 1.94 0 110-3.878 1.94 1.94 0 010 3.878zm-8.015 0a1.939 1.939 0 110-3.878 1.939 1.939 0 010 3.878zm-8.016 0a1.94 1.94 0 110-3.878 1.94 1.94 0 010 3.878zm-9.63-.864a1.94 1.94 0 10.04-2.21 41.3 41.3 0 00-.04 2.21zm53.716 6.553a1.939 1.939 0 110-3.878 1.939 1.939 0 010 3.878zm-8.016 0a1.939 1.939 0 110-3.878 1.939 1.939 0 010 3.878zm-8.016 0a1.939 1.939 0 11-.001-3.878 1.939 1.939 0 010 3.878zm-8.015 0a1.939 1.939 0 110-3.878 1.939 1.939 0 010 3.878zm-8.016 0a1.939 1.939 0 11-.001-3.878 1.939 1.939 0 010 3.878zm-8.015 0a1.939 1.939 0 110-3.878 1.939 1.939 0 010 3.878zm-8.017 0a1.939 1.939 0 110-3.878 1.939 1.939 0 010 3.878zm52.102 5.426a1.939 1.939 0 110-3.877 1.939 1.939 0 010 3.878zm-8.014 0a1.939 1.939 0 110-3.877 1.939 1.939 0 010 3.878zm-8.017 0a1.939 1.939 0 110-3.877 1.939 1.939 0 010 3.878zm-8.015 0a1.939 1.939 0 110-3.877 1.939 1.939 0 010 3.878zm-8.016 0a1.94 1.94 0 110-3.877 1.94 1.94 0 010 3.878zm-8.015 0a1.939 1.939 0 110-3.877 1.939 1.939 0 010 3.878zm-8.016 0a1.94 1.94 0 110-3.877 1.94 1.94 0 010 3.878zm-8.614-3.785c.292 1.195.592 2.451.9 3.76a1.94 1.94 0 00-.308-3.852c-.2 0-.4.031-.593.092zm52.7 9.732a1.939 1.939 0 110-3.878 1.939 1.939 0 010 3.878zm8.015 0a1.939 1.939 0 110-3.878 1.939 1.939 0 010 3.878zm-16.031 0a1.939 1.939 0 110-3.878 1.939 1.939 0 010 3.878zm-8.016 0a1.939 1.939 0 11-.001-3.878 1.939 1.939 0 010 3.878zm-8.015 0a1.939 1.939 0 110-3.878 1.939 1.939 0 010 3.878zm-8.016 0a1.939 1.939 0 11-.001-3.878 1.939 1.939 0 010 3.878zm-8.015 0a1.939 1.939 0 110-3.878 1.939 1.939 0 010 3.878zm-8.017 0a1.939 1.939 0 110-3.878 1.939 1.939 0 010 3.878zm52.102 5.429a1.939 1.939 0 110-3.878 1.939 1.939 0 010 3.878zm4.008-16.802a1.939 1.939 0 110-3.878 1.939 1.939 0 010 3.878zm4.009 5.426a1.94 1.94 0 110-3.877 1.94 1.94 0 010 3.878zm4.008 5.947a1.939 1.939 0 110-3.877 1.939 1.939 0 010 3.877zm-4.008 5.429a1.94 1.94 0 110-3.878 1.94 1.94 0 010 3.878zm2.066-18.743a1.941 1.941 0 001.94 1.939 1.59 1.59 0 00.302-.026 275.832 275.832 0 00-1.62-3.33 1.91 1.91 0 00-.622 1.417zm5.948 18.743a1.939 1.939 0 110-3.878 1.939 1.939 0 010 3.878zm-24.045 0a1.939 1.939 0 110-3.878 1.939 1.939 0 010 3.878zm-8.017 0a1.939 1.939 0 110-3.878 1.939 1.939 0 010 3.878zm-8.015 0a1.939 1.939 0 110-3.878 1.939 1.939 0 010 3.878zm-8.016 0a1.94 1.94 0 110-3.878 1.94 1.94 0 010 3.878zm-8.015 0a1.939 1.939 0 110-3.878 1.939 1.939 0 010 3.878zm-8.016 0a1.94 1.94 0 110-3.878 1.94 1.94 0 010 3.878zm44.086 5.687a1.939 1.939 0 110-3.878 1.939 1.939 0 010 3.878zm-8.016 0a1.939 1.939 0 110-3.878 1.939 1.939 0 010 3.878zm-8.016 0a1.939 1.939 0 110-3.878 1.939 1.939 0 010 3.878zm-8.015 0a1.939 1.939 0 110-3.878 1.939 1.939 0 010 3.878zm-8.016 0a1.939 1.939 0 110-3.878 1.939 1.939 0 010 3.878zm-8.015 0a1.939 1.939 0 110-3.878 1.939 1.939 0 010 3.878zm-8.752-3.734c.264 1.242.525 2.486.785 3.731a1.941 1.941 0 001.852-2.337 1.947 1.947 0 00-.991-1.315 1.939 1.939 0 00-1.645-.079zm52.837 5.285a1.921 1.921 0 00-1.332.532c.76 1.062 1.52 2.094 2.282 3.096a1.943 1.943 0 00.927-2.18 1.942 1.942 0 00-1.872-1.45l-.005.002zm-8.014 3.877a1.939 1.939 0 11-.001-3.878 1.939 1.939 0 010 3.878zm-8.017 0a1.939 1.939 0 110-3.878 1.939 1.939 0 010 3.878zm-8.015 0a1.939 1.939 0 110-3.878 1.939 1.939 0 010 3.878zm-8.016 0a1.939 1.939 0 110-3.878 1.939 1.939 0 010 3.878zm-8.015 0a1.939 1.939 0 110-3.878 1.939 1.939 0 010 3.878zm-8.016 0a1.939 1.939 0 11-.001-3.878 1.939 1.939 0 010 3.878zm43.57 5.947a1.939 1.939 0 110-3.878 1.939 1.939 0 010 3.878zm7.518-3.59a76.12 76.12 0 002.485 2.914 1.938 1.938 0 00-1.484-3.202c-.354.001-.7.1-1.001.288zm-15.018 3.59a1.939 1.939 0 110-3.878 1.939 1.939 0 010 3.878zm-8.016 0a1.939 1.939 0 110-3.878 1.939 1.939 0 010 3.878zm-8.015 0a1.939 1.939 0 110-3.878 1.939 1.939 0 010 3.878zm-8.016 0a1.939 1.939 0 110-3.878 1.939 1.939 0 010 3.878zm-8.015 0a1.939 1.939 0 110-3.878 1.939 1.939 0 010 3.878zm48.093-11.375a1.939 1.939 0 110-3.878 1.939 1.939 0 010 3.878zm4.009 5.428a1.939 1.939 0 11-.001-3.878 1.939 1.939 0 010 3.878zm4.008 5.947a1.939 1.939 0 110-3.878 1.939 1.939 0 010 3.878zm4.006 5.429a1.939 1.939 0 110-3.878 1.939 1.939 0 010 3.878zm-4.006-16.804a1.939 1.939 0 110-3.878 1.939 1.939 0 010 3.878zm4.006 5.428a1.939 1.939 0 110-3.877 1.939 1.939 0 010 3.877zm4.008 5.947a1.939 1.939 0 110-3.878 1.939 1.939 0 010 3.878zm4.009 5.429a1.94 1.94 0 110-3.88 1.94 1.94 0 010 3.88zm-4.009-16.804a1.939 1.939 0 110-3.878 1.939 1.939 0 010 3.878zm4.009 5.428a1.94 1.94 0 11-.001-3.879 1.94 1.94 0 01.001 3.879zm4.008 5.947a1.939 1.939 0 110-3.878 1.939 1.939 0 010 3.878zm2.067 3.478a1.933 1.933 0 00.874 1.62c.89-.167 1.785-.349 2.676-.538a1.933 1.933 0 00.225-1.734 1.94 1.94 0 00-3.768.652h-.007zm-4.009-16.792a1.943 1.943 0 001.94 1.939 1.943 1.943 0 001.939-1.939 1.891 1.891 0 00-.116-.657l-3.441-.392a1.922 1.922 0 00-.322 1.049zm5.95 7.367a1.939 1.939 0 110-3.877 1.939 1.939 0 010 3.877zm4.006 5.947a1.939 1.939 0 110-3.878 1.939 1.939 0 010 3.878zm2.07 3.478a.398.398 0 000 .069 158.43 158.43 0 003.67-.931 1.933 1.933 0 00-2.176-1.022 1.937 1.937 0 00-1.494 1.884zm-4.009-16.792a1.937 1.937 0 001.821 1.919 1.94 1.94 0 002.041-1.683l-3.852-.42c-.007.061-.01.122-.01.184zm5.948 7.367a1.94 1.94 0 11-.001-3.879 1.94 1.94 0 01.001 3.879zm4.008 5.947a1.939 1.939 0 110-3.878 1.939 1.939 0 010 3.878zm-1.812-12.622a1.944 1.944 0 001.615 1.236 1.934 1.934 0 001.829-.887c-1.134-.113-2.277-.229-3.444-.349zm5.82 6.675a1.939 1.939 0 110-3.877 1.939 1.939 0 010 3.877zm2.067 4.008a1.936 1.936 0 001.141 1.764c.874-.286 1.713-.569 2.509-.845a1.953 1.953 0 00.063-1.699 1.934 1.934 0 00-1.3-1.096 1.931 1.931 0 00-1.664.35 1.941 1.941 0 00-.749 1.526zm5.948-4.008a1.939 1.939 0 110-3.877 1.939 1.939 0 010 3.877zm-64.124 11.376a1.939 1.939 0 110-3.878 1.939 1.939 0 010 3.878zm-8.017 0a1.939 1.939 0 110-3.878 1.939 1.939 0 010 3.878zm-8.015 0a1.939 1.939 0 110-3.878 1.939 1.939 0 010 3.878zm-8.016 0a1.94 1.94 0 110-3.878 1.94 1.94 0 010 3.878zm-8.015 0a1.939 1.939 0 110-3.878 1.939 1.939 0 010 3.878zm-9.285-3.405c.218 1.133.428 2.234.626 3.291a1.94 1.94 0 002.575-1.583 1.943 1.943 0 00-2.375-2.133 1.947 1.947 0 00-.826.425zm43.415 7.153a1.932 1.932 0 001.688 1.92c.191-1.224.388-2.508.584-3.828a1.692 1.692 0 00-.333-.031 1.942 1.942 0 00-1.94 1.939zm-6.076 1.939a1.94 1.94 0 11.001-3.88 1.94 1.94 0 010 3.88zm-8.016 0a1.94 1.94 0 110-3.88 1.94 1.94 0 010 3.88zm-8.015 0a1.94 1.94 0 11.001-3.88 1.94 1.94 0 010 3.88zm-8.016 0a1.94 1.94 0 110-3.88 1.94 1.94 0 010 3.88zm-8.015 0a1.94 1.94 0 11.001-3.88 1.94 1.94 0 010 3.88zm36.071 5.429a1.939 1.939 0 110-3.878 1.939 1.939 0 010 3.878zm-8.017 0a1.939 1.939 0 110-3.878 1.939 1.939 0 010 3.878zm-8.015 0a1.939 1.939 0 110-3.878 1.939 1.939 0 010 3.878zm-8.016 0a1.94 1.94 0 110-3.878 1.94 1.94 0 010 3.878zm-8.015 0a1.939 1.939 0 110-3.878 1.939 1.939 0 010 3.878zm-7.317-3.748c.217 1.301.394 2.421.517 3.306a1.94 1.94 0 00-.517-3.306zm33.439 7.753a1.936 1.936 0 001.146 1.769 53.895 53.895 0 002.007-.258 1.935 1.935 0 00.362-2.636 1.93 1.93 0 00-1.69-.809 1.935 1.935 0 00-1.827 1.934h.002zm-6.084 1.941a1.939 1.939 0 110-3.878 1.939 1.939 0 010 3.878zm-8.015 0a1.939 1.939 0 110-3.878 1.939 1.939 0 010 3.878zm-9.956-1.941c0 .405.127.799.362 1.129.888.141 1.818.274 2.785.389a1.934 1.934 0 00.717-1.732 1.943 1.943 0 00-1.084-1.53 1.945 1.945 0 00-1.873.104 1.936 1.936 0 00-.91 1.64h.003zm-7.634-1.153c.78.489 1.977.945 3.486 1.351a1.816 1.816 0 000-.198 1.937 1.937 0 00-3.495-1.153h.01z" fill="#fff"/><path fill-rule="evenodd" clip-rule="evenodd" d="M74.561 91.85c3.543 7.099 7.457 14.942 13.474 22.936l.755-.568c-5.96-7.92-9.836-15.683-13.38-22.782a568.454 568.454 0 00-1.617-3.226l-.843.427a650.898 650.898 0 011.611 3.213z" fill="#D8BAA3"/><path d="M165.878 111.267c-2.296-.494-10.372-.452-14.505.67l.781 6.848s3.888 1.904 6.456.848c2.567-1.055 4.504-3.133 6.332-2.564 1.829.569 4.077 2.009 5.176 1.747a11.594 11.594 0 003.689-1.528c-.437-.803-5.1-5.145-7.929-6.021zM67.592 43.496c-.64 2.565-3.206 13.68-3.206 15.39 0 1.71-17.646-.27-21.066-3.261 0 0 6.956-7.75 8.666-19.398l15.606 7.27z" fill="#FFCFC9"/><path d="M54.152 37.42s5.383 11.227 16.567 10.332a2.267 2.267 0 001.807-1.162c1.535-2.786 5.607-10.627 5.459-15.281-.185-5.717-2.618-16.318-2.618-16.318s-13.619-2.82-21.18 9.805c-4.235 7.084-.035 12.624-.035 12.624z" fill="#FFCFC9"/><path fill-rule="evenodd" clip-rule="evenodd" d="M83.764 26.808H63.983v.945h19.781v-.945z" fill="#D8BAA3"/><path fill-rule="evenodd" clip-rule="evenodd" d="M82.596 25.735c.328.909.54 2.196.54 3.64s-.212 2.731-.54 3.64c-.165.457-.35.793-.531 1.006-.184.215-.319.256-.396.256-.076 0-.212-.041-.395-.256-.182-.213-.367-.55-.531-1.006-.328-.909-.54-2.196-.54-3.64s.212-2.731.54-3.64c.164-.457.35-.793.53-1.006.184-.215.32-.257.396-.257.077 0 .212.042.396.257.181.213.367.55.531 1.006zm.188-1.619c-.281-.33-.656-.588-1.115-.588-.459 0-.833.259-1.114.588-.282.33-.515.782-.701 1.298-.374 1.036-.596 2.437-.596 3.96 0 1.525.222 2.925.596 3.962.186.516.419.967.701 1.298.28.329.655.588 1.114.588.46 0 .834-.26 1.115-.588.282-.331.515-.782.7-1.298.375-1.037.597-2.437.597-3.961s-.222-2.925-.596-3.96c-.186-.517-.42-.968-.701-1.299z" fill="#D8BAA3"/><path d="M28.34 48.29s15.695 4.537 36.83 5.918c0 0 7.358-7.618-1.119-17.02-4.847-5.374 1.094-12.187 1.094-12.187 6.79-2.125 14.86-2.361 14.86-2.361 2.694-3.96 2.767-9.583-4.725-15.135-7.762-5.743-22.97-11.48-31.946-2.385-5.142 5.195-1.654 15.61-8.234 18.769-20.713 9.92-6.76 24.401-6.76 24.401z" fill="#3F4D90"/><path fill-rule="evenodd" clip-rule="evenodd" d="M57.359 1.088c5.829 1.004 11.521 3.847 15.37 6.692l.421-.57C69.23 4.314 63.437 1.417 57.479.39 51.519-.637 45.339.203 40.74 4.86c-1.346 1.36-2.145 3.164-2.7 5.115-.457 1.611-.755 3.352-1.047 5.058-.06.358-.122.714-.184 1.067-.36 2.052-.76 4-1.467 5.629-.703 1.62-1.7 2.897-3.243 3.64l.307.638c1.743-.838 2.838-2.274 3.586-3.996.744-1.715 1.155-3.739 1.515-5.788l.187-1.083c.292-1.705.582-3.4 1.028-4.971.54-1.9 1.297-3.573 2.522-4.81C45.623.922 51.532.083 57.36 1.087zm24.867 14.289c.954 2.606.572 5.173-.708 7.054l.586.398c1.415-2.079 1.816-4.886.787-7.696-1.03-2.81-3.48-5.602-7.728-7.698l-.314.635c4.123 2.034 6.423 4.702 7.377 7.307zM63.29 28.681c-.473 2.74-.296 6.2 2.423 8.84 4.458 4.332 5.108 8.447 4.678 11.458a11.88 11.88 0 01-1.147 3.636c-.22.434-.424.773-.573 1.002a6.748 6.748 0 01-.234.337l-.002.003.279.218.279.218.002-.002.004-.006.016-.02a7.476 7.476 0 00.25-.36c.161-.25.38-.61.612-1.072.464-.921.985-2.245 1.215-3.853.463-3.237-.265-7.577-4.886-12.067-2.478-2.406-2.672-5.579-2.218-8.211a16.989 16.989 0 011.528-4.613l.009-.016.002-.004-.311-.17a27.302 27.302 0 00-.312-.167l-.001.002-.003.005a17.698 17.698 0 00-1.61 4.842z" fill="#3F4D90"/><path d="M.893 104.648c1.254 4.723 18.046 35.186 19.71 78.201a23.141 23.141 0 0023.12 22.261h75.758c2.577 0 4.329 1.035 5.432 2.714a.803.803 0 00.893.308.793.793 0 00.562-.759v-3.918c0-5.195-4.225-10.362-9.431-10.348l-23.13.019c-10.354.03-16.484-7.212-16.876-17.558-1.445-38.209-13.737-62.393-19.307-70.224a10.702 10.702 0 00-8.716-4.487H2.813c-1.946.003-2.42 1.904-1.92 3.791z" fill="#fff"/><path fill-rule="evenodd" clip-rule="evenodd" d="M48.909 101.566a9.984 9.984 0 018.138 4.189c5.486 7.714 17.736 31.764 19.176 69.84.201 5.302 1.875 9.874 4.89 13.125 3.025 3.26 7.343 5.13 12.697 5.114l23.129-.019c2.359-.006 4.533 1.162 6.134 2.98 1.602 1.821 2.587 4.248 2.587 6.66v3.916a.088.088 0 01-.018.052.086.086 0 01-.045.032.09.09 0 01-.056 0 .088.088 0 01-.042-.031c-1.243-1.884-3.223-3.022-6.018-3.022H43.724a22.44 22.44 0 01-22.412-21.58v-.001c-.836-21.592-5.468-40.03-10.046-53.658-2.29-6.815-4.565-12.427-6.346-16.629a522.202 522.202 0 00-1.42-3.313c-.303-.703-.578-1.339-.816-1.899-.589-1.384-.965-2.325-1.106-2.856-.227-.854-.207-1.628.01-2.145a1.19 1.19 0 01.428-.547c.177-.119.43-.208.798-.208h46.095zm-.001-1.417a11.409 11.409 0 019.293 4.784v.001c5.653 7.947 17.988 32.265 19.438 70.607.192 5.044 1.778 9.266 4.514 12.215 2.727 2.94 6.652 4.676 11.653 4.661l23.129-.019c2.847-.007 5.388 1.401 7.202 3.461 1.812 2.059 2.94 4.812 2.94 7.596v3.92a1.511 1.511 0 01-1.061 1.434 1.511 1.511 0 01-1.685-.582l-.005-.007-.005-.007c-.964-1.468-2.487-2.394-4.84-2.394H43.723a23.85 23.85 0 01-23.827-22.944v.001l.708-.027-.708.026" fill="#D8BAA3"/><path fill-rule="evenodd" clip-rule="evenodd" d="M51.581 104.856a10.86 10.86 0 00-4.979-1.2H1.54a.708.708 0 100 1.417h45.064a9.438 9.438 0 017.7 3.952c2.582 3.631 6.714 12.996 10.376 25.807 3.655 12.784 6.82 28.92 7.511 46.05a16.896 16.896 0 005.188 11.501 16.907 16.907 0 0011.71 4.703v-.708.708h28.656a7.916 7.916 0 017.917 7.916.708.708 0 001.417 0 9.332 9.332 0 00-9.334-9.333H89.088a15.488 15.488 0 01-15.48-14.844l-.709.028.708-.029c-.696-17.261-3.884-33.51-7.564-46.381-3.672-12.843-7.856-22.402-10.584-26.239v-.001a10.861 10.861 0 00-3.878-3.347z" fill="#D8BAA3"/><path d="M70.875 220.604h8.267v76.069h-8.267v-76.069z" fill="#F0E1D4"/><path fill-rule="evenodd" clip-rule="evenodd" d="M79.85 219.896h-9.684v77.485h9.685v-77.485zm-1.417 1.416v74.652h-6.85v-74.652h6.85z" fill="#D8BAA3"/><path fill-rule="evenodd" clip-rule="evenodd" d="M85.267 297.475c3.663 0 6.73 3.241 6.73 7.361a.708.708 0 101.416 0c0-4.792-3.594-8.777-8.146-8.777h-20.55c-4.552 0-8.149 3.985-8.149 8.777a.709.709 0 101.417 0c0-4.12 3.069-7.361 6.732-7.361h20.55z" fill="#D8BAA3"/><path d="M57.747 314.292a5.796 5.796 0 11-.001-11.592 5.796 5.796 0 010 11.592z" fill="#fff"/><path fill-rule="evenodd" clip-rule="evenodd" d="M57.747 303.41a5.087 5.087 0 11-5.088 5.087 5.087 5.087 0 015.088-5.087zm6.505 5.087a6.505 6.505 0 00-6.505-6.504 6.504 6.504 0 106.505 6.504z" fill="#D8BAA3"/><path d="M91.996 314.292a5.796 5.796 0 110-11.592 5.796 5.796 0 010 11.592z" fill="#fff"/><path fill-rule="evenodd" clip-rule="evenodd" d="M91.996 303.41a5.087 5.087 0 11-5.088 5.087 5.087 5.087 0 015.088-5.087zm6.505 5.087a6.505 6.505 0 00-6.505-6.504 6.505 6.505 0 106.505 6.504z" fill="#D8BAA3"/><path d="M84.067 205.248h-18.11v11.354a6.517 6.517 0 006.517 6.515h5.071a6.516 6.516 0 006.522-6.518v-11.351z" fill="#fff"/><path fill-rule="evenodd" clip-rule="evenodd" d="M84.775 204.539H65.25v12.063a7.221 7.221 0 007.225 7.223h5.07m7.231-19.286v12.06-12.06zm-1.417 1.417v10.643a5.803 5.803 0 01-3.588 5.368 5.796 5.796 0 01-2.224.441h-5.072a5.806 5.806 0 01-5.808-5.806v-10.646h16.692zm17.157 91.518a7.32 7.32 0 017.322 7.32.71.71 0 001.417 0 8.734 8.734 0 00-8.739-8.737H46.898a8.739 8.739 0 00-8.74 8.737.71.71 0 001.418 0 7.32 7.32 0 017.322-7.32h53.618z" fill="#D8BAA3"/><path d="M110.184 314.292a5.796 5.796 0 11-.002-11.592 5.796 5.796 0 01.002 11.592z" fill="#fff"/><path fill-rule="evenodd" clip-rule="evenodd" d="M110.184 303.41a5.086 5.086 0 110 10.173 5.087 5.087 0 110-10.173zm6.505 5.087a6.505 6.505 0 00-13.01 0 6.503 6.503 0 006.505 6.503 6.504 6.504 0 006.505-6.503z" fill="#D8BAA3"/><path d="M37.906 314.292a5.796 5.796 0 11-.001-11.592 5.796 5.796 0 010 11.592z" fill="#fff"/><path fill-rule="evenodd" clip-rule="evenodd" d="M37.906 303.41a5.087 5.087 0 11-5.088 5.087 5.087 5.087 0 015.088-5.087zm6.505 5.087a6.505 6.505 0 00-6.505-6.504 6.505 6.505 0 106.505 6.504z" fill="#D8BAA3"/></svg>