<svg width="55" height="55" fill="none" xmlns="http://www.w3.org/2000/svg"><path d="M21.7 3.223a.806.806 0 100 1.611.806.806 0 000-1.611zm29.272 1.4h-7.199V2.095C43.773.94 42.833 0 41.68 0H13.32c-1.155 0-2.094.94-2.094 2.095v2.528H4.028A4.033 4.033 0 000 8.652V38.99c0 1.69 1.02 3.136 2.507 3.734L.594 46.038c-1.216 2.074-.482 4.835 1.62 6.049 2.088 1.205 4.815.515 6.049-1.621l4.3-7.448h10.305l-.613 4.56h-.898a1.67 1.67 0 00-1.604 1.22l-1.135 4.092a1.652 1.652 0 00.279 1.453c.317.418.8.657 1.325.657h14.556c.524 0 1.008-.24 1.325-.657.318-.418.42-.948.28-1.453l-1.136-4.091a1.67 1.67 0 00-1.604-1.22h-.898l-.613-4.56h18.84A4.033 4.033 0 0055 38.988V8.653a4.033 4.033 0 00-4.028-4.029zm-7.199 4.834h6.393v27.116h-6.393V9.457zM12.838 2.095c0-.267.217-.484.483-.484H41.68c.266 0 .483.217.483.484v4.35H12.838v-4.35zm6.533 9.57c5.903 0 10.705 4.803 10.705 10.706 0 5.902-4.802 10.705-10.705 10.705-6.85 0-11.988-6.41-10.43-13.127a.806.806 0 10-1.569-.364c-.987 4.252.435 8.796 3.51 11.701l-1.45 2.511a2.35 2.35 0 00-2.426 1.134l-.947 1.642H4.834V9.457h6.393v3.673a12.47 12.47 0 00-2.305 2.726.806.806 0 001.366.854c1.963-3.138 5.334-5.045 9.083-5.045zM14.357 33.62l-1.236 2.14-2.221-1.283 1.238-2.144c.69.502 1.432.935 2.219 1.287zM1.611 38.99V8.652a2.42 2.42 0 012.417-2.417h7.199v1.611H4.458c-.681 0-1.235.554-1.235 1.235V36.95c0 .681.554 1.235 1.235 1.235h.67l-1.8 3.118a2.435 2.435 0 01-1.717-2.312zm11.67-.437L6.866 49.66a2.82 2.82 0 01-3.847 1.031c-1.33-.768-1.803-2.524-1.03-3.847l6.412-11.107a.73.73 0 01.99-.27l.004.003.007.004 3.601 2.079.01.006s.002 0 .003.002a.729.729 0 01.263.992zM33.642 49.19c.024 0 .045.016.052.04l1.134 4.09c.01.027-.023.072-.051.069H20.222c-.028.003-.062-.042-.051-.068l1.134-4.092a.054.054 0 01.052-.039h12.286zm-9.762-1.611l.613-4.56h6.012l.613 4.56H23.88zm29.508-8.59a2.42 2.42 0 01-2.417 2.418h-37.48l1.183-2.048c.214-.37.314-.776.311-1.175h19.47a.806.806 0 100-1.611H14.512l1.379-2.387a12.27 12.27 0 003.48.501c6.791 0 12.316-5.525 12.316-12.316 0-6.792-5.525-12.317-12.316-12.317-2.36 0-4.61.664-6.533 1.87V8.058h29.324v28.516h-3.946a.806.806 0 100 1.611h12.326c.681 0 1.235-.554 1.235-1.235V9.08c0-.68-.554-1.235-1.235-1.235h-6.769v-1.61h7.199a2.42 2.42 0 012.417 2.417V38.99zM15.255 3.224a.806.806 0 100 1.611.806.806 0 000-1.611zm3.223 0a.806.806 0 100 1.611.806.806 0 000-1.611zm21.267 13.452h-6.23a.806.806 0 100 1.611h6.23a.806.806 0 100-1.61zm0 4.834h-5.477a.806.806 0 100 1.611h5.477a.806.806 0 100-1.61zm-20.374 8.784c4.368 0 7.922-3.554 7.922-7.922 0-4.369-3.554-7.923-7.922-7.923-4.369 0-7.923 3.554-7.923 7.923 0 4.368 3.554 7.922 7.923 7.922zm0-14.233a6.318 6.318 0 016.311 6.31 6.318 6.318 0 01-6.311 6.312 6.319 6.319 0 01-6.311-6.311 6.318 6.318 0 016.31-6.311zm20.374 10.283h-6.337a.806.806 0 100 1.611h6.337a.806.806 0 100-1.61zm.806-13.696a.806.806 0 00-.806-.806h-9.182a.806.806 0 100 1.612h9.182a.806.806 0 00.806-.806zm0 19.336a.806.806 0 00-.806-.806h-9.182a.806.806 0 100 1.611h9.182c.445 0 .806-.36.806-.805z" fill="#B961FF"/></svg>