<svg width="151" height="219" fill="none" xmlns="http://www.w3.org/2000/svg"><path d="M122.775 136.972H56.441v4.009h66.334v-4.009z" fill="#fff"/><path fill-rule="evenodd" clip-rule="evenodd" d="M56.032 136.972c0-.225.183-.407.41-.407h66.333c.226 0 .409.182.409.407v4.009a.408.408 0 01-.409.406H56.441a.408.408 0 01-.409-.406v-4.009zm.818.406v3.197h65.516v-3.197H56.85z" fill="#3F4D90"/><path d="M131.479 128.364c0-36.83 18.417-57.096 18.417-57.096H95.151s-18.417 20.266-18.417 57.096h54.745z" fill="#fff"/><path fill-rule="evenodd" clip-rule="evenodd" d="M94.933 70.78H151l-.74.814-.002.003-.009.01-.037.041a24.886 24.886 0 00-.724.867 50.833 50.833 0 00-2.066 2.772c-1.714 2.456-4.002 6.118-6.291 10.926-4.578 9.616-9.161 23.819-9.161 42.151v.487H76.243v-.487c0-18.498 4.626-32.843 9.256-42.568 2.315-4.862 4.63-8.57 6.37-11.064a52.035 52.035 0 012.107-2.826 29.95 29.95 0 01.795-.948l.011-.012.003-.003.001-.001.365.326-.364-.327.146-.16zm.44.975l-.055.065c-.132.154-.326.386-.575.695a51.125 51.125 0 00-2.066 2.772c-1.713 2.456-4.002 6.118-6.29 10.926-4.538 9.53-9.08 23.567-9.161 41.663h53.763c.081-18.262 4.665-32.44 9.255-42.08 2.315-4.862 4.631-8.57 6.371-11.064a52.062 52.062 0 012.106-2.826l.122-.151h-53.47z" fill="#D8BAA3"/><path d="M56.98 128.364h74.499a8.58 8.58 0 01-2.539 6.088 8.702 8.702 0 01-6.13 2.521h-74.5c0-2.283.913-4.473 2.54-6.088a8.702 8.702 0 016.13-2.521z" fill="#fff"/><path fill-rule="evenodd" clip-rule="evenodd" d="M56.98 128.851a8.21 8.21 0 00-5.784 2.379 8.099 8.099 0 00-2.38 5.256h73.994a8.209 8.209 0 005.783-2.379 8.097 8.097 0 002.381-5.256H56.979zm-6.478 1.69a9.193 9.193 0 016.477-2.665h74.991v.488a9.065 9.065 0 01-2.683 6.432 9.194 9.194 0 01-6.477 2.665H47.82v-.488c0-2.412.964-4.726 2.682-6.432z" fill="#D8BAA3"/><path d="M122.09 217.351a.94.94 0 01-.595-.212.922.922 0 01-.323-.54l-14.576-75.617h8.356l8.067 75.342a.93.93 0 01-.929 1.027z" fill="#fff"/><path fill-rule="evenodd" clip-rule="evenodd" d="M106.281 140.724a.408.408 0 01.315-.148h8.356c.209 0 .384.157.406.363l8.068 75.342a1.324 1.324 0 01-.337 1.034 1.355 1.355 0 01-1.854.137 1.33 1.33 0 01-.464-.776v-.001l-14.576-75.616a.402.402 0 01.086-.335zm15.809 76.627v.406-.406zm-.516-.829l-.402.077.402-.077zm-6.99-75.134h.368v-.406l-.407.043.039.363zm-7.493 0h-.495v-.406l.402-.076.093.482z" fill="#3F4D90"/><path d="M57.264 217.351a.94.94 0 00.595-.212.925.925 0 00.323-.54l14.576-75.617h-8.354l-8.07 75.342a.924.924 0 00.55.947c.12.053.249.08.38.08z" fill="#fff"/><path fill-rule="evenodd" clip-rule="evenodd" d="M63.997 140.939a.408.408 0 01.407-.363h8.354a.408.408 0 01.401.483l-14.576 75.617a1.331 1.331 0 01-.464.776 1.351 1.351 0 01-1.854-.137 1.334 1.334 0 01-.337-1.034l8.07-75.342zm-6.733 76.412v.406-.406zm.516-.829l.402.077-.402-.077zm14.483-75.134l.093-.482.402.076v.406h-.495zm-7.491 0h-.368v-.406l.407.043-.04.363z" fill="#3F4D90"/><path d="M41.023 94.319c22.41 5.36 33.637-.68 35.672-4.364 0 0-1.12-6.916-.293-17.64.828-10.722-.913-34.738-.913-34.738-4.938 1.886-12.165 4.904-14.316 11.19-2.15 6.287-2.49 23.511-2.617 30.875 0 0-11.497 3.916-16.648 6.59a3.097 3.097 0 00-1.335 1.34 3.068 3.068 0 00-.301 1.86l.75 4.887z" fill="#FFB000"/><path fill-rule="evenodd" clip-rule="evenodd" d="M63.29 79.264l-.15.377-.151.378a8.18 8.18 0 00-1.556-.291c-1.071-.095-2.697-.075-4.876.403l-.176-.793c2.259-.496 3.968-.522 5.124-.42a9.004 9.004 0 011.313.206 5.015 5.015 0 01.433.126c.011.003.02.007.027.01l.008.002.002.001h.002z" fill="#fff"/><path d="M42.28 90.394a4.045 4.045 0 01-.259 2.212 4.075 4.075 0 01-1.392 1.745l-.257.18c-1.755 1.204-5.122 2.177-5.92 2.124-.798-.054-5.705-.956-5.705-.956s-.176-.664.543-1.54c.718-.875 5.978-.18 4.054-2.102-.855-.854-5.116 1.074-6.97 3.212-1.853 2.138-2.733.444-2.733.444s1.775-3.96 2.408-4.677c.633-.717 4.867-3.76 7.727-4.224 1.365-.22 3.282-.096 5.186.233a4.088 4.088 0 012.198 1.147c.595.6.987 1.37 1.12 2.202zm12.259 119.943c1.809-.406 4.31-1.277 5.704-3.111l.791-4.242s-5.201.588-9.953.137l.92 5.551a2.08 2.08 0 00.911 1.37 2.12 2.12 0 001.626.295z" fill="#C36F0B"/><path d="M33.37 215.53c.027.315.6 1.819.6 1.819l29.258-.984v-1.625c0-2.719-.93-5.067-1.423-6.087-.76-1.574-1.813-1.181-1.813-1.181s-2.86 2.778-6.07 2.778c-.618 0-1.061-.325-1.379-.799a3.794 3.794 0 01-.438-.945 7.634 7.634 0 01-.281-1.333 1.193 1.193 0 00-.633-.908 1.208 1.208 0 00-1.113-.006c-1.26.65-2.789 2.082-6.885 4.279-.204.11-.417.222-.636.338-4.98 2.602-9.132 1.634-9.188 4.654z" fill="#FFB000"/><path d="M36.662 218.787c-.847 0-1.881-.381-2.436-.998a3.445 3.445 0 01-.76-2.948h.023c.117.614.443 1.17.924 1.575.48.404 1.086.633 1.716.647l25.365-.737c.787 0 1.46-.541 1.736-1.3v1.693c0 1.145-.836 2.072-1.868 2.072l-24.7-.004z" fill="#3F4D79"/><path d="M42.093 211.113a8.103 8.103 0 014.006 1.968 8.008 8.008 0 012.339 3.783l1.167-.041a9.137 9.137 0 00-2.167-4.016 9.227 9.227 0 00-3.847-2.482l-.396.213c-.205.11-.417.223-.636.338-.155.083-.31.162-.466.237z" fill="#3F4D79"/><path d="M39.199 212.227v.151a7.696 7.696 0 014.187 1.244 7.613 7.613 0 012.82 3.316l1.214-.041a8.757 8.757 0 00-2.406-3.461 8.846 8.846 0 00-3.754-1.947c-.674.282-1.362.528-2.061.738z" fill="#3F4D79"/><path d="M90.087 210.337c1.809-.407 4.145-1.277 5.538-3.111l.466-4.594s-4.879.424-9.63-.029l1.09 6.068a2.077 2.077 0 00.91 1.371 2.11 2.11 0 001.626.295z" fill="#C36F0B"/><path d="M70.572 215.53c.028.315.6 1.819.6 1.819l27.605-.984v-1.624c0-2.72-.93-5.067-1.421-6.087-.76-1.574-1.813-1.509-1.813-1.509s-2.862 3.106-6.071 3.106c-.619 0-1.062-.325-1.378-.8a3.713 3.713 0 01-.438-.945 7.499 7.499 0 01-.281-1.332 1.198 1.198 0 00-1.19-1.047 1.211 1.211 0 00-.557.132c-1.26.65-1.135 2.083-5.235 4.279-.204.111-.417.223-.636.338-4.98 2.602-9.13 1.634-9.185 4.654z" fill="#FFC033"/><path d="M73.864 218.787c-.848 0-1.882-.38-2.436-.997a3.436 3.436 0 01-.76-2.949h.022c.118.615.444 1.171.924 1.575.48.405 1.087.633 1.716.648l23.718-.738c.787 0 1.46-.541 1.734-1.3v1.693c0 1.145-.836 2.073-1.868 2.073l-23.05-.005z" fill="#3F4D79"/><path d="M79.294 211.114a8.093 8.093 0 014.006 1.967 8.017 8.017 0 012.34 3.783l1.167-.041a9.139 9.139 0 00-2.167-4.015 9.226 9.226 0 00-3.848-2.482l-.395.212a51.435 51.435 0 01-1.103.576z" fill="#3F4D79"/><path d="M76.4 212.228v.151a7.696 7.696 0 014.188 1.244 7.613 7.613 0 012.82 3.316l1.214-.041a8.759 8.759 0 00-2.407-3.461 8.846 8.846 0 00-3.754-1.947c-.673.282-1.361.528-2.06.738z" fill="#3F4D79"/><path d="M97.598 136.616s11.81 16.707 1.444 65.465c0 0-5.432 1.81-14.09.487 0 0-11.722-47.409-13.317-67.952a305.324 305.324 0 00-8.924-.136s12.387 25.145.363 68.49c0 0-8.857.628-13.514-.031 0 0-14.295-70.87-13.37-77.46 1.105-7.933 26.266-18.061 42.093-19.489l35.424-.218s9.08 9.097 5.29 22.004c-2.843 9.683-21.399 8.84-21.399 8.84z" fill="#D8BAA3"/><path d="M116.288 109.116c.115.345.291.667.52.95 0 0-31.041 10.494-44.104-2.708 14.193 4.934 37.484 2.517 43.584 1.758z" fill="#F0E1D4"/><path d="M103.186 29.032c1.613 1.316 21.49 12.757 24.338 14.33 2.848 1.572-13.286 36.083-12.783 48.397.372 9.139 2.898 17.157 2.898 17.157s-28.477 4.164-44.935-1.558c0 0 3.418-5.036 1.52-15.465-1.54-8.461-4.672-31.95-3.799-40.988.317-3.27.887-11.379 5.07-13.328 6.331-2.952 10.699-5.523 10.699-5.523l16.992-3.022z" fill="#FFB000"/><path fill-rule="evenodd" clip-rule="evenodd" d="M72.045 75.144c.667 6.644 1.81 12.933 2.58 17.165l-.806.144c-.77-4.23-1.917-10.548-2.588-17.229-.67-6.674-.866-13.744.282-19.473l.802.159c-1.124 5.609-.937 12.583-.27 19.234z" fill="#fff"/><path d="M127.524 43.456c8.483 7.418 9.291 38.073 3.926 43.66C120.942 98.055 89.223 97.93 89.223 97.93s-3.319-.476-1.42-8.145c0 0 23.516-11.793 25.794-11.723 0 0-.379-21.878 4.431-28.415 4.811-6.537 8.498-7.065 9.496-6.193z" fill="#FFB000"/><path fill-rule="evenodd" clip-rule="evenodd" d="M115.986 95.235a.406.406 0 01-.296.494c-6.26 1.58-12.88 2.273-17.929 2.571-2.525.15-4.66.2-6.165.214a90.777 90.777 0 01-2.222-.007l-.12-.003h-.031l-.011-.001.011-.406.011-.406h.01l.029.001.117.003.46.006a89.9 89.9 0 001.738 0c1.494-.013 3.615-.063 6.125-.211 5.022-.297 11.585-.985 17.776-2.548a.41.41 0 01.497.293zm-27.172 2.85a.408.408 0 01.42-.394l-.01.406-.012.406a.407.407 0 01-.398-.417zm25.192-20.173l-.409-.014.409.014a.408.408 0 01-.27.369c-6.628 2.37-13.061 5.294-17.84 7.627a208.21 208.21 0 00-5.74 2.91 147.131 147.131 0 00-2.01 1.08l-.107.059-.027.014-.008.005-.2-.354-.2-.354.036-.02a39.907 39.907 0 01.53-.29c.37-.201.91-.493 1.602-.858a208.81 208.81 0 015.763-2.921c4.732-2.31 11.089-5.202 17.663-7.57l.017-.456a323.244 323.244 0 01.425-8.278c.312-4.791.802-10.26 1.515-12.77l.787.22c-.685 2.41-1.171 7.782-1.485 12.603a313.322 313.322 0 00-.425 8.256l-.02.54a9.08 9.08 0 01-.003.096l-.001.044-.002.045v.002z" fill="#fff"/><path d="M88.289 89.67s-7.1-2.663-9.394-1.324c-2.51 1.462-7.16 6.135-7.431 6.921-.272.787-.188 1.607-.14 2.452.05.844 8.556.83 9.563.771 1.008-.058 6.532.535 7.464-.47 3.425-3.687-.062-8.35-.062-8.35z" fill="#C36F0B"/><path d="M101.761 17.994s-1.9 4.711 1.425 11.046c0 0-4.56 6.448-11.778 6.407-9.323-.05-5.222-3.393-5.222-3.393s1.424-2.265 1.144-6.32l14.431-7.74z" fill="#B65A18"/><path d="M100.304 20.793c-.19.88-.218 4.682-1.8 5.75-2.048 1.385-8.074 3.555-12.631 1.921-.584-.21-3.483-8.676-3.293-11.568.19-2.891.254-13.138 6.707-15.716 6.453-2.578 14.178-1.137 16.331 6.41.88 3.087.154 5.849-1.012 8.043 0 0 .745 1.329-.45 2.653-1.301 1.444-3.852 2.506-3.852 2.506z" fill="#C36F0B"/><path d="M104.609 15.632c-1.518-1.704-3.609 1.325-3.609 1.325l-.029.163a3.935 3.935 0 01-1.417-1.288c-.873-1.313-.945-2.773-.829-8.025 0 0-8.475.889-14.62-.578.944-2.62 2.52-4.99 5.185-6.055 6.456-2.578 14.18-1.137 16.331 6.412.88 3.085.154 5.851-1.012 8.046z" fill="#722D54"/><path d="M93.373 32.955c1.18-.544 6.077-2.315 9.536-5.794 0 0 3.453 3.325 3.484 3.916.031.591-7.313 5.536-9.38 5.746l-3.64-3.868zm-7.179-2.671c.327.587 1.154 1.97 3.518 2.6 0 0-1.73 2.806-3.335 3.687 0 0-2.617-1.137-3.329-2.619-.471-.976 3.146-3.668 3.146-3.668z" fill="#F0E1D4"/><path d="M89.712 32.884l1.698 2.555 1.963-2.484 1.8 1.91s-2.51 1.188-7.198.337l1.737-2.318z" fill="#D8BAA3"/><path d="M0 98.117h89.112c.868 0 1.7.342 2.313.951.614.61.958 1.436.958 2.298v.861c0 .861-.344 1.688-.958 2.297a3.284 3.284 0 01-2.313.951H.164" fill="#fff"/><path fill-rule="evenodd" clip-rule="evenodd" d="M89.112 98.604H0v-.975h89.112c.998 0 1.955.394 2.66 1.095a3.724 3.724 0 011.102 2.642v.861a3.72 3.72 0 01-1.102 2.641 3.775 3.775 0 01-2.66 1.095H.164v-.975h88.948a2.79 2.79 0 001.966-.809 2.75 2.75 0 00.815-1.952v-.861a2.75 2.75 0 00-.815-1.953 2.79 2.79 0 00-1.966-.809z" fill="#D8BAA3"/><path d="M70.33 219V105.592h7.117v113.405" fill="#fff"/><path d="M70.33 107.847v-2.255h7.117v7.838l-7.117-5.583z" fill="#F0E1D4"/><path fill-rule="evenodd" clip-rule="evenodd" d="M69.84 105.105h8.098v113.728h-.981V106.08H70.82v112.756h-.981V105.105z" fill="#D8BAA3"/><path d="M73.253 98.116H37.622a2.972 2.972 0 01-1.577-.452 2.944 2.944 0 01-1.09-1.218L23.436 72.549a1.495 1.495 0 01.635-1.968 1.52 1.52 0 01.732-.186h35.632a2.965 2.965 0 012.667 1.67L74.62 95.967a1.496 1.496 0 01-.637 1.964 1.522 1.522 0 01-.73.186z" fill="#fff"/><path fill-rule="evenodd" clip-rule="evenodd" d="M24.804 70.8a1.111 1.111 0 00-.936.513 1.093 1.093 0 00-.062 1.06L35.323 96.27c.207.431.533.795.94 1.05.407.255.878.39 1.359.39h35.631a1.112 1.112 0 00.935-.512 1.092 1.092 0 00.064-1.058L62.735 72.239a2.538 2.538 0 00-.94-1.05 2.562 2.562 0 00-1.36-.389h-35.63zm0-.812a1.935 1.935 0 00-1.628.891 1.902 1.902 0 00-.108 1.844l11.517 23.899a3.35 3.35 0 001.242 1.386 3.39 3.39 0 001.795.515h35.631a1.935 1.935 0 001.627-.89 1.902 1.902 0 00.11-1.842L63.473 71.89a3.352 3.352 0 00-1.242-1.386 3.383 3.383 0 00-1.795-.515H24.805z" fill="#3F4D90"/><path d="M73.196 97.758H38.139a2.88 2.88 0 01-1.467-.464 2.852 2.852 0 01-1.013-1.15l-5.07-10.535.076-.133h38.44l.064.131 4.85 10.072c.734 1.176.255 2.079-.823 2.079z" fill="#F0E1D4"/><path d="M69.519 85.423L63 96.726c-.49.852-1.529 1.394-2.669 1.394H24.7c-1.116 0-1.849-.965-1.368-1.8l6.288-10.897h39.899z" fill="#fff"/><path fill-rule="evenodd" clip-rule="evenodd" d="M29.265 85.221a.41.41 0 01.355-.204h39.899a.41.41 0 01.354.203.402.402 0 010 .405l-6.518 11.303c-.576 1-1.764 1.598-3.024 1.598H24.7c-.676 0-1.264-.293-1.61-.748-.35-.463-.442-1.087-.113-1.66l6.288-10.897zm.592.608l-6.17 10.693m6.17-10.693h38.956-38.956z" fill="#3F4D90"/></svg>