<svg width="283" height="414" fill="none" xmlns="http://www.w3.org/2000/svg"><g clip-path="url(#clip0)"><path d="M52.897 258.933H177.22v7.579H52.897v-7.579z" fill="#fff"/><path fill-rule="evenodd" clip-rule="evenodd" d="M177.985 258.933a.767.767 0 00-.766-.768H52.897a.767.767 0 00-.766.768v7.579c0 .424.343.767.766.767H177.22a.766.766 0 00.766-.767v-7.579zm-1.532.767v6.044H53.663V259.7h122.79z" fill="#3F4D90"/><path d="M36.585 242.66c0-69.623-34.516-107.935-34.516-107.935H104.67s34.517 38.312 34.517 107.935H36.585z" fill="#fff"/><path fill-rule="evenodd" clip-rule="evenodd" d="M105.079 133.804H-.001l1.387 1.538.004.005.016.018.07.079.28.325c.247.291.611.729 1.077 1.313a96.177 96.177 0 013.873 5.242c3.21 4.643 7.499 11.564 11.79 20.654 8.58 18.177 17.17 45.027 17.17 79.682v.921h104.44v-.921c0-34.968-8.669-62.086-17.346-80.47-4.339-9.191-8.68-16.199-11.941-20.915a97.736 97.736 0 00-3.947-5.343 58.02 58.02 0 00-1.411-1.702l-.079-.089-.021-.024-.006-.006-.001-.002c-.001-.001-.001-.001-.684.616l.683-.617-.274-.304zm-.827 1.842l.105.123c.247.291.612.729 1.078 1.313a96.377 96.377 0 013.872 5.242c3.211 4.643 7.499 11.564 11.79 20.654 8.504 18.016 17.017 44.551 17.168 78.761H37.503c-.151-34.523-8.743-61.326-17.345-79.549-4.338-9.191-8.68-16.199-11.94-20.915a97.984 97.984 0 00-3.948-5.343l-.229-.286h100.211z" fill="#D8BAA3"/><path d="M176.21 242.66H36.585c0 4.317 1.712 8.456 4.759 11.509a16.235 16.235 0 0011.489 4.767h139.625a16.29 16.29 0 00-4.759-11.509 16.235 16.235 0 00-11.489-4.767z" fill="#fff"/><path fill-rule="evenodd" clip-rule="evenodd" d="M176.21 243.581c4.066 0 7.964 1.618 10.839 4.497a15.368 15.368 0 014.462 9.936H52.833a15.313 15.313 0 01-10.839-4.497 15.366 15.366 0 01-4.462-9.936H176.21zm12.14 3.195a17.156 17.156 0 00-12.14-5.037H35.665v.921a17.21 17.21 0 005.029 12.16 17.153 17.153 0 0012.139 5.037h140.545v-.921c0-4.561-1.809-8.935-5.028-12.16z" fill="#D8BAA3"/><path d="M54.181 410.883a1.748 1.748 0 001.72-1.422L83.22 266.515H67.56L52.44 408.942a1.755 1.755 0 001.741 1.941z" fill="#fff"/><path fill-rule="evenodd" clip-rule="evenodd" d="M83.81 266.026a.764.764 0 00-.59-.279H67.56a.767.767 0 00-.762.687L51.678 408.86a2.52 2.52 0 002.503 2.79 2.521 2.521 0 002.473-2.044v-.001l27.318-142.946a.767.767 0 00-.162-.633zM54.181 410.883v.767-.767zm.968-1.566v-.001l.752.145-.752-.144zm13.1-142.034h-.689v-.768l.762.081-.073.687zm14.043 0h.927v-.768l-.752-.145-.175.913z" fill="#3F4D90"/><path d="M175.677 410.883a1.752 1.752 0 01-1.72-1.422l-27.318-142.946h15.656l15.123 142.427a1.75 1.75 0 01-.438 1.359 1.754 1.754 0 01-1.303.582z" fill="#fff"/><path fill-rule="evenodd" clip-rule="evenodd" d="M163.057 266.434a.766.766 0 00-.762-.687h-15.656a.765.765 0 00-.753.912l27.318 142.947a2.52 2.52 0 003.498 1.826 2.52 2.52 0 001.478-2.572l-15.123-142.426zm12.62 144.449v.767h-.001l.001-.767zm-.968-1.567l.001.001-.753.144.752-.145zm-27.143-142.033l-.175-.913-.752.145v.768h.927zm14.04 0h.689v-.768l-.762.081.073.687z" fill="#3F4D90"/><path d="M206.115 178.301c-41.999 10.134-63.042-1.284-66.856-8.249 0 0 2.1-13.075.549-33.346-1.551-20.271 1.711-65.67 1.711-65.67 9.255 3.564 22.799 9.27 26.83 21.154 4.032 11.885 4.666 44.445 4.905 58.365 0 0 21.549 7.404 31.203 12.459a5.833 5.833 0 013.065 6.05l-1.407 9.237z" fill="#FFB000"/><path fill-rule="evenodd" clip-rule="evenodd" d="M164.382 149.842l.282.713.282.714h.001l.025-.009a7.429 7.429 0 01.657-.19 15.201 15.201 0 012.235-.352c2.006-.179 5.053-.141 9.137.762l.33-1.499c-4.234-.937-7.438-.986-9.603-.793a16.786 16.786 0 00-2.461.39c-.28.068-.493.131-.641.178l-.172.058a.669.669 0 01-.049.018l-.015.006-.005.002-.002.001-.001.001z" fill="#fff"/><path d="M203.758 170.881a7.694 7.694 0 003.096 7.481l.481.341c3.29 2.275 9.599 4.115 11.095 4.014 1.496-.102 10.693-1.806 10.693-1.806s.328-1.256-1.018-2.911-11.205-.341-7.6-3.974c1.604-1.615 9.59 2.03 13.063 6.071 3.474 4.041 5.123.839 5.123.839s-3.326-7.487-4.513-8.842c-1.186-1.354-9.12-7.106-14.482-7.984-2.557-.417-6.15-.181-9.718.439a7.66 7.66 0 00-6.22 6.332zm-22.975 226.742c-3.39-.768-8.078-2.414-10.69-5.881l-1.483-8.018s9.748 1.112 18.654.258l-1.726 10.493a3.938 3.938 0 01-.589 1.47 3.936 3.936 0 01-4.166 1.678z" fill="#FFCFC9"/><path d="M220.459 407.44c-.052.596-1.125 3.44-1.125 3.44l-54.835-1.861v-3.071c0-5.141 1.744-9.578 2.667-11.507 1.423-2.975 3.397-2.232 3.397-2.232s5.362 5.251 11.376 5.251c1.159 0 1.99-.614 2.585-1.511a7.166 7.166 0 00.821-1.787c.25-.822.427-1.665.528-2.518a2.255 2.255 0 013.271-1.729c2.36 1.228 5.227 3.937 12.903 8.089.383.208.782.42 1.193.638 9.335 4.92 17.115 3.09 17.219 8.798z" fill="#FFB000"/><path d="M214.288 413.597c1.588 0 3.526-.718 4.565-1.885a6.546 6.546 0 001.425-5.574h-.043a5.167 5.167 0 01-1.732 2.978 5.15 5.15 0 01-3.216 1.223l-47.539-1.394c-1.474 0-2.737-1.023-3.252-2.457v3.2c0 2.165 1.566 3.919 3.501 3.919l46.291-.01z" fill="#3F4D79"/><path d="M204.11 399.091a15.128 15.128 0 00-7.509 3.72 15.176 15.176 0 00-4.383 7.151l-2.189-.077a17.325 17.325 0 014.062-7.592 17.28 17.28 0 017.211-4.691l.742.402c.383.209.781.421 1.192.639.29.157.582.307.874.448z" fill="#3F4D79"/><path d="M209.534 401.197v.285a14.336 14.336 0 00-7.848 2.352 14.367 14.367 0 00-5.286 6.268l-2.274-.076a16.537 16.537 0 0111.545-10.223c1.262.532 2.552.997 3.863 1.394z" fill="#3F4D79"/><path d="M114.16 397.623c-3.39-.768-7.768-2.414-10.38-5.881l-.874-8.684s9.145.801 18.051-.056l-2.045 11.473a3.953 3.953 0 01-3.171 3.182 3.953 3.953 0 01-1.581-.034z" fill="#FFCFC9"/><path d="M150.734 407.44c-.052.596-1.125 3.44-1.125 3.44l-51.736-1.861v-3.071c0-5.141 1.744-9.578 2.664-11.507 1.425-2.975 3.397-2.853 3.397-2.853s5.365 5.872 11.379 5.872c1.159 0 1.99-.614 2.582-1.511a7.08 7.08 0 00.821-1.787 14.25 14.25 0 00.527-2.518 2.27 2.27 0 011.188-1.718 2.249 2.249 0 012.087-.011c2.36 1.228 2.127 3.937 9.81 8.088.383.209.781.421 1.192.639 9.332 4.92 17.113 3.089 17.214 8.798z" fill="#FFC033"/><path d="M144.566 413.597c1.588 0 3.525-.718 4.565-1.885a6.546 6.546 0 001.425-5.574h-.043a5.167 5.167 0 01-1.732 2.978 5.15 5.15 0 01-3.216 1.223l-44.452-1.394c-1.474 0-2.734-1.023-3.25-2.457v3.2c0 2.165 1.567 3.919 3.502 3.919l43.201-.01z" fill="#3F4D79"/><path d="M134.387 399.09a15.126 15.126 0 00-7.508 3.721 15.157 15.157 0 00-4.383 7.15l-2.189-.076a17.318 17.318 0 014.061-7.592 17.282 17.282 0 017.211-4.692l.742.402c.383.209.782.421 1.193.639.29.158.581.307.873.448z" fill="#3F4D79"/><path d="M139.811 401.197v.286a14.33 14.33 0 00-7.848 2.351 14.367 14.367 0 00-5.285 6.269l-2.275-.077a16.555 16.555 0 014.51-6.542 16.521 16.521 0 017.035-3.681 39.01 39.01 0 003.863 1.394z" fill="#3F4D79"/><path d="M100.083 258.26s-22.134 31.584-2.707 123.757c0 0 10.182 3.421 26.408.921 0 0 21.969-89.624 24.958-128.458 5.389-.16 10.972-.258 16.726-.258 0 0-23.216 47.534-.681 129.474 0 0 16.601 1.189 25.329-.058 0 0 26.79-133.973 25.058-146.432-2.072-14.995-49.228-34.142-78.891-36.841l-66.39-.411s-17.018 17.197-9.914 41.595c5.328 18.305 40.104 16.711 40.104 16.711z" fill="#D8BAA3"/><path d="M65.056 206.273a5.794 5.794 0 01-.975 1.797s58.177 19.838 82.659-5.119c-26.6 9.326-70.252 4.756-81.684 3.322z" fill="#F0E1D4"/><path d="M89.611 54.882C86.59 57.37 49.335 78.998 43.997 81.971c-5.337 2.972 24.9 68.213 23.959 91.49-.7 17.277-5.433 32.435-5.433 32.435s53.37 7.87 84.217-2.945c0 0-6.407-9.52-2.848-29.235 2.885-15.996 8.755-60.401 7.118-77.484-.594-6.182-1.661-21.512-9.503-25.197-11.864-5.58-20.05-10.44-20.05-10.44l-31.846-5.713z" fill="#FFB000"/><path fill-rule="evenodd" clip-rule="evenodd" d="M147.974 142.052c-1.25 12.561-3.391 24.449-4.833 32.449l1.508.273c1.442-7.997 3.593-19.941 4.85-32.57 1.255-12.617 1.625-25.982-.527-36.811l-1.503.299c2.106 10.603 1.755 23.786.505 36.36z" fill="#fff"/><path d="M43.997 82.148C28.1 96.174 26.584 154.125 36.64 164.685c19.694 20.68 79.14 20.446 79.14 20.446s6.221-.899 2.661-15.397c0 0-44.071-22.295-48.342-22.163 0 0 .711-41.358-8.305-53.715C52.778 81.498 45.868 80.5 43.998 82.149z" fill="#FFB000"/><path fill-rule="evenodd" clip-rule="evenodd" d="M65.622 180.034a.767.767 0 00.554.933c11.733 2.988 24.14 4.297 33.602 4.861 4.733.282 8.735.378 11.556.403a167.869 167.869 0 004.162-.013l.227-.005.058-.002h.02l-.021-.768-.021-.767-.018.001-.055.001-.22.005c-.194.003-.483.008-.86.012-.754.008-1.859.013-3.259.001a229.84 229.84 0 01-11.478-.401c-9.413-.561-21.713-1.862-33.316-4.816a.766.766 0 00-.931.555zm50.924 5.388a.767.767 0 00-.787-.746l.021.767.021.768a.767.767 0 00.745-.789zm-47.214-38.137l.766-.025-.766.025a.77.77 0 00.507.698c12.42 4.481 24.478 10.008 33.435 14.418a389.155 389.155 0 0110.757 5.501 252.66 252.66 0 013.769 2.042l.199.111.05.028.016.009.376-.669.374-.67-.069-.039-.203-.113c-.179-.099-.444-.246-.79-.435-.692-.38-1.707-.931-3.003-1.62a390.484 390.484 0 00-10.799-5.523c-8.869-4.366-20.784-9.833-33.105-14.308l-.032-.864a603.44 603.44 0 00-.797-15.648c-.585-9.058-1.501-19.397-2.838-24.141l-1.476.417c1.284 4.554 2.196 14.71 2.785 23.823a600.975 600.975 0 01.838 16.81l.003.083.003.085v.005z" fill="#fff"/><path d="M117.53 169.512s13.305-5.034 17.606-2.503c4.706 2.764 13.419 11.598 13.928 13.085.508 1.486.352 3.037.26 4.634-.092 1.597-16.033 1.569-17.922 1.458-1.888-.11-12.241 1.011-13.988-.89-6.42-6.968.116-15.784.116-15.784z" fill="#FFCFC9"/><path d="M92.282 34.016s3.56 8.906-2.67 20.882c0 0 8.544 12.188 22.072 12.112 17.475-.096 9.789-6.416 9.789-6.416s-2.67-4.28-2.146-11.945L92.282 34.016z" fill="#FAB6AD"/><path d="M95.013 39.307c.356 1.664.408 8.85 3.372 10.871 3.838 2.616 15.132 6.72 23.673 3.63 1.095-.396 6.527-16.402 6.171-21.868-.355-5.466-.475-24.837-12.569-29.71C103.566-2.645 89.087.08 85.053 14.35c-1.65 5.835-.288 11.055 1.897 15.204 0 0-1.398 2.512.843 5.015 2.438 2.73 7.22 4.738 7.22 4.738z" fill="#FFCFC9"/><path d="M86.945 29.55c2.845-3.22 6.762 2.507 6.762 2.507l.056.307a7.403 7.403 0 002.654-2.435c1.638-2.482 1.772-5.242 1.555-15.17 0 0 15.883 1.68 27.401-1.094-1.769-4.953-4.725-9.434-9.719-11.445-12.1-4.873-26.576-2.15-30.607 12.12-1.65 5.832-.288 11.062 1.898 15.21z" fill="#722D54"/><path d="M108.002 62.298c-2.213-1.028-11.388-4.376-17.872-10.953 0 0-6.472 6.286-6.53 7.404-.058 1.117 13.706 10.465 17.581 10.861l6.821-7.312zm13.456-5.048c-.614 1.109-2.165 3.725-6.595 4.913 0 0 3.244 5.307 6.251 6.971 0 0 4.905-2.15 6.239-4.95.883-1.846-5.895-6.934-5.895-6.934z" fill="#F0E1D4"/><path d="M114.863 62.164l-3.182 4.83-3.679-4.695-3.372 3.611s4.703 2.245 13.489.636l-3.256-4.382z" fill="#D8BAA3"/><path d="M282.999 185.481H115.988a6.125 6.125 0 00-4.335 1.799 6.147 6.147 0 00-1.796 4.343v1.627c0 1.629.646 3.191 1.796 4.343a6.125 6.125 0 004.335 1.799h166.704" fill="#fff"/><path fill-rule="evenodd" clip-rule="evenodd" d="M115.988 186.402h167.011v-1.842H115.988c-1.87 0-3.663.744-4.986 2.068a7.071 7.071 0 00-2.065 4.995v1.627c0 1.873.743 3.67 2.065 4.994a7.045 7.045 0 004.986 2.069h166.704v-1.842H115.988a5.207 5.207 0 01-3.685-1.529 5.227 5.227 0 01-1.526-3.692v-1.627c0-1.385.549-2.713 1.526-3.692a5.207 5.207 0 013.685-1.529z" fill="#D8BAA3"/><path d="M151.188 414V199.613h-13.339v214.381" fill="#fff"/><path d="M151.188 203.875v-4.262h-13.339v14.817l13.339-10.555z" fill="#F0E1D4"/><path fill-rule="evenodd" clip-rule="evenodd" d="M152.107 198.692h-15.178v214.992h1.84v-213.15h11.499V413.69h1.839V198.692z" fill="#D8BAA3"/><path d="M145.71 185.481h66.779a5.538 5.538 0 005-3.157l21.586-45.179a2.848 2.848 0 00-2.563-4.072h-66.78a5.543 5.543 0 00-5 3.157l-21.585 45.185a2.852 2.852 0 00.163 2.74 2.833 2.833 0 002.4 1.326z" fill="#fff"/><path fill-rule="evenodd" clip-rule="evenodd" d="M236.513 133.841a2.068 2.068 0 011.754.969 2.073 2.073 0 01.116 2.004l-21.585 45.179c-.389.814-1 1.502-1.762 1.983a4.766 4.766 0 01-2.547.737H145.71a2.069 2.069 0 01-1.752-.967 2.083 2.083 0 01-.119-2v-.001l21.585-45.183a4.781 4.781 0 014.309-2.721h66.78zm-.001-1.535a3.606 3.606 0 013.602 3.402 3.624 3.624 0 01-.348 1.769l-21.585 45.178a6.32 6.32 0 01-2.328 2.62 6.3 6.3 0 01-3.364.974H145.71a3.602 3.602 0 01-3.048-1.684 3.61 3.61 0 01-.207-3.48l21.586-45.186a6.32 6.32 0 012.328-2.62 6.298 6.298 0 013.364-.973h66.779z" fill="#3F4D90"/><path d="M145.818 184.802h65.703a5.363 5.363 0 004.647-3.052l9.504-19.915-.144-.252h-72.043l-.12.249-9.089 19.04c-1.377 2.223-.479 3.93 1.542 3.93z" fill="#F0E1D4"/><path d="M152.709 161.485l12.217 21.367c.919 1.609 2.866 2.635 5.003 2.635h66.779c2.091 0 3.464-1.824 2.563-3.403l-11.785-20.599h-74.777z" fill="#fff"/><path fill-rule="evenodd" clip-rule="evenodd" d="M228.151 161.103a.767.767 0 00-.665-.386h-74.777a.766.766 0 00-.665 1.15l12.216 21.367h.001c1.079 1.889 3.307 3.021 5.668 3.021h66.779c1.267 0 2.367-.555 3.015-1.415.658-.874.831-2.055.213-3.137l-11.785-20.6zm-1.109 1.15l11.564 20.213m-11.564-20.213h-73.011 73.011z" fill="#3F4D90"/></g><defs><clipPath id="clip0"><path fill="#fff" d="M0 0h283v414H0z"/></clipPath></defs></svg>