<svg width="59" height="59" fill="none" xmlns="http://www.w3.org/2000/svg"><path d="M4.61 51.625h43.54l1.915 3.977a2.767 2.767 0 004.974-2.42l-.75-1.557h.102a2.769 2.769 0 002.765-2.766V4.61a2.769 2.769 0 00-2.765-2.765H4.609A2.769 2.769 0 001.844 4.61v44.25a2.769 2.769 0 002.765 2.766zm48.813 3.065a.921.921 0 01-1.699.108l-3.943-8.194 1.657-.807 3.941 8.189a.914.914 0 01.044.704zm-7.241-11.408l1.657-.808.8 1.662-1.658.808-.8-1.662zm8.209 6.5h-.99l-2.625-5.455A.918.918 0 0050.62 44l-1.521-3.16a.923.923 0 00-1.235-.43l-.829.404-.745-1.53a12.902 12.902 0 10-13.102-22.149v-3.308a.921.921 0 00-.922-.922H6.453a.922.922 0 00-.922.922V24.89a.922.922 0 00.922.922h21.345A12.908 12.908 0 0044.58 39.986l.798 1.637-.829.403a.922.922 0 00-.426 1.228l3.14 6.527H4.61a.922.922 0 01-.921-.922V11.062h51.624V48.86a.923.923 0 01-.921.922zM28.213 23.968H7.375v-1.844h15.672a.921.921 0 100-1.844H7.375v-1.843h6.453a.922.922 0 100-1.844H7.375V14.75h23.969v3.949a12.918 12.918 0 00-3.13 5.27zm12.35-7.31A11.062 11.062 0 1129.5 27.72a11.075 11.075 0 0111.063-11.06zM4.608 3.688H54.39a.923.923 0 01.922.921v4.61H3.687v-4.61a.923.923 0 01.922-.921z" fill="#B961FF"/><path d="M13.828 7.375a.922.922 0 100-1.844.922.922 0 000 1.844zm-3.688 0a.922.922 0 100-1.844.922.922 0 000 1.844zm-3.687 0a.922.922 0 100-1.844.922.922 0 000 1.844zm0 22.125h7.375a.922.922 0 100-1.844H6.453a.922.922 0 000 1.844zm-.922 2.766a.922.922 0 00.922.922h16.594a.921.921 0 100-1.844H6.453a.922.922 0 00-.922.922zm.922 4.609h7.375a.922.922 0 100-1.844H6.453a.922.922 0 000 1.844zm-.922 2.765a.922.922 0 00.922.922h21.203a.922.922 0 100-1.843H6.453a.922.922 0 00-.922.922zm.922 4.61h7.375a.922.922 0 100-1.844H6.453a.922.922 0 000 1.844zm-.922 2.766a.922.922 0 00.922.922h29.5a.922.922 0 100-1.844h-29.5a.922.922 0 00-.922.922zM40.563 29.5a.922.922 0 00.921-.922v-1.844a.922.922 0 00-1.843 0v1.844a.922.922 0 00.922.922zm-3.688 0a.922.922 0 00.922-.922v-1.844a.922.922 0 00-1.844 0v1.844a.922.922 0 00.922.922zm7.375 0a.922.922 0 00.922-.922v-3.687a.922.922 0 00-1.844 0v3.687a.922.922 0 00.922.922z" fill="#B961FF"/><path d="M40.56 36.943a9.218 9.218 0 10-9.22-9.219 9.23 9.23 0 009.22 9.219zm0-16.594a7.376 7.376 0 11-7.375 7.375 7.383 7.383 0 017.375-7.375z" fill="#B961FF"/></svg>