<svg width="53" height="53" fill="none" xmlns="http://www.w3.org/2000/svg"><path d="M14.906 3.313H39.75v1.656H14.906V3.312zm-11.593 0h1.656v1.656H3.312V3.312zm3.312 0h1.656v1.656H6.625V3.312zm3.313 0h1.656v1.656H9.938V3.312zm11.836 20.945l3.313-3.313 1.17 1.171-3.312 3.313-1.17-1.171zm4.969 0l3.312-3.312 1.171 1.17-3.312 3.313-1.171-1.17zM4.969 13.25h15.734v1.656H4.97V13.25zm0 4.969h11.593v1.656H4.97v-1.656zm0 4.969H15.32v1.656H4.97v-1.657zm0 4.968H17.39v1.657H4.969v-1.657z" fill="#B961FF"/><path d="M48.031 9.938v-4.97h-4.968V0H0v34.781h4.969v4.969h4.968v4.969H22.36V53h8.282v-8.281H53V9.937h-4.969zm-4.968-3.313h3.312v4.969h-3.313V6.625zM1.656 1.656h39.75v4.969H1.656V1.656zm0 31.469V8.281h39.75v24.844h-8.913a11.594 11.594 0 10-11.986 0H1.657zm23.314-.118a9.937 9.937 0 113.06 0l-.702.109v3.322h-1.656v-3.322l-.702-.109zm-2.61 10.056H11.593V39.75h10.765v3.313zm0-4.97H6.624v-3.312h17.39v1.657H22.36v1.656zm6.624 13.25h-4.968v-13.25h4.968v13.25zm0-14.906v-1.656h14.078V13.25h3.313v24.844H30.641v-1.657h-1.657zm22.36 6.626H30.64V39.75h17.39V18.219h3.313v24.843zm0-26.5H48.03v-4.97h3.313v4.97z" fill="#B961FF"/><path d="M34.781 23.188a8.281 8.281 0 10-16.562 0 8.281 8.281 0 008.281 8.28 8.29 8.29 0 008.281-8.28zm-14.906 0a6.625 6.625 0 116.625 6.625 6.633 6.633 0 01-6.625-6.625z" fill="#B961FF"/></svg>