<svg width="61" height="62" fill="none" xmlns="http://www.w3.org/2000/svg"><path d="M47.766 3.457H25.422a3.047 3.047 0 100 6.093h22.344a3.047 3.047 0 100-6.093zm0 4.062H25.422a1.016 1.016 0 110-2.031h22.344a1.016 1.016 0 010 2.031zM6.125 8.535a2.031 2.031 0 100-4.063 2.031 2.031 0 000 4.063zm6.094 0a2.031 2.031 0 100-4.063 2.031 2.031 0 000 4.063zm6.094 0a2.031 2.031 0 100-4.063 2.031 2.031 0 000 4.063z" fill="#B961FF"/><path d="M60.288 25.458a5.047 5.047 0 00-5.413-3.72V3.457A3.047 3.047 0 0051.828.41H3.078A3.047 3.047 0 00.031 3.457v48.75a3.047 3.047 0 003.047 3.046h32.518l-.026 5.836 8.844-5.157.389-.679h7.025a3.047 3.047 0 003.047-3.046V37.808l4.906-8.497a5.048 5.048 0 00.507-3.853zM2.063 3.457A1.016 1.016 0 013.077 2.44h48.75a1.016 1.016 0 011.016 1.016v7.109H2.062v-7.11zm1.015 49.765a1.016 1.016 0 01-1.015-1.015v-39.61h50.78v9.8a5.028 5.028 0 00-1.858 1.836l-15.37 26.62-.01 2.37H3.078zm41.156-1.047l-.49-3.213 8.964-15.524 1.759 1.015-10.233 17.722zm-4.593 1.86a6.07 6.07 0 00-2.004-.716l.006-1.5 4.232-1.65.684 4.492-1.296.756a6.08 6.08 0 00-1.622-1.382zm9.547-22.628l1.759 1.015-8.961 15.519-3.028 1.183 10.23-17.718zM37.627 55.389a4.015 4.015 0 011.851 1.069l-1.86 1.085.009-2.154zm15.217-3.182a1.016 1.016 0 01-1.016 1.015h-5.852l6.868-11.896v10.88zM56.5 30.934l-1.016 1.76-5.28-3.048 1.015-1.759 5.281 3.047zm-4.266-4.806l.508-.88a3.048 3.048 0 115.281 3.048l-.507.88-5.282-3.048z" fill="#B961FF"/><path d="M7.14 24.785a1.016 1.016 0 000 2.03h3.048a2.031 2.031 0 002.03-2.03v-2.032a2.031 2.031 0 00-2.03-2.03H8.155V18.69h3.047a1.016 1.016 0 100-2.031H8.156a2.031 2.031 0 00-2.031 2.03v2.032a2.031 2.031 0 002.031 2.031h2.031v2.032H7.142zm8.126 2.031h3.046a1.016 1.016 0 100-2.031h-3.046v-2.032h2.03a1.015 1.015 0 100-2.03h-2.03V18.69h3.046a1.016 1.016 0 100-2.031h-3.046a2.031 2.031 0 00-2.032 2.03v6.095a2.031 2.031 0 002.032 2.03zm7.109 0h2.031a2.032 2.032 0 002.032-2.031V18.69a2.031 2.031 0 00-2.032-2.031h-2.031a2.031 2.031 0 00-2.031 2.03v6.095a2.031 2.031 0 002.031 2.03zm0-8.125h2.031v6.094h-2.031V18.69zm9.141-.001h16.25a1.016 1.016 0 100-2.03h-16.25a1.016 1.016 0 000 2.03zm0 4.063h16.25a1.016 1.016 0 100-2.03h-16.25a1.016 1.016 0 000 2.03zM6.125 32.91h36.563a1.016 1.016 0 100-2.032H6.124a1.016 1.016 0 100 2.032zm0 4.062h34.531a1.016 1.016 0 100-2.031H6.125a1.016 1.016 0 100 2.031zm0 4.063h32.5a1.016 1.016 0 100-2.032h-32.5a1.016 1.016 0 100 2.032zm0 4.062h30.469a1.016 1.016 0 000-2.031H6.125a1.016 1.016 0 100 2.031zm27.422 2.031H6.125a1.016 1.016 0 100 2.032h27.422a1.015 1.015 0 100-2.032zm-2.031-20.312h14.218a1.015 1.015 0 100-2.031H31.516a1.016 1.016 0 000 2.03z" fill="#B961FF"/></svg>