<?xml version="1.0" encoding="utf-8"?><svg xmlns="http://www.w3.org/2000/svg" xmlns:xlink="http://www.w3.org/1999/xlink"><symbol viewBox="0 0 60 60" id="SEOcoppywrite" xmlns="http://www.w3.org/2000/svg"><path d="M45.938 4.688H25.311a2.812 2.812 0 100 5.625h20.625a2.812 2.812 0 100-5.626zm0 3.75H25.311a.937.937 0 010-1.876h20.625a.937.937 0 010 1.875zM7.5 9.375a1.875 1.875 0 100-3.75 1.875 1.875 0 000 3.75zm5.625 0a1.875 1.875 0 100-3.75 1.875 1.875 0 000 3.75zm5.625 0a1.875 1.875 0 100-3.75 1.875 1.875 0 000 3.75z"/><path d="M57.497 24.997a4.659 4.659 0 00-4.997-3.434V4.688a2.812 2.812 0 00-2.813-2.813h-45a2.813 2.813 0 00-2.812 2.813v45A2.812 2.812 0 004.688 52.5h30.016l-.024 5.387 8.164-4.76.359-.627h6.484a2.812 2.812 0 002.813-2.813v-13.29l4.528-7.844a4.656 4.656 0 00.469-3.556zM3.75 4.687a.937.937 0 01.938-.937h45a.937.937 0 01.937.938v6.562H3.75V4.687zm.938 45.938a.938.938 0 01-.938-.938V13.126h46.875v9.046a4.641 4.641 0 00-1.716 1.695L34.722 48.439l-.01 2.186H4.688zm37.99-.967l-.452-2.966 8.273-14.33 1.624.938-9.445 16.358zm-4.24 1.717a5.606 5.606 0 00-1.85-.66l.005-1.386 3.907-1.522.63 4.146-1.195.698a5.611 5.611 0 00-1.498-1.276zm8.812-20.887l1.624.937-8.272 14.325-2.794 1.092 9.442-16.354zM36.578 52.624c.649.168 1.24.51 1.71.987l-1.718 1.001.008-1.988zm14.047-2.938a.938.938 0 01-.938.938h-5.401l6.339-10.98v10.042zM54 30.052l-.938 1.623-4.874-2.812.937-1.624L54 30.052zm-3.938-4.437l.47-.812a2.814 2.814 0 114.874 2.813l-.468.812-4.876-2.813z"/><path d="M8.438 24.375a.938.938 0 000 1.875h2.812a1.875 1.875 0 001.875-1.875V22.5a1.875 1.875 0 00-1.875-1.875H9.375V18.75h2.813a.938.938 0 000-1.875H9.374A1.875 1.875 0 007.5 18.75v1.875A1.875 1.875 0 009.375 22.5h1.875v1.875H8.437zm7.5 1.875h2.812a.938.938 0 000-1.875h-2.813V22.5h1.876a.938.938 0 000-1.875h-1.875V18.75h2.812a.938.938 0 000-1.875h-2.813a1.875 1.875 0 00-1.874 1.875v5.625a1.875 1.875 0 001.874 1.875zm6.562 0h1.875a1.875 1.875 0 001.875-1.875V18.75a1.875 1.875 0 00-1.875-1.875H22.5a1.875 1.875 0 00-1.875 1.875v5.625A1.875 1.875 0 0022.5 26.25zm0-7.5h1.875v5.625H22.5V18.75zm8.438 0h15a.938.938 0 000-1.875h-15a.938.938 0 000 1.875zm0 3.75h15a.938.938 0 000-1.875h-15a.938.938 0 000 1.875zM7.5 31.875h33.75a.938.938 0 000-1.875H7.5a.938.938 0 000 1.875zm0 3.75h31.875a.938.938 0 000-1.875H7.5a.938.938 0 000 1.875zm0 3.75h30a.938.938 0 000-1.875h-30a.938.938 0 000 1.875zm0 3.75h28.125a.938.938 0 000-1.875H7.5a.938.938 0 000 1.875zM32.813 45H7.5a.938.938 0 000 1.875h25.313a.938.938 0 000-1.875zm-1.875-18.75h13.125a.938.938 0 000-1.875H30.937a.938.938 0 000 1.875z"/></symbol><symbol viewBox="0 0 45 45" id="accounting1" xmlns="http://www.w3.org/2000/svg"><path d="M17.25 27a7.5 7.5 0 107.5 7.5 7.508 7.508 0 00-7.5-7.5zm0 13.5a6 6 0 116-6 6.007 6.007 0 01-6 6z"/><path d="M17.25 32.25c.916 0 1.5.444 1.5.75h1.5c0-1.066-.944-1.929-2.25-2.175V30h-1.5v.825c-1.306.244-2.25 1.108-2.25 2.175 0 1.262 1.318 2.25 3 2.25.916 0 1.5.444 1.5.75s-.584.75-1.5.75-1.5-.444-1.5-.75h-1.5c0 1.066.944 1.929 2.25 2.175V39H18v-.825c1.306-.244 2.25-1.108 2.25-2.175 0-1.262-1.318-2.25-3-2.25-.916 0-1.5-.444-1.5-.75s.584-.75 1.5-.75z"/><path d="M38.25 43.5H6.75v-18h12A2.25 2.25 0 0021 23.25V4.5h8.25v9h9V24h1.5V12.44L30.31 3H21v-.75A2.25 2.25 0 0018.75 0H2.25A2.25 2.25 0 000 2.25v21a2.25 2.25 0 002.25 2.25h3V45h34.5V34.5h-1.5v9zm-7.5-37.94L37.19 12h-6.44V5.56zM1.5 23.25v-21a.75.75 0 01.75-.75h16.5a.75.75 0 01.75.75v21a.75.75 0 01-.75.75H2.25a.75.75 0 01-.75-.75z"/><path d="M24 18.75h1.5v1.5H24v-1.5zm3 0h9v1.5h-9v-1.5zm-3-3h1.5v1.5H24v-1.5zm3 0h9v1.5h-9v-1.5zm-3 6h1.5v1.5H24v-1.5zm3 0h9v1.5h-9v-1.5zm-3 3h1.5v1.5H24v-1.5zm3 0h9v1.5h-9v-1.5zm-8.25-22.5H2.25V7.5h16.5V2.25zM17.25 6H3.75V3.75h13.5V6zM6 8.25H4.5A1.5 1.5 0 003 9.75v1.5a1.5 1.5 0 001.5 1.5H6a1.5 1.5 0 001.5-1.5v-1.5A1.5 1.5 0 006 8.25zm-1.5 3v-1.5H6v1.5H4.5zm6.75-3h-1.5a1.5 1.5 0 00-1.5 1.5v1.5a1.5 1.5 0 001.5 1.5h1.5a1.5 1.5 0 001.5-1.5v-1.5a1.5 1.5 0 00-1.5-1.5zm-1.5 3v-1.5h1.5v1.5h-1.5zm6.75-3H15a1.5 1.5 0 00-1.5 1.5v1.5a1.5 1.5 0 001.5 1.5h1.5a1.5 1.5 0 001.5-1.5v-1.5a1.5 1.5 0 00-1.5-1.5zm-1.5 3v-1.5h1.5v1.5H15zM6 13.5H4.5A1.5 1.5 0 003 15v1.5A1.5 1.5 0 004.5 18H6a1.5 1.5 0 001.5-1.5V15A1.5 1.5 0 006 13.5zm-1.5 3V15H6v1.5H4.5zm6.75-3h-1.5a1.5 1.5 0 00-1.5 1.5v1.5a1.5 1.5 0 001.5 1.5h1.5a1.5 1.5 0 001.5-1.5V15a1.5 1.5 0 00-1.5-1.5zm-1.5 3V15h1.5v1.5h-1.5zm6.75-3H15a1.5 1.5 0 00-1.5 1.5v1.5A1.5 1.5 0 0015 18h1.5a1.5 1.5 0 001.5-1.5V15a1.5 1.5 0 00-1.5-1.5zm-1.5 3V15h1.5v1.5H15zm-9 2.25H4.5a1.5 1.5 0 00-1.5 1.5v1.5a1.5 1.5 0 001.5 1.5H6a1.5 1.5 0 001.5-1.5v-1.5a1.5 1.5 0 00-1.5-1.5zm-1.5 3v-1.5H6v1.5H4.5zm6.75-3h-1.5a1.5 1.5 0 00-1.5 1.5v1.5a1.5 1.5 0 001.5 1.5h1.5a1.5 1.5 0 001.5-1.5v-1.5a1.5 1.5 0 00-1.5-1.5zm-1.5 3v-1.5h1.5v1.5h-1.5zm6.75-3H15a1.5 1.5 0 00-1.5 1.5v1.5a1.5 1.5 0 001.5 1.5h1.5a1.5 1.5 0 001.5-1.5v-1.5a1.5 1.5 0 00-1.5-1.5zm-1.5 3v-1.5h1.5v1.5H15zm29.319 2.18a2.303 2.303 0 00-3.182 0L28.28 36.789a.758.758 0 00-.15.217l-1.81 3.931a.75.75 0 00.994.995l3.931-1.81a.749.749 0 00.217-.15l12.858-12.86a2.25 2.25 0 000-3.182zM30.495 38.815l-1.965.905.906-1.965 9.586-9.587 1.06 1.06-9.587 9.587zm10.65-10.65l-1.06-1.06.525-.526 1.06 1.06-.525.526zm2.116-2.115l-.53.53-1.061-1.06.53-.53a.767.767 0 011.06 0 .75.75 0 010 1.06z"/></symbol><symbol viewBox="0 0 45 45" id="contract1" xmlns="http://www.w3.org/2000/svg"><path d="M39 0H6a.75.75 0 00-.75.75v43.5c0 .414.336.75.75.75h33a.75.75 0 00.75-.75V.75A.75.75 0 0039 0zm-.75 43.5H6.75v-42h31.5v42z"/><path d="M35.78 36.26a.75.75 0 00-1.018-.08l-4.403 3.774-.398-1.19a.751.751 0 00-1.425.473l.75 2.25a.75.75 0 001.201.332l5.25-4.5a.75.75 0 00.042-1.06zM22.5 3a3 3 0 100 6 3 3 0 000-6zm0 4.5a1.5 1.5 0 110-3 1.5 1.5 0 010 3zm12 4.5h-24a.75.75 0 000 1.5h24a.75.75 0 000-1.5zm0 4.5h-24a.75.75 0 000 1.5h24a.75.75 0 000-1.5zm0 3.75h-24a.75.75 0 000 1.5h24a.75.75 0 000-1.5zm0 4.5h-24a.75.75 0 000 1.5h24a.75.75 0 000-1.5zm0 3.75h-24a.75.75 0 000 1.5h24a.75.75 0 000-1.5zm-18 9h-6a.75.75 0 000 1.5h6a.75.75 0 000-1.5zm-.75 3h-4.5a.75.75 0 000 1.5h4.5a.75.75 0 000-1.5z"/></symbol><symbol viewBox="0 0 54 54" id="creative" xmlns="http://www.w3.org/2000/svg"><path d="M48.46 5.54C45.105 2.181 40.455.493 35.698.905c-7.253.629-13.315 6.31-14.415 13.512-.15.985-.207 1.978-.176 2.963l-9.191-9.19a4.883 4.883 0 00-3.478-1.44A4.883 4.883 0 004.96 8.19l-2.676 2.677a4.883 4.883 0 00-1.44 3.477c0 1.314.511 2.549 1.44 3.477l11.289 11.288-1.339 1.339-1.832-1.833a2.617 2.617 0 00-1.862-.771 2.636 2.636 0 00-2.634 2.633c0 .682.262 1.32.73 1.812a2.635 2.635 0 00-1.574 2.407c0 .704.275 1.365.772 1.862l.145.145-1.106 1.105a7.948 7.948 0 00-2.342 5.658c0 4.413 3.59 8.003 8.003 8.003a7.95 7.95 0 005.66-2.344l1.103-1.104.145.145a2.617 2.617 0 001.862.772 2.635 2.635 0 002.407-1.574 2.61 2.61 0 001.812.73 2.636 2.636 0 002.633-2.634 2.62 2.62 0 00-.77-1.862l-1.834-1.832 1.339-1.339 9.255 9.255 11.168 3.437 1.936.037V51.47l-3.474-11.417-7.156-7.157c.985.03 1.978-.026 2.963-.176 7.2-1.1 12.883-7.163 13.512-14.416A16.043 16.043 0 0048.46 5.54zM19.34 23.341l-.356.356-4.713-4.714 3.026-3.025 3.802 3.802c-.198 1.367-.803 2.624-1.76 3.581zM8.86 22.01l-1.34-1.338 7.245-7.245 1.338 1.339-7.245 7.244zm-6.33-7.666c0-.863.336-1.674.946-2.284l2.676-2.677c1.22-1.22 3.348-1.22 4.569 0l2.85 2.851-7.244 7.245-2.85-2.851a3.21 3.21 0 01-.947-2.284zm7.521 8.86l3.026-3.027 4.713 4.714-3.025 3.025-4.714-4.713zM15 47.931a6.277 6.277 0 01-4.466 1.85 6.323 6.323 0 01-6.315-6.316c0-1.688.656-3.272 1.848-4.465l1.105-1.105 8.932 8.932L15 47.932zm4.304-.682a.942.942 0 01-.669-.277L7.027 35.365a.947.947 0 011.338-1.338l11.608 11.608a.947.947 0 01-.67 1.615zm5.165-1.79a.947.947 0 01-1.615.67l-1.688-1.688L9.558 32.834 7.87 31.146a.947.947 0 011.338-1.338l14.984 14.983a.942.942 0 01.277.67zm9.98-29.778c.153-.154.29-.319.409-.495h3.955v3.826L18.6 36.812l-1.414-1.413L34.45 15.682zm-.712-2.182h-1.675a1.69 1.69 0 01-1.687-1.688c0-.93.757-1.687 1.688-1.687.93 0 1.687.757 1.687 1.688v1.482c0 .07-.004.137-.013.205zm.502 19.401l7.6 7.599-3.026 3.026-8.51-8.51.352-.353c.96-.959 2.217-1.564 3.584-1.762zm-5.13 3.308l8.51 8.51-3.025 3.025-8.51-8.51 3.025-3.025zm16.397 15.203l-9.325-2.868 6.455-6.456 2.87 9.324zm5.907-33.255c-.563 6.487-5.645 11.91-12.085 12.894-1.128.172-2.27.213-3.39.119-2.446-.204-4.81.634-6.476 2.3l-7.103 7.103-2.565-2.565 19.022-16.752a3.38 3.38 0 003.371 3.213 3.378 3.378 0 003.376-3.375 3.378 3.378 0 00-3.376-3.375h-.638a3.42 3.42 0 00-1.049.163V13.5h-5.068a3.32 3.32 0 00.005-.205v-1.482a3.378 3.378 0 00-3.374-3.375 3.378 3.378 0 00-3.376 3.374 3.378 3.378 0 003.375 3.376h.58L15.99 34.203l-2.563-2.562 7.106-7.106c1.663-1.663 2.501-4.023 2.297-6.473a14.499 14.499 0 01.12-3.39c.984-6.44 6.406-11.523 12.893-12.085 4.26-.366 8.421 1.142 11.425 4.145a14.36 14.36 0 014.145 11.425zM40.5 21.095v-1.322a1.674 1.674 0 011.049-.366h.639c.93 0 1.687.757 1.687 1.688a1.69 1.69 0 01-1.688 1.687 1.69 1.69 0 01-1.687-1.687z"/><path d="M37.125 4.219v1.687c4.818 0 9.142 3.222 10.515 7.835l1.617-.482c-1.584-5.323-6.573-9.04-12.132-9.04zm10.969 12.656h1.687c0-.604-.043-1.213-.128-1.807l-1.67.238a11.1 11.1 0 01.11 1.569z"/></symbol><symbol viewBox="0 0 55 56" id="development" xmlns="http://www.w3.org/2000/svg"><g clip-path="url(#eclip0_68:135)"><path d="M52.755.378H2.245A2.247 2.247 0 000 2.623v50.51a2.247 2.247 0 002.245 2.245h50.51A2.247 2.247 0 0055 53.133V2.623A2.247 2.247 0 0052.755.378zm0 52.755H2.245V10.48h50.51v42.653zm0-44.897H2.245V2.623h50.51v5.613z"/><path d="M8.418 4.307H4.49v2.245h3.928V4.307zm5.612 0h-3.928v2.245h3.929V4.307zm36.48 0h-3.928v2.245h3.928V4.307zM13.47 34.052h1.93c.112.307.234.604.364.891l-1.36 1.368a2.227 2.227 0 00-.657 1.585c0 .599.234 1.162.657 1.585l3.177 3.177c.423.424.986.657 1.585.657.598 0 1.161-.233 1.583-.655l1.37-1.362c.287.13.584.252.891.365v1.93a2.247 2.247 0 002.245 2.245h4.49a2.248 2.248 0 002.245-2.245v-1.93c.307-.113.604-.235.891-.365l1.368 1.36c.424.423.987.657 1.585.657.599 0 1.162-.234 1.585-.657l3.177-3.177c.423-.423.657-.986.657-1.585a2.23 2.23 0 00-.655-1.583l-1.362-1.37c.13-.287.252-.584.365-.891h1.93a2.247 2.247 0 002.245-2.245v-4.49a2.247 2.247 0 00-2.245-2.245H39.6a12.743 12.743 0 00-.365-.891l1.36-1.368c.423-.424.657-.987.657-1.585 0-.599-.234-1.162-.657-1.585l-3.177-3.177a2.227 2.227 0 00-1.585-.657 2.23 2.23 0 00-1.583.655l-1.37 1.363a12.77 12.77 0 00-.891-.366v-1.93a2.247 2.247 0 00-2.245-2.244h-4.49a2.247 2.247 0 00-2.245 2.244v1.93c-.307.113-.604.235-.891.366l-1.368-1.36a2.227 2.227 0 00-1.585-.658c-.599 0-1.162.234-1.585.658l-3.177 3.176a2.227 2.227 0 00-.657 1.585c0 .599.233 1.162.655 1.583l1.362 1.37c-.13.287-.252.585-.365.891h-1.93a2.247 2.247 0 00-2.244 2.245v4.49a2.247 2.247 0 002.244 2.245zm0-6.735h2.738c.496 0 .933-.325 1.076-.8.22-.738.5-1.416.829-2.016a1.12 1.12 0 00-.188-1.331l-1.933-1.94 3.174-3.174 1.942 1.93c.352.351.894.428 1.33.189.6-.33 1.28-.608 2.017-.83.475-.142.8-.579.8-1.075v-2.739h4.49v2.74c0 .495.325.932.8 1.075.738.221 1.416.5 2.017.83.436.238.977.162 1.33-.19l1.94-1.932 3.174 3.174-1.93 1.942a1.121 1.121 0 00-.189 1.33c.33.6.608 1.28.83 2.017.142.475.58.8 1.075.8h2.739v4.49h-2.74c-.495 0-.932.325-1.074.8-.222.738-.5 1.417-.83 2.017a1.12 1.12 0 00.188 1.33l1.933 1.94-3.174 3.174-1.941-1.93a1.122 1.122 0 00-1.331-.189c-.6.33-1.279.608-2.017.83-.475.142-.8.58-.8 1.075v2.739h-4.49v-2.74c0-.495-.325-.932-.8-1.074-.738-.222-1.416-.5-2.016-.83a1.12 1.12 0 00-1.332.188l-1.939 1.933-3.174-3.174 1.93-1.941c.351-.353.428-.895.189-1.331-.33-.6-.608-1.28-.83-2.017-.142-.475-.58-.8-1.075-.8H13.47v-4.49z"/><path d="M27.5 35.174a5.619 5.619 0 005.612-5.612A5.619 5.619 0 0027.5 23.95a5.619 5.619 0 00-5.612 5.612 5.619 5.619 0 005.612 5.612zm0-8.98a3.371 3.371 0 013.367 3.368A3.371 3.371 0 0127.5 32.93a3.371 3.371 0 01-3.367-3.367 3.371 3.371 0 013.367-3.367zm17.398-8.979h-2.245v2.245h2.245v-2.245zm3.367 0H46.02v2.245h2.245v-2.245zm3.368 0h-2.245v2.245h2.245v-2.245zM5.612 39.664H3.367v2.245h2.245v-2.245zm3.368 0H6.735v2.245H8.98v-2.245zm3.367 0h-2.245v2.245h2.245v-2.245zm35.357 8.98H7.296v2.244h40.408v-2.244z"/></g><defs><clipPath id="eclip0_68:135"><path transform="translate(0 .378)" d="M0 0h55v55H0z"/></clipPath></defs></symbol><symbol viewBox="0 0 47 47" id="management1" xmlns="http://www.w3.org/2000/svg"><path d="M41.125 25.63v-1.47a.735.735 0 00.734-.734V19.02a.735.735 0 00-.734-.734h-3.966l-.142-.552a13.568 13.568 0 00-1.498-3.588l-.294-.491 2.816-2.82a.728.728 0 000-1.029l-3.12-3.123a.745.745 0 00-1.028 0l-2.82 2.82-.491-.293a13.603 13.603 0 00-3.593-1.499l-.552-.143v-3.97a.734.734 0 00-.734-.734h-4.406a.734.734 0 00-.735.735v3.965l-.551.143a13.6 13.6 0 00-3.589 1.497l-.491.294-2.82-2.815a.745.745 0 00-1.032 0l-3.12 3.119a.73.73 0 000 1.033l2.821 2.82-.294.491a13.57 13.57 0 00-1.498 3.588l-.144.552H5.875a.734.734 0 00-.734.734v4.407c0 .405.328.734.734.734v1.469a2.203 2.203 0 01-2.203-2.203V19.02c0-1.216.986-2.203 2.203-2.203h2.841a14.997 14.997 0 011.222-2.925l-2.02-2.019a2.197 2.197 0 010-3.11l3.122-3.12a2.249 2.249 0 013.11 0l2.019 2.018c.929-.509 1.91-.918 2.925-1.22V3.599c0-1.217.986-2.203 2.203-2.203h4.406c1.217 0 2.203.986 2.203 2.203V6.44a15 15 0 012.925 1.221l2.02-2.02a2.25 2.25 0 013.11 0l3.12 3.12a2.196 2.196 0 010 3.11l-2.02 2.02c.51.93.92 1.91 1.223 2.925h2.841c1.217 0 2.203.987 2.203 2.203v4.407a2.203 2.203 0 01-2.203 2.203z"/><path d="M33.781 21.224h-1.468a8.813 8.813 0 00-17.626 0H13.22c0-5.679 4.603-10.282 10.281-10.282 5.678 0 10.281 4.603 10.281 10.282z"/><path d="M23.5 27.099a4.406 4.406 0 110-8.813 4.406 4.406 0 010 8.813zm0-7.344a2.938 2.938 0 100 5.875 2.938 2.938 0 000-5.875zm12.484 10.281a4.406 4.406 0 110-8.813 4.406 4.406 0 010 8.813zm0-7.344a2.938 2.938 0 100 5.876 2.938 2.938 0 000-5.876zm-24.968 7.344a4.406 4.406 0 110-8.813 4.406 4.406 0 010 8.813zm0-7.344a2.938 2.938 0 100 5.876 2.938 2.938 0 000-5.876z"/><path d="M42.642 31.92a6.535 6.535 0 00-3.72-1.15h-5.875a6.577 6.577 0 00-1.066.097 6.59 6.59 0 00-1.798-1.866 2.86 2.86 0 00-.339-.22 6.558 6.558 0 00-3.407-.948h-5.875a6.536 6.536 0 00-5.541 3.034 6.604 6.604 0 00-1.068-.097H8.078a6.536 6.536 0 00-3.718 1.15 6.61 6.61 0 00-2.891 5.46v2.938a5.145 5.145 0 002.99 4.667 4.978 4.978 0 002.15.474h7.344V43.99h-6.61v-8.078H5.876v8.005a3.447 3.447 0 01-.8-.266 3.68 3.68 0 01-2.138-3.333V37.38a5.146 5.146 0 012.252-4.25 5.08 5.08 0 012.89-.89h5.874c.13 0 .254.013.38.022a6.61 6.61 0 00-.38 2.18v7.344a3.676 3.676 0 003.672 3.672h2.203v-11.75H18.36v10.281h-.734a2.203 2.203 0 01-2.203-2.203v-7.344a5.14 5.14 0 015.14-5.14h5.875a5.13 5.13 0 012.677.755c.075.041.146.087.214.138a5.2 5.2 0 011.647 1.836 5.12 5.12 0 01.603 2.411v7.344a2.203 2.203 0 01-2.203 2.203h-.734V33.708h-1.47v11.75h2.204a3.676 3.676 0 003.672-3.672v-7.344a6.626 6.626 0 00-.38-2.18c.127-.009.251-.023.38-.023h5.875a5.083 5.083 0 012.89.893 5.147 5.147 0 012.25 4.248v2.937a3.677 3.677 0 01-2.15 3.339 3.384 3.384 0 01-.787.26V35.91h-1.469v8.078h-6.61v1.469h7.345a4.965 4.965 0 002.137-.469 5.147 5.147 0 003.003-4.672V37.38a6.61 6.61 0 00-2.89-5.46z"/><path d="M20.563 43.99h5.875v1.468h-5.875v-1.469z"/></symbol><symbol viewBox="0 0 49 49" id="message1" xmlns="http://www.w3.org/2000/svg"><g clip-path="url(#gclip0_139:2218)"><path d="M48.183 31.033H.817A.816.816 0 010 30.217V4.9a3.271 3.271 0 013.267-3.268h42.466A3.271 3.271 0 0149 4.901v25.316a.816.816 0 01-.817.816zM1.633 29.4h45.734V4.9c0-.9-.733-1.633-1.634-1.633H3.267c-.901 0-1.634.732-1.634 1.634V29.4z"/><path d="M45.733 37.567H3.267A3.271 3.271 0 010 34.3v-4.083c0-.452.366-.817.817-.817h47.366c.451 0 .817.365.817.817V34.3a3.271 3.271 0 01-3.267 3.267zm-44.1-6.533V34.3c0 .901.733 1.634 1.634 1.634h42.466c.901 0 1.634-.733 1.634-1.634v-3.266H1.633z"/><path d="M26.95 34.3h-4.9a.816.816 0 110-1.633h4.9a.816.816 0 110 1.633zm17.967-3.266H4.083a.816.816 0 01-.816-.817v-24.5c0-.452.365-.817.816-.817h40.834c.45 0 .816.365.816.817v24.5a.816.816 0 01-.816.817zM4.9 29.4h39.2V6.534H4.9V29.4zm30.217 17.967H13.884c-1.351 0-2.45-1.1-2.45-2.45a2.453 2.453 0 012.45-2.45h21.233c1.35 0 2.45 1.099 2.45 2.45 0 1.35-1.1 2.45-2.45 2.45zM13.884 44.1a.818.818 0 000 1.633h21.233a.818.818 0 000-1.633H13.884z"/><path d="M33.483 44.1H15.516a.817.817 0 110-1.633c2.71 0 4.083-1.923 4.083-5.717 0-.451.366-.816.817-.816h8.167c.45 0 .816.365.816.816 0 3.794 1.374 5.717 4.084 5.717a.816.816 0 110 1.633zm-13.99-1.633h10.012c-1.006-1.113-1.598-2.773-1.716-4.9H21.21c-.119 2.127-.71 3.787-1.716 4.9zm20.524-14.7H23.683a.816.816 0 01-.469-1.486l8.167-5.716a.818.818 0 01.936 0l8.167 5.716a.815.815 0 01-.468 1.486zm-13.743-1.634h11.151l-5.575-3.902-5.576 3.902z"/><path d="M40.017 27.767a.813.813 0 01-.468-.148l-7-4.9a.816.816 0 010-1.338l7-4.9a.815.815 0 011.285.669v9.8a.817.817 0 01-.818.817zM34.44 22.05l4.76 3.331V18.72l-4.76 3.331zm-10.756 5.717a.814.814 0 01-.817-.817v-9.8a.817.817 0 011.285-.67l7 4.9a.817.817 0 010 1.338l-7 4.9a.807.807 0 01-.468.149zm.816-9.048v6.662l4.76-3.33-4.76-3.332z"/><path d="M33.017 22.866a.817.817 0 01-.468-.147l-.699-.489-.698.49a.818.818 0 01-.936 0l-5.367-3.757a.815.815 0 01-.349-.67v-9.31c0-.451.366-.817.817-.817h13.066c.451 0 .817.366.817.817v9.31c0 .266-.13.516-.349.669l-5.366 3.757a.819.819 0 01-.468.147zm-1.167-2.45c.164 0 .328.05.468.148l.698.49 4.55-3.185v-8.07H26.134v8.07l4.55 3.184.698-.49a.827.827 0 01.469-.146z"/><path d="M33.483 13.883h-3.267a.816.816 0 110-1.633h3.267a.816.816 0 110 1.633zm1.634 3.267h-6.534a.816.816 0 110-1.633h6.534a.817.817 0 110 1.633zM19.6 18.784h-7.35a.816.816 0 110-1.634h7.35a.816.816 0 110 1.634zm-10.616 0h-.817a.816.816 0 110-1.634h.817a.816.816 0 110 1.634zm4.899-3.267H9.8a.816.816 0 110-1.634h4.083a.817.817 0 110 1.634zm4.083 0h-.816a.816.816 0 110-1.634h.816a.817.817 0 110 1.634zm-4.083 6.533H9.8a.816.816 0 110-1.634h4.083a.817.817 0 110 1.634zm4.083 0h-.816a.816.816 0 110-1.634h.816a.817.817 0 110 1.634z"/></g><defs><clipPath id="gclip0_139:2218"><path d="M0 0h49v49H0z"/></clipPath></defs></symbol><symbol viewBox="0 0 55 55" id="search" xmlns="http://www.w3.org/2000/svg"><path d="M21.7 3.223a.806.806 0 100 1.611.806.806 0 000-1.611zm29.272 1.4h-7.199V2.095C43.773.94 42.833 0 41.68 0H13.32c-1.155 0-2.094.94-2.094 2.095v2.528H4.028A4.033 4.033 0 000 8.652V38.99c0 1.69 1.02 3.136 2.507 3.734L.594 46.038c-1.216 2.074-.482 4.835 1.62 6.049 2.088 1.205 4.815.515 6.049-1.621l4.3-7.448h10.305l-.613 4.56h-.898a1.67 1.67 0 00-1.604 1.22l-1.135 4.092a1.652 1.652 0 00.279 1.453c.317.418.8.657 1.325.657h14.556c.524 0 1.008-.24 1.325-.657.318-.418.42-.948.28-1.453l-1.136-4.091a1.67 1.67 0 00-1.604-1.22h-.898l-.613-4.56h18.84A4.033 4.033 0 0055 38.988V8.653a4.033 4.033 0 00-4.028-4.029zm-7.199 4.834h6.393v27.116h-6.393V9.457zM12.838 2.095c0-.267.217-.484.483-.484H41.68c.266 0 .483.217.483.484v4.35H12.838v-4.35zm6.533 9.57c5.903 0 10.705 4.803 10.705 10.706 0 5.902-4.802 10.705-10.705 10.705-6.85 0-11.988-6.41-10.43-13.127a.806.806 0 10-1.569-.364c-.987 4.252.435 8.796 3.51 11.701l-1.45 2.511a2.35 2.35 0 00-2.426 1.134l-.947 1.642H4.834V9.457h6.393v3.673a12.47 12.47 0 00-2.305 2.726.806.806 0 001.366.854c1.963-3.138 5.334-5.045 9.083-5.045zM14.357 33.62l-1.236 2.14-2.221-1.283 1.238-2.144c.69.502 1.432.935 2.219 1.287zM1.611 38.99V8.652a2.42 2.42 0 012.417-2.417h7.199v1.611H4.458c-.681 0-1.235.554-1.235 1.235V36.95c0 .681.554 1.235 1.235 1.235h.67l-1.8 3.118a2.435 2.435 0 01-1.717-2.312zm11.67-.437L6.866 49.66a2.82 2.82 0 01-3.847 1.031c-1.33-.768-1.803-2.524-1.03-3.847l6.412-11.107a.73.73 0 01.99-.27l.004.003.007.004 3.601 2.079.01.006s.002 0 .003.002a.729.729 0 01.263.992zM33.642 49.19c.024 0 .045.016.052.04l1.134 4.09c.01.027-.023.072-.051.069H20.222c-.028.003-.062-.042-.051-.068l1.134-4.092a.054.054 0 01.052-.039h12.286zm-9.762-1.611l.613-4.56h6.012l.613 4.56H23.88zm29.508-8.59a2.42 2.42 0 01-2.417 2.418h-37.48l1.183-2.048c.214-.37.314-.776.311-1.175h19.47a.806.806 0 100-1.611H14.512l1.379-2.387a12.27 12.27 0 003.48.501c6.791 0 12.316-5.525 12.316-12.316 0-6.792-5.525-12.317-12.316-12.317-2.36 0-4.61.664-6.533 1.87V8.058h29.324v28.516h-3.946a.806.806 0 100 1.611h12.326c.681 0 1.235-.554 1.235-1.235V9.08c0-.68-.554-1.235-1.235-1.235h-6.769v-1.61h7.199a2.42 2.42 0 012.417 2.417V38.99zM15.255 3.224a.806.806 0 100 1.611.806.806 0 000-1.611zm3.223 0a.806.806 0 100 1.611.806.806 0 000-1.611zm21.267 13.452h-6.23a.806.806 0 100 1.611h6.23a.806.806 0 100-1.61zm0 4.834h-5.477a.806.806 0 100 1.611h5.477a.806.806 0 100-1.61zm-20.374 8.784c4.368 0 7.922-3.554 7.922-7.922 0-4.369-3.554-7.923-7.922-7.923-4.369 0-7.923 3.554-7.923 7.923 0 4.368 3.554 7.922 7.923 7.922zm0-14.233a6.318 6.318 0 016.311 6.31 6.318 6.318 0 01-6.311 6.312 6.319 6.319 0 01-6.311-6.311 6.318 6.318 0 016.31-6.311zm20.374 10.283h-6.337a.806.806 0 100 1.611h6.337a.806.806 0 100-1.61zm.806-13.696a.806.806 0 00-.806-.806h-9.182a.806.806 0 100 1.612h9.182a.806.806 0 00.806-.806zm0 19.336a.806.806 0 00-.806-.806h-9.182a.806.806 0 100 1.611h9.182c.445 0 .806-.36.806-.805z"/></symbol><symbol viewBox="0 0 59 59" id="seo3" xmlns="http://www.w3.org/2000/svg"><path d="M4.61 51.625h43.54l1.915 3.977a2.767 2.767 0 004.974-2.42l-.75-1.557h.102a2.769 2.769 0 002.765-2.766V4.61a2.769 2.769 0 00-2.765-2.765H4.609A2.769 2.769 0 001.844 4.61v44.25a2.769 2.769 0 002.765 2.766zm48.813 3.065a.921.921 0 01-1.699.108l-3.943-8.194 1.657-.807 3.941 8.189a.914.914 0 01.044.704zm-7.241-11.408l1.657-.808.8 1.662-1.658.808-.8-1.662zm8.209 6.5h-.99l-2.625-5.455A.918.918 0 0050.62 44l-1.521-3.16a.923.923 0 00-1.235-.43l-.829.404-.745-1.53a12.902 12.902 0 10-13.102-22.149v-3.308a.921.921 0 00-.922-.922H6.453a.922.922 0 00-.922.922V24.89a.922.922 0 00.922.922h21.345A12.908 12.908 0 0044.58 39.986l.798 1.637-.829.403a.922.922 0 00-.426 1.228l3.14 6.527H4.61a.922.922 0 01-.921-.922V11.062h51.624V48.86a.923.923 0 01-.921.922zM28.213 23.968H7.375v-1.844h15.672a.921.921 0 100-1.844H7.375v-1.843h6.453a.922.922 0 100-1.844H7.375V14.75h23.969v3.949a12.918 12.918 0 00-3.13 5.27zm12.35-7.31A11.062 11.062 0 1129.5 27.72a11.075 11.075 0 0111.063-11.06zM4.608 3.688H54.39a.923.923 0 01.922.921v4.61H3.687v-4.61a.923.923 0 01.922-.921z"/><path d="M13.828 7.375a.922.922 0 100-1.844.922.922 0 000 1.844zm-3.688 0a.922.922 0 100-1.844.922.922 0 000 1.844zm-3.687 0a.922.922 0 100-1.844.922.922 0 000 1.844zm0 22.125h7.375a.922.922 0 100-1.844H6.453a.922.922 0 000 1.844zm-.922 2.766a.922.922 0 00.922.922h16.594a.921.921 0 100-1.844H6.453a.922.922 0 00-.922.922zm.922 4.609h7.375a.922.922 0 100-1.844H6.453a.922.922 0 000 1.844zm-.922 2.765a.922.922 0 00.922.922h21.203a.922.922 0 100-1.843H6.453a.922.922 0 00-.922.922zm.922 4.61h7.375a.922.922 0 100-1.844H6.453a.922.922 0 000 1.844zm-.922 2.766a.922.922 0 00.922.922h29.5a.922.922 0 100-1.844h-29.5a.922.922 0 00-.922.922zM40.563 29.5a.922.922 0 00.921-.922v-1.844a.922.922 0 00-1.843 0v1.844a.922.922 0 00.922.922zm-3.688 0a.922.922 0 00.922-.922v-1.844a.922.922 0 00-1.844 0v1.844a.922.922 0 00.922.922zm7.375 0a.922.922 0 00.922-.922v-3.687a.922.922 0 00-1.844 0v3.687a.922.922 0 00.922.922z"/><path d="M40.56 36.943a9.218 9.218 0 10-9.22-9.219 9.23 9.23 0 009.22 9.219zm0-16.594a7.376 7.376 0 11-7.375 7.375 7.383 7.383 0 017.375-7.375z"/></symbol><symbol viewBox="0 0 53 53" id="seo4" xmlns="http://www.w3.org/2000/svg"><path d="M14.906 3.313H39.75v1.656H14.906V3.312zm-11.593 0h1.656v1.656H3.312V3.312zm3.312 0h1.656v1.656H6.625V3.312zm3.313 0h1.656v1.656H9.938V3.312zm11.836 20.945l3.313-3.313 1.17 1.171-3.312 3.313-1.17-1.171zm4.969 0l3.312-3.312 1.171 1.17-3.312 3.313-1.171-1.17zM4.969 13.25h15.734v1.656H4.97V13.25zm0 4.969h11.593v1.656H4.97v-1.656zm0 4.969H15.32v1.656H4.97v-1.657zm0 4.968H17.39v1.657H4.969v-1.657z"/><path d="M48.031 9.938v-4.97h-4.968V0H0v34.781h4.969v4.969h4.968v4.969H22.36V53h8.282v-8.281H53V9.937h-4.969zm-4.968-3.313h3.312v4.969h-3.313V6.625zM1.656 1.656h39.75v4.969H1.656V1.656zm0 31.469V8.281h39.75v24.844h-8.913a11.594 11.594 0 10-11.986 0H1.657zm23.314-.118a9.937 9.937 0 113.06 0l-.702.109v3.322h-1.656v-3.322l-.702-.109zm-2.61 10.056H11.593V39.75h10.765v3.313zm0-4.97H6.624v-3.312h17.39v1.657H22.36v1.656zm6.624 13.25h-4.968v-13.25h4.968v13.25zm0-14.906v-1.656h14.078V13.25h3.313v24.844H30.641v-1.657h-1.657zm22.36 6.626H30.64V39.75h17.39V18.219h3.313v24.843zm0-26.5H48.03v-4.97h3.313v4.97z"/><path d="M34.781 23.188a8.281 8.281 0 10-16.562 0 8.281 8.281 0 008.281 8.28 8.29 8.29 0 008.281-8.28zm-14.906 0a6.625 6.625 0 116.625 6.625 6.633 6.633 0 01-6.625-6.625z"/></symbol><symbol viewBox="0 0 24 23" id="telegram" xmlns="http://www.w3.org/2000/svg"><g filter="url(#kfilter0_d_255:4314)"><path d="M9.417 14.181l-.397 5.584c.568 0 .814-.244 1.109-.537l2.663-2.545 5.518 4.041c1.012.564 1.725.267 1.998-.931L23.93 2.821l.001-.001c.321-1.496-.541-2.081-1.527-1.714L1.114 9.257c-1.453.564-1.431 1.374-.247 1.741l5.443 1.693L18.953 4.78c.595-.394 1.136-.176.691.218L9.417 14.181z"/></g><defs><filter id="kfilter0_d_255:4314" x="-1" y="0" width="28" height="24" filterUnits="userSpaceOnUse" color-interpolation-filters="sRGB"><feFlood flood-opacity="0" result="BackgroundImageFix"/><feColorMatrix in="SourceAlpha" values="0 0 0 0 0 0 0 0 0 0 0 0 0 0 0 0 0 0 127 0" result="hardAlpha"/><feOffset dx="1" dy="1"/><feGaussianBlur stdDeviation="1"/><feComposite in2="hardAlpha" operator="out"/><feColorMatrix values="0 0 0 0 1 0 0 0 0 0.890196 0 0 0 0 0.827451 0 0 0 0.38 0"/><feBlend in2="BackgroundImageFix" result="effect1_dropShadow_255:4314"/><feBlend in="SourceGraphic" in2="effect1_dropShadow_255:4314" result="shape"/></filter></defs></symbol><symbol viewBox="0 0 28 24" id="vk" xmlns="http://www.w3.org/2000/svg"><g clip-path="url(#lclip0_255:4309)" filter="url(#lfilter0_d_255:4309)"><path d="M24.786 17.367c-.064-.108-.463-.975-2.384-2.757-2.01-1.866-1.74-1.563.681-4.79 1.475-1.965 2.065-3.165 1.88-3.678-.175-.49-1.26-.36-1.26-.36l-3.606.02s-.267-.035-.467.083c-.193.117-.318.387-.318.387s-.571 1.521-1.333 2.814c-1.607 2.73-2.25 2.873-2.513 2.704-.61-.395-.458-1.587-.458-2.433 0-2.645.4-3.748-.781-4.033-.393-.094-.681-.157-1.685-.168-1.287-.013-2.377.005-2.994.306-.411.201-.728.65-.534.675.238.032.778.146 1.065.536.37.502.357 1.633.357 1.633s.213 3.113-.497 3.5c-.487.266-1.155-.276-2.587-2.753-.734-1.267-1.289-2.67-1.289-2.67s-.106-.26-.297-.4a1.485 1.485 0 00-.555-.224l-3.43.021s-.514.015-.703.239c-.168.2-.013.61-.013.61s2.685 6.281 5.724 9.448c2.789 2.903 5.954 2.712 5.954 2.712h1.434s.434-.048.654-.286c.204-.22.197-.63.197-.63s-.029-1.925.865-2.209c.881-.278 2.012 1.86 3.21 2.684.907.623 1.595.486 1.595.486l3.206-.045s1.677-.103.882-1.422z"/></g><defs><clipPath id="lclip0_255:4309"><path transform="translate(1)" d="M0 0h24v24H0z"/></clipPath><filter id="lfilter0_d_255:4309" x="0" y="-1" width="28" height="28" filterUnits="userSpaceOnUse" color-interpolation-filters="sRGB"><feFlood flood-opacity="0" result="BackgroundImageFix"/><feColorMatrix in="SourceAlpha" values="0 0 0 0 0 0 0 0 0 0 0 0 0 0 0 0 0 0 127 0" result="hardAlpha"/><feOffset dx="1" dy="1"/><feGaussianBlur stdDeviation="1"/><feColorMatrix values="0 0 0 0 1 0 0 0 0 0.890101 0 0 0 0 0.829167 0 0 0 0.38 0"/><feBlend in2="BackgroundImageFix" result="effect1_dropShadow_255:4309"/><feBlend in="SourceGraphic" in2="effect1_dropShadow_255:4309" result="shape"/></filter></defs></symbol><symbol viewBox="0 0 56 56" id="web-design" xmlns="http://www.w3.org/2000/svg"><path d="M54.25.875H27.125a.875.875 0 00-.619 1.494l12.507 12.506H19.39a8.65 8.65 0 00.334-.875H21a.875.875 0 00.875-.875v-3.5A.875.875 0 0021 8.75h-1.275a8.744 8.744 0 00-.59-1.422l.903-.9a.875.875 0 000-1.237l-2.48-2.478a.875.875 0 00-1.237 0l-.9.902a8.746 8.746 0 00-1.42-.59V1.75a.875.875 0 00-.876-.875h-3.5a.875.875 0 00-.875.875v1.275c-.49.154-.966.352-1.422.59l-.9-.903a.875.875 0 00-1.237 0l-2.478 2.48a.875.875 0 000 1.237l.902.9a8.742 8.742 0 00-.59 1.421H1.75a.875.875 0 00-.875.875v3.5A.875.875 0 001.75 14h1.275c.154.49.352.966.59 1.422l-.902.9a.875.875 0 000 1.237l2.476 2.476a.875.875 0 001.237 0l.9-.9a8.72 8.72 0 001.424.59V21a.875.875 0 00.875.875v7.889A8.74 8.74 0 003.37 44.618 9.177 9.177 0 016.125 51v.515a3.5 3.5 0 107 .11v-.219a10.965 10.965 0 013.117-7.447 7.786 7.786 0 001.7-2.834H31.9l-.005.017a7 7 0 00.48 13.983h15.75a7 7 0 00.48-13.983 8.72 8.72 0 00-2.23-3.654v-15.25l7.256 7.256a.874.874 0 001.494-.619V1.75a.875.875 0 00-.875-.875zm-11.737 17.5h-3.138v-1.75h1.388l1.75 1.75zm-22.475-.816a.875.875 0 00.192-.934h10.395v1.75H19.22l.819-.816zm12.337-.934h1.75v1.75h-1.75v-1.75zm3.5 0h1.75v1.75h-1.75v-1.75zm-28.224.677a.875.875 0 00-1.086.122l-.755.755-1.239-1.239.755-.755a.875.875 0 00.122-1.086 7.103 7.103 0 01-.903-2.17.875.875 0 00-.852-.679H2.625V10.5h1.068a.875.875 0 00.852-.678 7.103 7.103 0 01.903-2.171.875.875 0 00-.122-1.088l-.755-.753 1.24-1.239.754.755a.875.875 0 001.086.122 7.103 7.103 0 012.17-.903.875.875 0 00.68-.853V2.625h1.75v1.067a.874.874 0 00.677.853 7.105 7.105 0 012.171.903.875.875 0 001.089-.122l.755-.755 1.236 1.239-.755.755a.875.875 0 00-.122 1.086c.42.668.725 1.402.903 2.17a.875.875 0 00.853.679h1.067v1.75h-1.067a.875.875 0 00-.853.678 7.102 7.102 0 01-.903 2.171.875.875 0 00.122 1.086l.755.755-1.239 1.239-.755-.755a.875.875 0 00-1.086-.122 7.063 7.063 0 01-2.17.902.875.875 0 00-.679.854v1.067H10.5v-1.067a.876.876 0 00-.679-.854 7.062 7.062 0 01-2.17-.902zm-.02 22.948h3.988a11.251 11.251 0 00-1.119 4.904v1.221H8.75V45.15a11.252 11.252 0 00-1.12-4.9zm4.227 7.875c-.166.573-.29 1.158-.367 1.75H7.807a10.19 10.19 0 00-.362-1.75h4.413zm-2.233 5.25a1.75 1.75 0 01-1.74-1.75h3.49a1.75 1.75 0 01-1.75 1.75zm5.338-10.612a13.722 13.722 0 00-2.438 3.612h-.275V45.15a9.51 9.51 0 011.603-5.294.876.876 0 00-.728-1.356h-7a.875.875 0 00-.728 1.36A9.511 9.511 0 017 45.155v1.221h-.253a11.832 11.832 0 00-2.127-2.981A7 7 0 019.612 31.5c.385 0 .77.029 1.15.087a7 7 0 015.863 7.014 6.114 6.114 0 01-1.662 4.162zM27.125 29.75h1.75v9.625h-1.75V29.75zm.339-1.75L28 26.392 28.536 28h-1.072zM38.5 46.375h-1.083l2.833-2.362 2.833 2.362H42a.875.875 0 00-.875.875v6.125h-1.75V47.25a.875.875 0 00-.875-.875zm8.58-4.173a.954.954 0 001.045.673 5.25 5.25 0 010 10.5h-5.25v-5.25H45.5a.875.875 0 00.56-1.547l-5.25-4.375a.875.875 0 00-1.12 0l-5.25 4.375a.875.875 0 00.56 1.547h2.625v5.25h-5.25a5.251 5.251 0 01.07-10.5.876.876 0 00.976-.673 7 7 0 0113.658 0zm-2.45-6.037a8.769 8.769 0 00-11.962 3.21h-2.043v-10.5a.875.875 0 00-.045-.276l-1.75-5.25a.874.874 0 00-1.662 0l-1.75 5.25a.874.874 0 00-.043.276v10.5H18.33a8.763 8.763 0 00-6.956-9.445v-8.055h1.75A.875.875 0 0014 21v-1.275c.49-.154.966-.352 1.422-.59l.9.902a.863.863 0 001.102.088h26.84l.362.362.004 15.678zm8.745-9.402L29.237 2.625h24.138v24.138z"/><path d="M35.256 5.869l14.875 14.875a.874.874 0 001.494-.619V5.25a.875.875 0 00-.875-.875H35.875a.875.875 0 00-.619 1.494zm14.62.256v11.888L37.986 6.125h11.888zm-34.126 5.25a4.375 4.375 0 10-8.75 0 4.375 4.375 0 008.75 0zm-7 0a2.625 2.625 0 115.25 0 2.625 2.625 0 01-5.25 0z"/></symbol><symbol viewBox="0 0 61 61" id="web-programming" xmlns="http://www.w3.org/2000/svg"><path d="M24.067 42.748c-.23 0-.462-.08-.651-.24l-6.517-5.55a1.007 1.007 0 010-1.533l6.517-5.55a1.007 1.007 0 111.305 1.534l-5.616 4.782 5.616 4.783a1.007 1.007 0 01-.654 1.774zm12.865 0a1.007 1.007 0 01-.654-1.774l5.617-4.783-5.616-4.782a1.007 1.007 0 011.305-1.533l6.517 5.549a1.007 1.007 0 010 1.533l-6.517 5.55c-.189.16-.421.24-.652.24zm-8.739 4.162a1.007 1.007 0 01-.987-1.215l4.062-19.284a1.007 1.007 0 011.97.416l-4.06 19.283c-.1.474-.52.8-.985.8z"/><path d="M54.238 57.416H6.762A6.77 6.77 0 010 50.654V10.358a6.77 6.77 0 016.762-6.761h47.476A6.77 6.77 0 0161 10.358v40.296a6.77 6.77 0 01-6.762 6.761zM6.762 5.61a4.753 4.753 0 00-4.748 4.747v40.296A4.753 4.753 0 006.762 55.4h47.476a4.753 4.753 0 004.748-4.747V10.358a4.753 4.753 0 00-4.748-4.747H6.762z"/><path d="M59.993 19.723H1.007a1.007 1.007 0 110-2.014h58.986a1.007 1.007 0 010 2.014zm-42.786-4.819a3.191 3.191 0 01-3.187-3.187 3.191 3.191 0 013.187-3.187 3.19 3.19 0 013.187 3.187 3.191 3.191 0 01-3.187 3.187zm0-4.36c-.646 0-1.173.526-1.173 1.173a1.174 1.174 0 101.173-1.173zm-9.792 4.329a3.19 3.19 0 01-3.187-3.187 3.19 3.19 0 013.187-3.187 3.19 3.19 0 013.187 3.187 3.19 3.19 0 01-3.187 3.187zm0-4.36c-.646 0-1.173.527-1.173 1.173a1.174 1.174 0 101.173-1.173zm19.584 4.421a3.19 3.19 0 01-3.187-3.187A3.19 3.19 0 0127 8.561a3.19 3.19 0 013.187 3.186A3.19 3.19 0 0127 14.934zm0-4.36a1.174 1.174 0 000 2.346 1.174 1.174 0 000-2.346z"/></symbol><symbol viewBox="0 0 67 67" id="website-content" xmlns="http://www.w3.org/2000/svg"><path d="M6.281 5.234h2.094v2.094H6.281V5.234zm4.188 0h2.094v2.094h-2.094V5.234zm4.187 0h2.094v2.094h-2.094V5.234zM7.328 31.406H30.36a1.046 1.046 0 001.047-1.047V13.61a1.047 1.047 0 00-1.047-1.046H7.33a1.047 1.047 0 00-1.048 1.046v16.75a1.047 1.047 0 001.047 1.047zm1.047-16.75h20.938v14.656H8.375V14.656zM7.328 51.297H30.36a1.047 1.047 0 001.047-1.047V34.547A1.047 1.047 0 0030.36 33.5H7.33a1.047 1.047 0 00-1.048 1.047V50.25a1.047 1.047 0 001.047 1.047zm1.047-15.703h20.938v13.61H8.375v-13.61zm40.828 15.703h2.094v2.094h-2.094v-2.094zm8.375 0h2.094v2.094h-2.094v-2.094zm-3.14 7.328a2.094 2.094 0 01-2.094-2.094H50.25a4.188 4.188 0 008.375 0h-2.094a2.094 2.094 0 01-2.093 2.094z"/><path d="M23.555 21.076l-7.328-4.188a1.047 1.047 0 00-1.57.909v8.375a1.047 1.047 0 001.57.909l7.328-4.188a1.046 1.046 0 000-1.817zm-6.805 3.291v-4.765l4.17 2.382-4.17 2.383zm38.734 8.086a1.047 1.047 0 00.804-1.718l-5.234-6.281a1.047 1.047 0 00-.757-.376 1.01 1.01 0 00-.787.306l-1.536 1.537-2.164-2.523a1.078 1.078 0 00-1.589 0l-6.281 7.328a1.046 1.046 0 00.794 1.727h16.75zM41.01 30.359l4.006-4.673 4.005 4.673h-8.01zm9.17-3.684l3.07 3.684h-1.472l-2.438-2.844.84-.84z"/><path d="M63.86 2.094H3.14A1.047 1.047 0 002.095 3.14v51.296a1.047 1.047 0 001.047 1.047h40.881a10.469 10.469 0 0020.884-1.047V3.142a1.047 1.047 0 00-1.047-1.047zm-9.422 60.718a8.376 8.376 0 118.374-8.374 8.385 8.385 0 01-8.374 8.374zm-9.053-13.609h-9.791V14.656h23.031V44.85a10.432 10.432 0 00-13.24 4.354zm17.428-1.02a10.563 10.563 0 00-2.094-2.1V13.608a1.047 1.047 0 00-1.047-1.046H34.547a1.047 1.047 0 00-1.047 1.046V50.25a1.047 1.047 0 001.047 1.047h9.904a10.35 10.35 0 00-.429 2.094H4.188V10.469h58.624v37.715zm0-39.808H4.187V4.187h58.626v4.188z"/><path d="M10.469 37.688h16.75v2.093h-16.75v-2.093zm0 4.187h16.75v2.094h-16.75v-2.094z"/></symbol></svg>