<svg width="252" height="316" fill="none" xmlns="http://www.w3.org/2000/svg"><g clip-path="url(#clip0)"><path fill-rule="evenodd" clip-rule="evenodd" d="M243.77 191.075v15.456a9.492 9.492 0 01-2.763 6.693 9.415 9.415 0 01-6.671 2.772h-66.52a8.018 8.018 0 00-5.684 2.362 8.093 8.093 0 00-2.355 5.704v74.703c0 4.2 1.663 8.228 4.623 11.198a15.757 15.757 0 0011.161 4.638h46.488V316h-46.488a17.151 17.151 0 01-12.147-5.048 17.266 17.266 0 01-5.031-12.187v-74.703a9.492 9.492 0 012.763-6.693 9.421 9.421 0 016.67-2.772h66.52a8.027 8.027 0 005.685-2.362 8.068 8.068 0 002.355-5.704v-15.456h1.394z" fill="#D8BAA3"/><path fill-rule="evenodd" clip-rule="evenodd" d="M212.469 215.996a8.294 8.294 0 00-5.877 2.442 8.353 8.353 0 00-2.435 5.897v74.431c0 4.199 1.663 8.227 4.623 11.197a15.757 15.757 0 0011.161 4.638h25.576V316h-25.576a17.15 17.15 0 01-12.146-5.048 17.262 17.262 0 01-5.032-12.186v-74.431a9.755 9.755 0 012.843-6.886 9.69 9.69 0 016.863-2.852v1.399z" fill="#D8BAA3"/><path d="M244.609 125.368a6.695 6.695 0 016.401 4.755 6.73 6.73 0 01.237 2.821l-6.545 50.79a36.51 36.51 0 01-12.049 22.713 36.285 36.285 0 01-23.995 9.082h-72.789a3.71 3.71 0 01-2.628-1.092 3.733 3.733 0 01-1.089-2.637v-.047a3.758 3.758 0 01.902-2.43 3.74 3.74 0 012.258-1.263c15.607-2.564 39.375-9.7 41.775-31.315l5.865-45.519a6.722 6.722 0 012.22-4.182 6.68 6.68 0 014.419-1.672l55.018-.004z" fill="#fff"/><path fill-rule="evenodd" clip-rule="evenodd" d="M244.609 124.668a7.371 7.371 0 013.045.661 7.414 7.414 0 014.022 4.59 7.426 7.426 0 01.262 3.115l-6.545 50.79a37.214 37.214 0 01-12.28 23.149 36.985 36.985 0 01-24.455 9.256h-72.789a4.41 4.41 0 01-3.121-1.297 4.438 4.438 0 01-1.293-3.132v-.05a4.456 4.456 0 011.07-2.882 4.439 4.439 0 012.676-1.498c7.771-1.277 17.516-3.685 25.599-8.427 8.069-4.733 14.426-11.753 15.595-22.275v-.006l5.866-45.526a7.424 7.424 0 012.451-4.617 7.374 7.374 0 014.879-1.846l55.018-.005zm0 1.399l-55.018.005a5.985 5.985 0 00-3.959 1.497 6.024 6.024 0 00-1.988 3.747l-5.864 45.513c-1.234 11.09-7.96 18.443-16.276 23.322-8.301 4.87-18.243 7.312-26.08 8.6h-.004a3.056 3.056 0 00-2.571 3.004v.045c0 .804.318 1.574.884 2.143a3.018 3.018 0 002.136.887h72.789a35.584 35.584 0 0023.534-8.908 35.808 35.808 0 0011.818-22.277l6.546-50.79a6.04 6.04 0 00-1.445-4.743 5.983 5.983 0 00-4.502-2.045z" fill="#D8BAA3"/><path d="M251.247 132.944l-6.545 50.79a36.51 36.51 0 01-12.049 22.713 36.285 36.285 0 01-23.995 9.082h-72.786a3.713 3.713 0 01-2.629-1.092 3.737 3.737 0 01-1.089-2.637v-.047a3.692 3.692 0 01.407-1.69 3.573 3.573 0 003.169 1.928h70.372a34.86 34.86 0 0023.054-8.721 35.078 35.078 0 0011.582-21.818l6.285-48.806a6.473 6.473 0 00-1.548-5.087 6.42 6.42 0 00-4.83-2.191h3.964a6.689 6.689 0 015.027 2.282 6.728 6.728 0 011.611 5.294z" fill="#F0E1D4"/><path fill-rule="evenodd" clip-rule="evenodd" d="M240.649 126.067h-.004v-1.399s-.001 0 0 0h3.964a7.378 7.378 0 015.55 2.52 7.422 7.422 0 011.78 5.846l-6.546 50.79a37.214 37.214 0 01-12.28 23.149 36.984 36.984 0 01-24.454 9.256h-72.787a4.41 4.41 0 01-3.122-1.297 4.438 4.438 0 01-1.293-3.132v-.047m108.589-30.391l6.286-48.806a5.778 5.778 0 00-1.38-4.535 5.734 5.734 0 00-4.303-1.954m9.907 6.788a6.039 6.039 0 00-1.444-4.744 5.996 5.996 0 00-4.222-2.037 7.16 7.16 0 012.824 6.662l-6.285 48.806a35.776 35.776 0 01-11.812 22.254 35.555 35.555 0 01-23.515 8.894h-70.371m67.729 75h-44.38v-1.399h44.38v1.399z" fill="#D8BAA3"/><path d="M89.85 294.532c0 1.616 3.416 8.231 3.303 11.08-.114 2.849-12.276 2.583-18.296 2.62-7.157.047-22.379.047-22.379.047s-1.475-6.583 6.362-7.495c7.838-.911 17.313-9.222 17.313-9.222l13.698 2.97zm85.509 2.182c.369 1.347 4.459 7.271 4.459 12.968 0 0-7.385 5.129-9.992 5.465-2.607.335-24.084 0-24.084 0s-.515-7.059 8.863-8.281c6.587-.86 6.81-8.858 6.81-8.858l13.944-1.294z" fill="#722D54"/><path fill-rule="evenodd" clip-rule="evenodd" d="M154.019 305.924a.582.582 0 01.584-.58c3.001.017 5.396.624 7.046 1.23.825.303 1.464.606 1.901.836a10.485 10.485 0 01.634.363l.036.023.011.007.003.002.002.002-.323.484.323-.484a.582.582 0 01-.646.968h-.001l-.004-.003a14.759 14.759 0 00-2.335-1.104c-1.545-.567-3.806-1.142-6.653-1.158a.582.582 0 01-.578-.586z" fill="#fff"/><path d="M204.243 158.755s10.456 18.904 6.36 32.353c-4.097 13.449-28.29 11.218-28.29 11.218s7.726 29.977-3.576 93.113c0 0-8.915 4.788-24.137 1.597 0 0-2.273-29.404-12.829-94.365l-19.186-.04s2.935 47.359-28.993 91.456c0 0-10.087 2.629-21.22-4.663 0 0 14.07-64.253 16.463-103.68.697-11.612 19.646-21.841 62.612-26.968 0-.002 38.82 2.346 52.796-.021z" fill="#3F4D90"/><path fill-rule="evenodd" clip-rule="evenodd" d="M162.888 172.43a.582.582 0 01-.427.704c-12.897 3.15-18.178 9.643-20.197 15.821-1.938 5.931-.907 11.671-.455 14.191l.065.363a.582.582 0 11-1.144.203l-.067-.374c-.455-2.529-1.535-8.527.497-14.746 2.159-6.608 7.79-13.358 21.026-16.59a.58.58 0 01.702.428zm17.052 22.258a.58.58 0 01.813.124l-.468.345.468-.345.001.001.002.003.006.008.019.027.066.098c.057.085.136.208.233.371.194.325.458.806.751 1.442.586 1.273 1.284 3.17 1.755 5.689a.58.58 0 11-1.142.215c-.452-2.418-1.119-4.222-1.668-5.416a14.041 14.041 0 00-.693-1.331 7.742 7.742 0 00-.265-.415l-.002-.002h.001a.583.583 0 01.123-.814z" fill="#fff"/><path d="M137.129 142.903c-10.066 14.975-54.983 8.588-66.673 6.641-.99 1.035-2.324 2.124-3.674 2.402-2.765.561-11.13-.168-12.24.699 0 0-.484-2.285 2.198-3.497 1.858-.834 5.04-.163 3.87-1.361-.794-.816-2.75-.639-6.91.659-1.563.49-7.28 3.25-8.762-.501l5.618-5.362c3.737-2.07 5.691-4.417 13.856-2.534a7.14 7.14 0 003.293.035c2.635-1.179 25.248-10.677 45.593-13.987l4.454-29.098c7.406 6.788 20.418 12.644 21.312 13.041 0 .037 2.338 26.517-1.935 32.863z" fill="#C36F0B"/><path d="M139.482 116.53c-4.486-2-15.651-7.509-22.266-15.981l.536-3.51c7.406 6.786 20.418 12.642 21.312 13.038 0 0 .235 2.639.418 6.453z" fill="#B65A18"/><path d="M191.619 44.678c1.576 1.58 11.806 9.355 33.281 22.093 3.866 2.293 14.924 12.982 14.25 35.648 0 0-8.181 7.889-28.868 12.288 0 0-4.624 33.53-4.961 42.328-.337 8.798-52.719 4.896-54.969 1.525-2.249-3.371-11.125-33.803-11.237-48.459 0 0-22.036-9.707-25.859-18.843 0 0 9.218-21.426 15.403-25.261 7.366-4.567 27.251-10.724 39.308-20.65l23.652-.67z" fill="#F0E1D4"/><path fill-rule="evenodd" clip-rule="evenodd" d="M208.021 95.904a.697.697 0 01.755.636l1.541 17.666a.697.697 0 11-1.389.122l-1.541-17.666a.699.699 0 01.634-.758zm-67.065-8.907a.7.7 0 01.48.864c-1.557 5.499-2.075 10.826-2.202 14.783a62.654 62.654 0 00.02 4.742 38.597 38.597 0 00.111 1.734l.002.021v.005a.699.699 0 01-.622.767.699.699 0 01-.765-.625l.694-.071-.694.071v-.003l-.001-.006-.002-.025a44.294 44.294 0 01-.116-1.806 64.372 64.372 0 01-.021-4.849c.13-4.032.658-9.479 2.255-15.12a.696.696 0 01.861-.482z" fill="#fff"/><path d="M171.344 91.558c3.392 19.797 11.954 48.023-2.359 56.649 0 0 3.3-7.677-4.559-25.702-11.007-25.244.832-55.233 3.59-61.597l-4.038-5.315 5.888-5.985 1.696.269 5.386 6.455-5.879 5.858c-.564 1.718-2.825 11.278.275 29.368z" fill="#FFB000"/><path d="M172.856 52.093l-6.555 6.57-.539-.7 6.472-6.487a.438.438 0 01.612.013.445.445 0 01.01.614v-.01zm2.201 2.651l-7.668 7.693c.232-.601.465-1.11.639-1.522l-.158-.207 6.576-6.593a.439.439 0 01.601.022.444.444 0 01.021.603l-.011.004zM171 62.425a18.29 18.29 0 00-.395 1.644l-5.984 5.996a88.15 88.15 0 01.614-1.865L171 62.425zm-1.011 6.08c-.04.424-.074.874-.105 1.343l-7.233 7.145a88.88 88.88 0 01.428-1.662l6.91-6.826zm-.237 6.779l-8.53 8.434c.088-.51.184-1.016.281-1.517l8.242-8.16c0 .41 0 .821.007 1.243zm.26 5.707l-9.759 9.623c.045-.466.095-.928.151-1.387l9.527-9.395c.023.38.051.765.081 1.16zm.558 5.413L159.846 96.98c0-.43.026-.854.04-1.278L170.433 85.3c.042.366.088.723.137 1.105zm.836 5.52l-11.453 11.148a52.574 52.574 0 01-.06-1.165l11.337-11.034c.035.233.074.466.114.7l.062.351zm1.044 5.596l-11.851 11.541a44.356 44.356 0 01-.158-1.077l11.816-11.5c.058.343.123.688.193 1.035zm1.122 5.701l-11.825 11.51c-.088-.329-.169-.66-.248-.989l11.866-11.549c.077.341.144.686.207 1.028zm1.113 5.744l-11.29 10.99c-.114-.303-.233-.606-.33-.909l11.436-11.111c.054.338.121.685.184 1.03zm1.066 6.213l-10.223 9.957c-.117-.292-.233-.583-.358-.881l10.421-10.141c.051.349.105.711.16 1.065zm.793 6.017l-9.213 8.968c-.098-.307-.2-.62-.305-.932l9.397-9.143c.044.368.083.739.121 1.107zm.434 6.42l-8.19 7.971a33.25 33.25 0 00-.233-1.007l8.381-8.16c.019.399.033.802.042 1.196zm-.153 5.32c-.04.466-.088.919-.142 1.371l-7.084 6.893a32.477 32.477 0 00-.098-1.133l7.324-7.131z" fill="#fff"/><path fill-rule="evenodd" clip-rule="evenodd" d="M170.711 48.205l8.55 9.736c6.471-.625 11.221-2.747 14.359-4.718a25.131 25.131 0 003.557-2.678c.388-.355.676-.645.864-.845a7.028 7.028 0 00.263-.29l.004-.005.001-.001h.001a.695.695 0 01.981-.09.701.701 0 01.091.984l-.536-.447.535.447-.002.003-.005.007a.286.286 0 00-.018.02l-.063.073a17.551 17.551 0 01-1.178 1.179 26.505 26.505 0 01-3.756 2.83c-3.355 2.106-8.428 4.354-15.327 4.957l-.35.03-8.035-9.15-7.907 7.926-.479-.335.399-.574-.399.574-.039-.028-.114-.08-.425-.302c-.364-.259-.88-.628-1.488-1.07a142.763 142.763 0 01-4.276-3.223.7.7 0 01-.118-.982.696.696 0 01.979-.117 141.419 141.419 0 004.233 3.189 161.26 161.26 0 001.569 1.129l8.129-8.149z" fill="#fff"/><path fill-rule="evenodd" clip-rule="evenodd" d="M144.957 131.408v-1.165h1.662c1.29 0 2.527.515 3.439 1.43a4.895 4.895 0 011.426 3.451v6.588a4.89 4.89 0 01-1.425 3.452 4.86 4.86 0 01-3.441 1.43h-1.649v-1.166h1.649c.983 0 1.925-.391 2.619-1.088a3.721 3.721 0 001.085-2.628v-6.587a3.707 3.707 0 00-3.704-3.717" fill="#722D54"/><path d="M140.881 127.553h-8.388a4.29 4.29 0 00-4.284 4.298v13.412a4.292 4.292 0 004.284 4.299h8.388a4.292 4.292 0 004.285-4.299v-13.412a4.291 4.291 0 00-4.285-4.298z" fill="#fff"/><path fill-rule="evenodd" clip-rule="evenodd" d="M132.493 128.135a3.71 3.71 0 00-3.704 3.716v13.412a3.71 3.71 0 003.704 3.716h8.388a3.71 3.71 0 003.704-3.716v-13.412a3.71 3.71 0 00-3.704-3.716h-8.388zm-4.865 3.716c0-2.696 2.178-4.881 4.865-4.881h8.388a4.873 4.873 0 014.866 4.881v13.412a4.873 4.873 0 01-4.866 4.881h-8.388c-2.687 0-4.865-2.185-4.865-4.881v-13.412z" fill="#722D54"/><path d="M235.01 105.306s1.459 31.956-2.802 37.168c-13.156 16.086-69.462 6.15-69.462 6.15l-.22-8.357s24.207-8.705 45.849-12.22l1.468-13.118s15.659-3.119 25.167-9.623z" fill="#C36F0B"/><path d="M235.224 113.33c-8.089 4.154-20.801 4.452-25.543 4.324l.162-2.725s15.659-3.119 25.167-9.623c0 0 .151 3.329.214 8.024z" fill="#B65A18"/><path d="M163.36 139.504s-7.499-5.995-10.998-4.949c-3.499 1.047-3.95 5.514-4.371 6.654-.42 1.14-.79 5.221-.78 6.471.009 1.25 3.52 1.865 4.919 1.865 1.399 0 10.565.11 12.331-.378 1.766-.487-1.101-9.663-1.101-9.663z" fill="#C36F0B"/><path d="M152.13 149.547c-1.394 0-3.911.089-4.685-.846-1.533-1.865-1.061-5.161-.731-6.42.281-1.082 2.151-6.677 5.648-7.726 0 0-4.268 7.819-.232 14.992z" fill="#B65A18"/><path d="M165.156 138.784h-.957c-.814 0-1.474.662-1.474 1.478v7.791c0 .816.66 1.478 1.474 1.478h.957c.814 0 1.473-.662 1.473-1.478v-7.791c0-.816-.659-1.478-1.473-1.478z" fill="#FFB000"/><path d="M166.999 140.437h-4.685c-.76 0-1.375.618-1.375 1.38v4.7c0 .762.615 1.38 1.375 1.38h4.685c.759 0 1.375-.618 1.375-1.38v-4.7c0-.762-.616-1.38-1.375-1.38z" fill="#3F4D79"/><path fill-rule="evenodd" clip-rule="evenodd" d="M162.314 140.67c-.631 0-1.143.513-1.143 1.147v4.7c0 .633.512 1.146 1.143 1.146h4.685c.631 0 1.143-.513 1.143-1.146v-4.7c0-.634-.512-1.147-1.143-1.147h-4.685zm-1.608 1.147c0-.891.72-1.613 1.608-1.613h4.685a1.61 1.61 0 011.607 1.613v4.7a1.61 1.61 0 01-1.607 1.613h-4.685a1.611 1.611 0 01-1.608-1.613v-4.7z" fill="#fff"/><path opacity=".2" d="M160.939 146.519v-4.707a1.374 1.374 0 011.373-1.375h4.689l-6.062 6.082z" fill="#fff"/><path d="M191.619 32.271s-3.253 6.422 0 12.407c1.078 1.981-24.532.841-24.532.841l3.283-13.248h21.249z" fill="#C36F0B"/><path d="M168.109 12.397c-.39 3.397-.66 11.381-4.473 20.007-3.813 8.625 11.358 8.418 15.283 7.324 3.994-1.112 6.473-4.268 6.473-4.268s7.954-2.098 7.949-5.362c0-2.524-4.034-1.308-4.034-1.308s2.238-16.933-1.796-17.81c-4.034-.877-18.953-2.504-19.402 1.417z" fill="#C36F0B"/><path d="M189.096 29.215c-1.394.643-4.822-3.103-3.046-7.227 2.123-4.921 2.774-9.122-.997-9.95-3.771-.827-7.436 3.609-15.171 1.422-7.735-2.186-6.559-11.915.088-12.68 6.648-.764 7.519 4.26 8.598 4.37 1.078.11 8.402-3.176 12.494 1.088 3.397 3.541 2.193 5.7 3.12 5.92.927.218 4.113 1.52 3.894 4.909-.218 3.39-5.606 11.71-5.606 11.71s-1.253-.546-3.374.438z" fill="#722D54"/><path fill-rule="evenodd" clip-rule="evenodd" d="M162.458 6.724c-.151 2.94 1.408 6.029 5.097 7.071 3.791 1.072 6.595.644 8.935-.145.993-.335 1.9-.734 2.777-1.12l.49-.214c1.02-.444 2.014-.85 3.025-1.054l.137.686c-.931.187-1.864.565-2.885 1.01l-.481.21c-.876.386-1.816.799-2.841 1.145-2.45.826-5.399 1.27-9.346.155-4.048-1.144-5.769-4.565-5.605-7.78.164-3.197 2.208-6.281 5.746-6.688l.08.695c-3.11.357-4.978 3.073-5.129 6.03zm33.046 5.282c-1.106-.05-2.09.278-2.481.463l-.298-.633c.471-.222 1.568-.585 2.811-.528 1.257.057 2.678.546 3.721 2.043l-.572.4c-.892-1.28-2.089-1.695-3.181-1.745z" fill="#722D54"/><path d="M190.59 27.073c-1.253 1.312-4.183 5.951-4.731 10.905s-3.811 8.91-12.083 8.581c-8.272-.328-12.875-2.625-13.309-5.362-.435-2.736 3.604-9.865 3.604-9.865s3.058-5.204 7.526-4.197c4.468 1.008 5.344 8.377 8.172 8.344 5.3-.063 7.814-9.98 7.814-9.98l3.007 1.574z" fill="#722D54"/><path d="M132.045 123.202H16.758c-1.422 0-2.584-1.28-2.584-2.86L.697 47.074c0-1.58 1.162-2.86 2.588-2.86h115.29c1.429 0 2.588 1.28 2.588 2.86l13.477 73.268c-.004 1.58-1.164 2.86-2.595 2.86z" fill="#fff"/><path fill-rule="evenodd" clip-rule="evenodd" d="M1.395 47.014l13.476 73.264v.064c0 1.26.912 2.161 1.887 2.161h115.287c.969 0 1.865-.873 1.897-2.102l-13.476-73.263v-.064c0-1.259-.909-2.16-1.891-2.16H3.285c-.964 0-1.862.873-1.89 2.1zM0 47.074c0-1.902 1.413-3.56 3.286-3.56h115.289c1.853 0 3.252 1.62 3.285 3.493l13.478 73.272-.001.065c-.005 1.9-1.414 3.558-3.292 3.558H16.758c-1.847 0-3.248-1.62-3.28-3.493L0 47.139v-.065z" fill="#D8BAA3"/><path d="M129.229 123.202H16.589c-1.376 0-2.49-1.231-2.49-2.751L1.147 50.009c0-1.52 1.115-2.75 2.49-2.75h112.639c1.375 0 2.49 1.23 2.49 2.75l12.952 70.442c0 1.52-1.115 2.751-2.488 2.751z" fill="#fff"/><path fill-rule="evenodd" clip-rule="evenodd" d="M1.843 49.95l12.954 70.437v.064c0 1.2.863 2.052 1.791 2.052H129.23c.911 0 1.762-.825 1.79-1.992l-12.951-70.438v-.064c0-1.198-.864-2.051-1.793-2.051H3.636c-.913 0-1.764.825-1.793 1.991zm-1.395.06c0-1.842 1.367-3.45 3.188-3.45h112.639c1.799 0 3.154 1.569 3.187 3.382l12.952 70.445v.064c0 1.842-1.365 3.451-3.185 3.451H16.589c-1.801 0-3.153-1.571-3.186-3.383L.448 50.073v-.064z" fill="#D8BAA3"/><path d="M74.448 98.897l6.225 23.629h-6.225V98.897z" fill="#F0E1D4"/><path d="M109.48 146.134v2.809l-40.47-9.868-40.474 9.868v-2.809l36.236-11.782V99.571h9.002v34.954l35.706 11.609z" fill="#fff"/><path fill-rule="evenodd" clip-rule="evenodd" d="M64.075 98.872h10.396v35.145l35.706 11.609v4.207L69.01 139.795l-41.17 10.038v-4.207l36.236-11.782V98.872zm1.394 1.398v34.591l-36.236 11.782v1.411l39.777-9.698 39.773 9.698v-1.411l-35.706-11.609V100.27h-7.608z" fill="#D8BAA3"/><path d="M28.087 149.167h138.526a4.428 4.428 0 013.139 1.308 4.46 4.46 0 011.297 3.152v1.166a4.46 4.46 0 01-1.3 3.147 4.43 4.43 0 01-3.136 1.303H28.157l-.07-10.076z" fill="#fff"/><path fill-rule="evenodd" clip-rule="evenodd" d="M166.613 149.867H28.088v-1.399h138.525a5.122 5.122 0 013.632 1.513 5.161 5.161 0 011.501 3.647v1.164a5.159 5.159 0 01-1.504 3.642 5.126 5.126 0 01-3.629 1.508H28.157v-1.399h138.456c.991 0 1.942-.395 2.643-1.098a3.756 3.756 0 001.095-2.653v-1.166a3.768 3.768 0 00-1.092-2.657 3.736 3.736 0 00-2.646-1.102z" fill="#D8BAA3"/><path d="M132.045 315.39V159.416h9.664v155.962l-9.664.012z" fill="#fff"/><path d="M132.045 162.509v-3.093h9.664v10.751l-9.664-7.658z" fill="#F0E1D4"/><path fill-rule="evenodd" clip-rule="evenodd" d="M131.348 158.716h11.058v156.725h-1.394V160.115h-8.27v155.274h-1.394V158.716z" fill="#D8BAA3"/></g><defs><clipPath id="clip0"><path fill="#fff" d="M0 0h252v316H0z"/></clipPath></defs></svg>