<svg width="181" height="483" fill="none" xmlns="http://www.w3.org/2000/svg"><path d="M.373 132.303s5.946-11.723 5.144-15.207c-.803-3.485 4.183-10.928 4.183-10.928L9.377 93.82s.69 1.263 4.278 2.367c.304-.397.632-.789.973-1.161a25.472 25.472 0 014.31-3.592l6.318-13.623 6.11-9.35s9.637-19.57 19.589-23.888l1.567-3.061a.24.24 0 01-.095-.31l1.592-3.112a.246.246 0 01.31-.114l1.523-2.98a23.92 23.92 0 014.423-10.662c.158-.22.328-.422.493-.63l-2.477-.09c-2.174-.081-4.6-.27-6.06-1.893a5.535 5.535 0 01-1.131-2.083 8.835 8.835 0 01-.367-1.85V15.97c0-.133.07-.436.108-.631 0-.082 0-.165.05-.247a7.35 7.35 0 01.196-.732.969.969 0 00.044-.145 10.872 10.872 0 01.335-.852c.114-.246.24-.486.373-.72l.038-.076c.047-.098.1-.193.158-.284 1.713-2.69 4.72-4.261 7.583-5.681a87.68 87.68 0 018.214-3.788 44.268 44.268 0 0132.225.454 12.77 12.77 0 012.869 1.528 14.812 14.812 0 013.128 3.674l4.897 7.228a10.22 10.22 0 011.586 2.917c.916 3.434-1.959 6.875-1.637 10.416.164 1.762 1.112 3.378 1.296 5.139.233 2.273-.822 4.463-1.852 6.515l-7.007 13.888c.373 1.824.783 3.693 1.232 5.498 3.229 3.334 4.316 5.152 4.613 6.137l.094.05c.64.413 1.19.95 1.618 1.578l6.66 6.465s11.576 3.005 13.983 6.811c0 0 18.166-.795 18.008 24.551 0 0 .803 9.507 1.264 10.776.461 1.269 0 14.097 0 14.097l.215 25.983s.695 13.781 0 18.693c-.695 4.911-1.498 23.603-1.498 23.603s-4.34 18.219-2.736 24.715c1.542 6.218 0 19.816-2.527 19.873-.48.991-1.03 1.477-1.63 1.2a7.193 7.193 0 00-.803-.291v15.524s3.128 21.747-.379 25.882c2.325 3.308 5.055 8.952 5.75 10.435l24.58-1.319 3.128.878 2.868.801 1.738 39.942-.695.05.051 1.219-1.643.12 2.287 40.225-34.026 2.797c1.497 3.352 3.235 6.944 3.911 7.291 1.264.631 4.019-1.263 4.663-.48.645.783 2.572 1.743 4.822 1.263 2.249-.48 3.696 2.058 3.696 2.058s-.329.29-.821.827c3.652-.442 8.271 1.515 10.779 2.777a30.82 30.82 0 011.826.992H181l-3.646 23.237-2.572 1.755-.631 18.307s-10.287 31.685-15.001 31.476a2.123 2.123 0 01-1.586-.795c-2.528-2.917-.777-12.935-.777-12.935V439.96s-3.855-1.692-3.425-2.96c.43-1.269-6.218-15.151-6.812-16.414a.102.102 0 01-.039-.043.106.106 0 01-.011-.058c0-1.427-2.894-3.011-2.73-3.642.164-.632-7.077-4.596-7.582-8.081-.506-3.485-5.302-1.584-5.302-1.584l-6.104-7.008c-.183 8.542-.53 14.52-1.131 16.035-2.894 7.291-4.018 18.699-4.018 18.699s1.769 8.711 0 11.565c-1.087 1.742-3.615 3.611-5.371 5.157 1.826 5.531 1.567 17.285 1.567 17.285v6.755l-13.503 3.788s-.424-3.378-1.068-3.378c-.645 0-9.22 6.547-9.22 6.547s-33.008.423-41.361 0c-3.16-.158-4.02-1.515-3.533-3.157.803-2.733 5.308-6.275 9.314-6.546 6.433-.423 14.578-7.178 14.578-7.178s-.632-1.483 2.786-3.592c2.363-1.452 8.903-7.329 12.947-10.77-.19-.259-.385-.517-.569-.795 0 0 5.466-7.576 4.335-10.934-1.131-3.358.487-8.207.487-8.207s3.051-9.349 3.051-14.103c0-3.011.455-20.138.784-32.284l-2.818.234-.057-1.212-1.264.114-11.948 1.098.366-12.758c-5.756-2.525-10.546-4.868-12.53-6.364-6.748-5.05-12.536-5.385-12.536-5.385s-13.661-7.285-15.753-10.296c-2.091-3.011-1.895-24.872-1.895-24.872l1.124-46.854v-.038s.96-22.651 2.894-27.562c.708-1.818 2.458-7.879 4.373-14.798a11.474 11.474 0 00-3.299.139c-.07 1.692-.113 2.854-.113 3.251 0 2.69-3.855 4.975-3.855 4.975l2.73-60.604v-41.229c-8.417 2.677-28.77 3.51-28.77 3.51-14.665-.77-11.133-14.103-11.133-14.103zm79.389-52.068h.044a42.009 42.009 0 00-1.17-4.703l1.126 4.703zM135 288.098c-4.986.821-10.742.581-11.178-.385-.044-.095-.101-.265-.177-.486-.158.278-.31.562-.468.852l.487 9.141v.209l16.429-.884c-1.15-4.893-3.324-7.279-5.093-8.447zM80.236 334.22l.423-14.804a2281.98 2281.98 0 01-1.953-7.323 150.304 150.304 0 00-.632 4.88c-1.554 14.046.74 16.786 2.162 17.247zM33.477 112.273c.942.359 4.524-1.894 7.924-4.23 0-.429-.032-.852-.05-1.263-.481-9.665 15.272-15.68 20.093-16.792a17.328 17.328 0 003.386-1.262 79.032 79.032 0 007.482-4.224l-.063-.183s6.217-3.933 6.35-8.838a83.87 83.87 0 00-5.346-12.96c-.12-.246-.252-.505-.379-.751a24.81 24.81 0 01-8.088-4.28c-.967 12.625-19.253 23.49-19.253 23.49l-1.952 3.156-.462.745c.986.58 1.46 1.048 1.125 1.32-1.39 1.11-4.752 7.398-6.142 10.056-.379.72-.631 1.168-.631 1.168s-2.99 8.124-4.702 14.923a1.26 1.26 0 01.72-.075h-.012z" fill="url(#paint0_linear)"/><path d="M26.413 79.528l.215.284.733.979 14.059 9.923 2.982-4.898 1.896-3.157S74.32 65.867 62.272 49.681c-12.05-16.186-29.856 20.517-29.856 20.517l-6.003 9.33z" fill="#FFC5D3"/><path d="M54.689 39.985a.24.24 0 01.429.216l-1.564 3.1a.24.24 0 01-.428-.215l1.563-3.101zm16.043 4.336l.006.003a.133.133 0 01.059.178l-.466.925a.133.133 0 01-.178.059l-.006-.003a.132.132 0 01-.059-.178l.466-.925a.133.133 0 01.178-.059zm-1.275 2.189a.152.152 0 01.27.137l-.883 1.754a.152.152 0 01-.271-.137l.884-1.753zm-1.364 2.73a.145.145 0 01.26.13l-.898 1.783a.145.145 0 01-.26-.131l.898-1.782z" fill="#3A3768"/><path d="M59.592 33.897l11.806 5.94c.698.35.98 1.201.627 1.899L58.628 68.314a1.416 1.416 0 01-1.9.627l-11.807-5.94a1.413 1.413 0 01-.627-1.899L57.69 34.523a1.416 1.416 0 011.9-.627z" fill="#3A3768"/><path d="M61.103 35.584a.569.569 0 01.252.77l-.05.108a.574.574 0 00.253.776l6.078 3.055a.571.571 0 00.771-.252l.057-.107a.576.576 0 01.77-.26l1.183.6a1.087 1.087 0 01.486 1.471L57.988 67.357a1.105 1.105 0 01-1.479.486l-10.603-5.335a1.105 1.105 0 01-.486-1.477l12.922-25.624a1.098 1.098 0 011.478-.486l1.283.663z" fill="#6C63FF"/><path d="M64.635 37.524l1.597.803a.227.227 0 11-.204.406l-1.597-.803a.227.227 0 11.204-.406zm-.828.074a.259.259 0 110-.518.259.259 0 010 .518z" fill="#E6E8EC"/><path d="M52.004 133.818l3.95 105.88s-13.27-4.419-15.324-1.105c-2.053 3.314 2.212-53.028 2.212-53.028l9.162-51.747z" fill="#5F5570"/><path opacity=".15" d="M52.004 133.818l3.95 105.88s-13.27-4.419-15.324-1.105c-2.053 3.314 2.212-53.028 2.212-53.028l9.162-51.747z" fill="#000"/><path d="M51.372 482.812c8.214.423 40.648 0 40.648 0s8.429-6.521 9.061-6.521c.632 0 1.049 3.365 1.049 3.365l13.269-3.788v-6.729s.424-19.16-3.576-19.993c-4-.834-21.699 0-21.699 0-.631-.209-12.637 11.155-16.005 13.257-3.368 2.102-2.736 3.579-2.736 3.579s-8.006 6.73-14.324 7.153c-3.937.265-8.366 3.787-9.156 6.521-.48 1.647.373 2.998 3.469 3.156z" fill="#BC8487"/><path opacity=".1" d="M51.372 482.812c8.214.423 40.648 0 40.648 0s8.429-6.522 9.061-6.522c.632 0 1.049 3.365 1.049 3.365l13.269-3.788v-6.596l-12.422 4.494-9.902 5.89H47.903c-.48 1.648.373 2.999 3.469 3.157z" fill="#000"/><g opacity=".1"><path d="M88.254 472.926s-10.11-9.678-16.871-6.944l16.87 6.944z" fill="#000"/><path d="M88.254 472.926s-10.11-9.678-16.871-6.944" stroke="#000" stroke-miterlimit="10"/></g><path d="M152.263 437.359c-.423 1.263 3.368 2.948 3.368 2.948v16.622s-1.719 9.981.765 12.891a2.074 2.074 0 001.554.789c4.632.208 14.742-31.356 14.742-31.356l.631-18.238 2.528-1.749 3.583-23.149H172.9s-.689-.423-1.794-.991c-3.16-1.61-9.776-4.419-13.371-1.742l-12.214 27.492s7.159 15.221 6.742 16.483z" fill="#BC8487"/><path opacity=".1" d="M156.396 469.82a2.074 2.074 0 001.554.789c4.632.208 14.742-31.356 14.742-31.356l.631-18.238 2.528-1.749 3.583-23.149H172.9s-.689-.423-1.794-.991l-1.574 23.717-.84 20.41s-7.937 22.221-12.296 30.567z" fill="#000"/><path d="M39.208 351.138c2.054 2.999 15.481 10.259 15.481 10.259s5.687.315 12.322 5.366c3.43 2.613 15.354 7.796 26.064 12.196a923.925 923.925 0 0018.956 7.531l10.313 11.995 7.854 9.135s4.739-1.894 5.213 1.578c.474 3.472 7.582 7.417 7.424 8.049-.158.631 2.686 2.209 2.686 3.63 0 1.42 10.583-10.259 10.425-17.361-.157-7.102 5.371-11.994 5.371-11.994s-1.421-2.525-3.633-2.052c-2.211.474-4.107-.473-4.739-1.263-.632-.789-3.317 1.105-4.581.474-1.264-.631-6.319-13.099-6.319-13.099l-19.695-13.2-39.176-26.237-1.807-1.212s-5.213 2.387-3.097-17.164c.411-3.788 1.1-8.39 2.149-13.996 6.477-34.563-16.745-38.508-16.745-38.508l-20.377 6.786-4.897 7.575v.038l-1.106 46.678s-.14 21.798 1.914 24.796z" fill="#433A59"/><path opacity=".1" d="M93.233 373.233s-.064 2.241-.158 5.726a922.196 922.196 0 0018.956 7.531l10.312 11.995c.17-9.943.133-22.859 0-36.097l-39.176-26.237a17410.898 17410.898 0 0010.066 37.082zm-54.815-93.588v.038l30.646.593s5.37 20.991 6.16 25.41c.197 1.085 1.385 5.725 3.065 12.101.411-3.787 1.1-8.39 2.149-13.995 6.476-34.563-16.745-38.509-16.745-38.509l-20.378 6.787-4.897 7.575z" fill="#000"/><path d="M119.141 222.356l3.949 75.754s2.843 111.264 0 118.524c-2.844 7.26-3.949 18.623-3.949 18.623s1.737 8.68 0 11.521c-1.738 2.841-7.267 5.997-7.109 7.575.158 1.579-16.903 10.101-25.749-3.472 0 0 5.371-7.575 4.265-10.889-1.105-3.315.474-8.207.474-8.207s3.002-9.312 3.002-14.065c0-4.754 1.105-44.506 1.105-44.506s-17.218-63.128-18.008-67.547c-.79-4.419-6.16-25.41-6.16-25.41l-32.542-.631s.948-22.568 2.844-27.461c1.895-4.892 11.215-40.718 11.215-40.718l66.663 10.909z" fill="#433A59"/><path d="M173.449 296.62l2.825.808.114 2.79-84.684 1.093v-1.099l81.745-3.592z" fill="#7B728F"/><path d="M73.563 64.295c12.322 24.967 4.67 30.188 3.45 30.832 2.61-1.212 36.529-17.133 32.068-21.173-2.901-2.633-5.384-14.084-6.844-22.291-.865-4.899-1.371-8.642-1.371-8.642l-35.593 6.52c3.45 5.556 6.192 10.449 8.29 14.754z" fill="#FFC5D3"/><path opacity=".1" d="M26.603 79.812l.732.978 14.085 9.924 2.982-4.899c-4.34-2.525-17.357-6.944-17.357-6.944l-.442.94z" fill="#000"/><path d="M13.618 102.569c1.264 4.419 22.59 0 22.59 0l2.21-3.472s.222-.441.595-1.161c1.365-2.645 4.67-8.908 6.034-10.019 1.738-1.42-18.64-8.364-18.64-8.364l-6.243 13.572a25.149 25.149 0 00-4.233 3.58c-1.58 1.71-2.888 3.851-2.313 5.864z" fill="#E5E8EF"/><path d="M49.003 104.603s-12.638 9.961-14.533 9.242c-1.896-.72-32.541 19.954-32.541 19.954s-3.476 13.257 10.9 14.047c0 0 30.487-1.263 31.75-5.682 1.265-4.419 4.424-37.561 4.424-37.561z" fill="#5F5570"/><path opacity=".1" d="M83.44 84.578L97.182 98.78 77.91 221.251l-7.582-4.419s-19.588 8.68-21.168.631c-1.58-8.049-1.143-39.771-1.143-39.771l2.565-57.308s9.004-20.043 9.004-20.674c0-.632 12.985-10.417 12.985-10.417l6.13-4.734 4.738.019z" fill="#000"/><path d="M83.44 82.684l13.743 14.204L77.91 219.357l-7.582-4.419s-19.588 8.681-21.168.632c-1.58-8.049-1.143-39.771-1.143-39.771l2.565-57.308s9.004-20.044 9.004-20.675c0-.631 12.985-10.416 12.985-10.416l6.13-4.735 4.738.019z" fill="#E5E8EF"/><path opacity=".1" d="M82.65 84.736l3.79 7.733-3.79 3.996s-13.586 27.411-10.9 43.666l-2.844 53.502-9.162 8.996-7.267-8.384 3.476-48.609s9.32-40.086 19.114-52.554l2.843-11.048 4.74 2.702z" fill="#000"/><path d="M82.65 83.473l3.79 7.734-3.79 3.996s-13.586 27.41-10.9 43.666l-2.844 53.501-9.162 8.996-7.267-8.383 3.476-48.609s9.32-40.087 19.114-52.555l2.843-11.047 4.74 2.701z" fill="#BC8487"/><path opacity=".1" d="M65.273 49.542c3.45 5.555 6.167 10.448 8.29 14.753a24.29 24.29 0 006.887.991c7.81 0 12.31-5.397 16.732-11.13 1.011-1.3 4.335-.997 5.055-2.524-.865-4.9-1.371-8.643-1.371-8.643l-35.593 6.553z" fill="#000"/><path d="M56.23 40.451a24.189 24.189 0 005.807 15.718 24.238 24.238 0 0031.08 4.906 24.18 24.18 0 009.702-29.904 24.206 24.206 0 00-11.395-12.292 24.24 24.24 0 00-16.656-1.95 24.22 24.22 0 00-13.931 9.325 24.182 24.182 0 00-4.606 14.197z" fill="#FFC5D3"/><path opacity=".1" d="M88.179 94.363l19.904-23.989s1.838-.738-4.373-7.234c0 0-22.81 17.764-24.226 20.782-1.415 3.017 8.695 10.441 8.695 10.441z" fill="#000"/><path d="M88.81 93.1l19.904-23.988s1.839-.74-4.372-7.235c0 0-22.81 17.764-24.226 20.782-1.415 3.017 8.695 10.441 8.695 10.441z" fill="#E5E8EF"/><path d="M38.419 245.777s3.791-2.272 3.791-4.955c0-2.683 1.896-40.56 1.896-40.56s2.78-22.607 5.686-40.573c1.706-10.587 3.457-19.57 4.695-21.35l.05-.076c3.318-4.261 2.686-25.094 23.38-55.553-.278.19-7.412 5.19-12.637 7.702-1.064.534-2.18.957-3.33 1.262-4.74 1.105-20.22 7.102-19.746 16.729.474 9.627-1.106 31.722-1.106 31.722v45.283l-2.68 60.369zm0-146.679s-6.635 18.307-5.687 22.884c.948 4.577-15.323 22.568-15.323 22.568L1.93 133.818s5.844-11.678 5.054-15.15c-.79-3.472 4.108-10.89 4.108-10.89l-.316-12.297s2.843 5.334 27.644 3.617z" fill="#5F5570"/><path opacity=".1" d="M60.837 26.253l12.006.455a13.382 13.382 0 013.475.435c4.29 1.32 6.268 5.878 6.426 9.975.158 4.097 2.528 8.686 7.121 9.046.458.078.927-.027 1.308-.29.292-.31.485-.699.556-1.118a24.421 24.421 0 013.02-6.742c1.896.341 3.3 2.14 3.792 4.021.493 1.882.36 3.864.354 5.815a37.553 37.553 0 00.714 7.38 24.176 24.176 0 001.679-27.052A24.23 24.23 0 0076.789 16.54a24.233 24.233 0 00-15.97 9.714h.018z" fill="#000"/><path d="M76.944 26.513a13.382 13.382 0 00-3.476-.436l-14.577-.542c-2.136-.082-4.518-.272-5.952-1.856a5.562 5.562 0 01-1.112-2.077 8.957 8.957 0 01.941-7.342c1.687-2.683 4.645-4.242 7.463-5.682A86.752 86.752 0 0168.3 4.791a43.004 43.004 0 0131.657.454c.998.383 1.945.89 2.818 1.509a14.571 14.571 0 013.071 3.661l4.795 7.222a9.955 9.955 0 011.511 2.917c.903 3.428-1.896 6.856-1.605 10.384.164 1.755 1.093 3.365 1.263 5.12.228 2.266-.808 4.42-1.826 6.483l-8.429 16.988a37.608 37.608 0 01-2.04-12.31c0-1.95.163-3.933-.355-5.814-.518-1.881-1.895-3.68-3.79-4.021a24.339 24.339 0 00-3.028 6.742c-.07.42-.263.809-.556 1.117a1.77 1.77 0 01-1.308.29c-4.619-.36-6.95-4.904-7.12-9.046-.171-4.14-2.124-8.655-6.414-9.974z" fill="#8F7080"/><path d="M176.273 297.429l-5.901-1.686-88.987 4.842 9.794 1.263 85.094-4.419z" fill="#7B728F"/><path opacity=".1" d="M176.273 297.429l-5.901-1.686-88.987 4.842 9.794 1.263 85.094-4.419z" fill="#000"/><path d="M78.965 385.808l11.74-1.092 4.12-.378v-65.237l-1.087-15.145-.24-3.371H81.385l-2.42 85.223z" fill="#7B728F"/><path opacity=".1" d="M82.175 383.492l9.365-1.035 3.285-.36v-61.853l-.865-14.356-.19-3.2h-9.661l-1.934 80.804z" fill="#000"/><path d="M146.393 297.428s-5.845-12.809-8.297-13.206c-2.452-.398-6.95 0-6.95 0l.398 3.712s6.002.473 7.898 10.492l6.951-.998z" fill="#7B728F"/><path opacity=".1" d="M146.393 297.428s-5.845-12.809-8.297-13.206c-2.452-.398-6.95 0-6.95 0l.398 3.712s6.002.473 7.898 10.492l6.951-.998z" fill="#000"/><path d="M123.721 282.884s-15.715 7.809-13.661 16.962l8.53-.473s4.107-13.648 7.343-14.362c3.235-.713-2.212-2.127-2.212-2.127z" fill="#7B728F"/><path d="M65.272 159.227v.461l.316 52.567s8.057 44.19 10.268 45.926c2.212 1.736 50.708-2.998 50.708-2.998l21.957-147.879c.158-25.251-17.692-24.462-17.692-24.462-2.369-3.788-13.743-6.787-13.743-6.787l-6.319-6.155-.202-.284a5.615 5.615 0 00-1.592-1.572c-1.302-.75-2.13.24-2.604 1.219a7.4 7.4 0 00-.493 1.433c-25.597 18.755-40.604 88.531-40.604 88.531z" fill="#5F5570"/><path opacity=".1" d="M65.905 159.859v.461c7.943-14.52 38.544-69.53 46.917-72.27l-3.223-2.21s-2.148-1.262 1.801-2.525c0 0 6.161.79 6.319-6.628l-6.521-6.44-1.592-1.571-2.604 1.218a7.4 7.4 0 00-.493 1.433C80.912 90.083 65.905 159.86 65.905 159.86z" fill="#000"/><path d="M65.273 159.228v.461c7.943-14.52 38.545-69.53 46.917-72.27l-3.223-2.21s-2.148-1.262 1.801-2.525c0 0 6.161.79 6.319-6.628l-6.521-6.44-1.592-1.571-2.604 1.218a7.33 7.33 0 00-.492 1.433c-25.598 18.756-40.605 88.532-40.605 88.532z" fill="#433A59"/><path opacity=".1" d="M53.849 138.944l.05-.075c3.317-4.262 2.685-25.094 23.38-55.554-.279.19-7.412 5.19-12.638 7.702l1.46 4.81-3.16 1.686-9.093 41.431z" fill="#000"/><path d="M54.48 138.313l.05-.075c3.318-4.261 2.686-25.094 23.38-55.553-.278.189-7.412 5.189-12.637 7.701l1.46 4.81-3.16 1.686-9.093 41.431z" fill="#433A59"/><path opacity=".1" d="M78.82 77.823l1.295 5.467s-.948 5.473-6.628 5.947l-.916-2.607s6.129-3.927 6.249-8.807z" fill="#000"/><path d="M78.82 77.192l1.295 5.467s-.948 5.474-6.628 5.947l-.916-2.607s6.129-3.927 6.249-8.807z" fill="#E5E8EF"/><path opacity=".1" d="M86.99 301.469l3.715 83.247 4.12-.378v-65.237l-1.087-15.145-6.748-2.487z" fill="#000"/><path d="M175.427 333.62l2.527 45.03-85.934 7.158-3.766-84.339 87.173 32.151z" fill="#7B728F"/><path opacity=".1" d="M177.322 338.462l-1.681-39.771-88.02 4.041 4.19 42.043 85.511-6.313z" fill="#000"/><path d="M177.954 337.2l-1.681-39.771-88.02 4.04 4.19 42.044 85.511-6.313z" fill="#7B728F"/><path d="M130.356 337.25h10.583v12.31h-10.583v-12.31z" fill="#C3BBC8"/><path d="M139.36 256.604l1.58 4.261s3.317 23.357-.79 26.198c-4.107 2.841-16.271 2.999-16.903 1.578-.632-1.42-5.055-17.518-5.055-17.518s-3.949 11.837-6.003 10.89c-2.053-.947 4.739-23.446 4.739-23.446l22.432-1.963z" fill="#FFC5D3"/><path opacity=".1" d="M140.939 238.928v22.568s-16.744 3.157-24.011-2.298c0 0 6.793-21.848 4.265-27.372-2.527-5.524 19.746 7.102 19.746 7.102z" fill="#000"/><path d="M140.939 238.296v22.569s-16.744 3.156-24.011-2.298c0 0 6.793-21.849 4.265-27.373-2.527-5.524 19.746 7.102 19.746 7.102z" fill="#E5E8EF"/><path opacity=".1" d="M142.835 106.2l4.423 2.367s.79 9.47 1.264 10.732c.474 1.263 0 14.046 0 14.046l.215 25.883s.682 13.731 0 18.623c-.683 4.892-1.447 23.515-1.447 23.515s-4.272 18.15-2.692 24.621c1.58 6.47-.158 20.99-2.843 19.727-2.686-1.262-27.487-6.155-28.751-7.102-1.263-.947-.631-9.785 0-10.889.632-1.105 4.424-16.098 4.108-19.57-.316-3.472 1.105-33.932 1.105-33.932s-2.369-32.511-3.317-40.087c-.948-7.575 1.896-29.828 4.423-30.143 2.528-.316 9.927-17.519 23.512 2.209z" fill="#000"/><path d="M144.099 104.937l4.423 2.368s.79 9.469 1.264 10.732c.473 1.262 0 14.046 0 14.046l.214 25.882s.683 13.731 0 18.623c-.682 4.893-1.447 23.516-1.447 23.516s-4.271 18.149-2.691 24.62c1.579 6.471-.158 20.99-2.844 19.728-2.685-1.263-27.486-6.156-28.75-7.102-1.264-.947-.632-9.785 0-10.89.632-1.105 4.423-16.098 4.107-19.57-.316-3.472 1.106-33.932 1.106-33.932s-2.369-32.511-3.317-40.086c-.948-7.576 1.895-29.828 4.423-30.144 2.527-.316 9.927-17.518 23.512 2.209z" fill="#5F5570"/><path opacity=".1" d="M96.323 35.016c1.896.34 3.299 2.14 3.791 4.02.493 1.882.361 3.864.354 5.815a37.606 37.606 0 002.035 12.31l8.435-16.988c.165-.334.335-.682.5-1.029a23.106 23.106 0 01-1.447 3.397l-8.436 16.988a37.603 37.603 0 01-2.035-12.31c0-1.951.158-3.934-.353-5.815-.512-1.881-1.896-3.68-3.792-4.021a25.34 25.34 0 00-1.636 2.986 24.613 24.613 0 012.584-5.353zM52.617 14.53a8.931 8.931 0 00.152 4.703 5.56 5.56 0 001.118 2.077c1.434 1.585 3.791 1.774 5.952 1.856l14.571.543a13.421 13.421 0 013.482.436c4.284 1.32 6.268 5.877 6.426 9.974.158 4.097 2.527 8.687 7.121 9.046.457.078.927-.026 1.308-.29-.145.41-.284.827-.404 1.263-.065.42-.257.81-.55 1.117-.381.264-.85.368-1.308.29-4.625-.36-6.95-4.905-7.121-9.046-.17-4.141-2.142-8.655-6.426-9.974a13.426 13.426 0 00-3.482-.436l-14.57-.543c-2.137-.082-4.519-.271-5.953-1.856a5.572 5.572 0 01-1.118-2.077 8.956 8.956 0 01.802-7.083zm23.726 258.922s-5.472-2.841-7.583-2.683c-2.11.158-21.06 24.235-21.06 24.235l28.643-21.552zm56.13-162.947s10.002 4.267 9.737 7.215c-.266 2.949-9.737-7.215-9.737-7.215zm4.871 13.951s10.496 13.409 8.177 13.857c-2.319.448-8.177-13.857-8.177-13.857zm-35.107 20.094s-.961 29.986 6.736 33.774l-6.736-33.774zm39.998 80.066s-7.405-4.204-9.105-3.364c-1.7.839 9.105 3.364 9.105 3.364zm-1.296 5.815s-4.675.334-6.893-.631c-2.218-.966 6.893.631 6.893.631zM29.32 120.012s-5.801 16.647-9.144 16.647l9.143-16.647zm82.484 318.825s-10.881-2.948-12.486 0c-1.605 2.948 12.486 0 12.486 0zm34.588-43.711s2.711 4.148-.872 5.41c-3.582 1.263.872-5.41.872-5.41zM74.12 337.25s-8.215 7.31-12.095 7.525c-3.88.215 12.094-7.525 12.094-7.525z" fill="#000"/><defs><linearGradient id="paint0_linear" x1="90.497" y1="482.812" x2="90.497" y2="-.014" gradientUnits="userSpaceOnUse"><stop stop-color="gray" stop-opacity=".25"/><stop offset=".54" stop-color="gray" stop-opacity=".12"/><stop offset="1" stop-color="gray" stop-opacity=".1"/></linearGradient></defs></svg>