<svg width="604" height="595" fill="none" xmlns="http://www.w3.org/2000/svg"><path transform="rotate(-135 433.96 594.96)" fill="url(#paint0_linear)" d="M433.96 594.96h612.59v228.81H433.96z"/><mask id="mask0" style="mask-type:alpha" maskUnits="userSpaceOnUse" x="142" y="14" width="462" height="462"><path transform="rotate(-45 142 245)" fill="#B961FF" d="M142 245h326.683v326.683H142z"/></mask><g mask="url(#mask0)"><path fill="#000" d="M142 245L373 14l231 231-231 231z"/><path transform="rotate(-45 142 245)" fill="url(#paint1_linear)" fill-opacity=".2" d="M142 245h326.683v326.683H142z"/><path transform="rotate(-45 144.121 245)" stroke="url(#paint2_linear)" stroke-opacity=".5" stroke-width="3" d="M144.121 245h323.683v323.683H144.121z"/><path stroke="#B961FF" stroke-opacity=".13" d="M574.217-63.156l637.358 637.358-33.337 33.338L540.88-29.82zm-75.26 60.993l726.135 726.135-33.337 33.337L465.62 31.174zm-214.764-78.51l929.838 929.838-33.337 33.338L250.856-47.336zm-202.872-66.62l1155.738 1155.738-33.338 33.337L47.984-113.956zM13.194-79.166l1219.943 1219.943-33.337 33.337L-20.143-45.829zm-87.15 49.103L1273.6 1317.492l-33.337 33.337L-107.293 3.274zm84.058 220.311L1314.855 1495l-33.337 33.338L-23.235 223.585zm120.52 256.772l1331.701 1331.701-33.337 33.338L97.285 480.357z"/><path stroke="#B961FF" stroke-opacity=".13" d="M405.36 39.79L155.58 289.57l33.338 33.337 249.78-249.78zM780.812-63.157l-637.359 637.36 33.338 33.336L814.149-29.819zm290.028-17.516L141 849.165l33.338 33.338 929.838-929.84zm270.99 1.506L121.887 1140.776l33.337 33.338L1375.167-45.83zm3.1 269.415L40.176 1495.002l33.337 33.337L1378.267 223.585z"/></g><defs><linearGradient id="paint0_linear" x1="740.255" y1="594.96" x2="740.255" y2="823.77" gradientUnits="userSpaceOnUse"><stop stop-color="#F28D55" stop-opacity="0"/><stop offset="1" stop-color="#F28D55" stop-opacity=".1"/></linearGradient><linearGradient id="paint1_linear" x1="305.342" y1="245" x2="305.342" y2="571.683" gradientUnits="userSpaceOnUse"><stop offset="0" stop-color="#6411A6"/><stop offset="1" stop-color="#3F046D"/></linearGradient><linearGradient id="paint2_linear" x1="305.342" y1="245" x2="305.342" y2="571.683" gradientUnits="userSpaceOnUse"><stop offset="0" stop-color="#6411A6"/><stop offset="1" stop-color="#3F046D"/></linearGradient></defs></svg>