<svg width="420" height="261" fill="none" xmlns="http://www.w3.org/2000/svg"><path d="M69.075 101.054H58.534v32.042h10.541v-32.042zm283.697-1.667h-10.541v33.898h10.541V99.387z" fill="#3F3D56"/><path d="M420 249.886v7.224l-84.288.778-.899.017-32.036.294-.765.011-9.737.084h-.289l-59.355.55-97.432.906h-.083l-24.773.233-.266.006L0 261v-8.336l25.882-15.56 51.932-.433 1.11-.006.366-.005 1.11-.017 24.933-.206 1.115-.005.355-.006 1.11-.005 7.995-.067.211-.006 19.724-.166h.16l153.908-1.301 3.767-.027h.377l2.875-.028 20.889-.173 1.109-.016 1.027-.011h.532l6.497-.05 1.287-.017 1.726-.011 5.409-.05 8.583-.072 1.11-.011 1.931-.012h.361l41.45-.355L420 249.886z" fill="#65617D"/><path opacity=".2" d="M420 249.886v7.224l-84.288.778-.899.017-32.036.294-.765.011-9.737.084h-.289l-59.355.55-97.432.906h-.083l-24.773.233-.266.006L0 261v-8.336l25.882-15.56 51.932-.433 1.11-.006.366-.005 1.11-.017 24.933-.206 1.115-.005.355-.006 1.11-.005 7.995-.067.211-.006 19.724-.166h.16l153.908-1.301 3.767-.027h.377l2.875-.028 20.889-.173 1.109-.016 1.027-.011h.532l6.497-.05 1.287-.017 1.726-.011 5.409-.05 8.583-.072 1.11-.011 1.931-.012h.361l41.45-.355L420 249.886z" fill="#000"/><path d="M105.416 222.105v13.61a3.41 3.41 0 01-1.942 3.079 3.32 3.32 0 01-1.387.333l-19.363.411a3.326 3.326 0 01-1.498-.316 3.4 3.4 0 01-1.98-3.096v-14.021h26.17z" fill="#3F3D56"/><path opacity=".1" d="M105.416 222.105v13.61a3.41 3.41 0 01-1.942 3.079 3.32 3.32 0 01-1.387.333l-19.363.411a3.326 3.326 0 01-1.498-.316 3.4 3.4 0 01-1.98-3.096v-14.021h26.17z" fill="#000"/><path d="M106.526 222.105v13.61a3.41 3.41 0 01-1.942 3.079 3.32 3.32 0 01-1.387.333l-19.364.411a3.326 3.326 0 01-1.498-.316 3.399 3.399 0 01-1.98-3.096v-14.021h26.171zm238.573 0h-26.171v17.506h26.171v-17.506z" fill="#3F3D56"/><path opacity=".1" d="M345.099 222.105h-26.171v17.506h26.171v-17.506z" fill="#000"/><path d="M343.989 222.105h-26.171v17.506h26.171v-17.506z" fill="#3F3D56"/><path opacity=".1" d="M69.075 101.048v3.185l-10.541-.273v-2.912h10.541z" fill="#000"/><path d="M138.461 11.345l-12.666 91.137a2.388 2.388 0 01-2.425 2.062L21.949 101.91l-1.925-.05a2.386 2.386 0 01-2.309-2.707l14.22-95.405a2.39 2.39 0 012.52-2.017l101.787 6.902a2.377 2.377 0 012.154 1.736c.089.317.111.65.065.976z" fill="#65617D"/><path d="M38.743 8.433L28.018 92.529l93.211 2.962 11.462-81.135-93.948-5.923z" fill="#6C63FF"/><path d="M265.116 7.132H157.475a2.96 2.96 0 00-2.957 2.962v90.398a2.96 2.96 0 002.957 2.962h107.641a2.96 2.96 0 002.957-2.962V10.094a2.96 2.96 0 00-2.957-2.962z" fill="#65617D"/><path d="M263.074 13.617H159.877v80.207h103.197V13.618z" fill="#6C63FF"/><path opacity=".1" d="M352.772 99.381v2.106l-10.541.217v-2.323h10.541z" fill="#000"/><path d="M400.337 97.603a1.703 1.703 0 01-.444 1.267 1.71 1.71 0 01-1.22.556l-103.863 2.15a1.709 1.709 0 01-1.737-1.55l-8.927-92.96a1.705 1.705 0 01.41-1.284 1.705 1.705 0 011.21-.59L388.841.059l1.11-.056a1.7 1.7 0 011.786 1.556l8.6 96.045z" fill="#65617D"/><path d="M290.077 10.655l94.137-4.634 7.951 84.469-93.394 2.223-8.694-82.058z" fill="#6C63FF"/><path opacity=".1" d="M400.337 97.603a1.703 1.703 0 01-.444 1.267 1.714 1.714 0 01-1.22.555L388.841.058l1.11-.056a1.7 1.7 0 011.786 1.556l8.6 96.045zM34.471 1.725L21.95 101.91l-1.925-.05a2.386 2.386 0 01-2.309-2.707l14.22-95.405a2.39 2.39 0 012.536-2.023zm34.604 121.88H58.534v9.491h10.541v-9.491zm37.451 98.495v2.762l-26.171.7V222.1h26.171z" fill="#000"/><path d="M152.715 126.911v93.472a2.22 2.22 0 01-2.136 2.195l-106.332 2.834h-.028a2.217 2.217 0 01-2.191-2.195v-96.306a2.224 2.224 0 012.191-2.195h106.304a2.219 2.219 0 012.192 2.195z" fill="#65617D"/><path opacity=".1" d="M44.247 124.716v100.696h-.028a2.217 2.217 0 01-2.191-2.195v-96.306a2.224 2.224 0 012.191-2.195h.028z" fill="#000"/><path d="M49.102 130.685h98.481v82.384l-98.481 2.223v-84.607z" fill="#D4DFEC"/><path opacity=".1" d="M352.772 123.605h-10.541v9.68h10.541v-9.68zm-8.783 98.495v3.562l-26.171-.7V222.1h26.171z" fill="#000"/><path d="M378.527 126.911v96.306a2.221 2.221 0 01-2.219 2.195l-106.354-2.834a2.22 2.22 0 01-2.136-2.195v-93.472a2.22 2.22 0 012.192-2.195h106.303a2.222 2.222 0 012.214 2.195z" fill="#65617D"/><path opacity=".1" d="M378.527 126.911v96.306a2.221 2.221 0 01-2.219 2.195V124.716a2.219 2.219 0 012.219 2.195z" fill="#000"/><path d="M371.453 130.685h-98.481v82.384l98.481 2.223v-84.607z" fill="#D4DFEC"/><path d="M265.066 126.911v93.472a2.225 2.225 0 01-2.136 2.195l-106.332 2.834a2.225 2.225 0 01-2.219-2.195v-96.306a2.225 2.225 0 012.192-2.195h106.304a2.22 2.22 0 012.191 2.195z" fill="#65617D"/><path d="M161.453 130.685h98.481v82.384l-98.481 2.223v-84.607z" fill="#D4DFEC"/><path opacity=".1" d="M420 249.886v7.224l-84.288.778-.899.017-32.036.294-.765.011-9.737.084h-.289l-59.355.55-97.432.906h-.083l-24.773.233-.266.006L0 261v-8.336l112.357-.739h.266l22.742-.156h.106l157.059-1.039h.161l.094-.005h.261l2.657-.017h.81l41.329-.278 2.441-.011.544-.005 79.173-.528z" fill="#000"/><path d="M211.476 133.096c15.728 0 28.479-12.771 28.479-28.525 0-15.754-12.751-28.525-28.479-28.525-15.729 0-28.479 12.771-28.479 28.525 0 15.754 12.75 28.525 28.479 28.525z" fill="#FBBEBE"/><path d="M239.96 162.922s-55.204 6.668-49.933 0c1.908-2.412 2.435-9.559 2.33-17.7a210.022 210.022 0 00-.25-7.585c-.61-12.226-2.08-24.174-2.08-24.174s48.269-22.784 42.721-4.724c-2.22 7.297-1.493 17.544.194 27.164a163.588 163.588 0 001.664 8.169 192.135 192.135 0 005.354 18.85z" fill="#FBBEBE"/><path opacity=".1" d="M239.96 162.922s-55.204 6.668-49.933 0c1.908-2.412 2.435-9.559 2.33-17.7 8.416-3.601 19.124-.917 19.124-.917 11.274-2.251 18.504-1.811 23.125-.233a192.214 192.214 0 005.354 18.85z" fill="#000"/><path d="M135.177 260.378v-.467l97.438-1.062 59.365-.555h.167l-.061.822.083-.822h.106v-.095l.76-7.474.288-2.829.089-.883.078-.74 3.428-11.453 3.429-11.436 2.885-9.631 4.406-14.715s-2.497-5.835-3.884-7.503c-1.387-1.667-2.774-13.059-2.774-13.059s-11.84-11.298-17.017-12.598c-2.169-.556-6.452-1.295-11.002-2.223a154.768 154.768 0 01-5.132-1.111c-.949-.217-1.881-.445-2.774-.673a48.628 48.628 0 01-5.132-1.589 11.478 11.478 0 01-2.497-1.273c-4.078-2.995-14.298-3.334-14.691-3.334a.127.127 0 010-.039v-.05a5.839 5.839 0 000-.7 4.56 4.56 0 00-.05-.778c0-.089 0-.183-.039-.278a7.7 7.7 0 00-.111-.633 2.68 2.68 0 00-.067-.295 9.574 9.574 0 00-.693-1.939c-.039-.089-.089-.184-.134-.273a10.112 10.112 0 00-1.176-1.75 10.843 10.843 0 00-1.509-1.467c-.15-.117-.305-.239-.466-.35a2.535 2.535 0 00-.283-.2l-.494-.323-.46-.267a16.527 16.527 0 00-1.298-.644 8.63 8.63 0 00-.455-.189c-.156-.061-.4-.156-.605-.233h-.033l-.417-.167c-.316-.106-.638-.2-.976-.295l-.516-.133-.555-.128-.555-.117a24.624 24.624 0 00-1.77-.289l-.632-.077-.649-.067-.672-.056-.954-.055-1.109-.039a69.045 69.045 0 00-14.559 1.55 40.067 40.067 0 00-10.131-.933h-.483l-.555.033h-.355l-.715.067c-.239 0-.483.05-.722.083-.238.033-.488.061-.726.1l-.367.061c-.36.061-.726.128-1.109.206-.122.022-.244.05-.366.083-.483.106-.966.234-1.443.378-.239.067-.477.145-.716.228-.122.033-.238.078-.355.122l-.355.128-.349.139-.417.167c-.21.089-.416.183-.621.283-.116.05-.233.106-.344.167-.111.061-.227.111-.333.172a15.375 15.375 0 00-3.445 2.434l-.283.272-.278.284a6.287 6.287 0 00-.271.294 13.18 13.18 0 00-1.01 1.251 7.607 7.607 0 00-.255.355c-.353.52-.671 1.062-.955 1.623-.072.133-.138.272-.205.406a18.225 18.225 0 00-1.11 2.917c-.103.371-.198.741-.283 1.112 0 0-11.745 5.19-21.488 8.947-2.591 1-5.032 1.906-7.074 2.589-.593.2-1.148.384-1.664.556-1.12.405-2.284.674-3.468.8-.558.009-1.114.061-1.664.156-4.478.728-12.151 3.89-12.989 7.063a2.042 2.042 0 00-.055.778v.061c.555 3.89-3.329 3.334-3.329 3.334s-1.387 10.281-3.329 13.06c-1.404 2-2.364 6.463-2.486 9.83-.069 1.05.013 2.103.244 3.129v.078c.222.745-.31 2.778-1.215 5.385-.982 2.862-2.413 6.418-3.789 9.775-2.075 5.068-4.028 9.669-4.15 10.681-.05.45-.194 1.256-.394 2.295-.81 4.234-2.608 12.298-3.495 15.56a610.959 610.959 0 01-2.281 8.058c0 .066-.039.133-.055.194l24.872-.244v.467h.078-.033z" fill="#6C63FF"/><path opacity=".1" d="M144.254 194.875s31.625 16.394 42.998 14.449l-42.998-14.449zm64.359-6.668s30.793 10.003 41.057 11.392c10.264 1.389-41.057-11.392-41.057-11.392zm34.155-32.187c-16.09 2.967-46.383 2.328-59.477 1.878 4.799-17.227 28.201-11.37 28.201-11.37 28.968-5.79 31.187 6.224 31.276 9.492z" fill="#000"/><path d="M242.768 154.908c-16.09 2.968-46.383 2.329-59.477 1.879 4.799-17.228 28.201-11.37 28.201-11.37 28.968-5.791 31.187 6.224 31.276 9.491z" fill="#6C63FF"/><path d="M328.177 230.858s18.953-2.918 19.325 5.418c.371 8.336-9.666 14.16-9.666 14.16l-9.659-19.578z" fill="#FBBEBE"/><path opacity=".1" d="M232.942 135.903c-.815.365-1.649.687-2.497.967-5.981 2.067-12.012 4.151-18.309 4.907-6.297.755-12.905.089-18.398-3.057a15.966 15.966 0 01-1.664-1.083c-.611-12.226-2.081-24.174-2.081-24.174s48.27-22.784 42.721-4.724c-2.208 7.297-1.459 17.544.228 27.164z" fill="#000"/><path d="M203.664 59.986a5.245 5.245 0 01-4.616-.972l1.154 1.606a4.692 4.692 0 01-3.762-1.25 18.985 18.985 0 00.178 4.306 8.045 8.045 0 01-5.304-1.667 2.456 2.456 0 001.464 2.395 7.943 7.943 0 00-5.446 1.343 7.97 7.97 0 00-3.209 4.61l2.896.266a10.243 10.243 0 00-5.792 3.54c-.888 1.111-1.565 2.534-1.176 3.89.388 1.356 2.263 2.223 3.284 1.256a15.542 15.542 0 00-3.384 12.664c.263.95.35 1.942.255 2.924-.183.916-.76 1.711-1.048 2.606-.555 1.623-.028 3.384.466 5.001l2.602 8.569c.943 3.096 1.881 6.197 3.112 9.192a45.74 45.74 0 012.22 5.841c.699 2.689.726 5.634 2.219 7.985a11.07 11.07 0 003.983 3.518c5.488 3.145 12.118 3.812 18.398 3.056 6.281-.755 12.306-2.839 18.282-4.907a17.18 17.18 0 003.795-1.667c4.133-2.712 5.054-8.258 5.825-13.143.86-5.446 2.009-10.88 4.045-16.004 1.209-3.051 2.774-6.146 2.508-9.414-.339-4.34-3.767-7.858-4.616-12.126a10.574 10.574 0 01.038-4.318 9.815 9.815 0 00.439-2.611c-.095-1.79-1.559-3.168-2.935-4.318a134.979 134.979 0 00-9.244-7.08c-.16-1.112 1.349-1.59 2.031-2.468.965-1.239-.033-3.206-1.498-3.784-1.465-.578-3.107-.2-4.633.183a3.663 3.663 0 00-2.147-3.811 3.651 3.651 0 00-4.261.972 5.662 5.662 0 00-4.671-3.38c-3.679-.288-3.751 2.53-6.104 4.08-2.352 1.55-4.294-.495-6.103-1.984a5.164 5.164 0 00.755 5.101z" fill="#3F3D56"/><path d="M342.231 247.529s-.494 1.178-1.404 2.885a38.36 38.36 0 01-4.993 7.318l-.15.161h-.899l-32.035.295h-.766l-.094-.111-6.214-7.386-2.342-2.784-.094-.116-.2-.234-.111-.133-.144-.172-4.555-5.413 1.664-6.947 2.836-11.703.072-.283.554-2.223.394-1.667 1.321-5.435 4.527-18.7 8.045 4.168 8.483 15.004 4.555 8.058h2.497c.472 0 1.554.911 2.641 1.962.388.372.777.766 1.11 1.111a74.081 74.081 0 011.77 1.901s4.044.088 5.132 3.278c.056.155.102.312.138.473a22.452 22.452 0 001.404 3.645c.716 1.562 1.615 3.334 2.525 5.107a283.607 283.607 0 004.044 7.469l.078.139.211.333z" fill="#6C63FF"/><path opacity=".1" d="M294.571 222.439l-.055.795v.055l-.094 1.278-.738 10.287-.894 12.392-.255 3.49-.555 7.469v.094l-59.365.556-97.422 1.056v.467h-.077v-.623l.249-7.98.477-15.593.411-13.221.039-1.317a5.855 5.855 0 013.995-5.373 5.827 5.827 0 012.341-.278c2.619.222 6.02.494 10.087.783l1.664.122c23.486 1.634 66.889 3.746 110.687 1.112.921-.05 1.848-.106 2.774-.172a517.755 517.755 0 0020.296-1.668 5.839 5.839 0 016.066 3.733c.305.799.431 1.655.369 2.508v.028z" fill="#000"/><path d="M135.177 260.378v-.467l97.438-1.062 59.366-.555h.166v-.095l.555-7.469.238-3.334.91-12.565.716-9.947v-.245a5.89 5.89 0 00-.061-1.372.175.175 0 000-.056 5.773 5.773 0 00-1.11-2.578 5.836 5.836 0 00-5.226-2.223 519.536 519.536 0 01-20.296 1.667c-.926.067-1.853.122-2.774.172-43.797 2.607-87.201.495-110.687-1.111l-1.664-.122a656.325 656.325 0 01-10.087-.784 5.839 5.839 0 00-4.027 1.171 5.862 5.862 0 00-2.309 4.481l-.377 12.314-.516 15.599-.244 7.98v.623l-.011-.022z" fill="#3F3D56"/><path opacity=".1" d="M294.738 226.334l-.682 8.52-1.016 12.698-.255 3.178-.555 7.119-.033.356v.094l-.083.823.061-.823h-.161l-59.366.556-97.455 1.056v-.156l.272-7.98.555-15.593.355-10.364a3.537 3.537 0 011.698-2.918 3.458 3.458 0 012.097-.5c1.165.094 2.597.206 4.267.328 2.713.2 6.058.433 9.953.678 7.213.455 16.262.945 26.632 1.345 28.85 1.111 67.799 1.483 104.794-1.762 1.665-.144 3.385-.306 5.066-.467a3.473 3.473 0 011.931.367c.168.084.328.185.477.3.483.351.866.822 1.11 1.367.056.109.103.222.138.339.167.461.235.951.2 1.439zm-188.212 7.608v1.773a3.41 3.41 0 01-1.942 3.079l-22.249.428a3.399 3.399 0 01-1.98-3.096v-1.667l26.171-.517z" fill="#000"/><path d="M106.803 239.838l-28.99.556v-4.818l28.99-.556v4.818z" fill="#3F3D56"/><path opacity=".1" d="M106.803 239.838l-28.99.556v-4.818l28.99-.556v4.818z" fill="#000"/><path d="M107.913 239.838l-28.99.556v-4.818l28.99-.556v4.818z" fill="#3F3D56"/><path opacity=".1" d="M203.891 58.164a5.417 5.417 0 01-1.048-2.412 5.275 5.275 0 00.233 2.556c.275-.025.548-.074.815-.144zm-7.046 3.69a19.68 19.68 0 01-.205-2.056v2.061l.205-.005zm45.218 18.544c.031-.495.098-.987.2-1.473a10.03 10.03 0 00.444-2.606 3.446 3.446 0 00-.089-.59c-.094.512-.244 1.023-.355 1.53a10.646 10.646 0 00-.2 3.139zm-11.54-17.172l.605.44c.509-.37.987-.783 1.425-1.234a2.04 2.04 0 00.211-2.023 1.647 1.647 0 01-.211.355c-.682.878-2.191 1.362-2.03 2.462zm-45.59 5.346c-.202.406-.364.83-.483 1.267a10.067 10.067 0 012.775-1.05l-2.292-.217zm7.651-6.046a8.256 8.256 0 01-1.043-.684c-.014.22.003.441.05.656.331-.015.663-.006.993.028zm54.245 32.743c-.227 2.695-1.481 5.29-2.497 7.847-2.036 5.123-3.184 10.558-4.044 16.01-.771 4.884-1.665 10.43-5.826 13.137a16.673 16.673 0 01-3.789 1.667c-5.981 2.073-12.012 4.151-18.309 4.907-6.298.756-12.906.094-18.398-3.051a11.09 11.09 0 01-3.984-3.518c-1.481-2.35-1.509-5.296-2.219-7.985a45.658 45.658 0 00-2.22-5.846c-1.226-2.99-2.169-6.113-3.107-9.186-.869-2.857-1.736-5.715-2.602-8.575a16.055 16.055 0 01-.632-2.64c-.217 1.423.205 2.912.632 4.307.866 2.864 1.733 5.722 2.602 8.575.938 3.095 1.881 6.196 3.107 9.186a45.658 45.658 0 012.22 5.846c.699 2.69.727 5.635 2.219 7.986a11.097 11.097 0 003.984 3.517c5.492 3.146 12.117 3.807 18.398 3.051 6.28-.756 12.306-2.834 18.309-4.907 1.327-.396 2.6-.956 3.789-1.667 4.134-2.706 5.055-8.252 5.826-13.137.86-5.452 2.008-10.887 4.044-16.01 1.21-3.046 2.775-6.141 2.508-9.414 0-.034-.011-.067-.011-.1zm-66.407-2.151v-.06a7.77 7.77 0 00-.255-2.918 14.85 14.85 0 01-.216-1.845 15.25 15.25 0 00.216 3.512c.089.433.189.872.255 1.311zm1.693-13.593c.426-.718.911-1.4 1.448-2.039-1.016.972-2.891.106-3.285-1.245a3.25 3.25 0 000 1.667 2.435 2.435 0 001.837 1.617zm138.572 142.58s1.759 6.391 0 11.948c-1.759 5.558 0-11.948 0-11.948zm7.49 6.519s.738 8.113-.927 9.553c-1.664 1.439.927-9.553.927-9.553z" fill="#000"/><path d="M51.537 143.861l56.376-.556m-56.376 7.485l56.376-.55m-56.376 7.486l56.376-.556" stroke="#6C63FF" stroke-width="2" stroke-miterlimit="10"/></svg>