<svg width="151" height="219" fill="none" xmlns="http://www.w3.org/2000/svg"><path fill-rule="evenodd" clip-rule="evenodd" d="M77.006 101.4H8.56v-.874h68.446a1.335 1.335 0 011.335 1.333v5.268a1.332 1.332 0 01-1.335 1.332H41.833v12.254h-.875v-13.128h36.048a.458.458 0 00.459-.458v-5.268a.457.457 0 00-.459-.459z" fill="#FFB000"/><path d="M16.637 6.166l-3.406 24.918a32.67 32.67 0 002.778 18.29l4.979 10.597c3.308 7.042 9.019 12.542 16.011 15.423l15.034 6.193L16.637 6.166z" fill="#fff"/><path fill-rule="evenodd" clip-rule="evenodd" d="M16.404 4.638L52.907 82.42l-16.074-6.622c-7.098-2.924-12.889-8.504-16.242-15.642L15.612 49.56a33.106 33.106 0 01-2.815-18.534l3.607-26.387zm.466 3.054l-3.205 23.451a32.233 32.233 0 002.74 18.045l4.979 10.597c3.263 6.946 8.894 12.367 15.783 15.205l13.991 5.764L16.87 7.692z" fill="#FFB000"/><path fill-rule="evenodd" clip-rule="evenodd" d="M17.732 54.028c-3.387 0-6.361 2.402-7.193 5.858l-.002.011-9.457 31.96c-1.063 4.441 2.157 8.693 6.486 8.693h20.416v.875H7.566c-4.947 0-8.527-4.836-7.335-9.783l.003-.011L9.69 59.67c.924-3.821 4.23-6.518 8.04-6.518v.875z" fill="#FFB000"/><path d="M53.33 82.994a1.017 1.017 0 01-.917-.597L16.37 5.566c-.333-.709.163-1.534.918-1.534a1.02 1.02 0 01.924.596L54.248 81.46c.333.708-.163 1.534-.918 1.534z" fill="#fff"/><path fill-rule="evenodd" clip-rule="evenodd" d="M17.288 4.469c-.405 0-.73.466-.52.91L52.81 82.215l.002.003a.578.578 0 00.52.34c.404-.002.728-.467.52-.912L17.816 4.81l-.001-.002a.581.581 0 00-.527-.34zM15.975 5.75c-.457-.972.21-2.157 1.314-2.157h.001a1.458 1.458 0 011.32.85l.002.003 36.032 76.827c.457.972-.21 2.157-1.314 2.157h-.003a1.455 1.455 0 01-1.312-.85l-.001-.004L15.974 5.75zm14.858 89.96a2.196 2.196 0 100 4.391 2.196 2.196 0 100-4.39zm-3.073 2.196a3.072 3.072 0 013.073-3.07 3.072 3.072 0 013.074 3.07 3.071 3.071 0 01-3.074 3.069 3.071 3.071 0 01-3.073-3.07z" fill="#FFB000"/><path fill-rule="evenodd" clip-rule="evenodd" d="M31.103 95.701l-.257.01c-1.333.038-2.243 1.128-2.202 2.535l-.875.026c-.053-1.805 1.154-3.38 3.05-3.436l.257-.009c.723-.02 1.445.05 2.15.212l21.326 4.93-.198.851-21.325-4.928a7.632 7.632 0 00-1.926-.19zm102.121 40.924l16.93-62.3.845.228-16.93 62.301a15.355 15.355 0 01-5.498 8.18 15.385 15.385 0 01-9.343 3.161H61.884v-.874h57.344c3.185 0 6.282-1.048 8.811-2.981a14.487 14.487 0 005.185-7.715z" fill="#FFB000"/><path fill-rule="evenodd" clip-rule="evenodd" d="M66.278 147.386a.438.438 0 01.607.125l46.224 70.034a.437.437 0 01-.731.482l-46.224-70.035a.437.437 0 01.124-.606z" fill="#FFB000"/><path fill-rule="evenodd" clip-rule="evenodd" d="M117.375 147.395c.197.14.243.413.103.61l-50.427 70.734a.438.438 0 01-.713-.507l50.427-70.734a.437.437 0 01.61-.103z" fill="#FFB000"/><path d="M67.28 193.886s-2.405 3.673-6.58 3.158l-2.823-4.035a49.527 49.527 0 008.515-2.648c.287 1.342.586 2.571.888 3.525z" fill="#FFCFC9"/><path d="M126.794 129.822c-1.692 3.783-7.328 13.613-20.291 14.02-16.07.506-45.635-1.009-45.635-1.009s6.762 26.683 6.907 46.904c0 0-5.33 2.7-13.24 3.886 0 0-28.37-52.995-22.737-65.952 4.193-9.639 36.06-13.387 50.464-14.598 5.986 3.467 25.903 14.33 44.532 16.749z" fill="#52509D"/><path d="M67.28 193.885s2.92 3.208 6.145 5.755c2.042 1.612 1.24 4.722-.5 7.335a95.315 95.315 0 01-8.682 11.129s-4.524.478-13.328.117c0 0-.329-3.12 2.783-4.53 7.093-3.213 8.69-11.718 7.005-16.638-.003-.009 3.54.622 6.576-3.168z" fill="#3F4D79"/><path fill-rule="evenodd" clip-rule="evenodd" d="M74.552 199.997a.613.613 0 01.816.293c.523 1.108.367 2.417-.023 3.613-.395 1.213-1.067 2.423-1.736 3.414l-.005.007-.005.008-.498-.357.498.357-.056.077-.16.222-.599.826a412.82 412.82 0 01-2.065 2.816c-1.669 2.254-3.801 5.086-5.648 7.381l-.182.226-14.144.12a.613.613 0 01-.01-1.225l13.562-.114c1.788-2.234 3.825-4.939 5.436-7.116a452.06 452.06 0 002.06-2.808l.596-.822.159-.221.05-.068c.629-.935 1.234-2.037 1.581-3.102.354-1.085.405-2.024.08-2.712a.612.612 0 01.293-.815z" fill="#FFB000"/><path fill-rule="evenodd" clip-rule="evenodd" d="M59.311 207.764a.437.437 0 01-.172.594c-.497.274-.604.531-.617.713-.015.219.092.494.324.804.225.301.522.576.772.781a6.956 6.956 0 00.42.315l.004.003v.001h.001l-.24.366-.24.365a.437.437 0 10.48-.731m-.24.366l-.24.365h-.001l-.003-.002-.008-.006a.713.713 0 00-.03-.02l-.107-.075a7.013 7.013 0 01-.352-.271 5.545 5.545 0 01-.918-.934c-.277-.371-.533-.858-.495-1.389.04-.569.403-1.051 1.067-1.417a.439.439 0 01.595.172" fill="#FFB000"/><path fill-rule="evenodd" clip-rule="evenodd" d="M60.362 205.841a.437.437 0 01-.172.594c-.249.136-.377.264-.442.364a.401.401 0 00-.067.272c.023.218.197.506.524.832.313.311.7.594 1.017.802a8.463 8.463 0 00.503.306l.029.016.006.004h.001a.437.437 0 11-.414.771l.207-.385-.207.385-.001-.001-.003-.001-.01-.006-.035-.019-.128-.073a9.91 9.91 0 01-.428-.266 7.483 7.483 0 01-1.155-.914c-.357-.355-.722-.828-.777-1.361-.03-.283.03-.569.202-.835.166-.258.423-.475.755-.657a.437.437 0 01.595.172z" fill="#FFB000"/><path d="M108.822 41.751s14.676-4.038 15.714-16.031c.177-2.03-15.714 16.031-15.714 16.031z" fill="#6562CF"/><path d="M108.999 18.31s6.334 13.229 12.162 18.166c0 0-9.304 6.18-17.115 6.176 0 0-5.114-8.994-7.233-12.434L109 18.311z" fill="#FFCFC9"/><path d="M101.603 38.382c-1.616-2.81-3.643-6.296-4.79-8.164l9.272-9.055.635 1.265c.676 6.062-1.017 12.677-5.117 15.954z" fill="#FFC0B7"/><path d="M106.965 20.955s-.028 5.073-1.959 7.88c-2.431 3.535-8.618 7.346-13.328 6.646-4.709-.7-8.816-24.52-5.283-25.93 3.532-1.409 13.4-2.703 16.343 1.643 2.942 4.346 4.227 9.761 4.227 9.761z" fill="#FFCFC9"/><path d="M111.908 23.895s-2.051.33-5.032-1.037c.093-1.112.135-3.396-1.017-4.054-1.258-.717-1.976 1.306-2.198 2.073-.269-.208-.54-.431-.815-.67-4.903-4.256-3.627-8.422-3.627-8.422s-7.295 4.285-14.246 4.002c-5.769-.234-8.594-8.297-3.73-10.7 0 0-.35 2.208 3.894 1.15 4.245-1.058 3.42-5.362 9.37-6.12 7.331-.925 8.846 3.925 8.846 3.925s3.511-1.845 7.126 1.511c3.851 3.577-1.125 13.56 1.429 18.343z" fill="#FFB000"/><path fill-rule="evenodd" clip-rule="evenodd" d="M79.027 13.161c.993 2.421 3.363 4.326 6.666 3.897 3.642-.474 7.155-2.05 9.768-3.518a39.277 39.277 0 003.127-1.955 30.058 30.058 0 001.145-.836l.014-.011.003-.002v-.001l.22.273.217.274-.001.001-.004.004-.016.012-.061.047-.233.178c-.204.152-.503.37-.884.635a39.96 39.96 0 01-3.183 1.99c-2.65 1.49-6.253 3.112-10.022 3.602-3.669.477-6.312-1.661-7.404-4.325-1.086-2.646-.671-5.906 1.871-7.655l.398.576c-2.195 1.51-2.621 4.376-1.621 6.814zm23.981-8.555l-.286-.202-.286-.201.001-.002.002-.003.007-.01.025-.033c.022-.028.053-.068.093-.116.081-.097.2-.23.356-.383.313-.305.78-.689 1.397-1.007 1.248-.644 3.083-1.003 5.443.036l-.283.64c-2.153-.948-3.766-.608-4.838-.055a5.157 5.157 0 00-1.537 1.217c-.033.04-.058.071-.073.092l-.017.022-.004.005zm0 0z" fill="#FFB000"/><path d="M128.335 130.004c5.464-5.345 12.423-39.054 10.606-60.665a36.805 36.805 0 00-1.077-7.292 28.744 28.744 0 00-1.242-4.131c-1.576-4.023-5.18-8.22-10.193-11.087-5.108-3.654-11.774-6.181-20.607-4.705-13.149 2.196-16.201 15.305-16.909 21.273l-.01-.01-3.568 20.03-26.03.98v8.505s21.36 13.012 36.49 9.241l.134-.035c-7.18 7.014-15.468 9.9-15.468 9.9s25.214 15.622 47.874 17.996z" fill="#3F4D79"/><path fill-rule="evenodd" clip-rule="evenodd" d="M108.665 74.318a.437.437 0 01.345.514l-.43-.085-.429-.085a.437.437 0 01.514-.344zm-.085.429l-.429-.085-.001.004-.003.013-.01.052-.043.208a100.376 100.376 0 01-.862 3.667c-.609 2.392-1.518 5.612-2.714 8.929-1.197 3.32-2.676 6.72-4.423 9.483-1.754 2.776-3.736 4.837-5.908 5.587a.437.437 0 10.286.827c2.46-.85 4.577-3.123 6.363-5.947 1.794-2.839 3.299-6.306 4.506-9.654 1.208-3.351 2.125-6.6 2.739-9.009a99.864 99.864 0 00.869-3.703l.045-.213.011-.055.003-.014.001-.005-.43-.085z" fill="#fff"/><path d="M108.822 41.751c4.061-.524 14.823-7.358 15.705-16.353 0 0 16.181 16.353 10.254 29.42 0 0-3.299-6.121-10.434-9.841-8.539-4.448-15.525-3.226-15.525-3.226z" fill="#3F4D79"/><path fill-rule="evenodd" clip-rule="evenodd" d="M109.821 41.071c4.258-.034 9.78.645 14.746 3.528 3.527 2.047 6.524 4.713 8.636 6.862a48.655 48.655 0 012.469 2.704c.287.34.509.614.659.803l.171.218.044.057.012.015.003.004.001.002-.35.263.35-.263a.438.438 0 01-.7.526m0 0l-.003-.004-.009-.013-.041-.053-.164-.209a32.02 32.02 0 00-.643-.782 47.715 47.715 0 00-2.424-2.656c-2.081-2.116-5.016-4.725-8.451-6.718-4.779-2.775-10.126-3.443-14.299-3.41a37.302 37.302 0 00-5.126.396 29.024 29.024 0 00-1.857.337l-.098.023-.023.005-.006.002h-.001m7.104-1.637a38.184 38.184 0 00-5.248.405l5.248-.405zm-5.248.405a30.65 30.65 0 00-1.514.262l1.514-.262zm-1.514.262c-.177.036-.313.066-.407.087l.407-.087zm-.407.087l-.106.024.106-.024zm-.106.024l-.029.007.029-.007zm-.029.007l-.007.002.007-.002zm-.007.002h-.002.002zm-.002 0h-.001.001zm-.001 0l.105.425-.105-.424z" fill="#fff"/><path d="M59.388 89.88s-2.587 4.084-5.34 3.498c-2.753-.586-5.315-.989-6.71-.271-1.726.886-3.438 2.844-4.564 2.807a10.655 10.655 0 01-3.958-.875 47.795 47.795 0 012.34-4.211c-.955.603-2.221 1.841-2.922 2.31-1.12.752-1.905-.318-1.905-.318s1.937-2.748 2.784-3.463c.815-.688 3.753-2.82 5.035-3.009 1.54-.365 9.135-1.476 15.258-1.894l-.018 5.426z" fill="#FFCFC9"/><path fill-rule="evenodd" clip-rule="evenodd" d="M48.384 87.933a.35.35 0 01.246.655l-.123-.328-.123-.328zm-3.629 2.096c-.049.018-.163.092-.346.261a8.59 8.59 0 00-.6.63c-.448.512-.96 1.165-1.448 1.812a75.559 75.559 0 00-1.789 2.487l-.029.042-.009.014-.29-.197-.288-.198.01-.014.029-.043.111-.161a79.984 79.984 0 011.695-2.35 33.535 33.535 0 011.48-1.852c.232-.265.454-.5.652-.683.187-.173.389-.333.579-.404a980.771 980.771 0 003.504-1.303l.368-.137.123.327.123.328-.369.138a1358.763 1358.763 0 01-3.506 1.303zm-4.708 5.338a.35.35 0 01-.091-.487l.289.198.289.197a.35.35 0 01-.487.092z" fill="#F7B3AF"/><path fill-rule="evenodd" clip-rule="evenodd" d="M49.726 89.214a.35.35 0 01.246.655l-.123-.327-.123-.328zm-7.809 6.318l-.282-.208.01-.012.026-.036a56.305 56.305 0 01.468-.618c.307-.4.727-.94 1.178-1.49.45-.55.933-1.115 1.368-1.567.216-.226.425-.428.614-.588.181-.152.373-.29.553-.357.84-.31 1.808-.67 2.567-.953l.938-.35.369-.139.123.328.123.327-.37.138a1142.686 1142.686 0 01-3.507 1.306h-.001c-.058.022-.172.091-.343.235-.163.137-.353.32-.56.537-.416.433-.887.982-1.332 1.526a60.033 60.033 0 00-1.626 2.083l-.025.034-.009.012-.282-.208zm0 0l-.282-.208a.35.35 0 10.564.416l-.282-.208z" fill="#F7B3AF"/></svg>