<svg width="61" height="61" fill="none" xmlns="http://www.w3.org/2000/svg"><path d="M24.067 42.748c-.23 0-.462-.08-.651-.24l-6.517-5.55a1.007 1.007 0 010-1.533l6.517-5.55a1.007 1.007 0 111.305 1.534l-5.616 4.782 5.616 4.783a1.007 1.007 0 01-.654 1.774zm12.865 0a1.007 1.007 0 01-.654-1.774l5.617-4.783-5.616-4.782a1.007 1.007 0 011.305-1.533l6.517 5.549a1.007 1.007 0 010 1.533l-6.517 5.55c-.189.16-.421.24-.652.24zm-8.739 4.162a1.007 1.007 0 01-.987-1.215l4.062-19.284a1.007 1.007 0 011.97.416l-4.06 19.283c-.1.474-.52.8-.985.8z" fill="#B961FF"/><path d="M54.238 57.416H6.762A6.77 6.77 0 010 50.654V10.358a6.77 6.77 0 016.762-6.761h47.476A6.77 6.77 0 0161 10.358v40.296a6.77 6.77 0 01-6.762 6.761zM6.762 5.61a4.753 4.753 0 00-4.748 4.747v40.296A4.753 4.753 0 006.762 55.4h47.476a4.753 4.753 0 004.748-4.747V10.358a4.753 4.753 0 00-4.748-4.747H6.762z" fill="#B961FF"/><path d="M59.993 19.723H1.007a1.007 1.007 0 110-2.014h58.986a1.007 1.007 0 010 2.014zm-42.786-4.819a3.191 3.191 0 01-3.187-3.187 3.191 3.191 0 013.187-3.187 3.19 3.19 0 013.187 3.187 3.191 3.191 0 01-3.187 3.187zm0-4.36c-.646 0-1.173.526-1.173 1.173a1.174 1.174 0 101.173-1.173zm-9.792 4.329a3.19 3.19 0 01-3.187-3.187 3.19 3.19 0 013.187-3.187 3.19 3.19 0 013.187 3.187 3.19 3.19 0 01-3.187 3.187zm0-4.36c-.646 0-1.173.527-1.173 1.173a1.174 1.174 0 101.173-1.173zm19.584 4.421a3.19 3.19 0 01-3.187-3.187A3.19 3.19 0 0127 8.561a3.19 3.19 0 013.187 3.186A3.19 3.19 0 0127 14.934zm0-4.36a1.174 1.174 0 000 2.346 1.174 1.174 0 000-2.346z" fill="#B961FF"/></svg>