<svg width="56" height="56" fill="none" xmlns="http://www.w3.org/2000/svg"><path d="M54.25.875H27.125a.875.875 0 00-.619 1.494l12.507 12.506H19.39a8.65 8.65 0 00.334-.875H21a.875.875 0 00.875-.875v-3.5A.875.875 0 0021 8.75h-1.275a8.744 8.744 0 00-.59-1.422l.903-.9a.875.875 0 000-1.237l-2.48-2.478a.875.875 0 00-1.237 0l-.9.902a8.746 8.746 0 00-1.42-.59V1.75a.875.875 0 00-.876-.875h-3.5a.875.875 0 00-.875.875v1.275c-.49.154-.966.352-1.422.59l-.9-.903a.875.875 0 00-1.237 0l-2.478 2.48a.875.875 0 000 1.237l.902.9a8.742 8.742 0 00-.59 1.421H1.75a.875.875 0 00-.875.875v3.5A.875.875 0 001.75 14h1.275c.154.49.352.966.59 1.422l-.902.9a.875.875 0 000 1.237l2.476 2.476a.875.875 0 001.237 0l.9-.9a8.72 8.72 0 001.424.59V21a.875.875 0 00.875.875v7.889A8.74 8.74 0 003.37 44.618 9.177 9.177 0 016.125 51v.515a3.5 3.5 0 107 .11v-.219a10.965 10.965 0 013.117-7.447 7.786 7.786 0 001.7-2.834H31.9l-.005.017a7 7 0 00.48 13.983h15.75a7 7 0 00.48-13.983 8.72 8.72 0 00-2.23-3.654v-15.25l7.256 7.256a.874.874 0 001.494-.619V1.75a.875.875 0 00-.875-.875zm-11.737 17.5h-3.138v-1.75h1.388l1.75 1.75zm-22.475-.816a.875.875 0 00.192-.934h10.395v1.75H19.22l.819-.816zm12.337-.934h1.75v1.75h-1.75v-1.75zm3.5 0h1.75v1.75h-1.75v-1.75zm-28.224.677a.875.875 0 00-1.086.122l-.755.755-1.239-1.239.755-.755a.875.875 0 00.122-1.086 7.103 7.103 0 01-.903-2.17.875.875 0 00-.852-.679H2.625V10.5h1.068a.875.875 0 00.852-.678 7.103 7.103 0 01.903-2.171.875.875 0 00-.122-1.088l-.755-.753 1.24-1.239.754.755a.875.875 0 001.086.122 7.103 7.103 0 012.17-.903.875.875 0 00.68-.853V2.625h1.75v1.067a.874.874 0 00.677.853 7.105 7.105 0 012.171.903.875.875 0 001.089-.122l.755-.755 1.236 1.239-.755.755a.875.875 0 00-.122 1.086c.42.668.725 1.402.903 2.17a.875.875 0 00.853.679h1.067v1.75h-1.067a.875.875 0 00-.853.678 7.102 7.102 0 01-.903 2.171.875.875 0 00.122 1.086l.755.755-1.239 1.239-.755-.755a.875.875 0 00-1.086-.122 7.063 7.063 0 01-2.17.902.875.875 0 00-.679.854v1.067H10.5v-1.067a.876.876 0 00-.679-.854 7.062 7.062 0 01-2.17-.902zm-.02 22.948h3.988a11.251 11.251 0 00-1.119 4.904v1.221H8.75V45.15a11.252 11.252 0 00-1.12-4.9zm4.227 7.875c-.166.573-.29 1.158-.367 1.75H7.807a10.19 10.19 0 00-.362-1.75h4.413zm-2.233 5.25a1.75 1.75 0 01-1.74-1.75h3.49a1.75 1.75 0 01-1.75 1.75zm5.338-10.612a13.722 13.722 0 00-2.438 3.612h-.275V45.15a9.51 9.51 0 011.603-5.294.876.876 0 00-.728-1.356h-7a.875.875 0 00-.728 1.36A9.511 9.511 0 017 45.155v1.221h-.253a11.832 11.832 0 00-2.127-2.981A7 7 0 019.612 31.5c.385 0 .77.029 1.15.087a7 7 0 015.863 7.014 6.114 6.114 0 01-1.662 4.162zM27.125 29.75h1.75v9.625h-1.75V29.75zm.339-1.75L28 26.392 28.536 28h-1.072zM38.5 46.375h-1.083l2.833-2.362 2.833 2.362H42a.875.875 0 00-.875.875v6.125h-1.75V47.25a.875.875 0 00-.875-.875zm8.58-4.173a.954.954 0 001.045.673 5.25 5.25 0 010 10.5h-5.25v-5.25H45.5a.875.875 0 00.56-1.547l-5.25-4.375a.875.875 0 00-1.12 0l-5.25 4.375a.875.875 0 00.56 1.547h2.625v5.25h-5.25a5.251 5.251 0 01.07-10.5.876.876 0 00.976-.673 7 7 0 0113.658 0zm-2.45-6.037a8.769 8.769 0 00-11.962 3.21h-2.043v-10.5a.875.875 0 00-.045-.276l-1.75-5.25a.874.874 0 00-1.662 0l-1.75 5.25a.874.874 0 00-.043.276v10.5H18.33a8.763 8.763 0 00-6.956-9.445v-8.055h1.75A.875.875 0 0014 21v-1.275c.49-.154.966-.352 1.422-.59l.9.902a.863.863 0 001.102.088h26.84l.362.362.004 15.678zm8.745-9.402L29.237 2.625h24.138v24.138z" fill="#B961FF"/><path d="M35.256 5.869l14.875 14.875a.874.874 0 001.494-.619V5.25a.875.875 0 00-.875-.875H35.875a.875.875 0 00-.619 1.494zm14.62.256v11.888L37.986 6.125h11.888zm-34.126 5.25a4.375 4.375 0 10-8.75 0 4.375 4.375 0 008.75 0zm-7 0a2.625 2.625 0 115.25 0 2.625 2.625 0 01-5.25 0z" fill="#B961FF"/></svg>