<svg width="310" height="414" fill="none" xmlns="http://www.w3.org/2000/svg"><g clip-path="url(#clip0)"><path d="M65.942 288.755c29.824 0 54.001-4.598 54.001-10.27s-24.177-10.27-54.001-10.27c-29.824 0-54 4.598-54 10.27s24.176 10.27 54 10.27z" fill="#fff"/><path fill-rule="evenodd" clip-rule="evenodd" d="M13.581 276.998c-.63.586-.843 1.082-.843 1.487 0 .404.213.901.843 1.487.63.585 1.604 1.188 2.931 1.785 2.65 1.191 6.533 2.283 11.395 3.208 9.71 1.846 23.157 2.994 38.035 2.994 14.877 0 28.325-1.148 38.035-2.994 4.861-.925 8.745-2.017 11.395-3.208 1.327-.597 2.301-1.2 2.93-1.785.631-.586.843-1.083.843-1.487 0-.405-.212-.901-.843-1.487-.629-.585-1.603-1.188-2.93-1.785-2.65-1.191-6.534-2.283-11.395-3.208-9.71-1.846-23.158-2.994-38.035-2.994-14.878 0-28.325 1.148-38.035 2.994-4.862.925-8.745 2.017-11.395 3.208-1.327.597-2.3 1.2-2.93 1.785zm14.028-6.557c9.834-1.87 23.387-3.022 38.333-3.022 14.946 0 28.499 1.152 38.333 3.022 4.911.934 8.935 2.054 11.751 3.32 1.405.632 2.553 1.32 3.362 2.071.808.751 1.351 1.64 1.351 2.653 0 1.013-.543 1.902-1.351 2.653-.809.751-1.957 1.439-3.362 2.07-2.816 1.266-6.84 2.387-11.751 3.321-9.835 1.87-23.387 3.022-38.333 3.022-14.946 0-28.499-1.152-38.333-3.022-4.911-.934-8.936-2.055-11.751-3.321-1.405-.631-2.554-1.319-3.363-2.07-.808-.751-1.35-1.64-1.35-2.653 0-1.013.542-1.902 1.35-2.653.81-.751 1.958-1.439 3.363-2.071 2.816-1.266 6.84-2.386 11.75-3.32z" fill="#6562CF"/><path fill-rule="evenodd" clip-rule="evenodd" d="M61.95 360.921v-72.163h1.594v72.164a21.89 21.89 0 01-3.312 11.568 21.923 21.923 0 01-8.928 8.077l-19.212 9.461a10.982 10.982 0 00-4.467 4.045 10.955 10.955 0 00-1.656 5.791h-1.594a12.55 12.55 0 017.012-11.264l19.212-9.461a20.33 20.33 0 008.28-7.49 20.3 20.3 0 003.071-10.728z" fill="#6562CF"/><path fill-rule="evenodd" clip-rule="evenodd" d="M25.347 400.66a5.875 5.875 0 00-5.879 5.872 5.875 5.875 0 005.88 5.872 5.876 5.876 0 005.878-5.872 5.876 5.876 0 00-5.879-5.872zm-7.473 5.872c0-4.122 3.346-7.464 7.473-7.464s7.473 3.342 7.473 7.464c0 4.123-3.346 7.465-7.473 7.465s-7.473-3.342-7.473-7.465zm32.746-5.872a5.875 5.875 0 00-5.88 5.872 5.875 5.875 0 005.88 5.872 5.875 5.875 0 005.879-5.872 5.875 5.875 0 00-5.88-5.872zm-7.473 5.872c0-4.122 3.346-7.464 7.473-7.464s7.473 3.342 7.473 7.464c0 4.123-3.346 7.465-7.473 7.465s-7.473-3.342-7.473-7.465z" fill="#FFB000"/><path fill-rule="evenodd" clip-rule="evenodd" d="M61.95 375.057v-22.61h1.594v22.61c0 3.814-1.415 7.493-3.973 10.325l-4.587 5.095-.001.001a13.811 13.811 0 00-3.566 9.259l-1.594-.001c0-3.814 1.417-7.493 3.976-10.325l4.588-5.095a13.816 13.816 0 003.563-9.259zm6.817-86.299h1.594v72.163a20.295 20.295 0 003.07 10.728 20.33 20.33 0 008.28 7.49h.001l19.208 9.461c.001 0 0 0 0 0a12.547 12.547 0 017.016 11.264h-1.594a10.964 10.964 0 00-6.126-9.836l-19.208-9.461a21.921 21.921 0 01-8.93-8.076 21.889 21.889 0 01-3.311-11.569v-72.164z" fill="#6562CF"/><path fill-rule="evenodd" clip-rule="evenodd" d="M106.967 400.66a5.875 5.875 0 00-5.879 5.872 5.875 5.875 0 005.879 5.872 5.876 5.876 0 005.879-5.872 5.876 5.876 0 00-5.879-5.872zm-7.473 5.872c0-4.122 3.345-7.464 7.473-7.464 4.127 0 7.473 3.342 7.473 7.464 0 4.123-3.346 7.465-7.473 7.465-4.128 0-7.473-3.342-7.473-7.465zm-17.803-5.872a5.875 5.875 0 00-5.879 5.872 5.875 5.875 0 005.88 5.872 5.875 5.875 0 005.878-5.872 5.875 5.875 0 00-5.879-5.872zm-7.473 5.872c0-4.122 3.346-7.464 7.473-7.464s7.473 3.342 7.473 7.464c0 4.123-3.346 7.465-7.473 7.465s-7.473-3.342-7.473-7.465z" fill="#FFB000"/><path fill-rule="evenodd" clip-rule="evenodd" d="M68.767 375.057v-22.61h1.594v22.61c0 3.42 1.27 6.719 3.563 9.259l4.59 5.095.001.001a15.396 15.396 0 013.973 10.325l-1.594-.001a13.81 13.81 0 00-3.563-9.258l-4.59-5.096a15.405 15.405 0 01-3.974-10.325z" fill="#6562CF"/><path d="M115.607 367.437s.376 12.553-7.199 17.811c-7.142 4.955-7.406 8.942-7.406 8.942s11.901 11.543 14.831 12.738c2.93 1.194 13.6 4.872 19.129 4.872 0 0 3.739-2.723-4.824-10.19-11.618-10.156 1.565-28.4 1.565-28.4s-12.108-3.62-16.096-5.773z" fill="#FFC0B7"/><path d="M94.307 219.092s60.456 7.12 84.578 32.246c13.033 13.578-38.258 95.429-40.665 122.92 0 0-18.609-2.445-30.67-11.741 0 0 2.232-76.086 29.65-90.187 0 0-52.18 4.14-74.51-7.229-22.33-11.369 0-42.446 0-42.446s19.422 3.783 31.617-3.563z" fill="#3C4564"/><path d="M110.321 382.382s-10.034 3.945-10.276 11.171c0 0 10.473 10.716 15.788 13.375 8.33 4.187 19.766 5.509 19.766 5.509s4.145-5.095-2.369-10.034c-6.513-4.94-7.769-13.694-7.769-13.694s-.717 6.197-6.513 7.325c-5.191 1.019-6.868-1.593-6.868-1.593s1.563-11.18-1.759-12.059z" fill="#5654B7"/><path d="M26.91 223.713s-10.974 31.023-7.014 39.684c7.37 16.178 65.956 20.999 109.378 13.079 0 0-15.166 53.343 2.755 97.059 0 0 12.064 2.08 28.948-.318 0 0-.344-52.668 7.237-108.775 1.508-11.276-63.441-37.749-92.035-40.739-28.594-2.99-49.27.01-49.27.01z" fill="#3F4D79"/><path d="M136.326 374.064s3.274 12.203 3.274 15.837c0 7.401-5.687 16.349-4.654 22.546h51.504s-3.118-7.595-15.663-10.347c-14.13-3.098-16.722-12.158-16.368-28.023 0-.013-9.31.701-18.093-.013z" fill="#FFCFC9"/><path d="M138.708 395.744s-6 8.439-3.762 16.703h52.308s-.118-7.388-7.41-8.28c-7.291-.892-19.128-6.882-19.128-6.882s.876 8.78-12.565 9.812c0 .013.52-11.018-9.443-11.353zM101.977 95.477c-7.364 3.65-11.821 4.834-9.49 28.116 2.33 23.282 19.275 50.483 19.275 50.483l22.036-21.699s-14.85-43.149-17.962-47.926c-6.06-9.27-10.992-10.394-13.859-8.974z" fill="#6562CF"/><path d="M139.817 159.377s-4.514-10.191-6.74-10.296c-2.225-.105-17.981 11.585-20.193 21.929-.711 3.337-4.017 8.916 15.019 11.346 5.901.751 11.914-22.979 11.914-22.979z" fill="#8382D8"/><path d="M210.275 177.315s-1.409.917-5.57-.07c-1.339-.319-3.229-2.669-5.222-3.946-1.613-1.035-4.782-.856-8.19-.452-1.932.223-3.756-2.328-4.977-3.761-12.115 3.503-45.867 13.311-59.28 12.2-3.405-.28 6.341-21.709 12.243-23.107 4.463-1.054 30.73-.114 47.382 2.01a113.75 113.75 0 0117.496 3.949c2.187 1.375 6.118 13.177 6.118 13.177z" fill="#FFC0B7"/><path d="M94.307 219.092s-5.844 4.837-18.125 4.602v-.02c-1.383-23.418-4.265-67.412-7.272-83.751-6.022-32.701-22.441-60.9-22.696-61.336l31.473 1.662s16.31 11.518 19.872 59.703c3.561 48.184-3.252 79.14-3.252 79.14z" fill="#fff"/><path d="M77.684 80.249c2.984 1.178 22.486 11.044 28.693 14.716 6.207 3.671 9.96 32.398 6.695 55.537-5.512 39.009-5.053 54.266.408 71.934 0 0-12.449-2.602-19.167-3.14 0 0-3.42-26.75 1.275-53.878 9.514-55.028-17.904-85.169-17.904-85.169zm-31.476-1.656S15.09 88.873 4.85 100.248c-4.145 4.588 19.53 61.272 17.462 77.793-2.07 16.521-11.717 52.999-11.717 52.999s14.767 19.276 66.434 7.796c0 0-3.943-76.189-8.126-98.907-6.067-32.953-22.696-61.336-22.696-61.336z" fill="#6562CF"/><path fill-rule="evenodd" clip-rule="evenodd" d="M112.138 130.277a.955.955 0 01.813 1.08c-.707 4.994-1.399 13.4-1.812 21.536-.414 8.155-.542 15.936-.141 19.717a.956.956 0 01-1.903.201c-.418-3.952-.28-11.878.133-20.015.415-8.157 1.111-16.629 1.829-21.707a.956.956 0 011.081-.812z" fill="#8382D8"/><path d="M11.696 94.534C4.851 100.235-1.12 99.776 1.408 125.02c2.528 25.244 20.904 54.738 20.904 54.738l23.896-23.53s-12.329-45.726-14.704-51.404c-3.494-8.373-12.964-15.977-19.808-10.29z" fill="#6562CF"/><path fill-rule="evenodd" clip-rule="evenodd" d="M33.29 110.979a.956.956 0 011.326.269c1.366 2.06 2.835 5.929 4.264 10.446 1.44 4.556 2.876 9.892 4.148 14.974a535.182 535.182 0 014.36 18.949c.03.136.051.24.066.31l.022.106-.937.194c-.936.194-.936.193-.937.193v-.001l-.021-.103a184.846 184.846 0 00-.314-1.482c-.217-1.017-.533-2.48-.929-4.258a531.969 531.969 0 00-3.166-13.445c-1.267-5.065-2.692-10.359-4.116-14.862-1.437-4.543-2.839-8.162-4.035-9.966a.955.955 0 01.27-1.324zm13.443 46.184a.957.957 0 01-1.13-.742l.936-.194.937-.193a.955.955 0 01-.743 1.129z" fill="#8382D8"/><path d="M55.475 161.058s-7.651-8.305-10.071-8.404c-2.42-.099-18.81 11.626-22.317 23.629-1.036 3.554-6.759 9.575 15.867 15.374 12.584 3.233 16.521-30.599 16.521-30.599z" fill="#8382D8"/><path d="M152.914 176.42s-1.173 1.636-2.885.512c-1.068-.7-3.003-2.547-4.463-3.461a72.21 72.21 0 013.599 6.369c-1.89.835-3.922 1.3-5.987 1.369-1.709.073-4.333-2.866-6.963-4.191-2.127-1.067-6.01-.433-10.173.51-4.164.942-8.65-5.213-8.65-5.213v-.035c-7.9 2.659-58.642 16.877-77.529 15.884-4.237-.223 7.056-25.406 14.328-27.361 6.14-1.653 46.336-1.229 65.745 1.522 7.489.844 18.887 3.904 21.023 4.388 1.948.265 6.433 3.455 7.68 4.487 1.301 1.08 4.275 5.22 4.275 5.22z" fill="#FFCFC9"/><path fill-rule="evenodd" clip-rule="evenodd" d="M133.773 169.464a.637.637 0 01.817-.381l-.218.599-.218.598a.637.637 0 01-.381-.816zm.599.218l-.218.598.563.204 1.429.518c1.155.418 2.629.95 3.905 1.409l.001.001c.053.018.213.115.494.368.26.236.568.556.911.939.683.765 1.469 1.745 2.216 2.719a113.824 113.824 0 012.577 3.504l.169.239.044.063.014.02.376-.261-.376.261a.638.638 0 001.047-.728l-.472.329.472-.329-.016-.022-.045-.064a116.47 116.47 0 00-2.778-3.787c-.754-.983-1.562-1.992-2.277-2.792-.357-.4-.699-.756-1.006-1.034-.287-.26-.609-.514-.92-.625l-.215.6.216-.599c-1.275-.459-2.748-.991-3.903-1.409l-1.428-.517-.562-.204-.218.599z" fill="#F7B3AF"/><path fill-rule="evenodd" clip-rule="evenodd" d="M131.758 171.435a.638.638 0 01.817-.381l-.218.599-.217.598a.637.637 0 01-.382-.816zm12.714 9.179l-.509.384-.013-.017-.039-.052-.153-.199a91.497 91.497 0 00-2.346-2.928 41.644 41.644 0 00-2.036-2.288 11.55 11.55 0 00-.849-.798c-.259-.215-.419-.309-.489-.334-1.275-.459-2.75-.991-3.905-1.409l-1.43-.518-.563-.204.217-.598.218-.599.562.204 1.43.517c1.155.418 2.629.95 3.904 1.409h.001c.29.105.593.322.869.552.292.241.614.548.947.888a42.822 42.822 0 012.103 2.361 91.106 91.106 0 012.378 2.968l.156.204.041.053.014.019-.508.385zm0 0l-.509.384a.637.637 0 101.017-.769l-.508.385z" fill="#F7B3AF"/><path d="M78.22 76.138l-7.21 20.246S51.41 98.54 46.286 78.52l6.906-19.744L78.22 76.138z" fill="#FFCFC9"/><path d="M78.223 76.138l-3.258 9.145C70.629 87.254 65.08 87.194 59.662 80c-4.913-6.534-5.972-16.123-6.9-19.68l.418-1.531 25.043 17.349z" fill="#FFC0B7"/><path d="M53.193 58.788s6.013 13.793 13.361 16.018c7.014 2.121 15.593 1.558 16.483 0 .89-1.557 8.168-19.94 6.236-32.086-1.336-8.404-4.9-9.554-11.583-8.9-6.682.652-9.032 1.388-17.2-1.112-2.292-.7 1.645 12.145-5.257 17.04 0 0-5.177-1.739-6.293.041-1.116 1.78 4.253 9 4.253 9z" fill="#FFCFC9"/><path d="M52.255 61.333s-17.645-10.77-16.79-25.348c.373-6.242 13.607-23.024 21.714-23.718 8.107-.694 20.618 3.471 24.549 6.942 3.93 3.471 9.312 7.203 7.91 20.495a8.419 8.419 0 01-.517 2.121c-1.448-7.592-4.99-8.649-11.426-8.006-6.695.67-9.035 1.386-17.216-1.11-2.293-.705 1.648 12.145-5.258 17.04 0 0-5.177-1.74-6.29.037-1.112 1.777 4.25 9 4.25 9l-.925 2.547z" fill="#3F4D79"/><path d="M50.897 15.012s1.649-12.92-6.924-12.464C35.4 3.003 30.187 11.11 29.38 16.407c-1.033 6.805 11.333 8.811 11.333 8.811l10.183-10.206z" fill="#3F4D79"/><path fill-rule="evenodd" clip-rule="evenodd" d="M37.744 27.071c-1.823.422-4.238.441-5.923-1.546l.973-.823c1.22 1.438 3.008 1.51 4.662 1.128a11.07 11.07 0 002.087-.725 11.048 11.048 0 00.832-.426l.009-.005.001-.001.33.545c.33.545.33.545.329.546h-.002l-.005.003-.015.01-.053.03a12.396 12.396 0 01-.893.455 12.36 12.36 0 01-2.332.809z" fill="#3F4D79"/><path fill-rule="evenodd" clip-rule="evenodd" d="M53.895 14.594l-.632-.082.632.083-.03.23L41.67 25.988l-.395-.204.293-.566-.293.566-.008-.004-.023-.012a18.189 18.189 0 01-.403-.214 63.55 63.55 0 01-4.704-2.796c-1.325-.871-2.707-1.866-3.848-2.883-1.121-1-2.089-2.087-2.479-3.154-.41-1.125-.197-2.72.383-4.377.591-1.691 1.609-3.576 2.978-5.35C35.902 3.456 40.117.25 45.287 0c2.635-.127 4.545.746 5.886 2.167 1.317 1.397 2.038 3.274 2.43 5.095.391 1.829.463 3.66.439 5.025a25.656 25.656 0 01-.127 2.132c-.005.055-.01.098-.014.127l-.003.024-.001.01-.002.01v.003zm-12.425 9.85l11.186-10.24a24.496 24.496 0 00.111-1.937c.023-1.311-.047-3.037-.412-4.737-.366-1.707-1.016-3.329-2.11-4.488-1.071-1.136-2.613-1.879-4.896-1.769-4.665.225-8.57 3.132-11.167 6.498-1.294 1.678-2.242 3.443-2.784 4.994-.555 1.585-.643 2.824-.389 3.519.275.753 1.035 1.664 2.13 2.64 1.076.959 2.4 1.915 3.7 2.769a62.327 62.327 0 004.607 2.739l.024.013zm19.014 7.364c2.952 3.797 8.519 4.974 17.057 2.921.89-.214 1.707-.538 2.522-.86.357-.142.714-.283 1.076-.415 1.11-.403 2.323-.735 3.441-.29l-.472 1.184c-.626-.25-1.414-.103-2.533.303-.296.108-.614.234-.95.366-.847.336-1.804.714-2.785.95-8.678 2.087-14.932 1.035-18.363-3.378l1.007-.78z" fill="#3F4D79"/><path fill-rule="evenodd" clip-rule="evenodd" d="M70.013 45.831a5.91 5.91 0 00-5.914 5.907 5.91 5.91 0 005.914 5.907 5.91 5.91 0 005.914-5.907 5.91 5.91 0 00-5.914-5.907zm-7.508 5.907c0-4.142 3.362-7.5 7.508-7.5 4.147 0 7.508 3.358 7.508 7.5 0 4.142-3.361 7.5-7.508 7.5-4.146 0-7.508-3.358-7.508-7.5zm24.823-5.907c-2.981 0-5.487 2.595-5.487 5.907 0 3.313 2.506 5.907 5.487 5.907 2.982 0 5.487-2.594 5.487-5.907 0-3.312-2.505-5.907-5.487-5.907zm-7.08 5.907c0-4.091 3.12-7.5 7.08-7.5s7.081 3.409 7.081 7.5c0 4.092-3.122 7.5-7.08 7.5-3.96 0-7.082-3.408-7.082-7.5z" fill="#FFB000"/><path fill-rule="evenodd" clip-rule="evenodd" d="M80.78 52.073h-4.103V50.48h4.103v1.593zm168.204 141.753h6.57L284.338 413.1a.796.796 0 11-1.58.207l-28.603-217.889h-3.772l-28.602 217.889a.797.797 0 01-1.581-.207l28.784-219.274z" fill="#FFB000"/><path d="M271.637 184.804h-14.346l-2.232-3.146c-2.184-3.092-6.227-4.996-10.604-4.996h-21.064c-4.377 0-8.42 1.91-10.604 4.996l-2.231 3.146h-13.789l5.512-6.923c2.465-3.095 7.014-4.999 11.949-4.999h39.945c4.932 0 9.491 1.911 11.952 4.999l5.512 6.923z" fill="#D1D0FF"/><path fill-rule="evenodd" clip-rule="evenodd" d="M214.229 173.837c-4.723 0-8.962 1.827-11.201 4.639l-4.278 5.373h11.311l1.946-2.742v-.001m43.834.001c-2.393-3.388-6.753-5.401-11.386-5.401h-21.064c-4.633 0-8.991 2.02-11.384 5.4m43.834.001l1.944 2.742h11.87l-4.278-5.373h-.001c-2.236-2.806-6.484-4.639-11.203-4.639h-39.944m-12.698 3.45c2.69-3.379 7.55-5.361 12.698-5.361h39.944c5.145 0 10.014 1.989 12.7 5.36l.001.001 5.512 6.923a.955.955 0 01-.749 1.55h-14.346a.96.96 0 01-.781-.403l-2.233-3.148c-1.974-2.796-5.7-4.592-9.822-4.592h-21.064c-4.121 0-7.847 1.801-9.822 4.592l-.001.001-2.232 3.147a.958.958 0 01-.78.403h-13.789a.955.955 0 01-.748-1.55l5.512-6.923z" fill="#6562CF"/><path d="M271.902 184.804h-5.819l-2.231-3.146c-2.187-3.092-6.23-4.996-10.604-4.996h-29.583c-4.374 0-8.416 1.91-10.603 4.996l-2.232 3.146h-13.798l5.512-6.923c2.464-3.095 7.014-4.999 11.952-4.999h39.944c4.932 0 9.488 1.911 11.949 4.999l5.513 6.923z" fill="#fff"/><path fill-rule="evenodd" clip-rule="evenodd" d="M214.496 173.837c-4.725 0-8.964 1.827-11.203 4.639l-4.279 5.373h11.321l1.946-2.743c2.396-3.38 6.754-5.4 11.384-5.4h29.583c4.63 0 8.989 2.013 11.385 5.401l1.945 2.742h3.341l-4.278-5.373c-2.236-2.806-6.482-4.639-11.201-4.639h-39.944zm-12.701 3.45c2.69-3.379 7.55-5.361 12.701-5.361h39.944c5.146 0 10.012 1.989 12.698 5.36v.001l6.747 8.473h-8.296l-2.518-3.55v-.001c-1.979-2.797-5.704-4.592-9.823-4.592h-29.583c-4.117 0-7.844 1.801-9.823 4.593l-2.517 3.55h-16.276l6.746-8.473z" fill="#6562CF"/><path d="M279.955 153.38H144.893c-3.587 0-6.172-3.56-5.178-7.13l20.146-72.173a8.92 8.92 0 018.541-6.649h135.062c3.587 0 6.176 3.56 5.178 7.127l-20.146 72.176a8.936 8.936 0 01-8.541 6.649z" fill="#fff"/><path fill-rule="evenodd" clip-rule="evenodd" d="M168.397 66.473h135.067c4.265 0 7.255 4.207 6.099 8.339l-20.142 72.163-.002.007a9.884 9.884 0 01-3.483 5.265 9.909 9.909 0 01-5.97 2.088l-.011-.955v.955H144.893c-4.265 0-7.251-4.208-6.099-8.341l20.144-72.167a9.876 9.876 0 019.455-7.354h.004zm111.553 85.952a7.98 7.98 0 007.621-5.938l.002-.007 20.148-72.182c.839-3.001-1.348-5.915-4.257-5.915H168.408a7.965 7.965 0 00-7.622 5.937l-.001.007-20.148 72.179v.001c-.837 3.006 1.349 5.918 4.256 5.918H279.95z" fill="#6562CF"/><path d="M201.326 131.417l-3.408 20.877h11.796l-5.219-20.912c-.115-.468-3.092-.44-3.169.035z" fill="#E2E2FF"/><path d="M249.276 172.662H215.8l-8.267-33.182c-.912-3.646-2.091-5.067-4.916-5.869V131.7h28.413a10.28 10.28 0 019.969 7.78l8.277 33.182z" fill="#D1D0FF"/><path fill-rule="evenodd" clip-rule="evenodd" d="M201.661 131.7c0-.528.428-.955.956-.955h28.413c2.506 0 4.94.837 6.914 2.378a11.214 11.214 0 013.983 6.125l8.277 33.183a.953.953 0 01-.928 1.186H215.8a.956.956 0 01-.928-.725l-8.266-33.181h-.001c-.444-1.777-.924-2.875-1.546-3.62-.6-.717-1.407-1.193-2.703-1.561a.956.956 0 01-.695-.919V131.7zm1.913.955v.257c1.202.425 2.174 1.023 2.953 1.954.901 1.078 1.467 2.513 1.934 4.382l8.087 32.458h31.504l-7.981-31.995a9.31 9.31 0 00-9.041-7.056h-27.456z" fill="#6562CF"/><path d="M252.598 172.662h-33.476l-8.266-33.182c-1.142-4.57-2.698-7.78-7.416-7.78h30.925c2.29.004 4.513.772 6.316 2.181a10.265 10.265 0 013.64 5.599l8.277 33.182z" fill="#fff"/><path fill-rule="evenodd" clip-rule="evenodd" d="M209.23 133.272c1.266 1.551 1.979 3.677 2.554 5.976l8.086 32.458h31.504l-7.981-31.995m-34.163-6.439a7.381 7.381 0 00-.565-.617l.565.617zm-5.79-.617c2.101 0 3.386.695 4.308 1.825.977 1.197 1.612 2.96 2.18 5.231l8.447 33.906h35.447l-8.573-34.369a11.231 11.231 0 00-10.883-8.503H203.44v1.91zm5.225 0h25.699-25.699z" fill="#6562CF"/><path d="M166.011 179.104l-44.497 2.551v3.149h44.497v-5.7z" fill="#fff"/><path fill-rule="evenodd" clip-rule="evenodd" d="M166.668 178.41c.191.18.3.431.3.694v5.7a.957.957 0 01-.957.956h-44.496a.956.956 0 01-.957-.956v-3.149c0-.506.396-.925.902-.954l44.496-2.551a.956.956 0 01.712.26zm-44.197 4.147v1.292h42.584v-3.733l-42.584 2.441z" fill="#6562CF"/><path d="M193.837 179.104h-27.826v5.579h27.826v-5.579z" fill="#D1D0FF"/><path fill-rule="evenodd" clip-rule="evenodd" d="M165.055 179.104c0-.527.428-.955.956-.955h27.826c.528 0 .957.428.957.955v5.579a.957.957 0 01-.957.956h-27.826a.956.956 0 01-.956-.956v-5.579zm1.913.956v3.668h25.913v-3.668h-25.913z" fill="#6562CF"/><path d="M73.565 194.151h204.286v-9.347H73.103l.462 9.347z" fill="#fff"/><path fill-rule="evenodd" clip-rule="evenodd" d="M72.41 184.146c.18-.19.43-.297.693-.297H277.85c.528 0 .956.428.956.955v9.347a.956.956 0 01-.956.955H73.565a.956.956 0 01-.955-.908l-.463-9.346a.954.954 0 01.263-.706zm1.698 1.614l.367 7.436h202.419v-7.436H74.108z" fill="#6562CF"/></g><defs><clipPath id="clip0"><path fill="#fff" transform="translate(.815)" d="M0 0h309v414H0z"/></clipPath></defs></svg>