<svg width="67" height="67" fill="none" xmlns="http://www.w3.org/2000/svg"><path d="M6.281 5.234h2.094v2.094H6.281V5.234zm4.188 0h2.094v2.094h-2.094V5.234zm4.187 0h2.094v2.094h-2.094V5.234zM7.328 31.406H30.36a1.046 1.046 0 001.047-1.047V13.61a1.047 1.047 0 00-1.047-1.046H7.33a1.047 1.047 0 00-1.048 1.046v16.75a1.047 1.047 0 001.047 1.047zm1.047-16.75h20.938v14.656H8.375V14.656zM7.328 51.297H30.36a1.047 1.047 0 001.047-1.047V34.547A1.047 1.047 0 0030.36 33.5H7.33a1.047 1.047 0 00-1.048 1.047V50.25a1.047 1.047 0 001.047 1.047zm1.047-15.703h20.938v13.61H8.375v-13.61zm40.828 15.703h2.094v2.094h-2.094v-2.094zm8.375 0h2.094v2.094h-2.094v-2.094zm-3.14 7.328a2.094 2.094 0 01-2.094-2.094H50.25a4.188 4.188 0 008.375 0h-2.094a2.094 2.094 0 01-2.093 2.094z" fill="#B961FF"/><path d="M23.555 21.076l-7.328-4.188a1.047 1.047 0 00-1.57.909v8.375a1.047 1.047 0 001.57.909l7.328-4.188a1.046 1.046 0 000-1.817zm-6.805 3.291v-4.765l4.17 2.382-4.17 2.383zm38.734 8.086a1.047 1.047 0 00.804-1.718l-5.234-6.281a1.047 1.047 0 00-.757-.376 1.01 1.01 0 00-.787.306l-1.536 1.537-2.164-2.523a1.078 1.078 0 00-1.589 0l-6.281 7.328a1.046 1.046 0 00.794 1.727h16.75zM41.01 30.359l4.006-4.673 4.005 4.673h-8.01zm9.17-3.684l3.07 3.684h-1.472l-2.438-2.844.84-.84z" fill="#B961FF"/><path d="M63.86 2.094H3.14A1.047 1.047 0 002.095 3.14v51.296a1.047 1.047 0 001.047 1.047h40.881a10.469 10.469 0 0020.884-1.047V3.142a1.047 1.047 0 00-1.047-1.047zm-9.422 60.718a8.376 8.376 0 118.374-8.374 8.385 8.385 0 01-8.374 8.374zm-9.053-13.609h-9.791V14.656h23.031V44.85a10.432 10.432 0 00-13.24 4.354zm17.428-1.02a10.563 10.563 0 00-2.094-2.1V13.608a1.047 1.047 0 00-1.047-1.046H34.547a1.047 1.047 0 00-1.047 1.046V50.25a1.047 1.047 0 001.047 1.047h9.904a10.35 10.35 0 00-.429 2.094H4.188V10.469h58.624v37.715zm0-39.808H4.187V4.187h58.626v4.188z" fill="#B961FF"/><path d="M10.469 37.688h16.75v2.093h-16.75v-2.093zm0 4.187h16.75v2.094h-16.75v-2.094z" fill="#B961FF"/></svg>