<svg width="276" height="558" fill="none" xmlns="http://www.w3.org/2000/svg"><path d="M135.481 95.859s-2.278 55.393-7.024 65.56c-4.747 10.168-32.841 56.979-43.91 55.894-20.95-2.087-50.945-100.804-54.612-113.133-1.795-2.945-3.69-4.847-6.785-6.29C8.182 90.845 5.562 85.07 2.43 79.926L.18 64.744c6.835-4.031 12.375 7.24 14.215 9.912 4.89 7.097 11.107 5.39 13.326 5.103 3.265-.436-1.638-4.374-3.515-7.942-2.708-5.143.807-8.107.807-8.107.674 2.708 11.992 15.07 15.604 19.319 3.321 3.9 3.007 12.027 2.934 13.34 4.52 6.921 39.413 67.026 39.413 67.026s19.677-47.461 27.675-56.283c5.811-6.383 19.303-9.444 24.842-11.253z" fill="#FFD1CB"/><path fill-rule="evenodd" clip-rule="evenodd" d="M.02 64.659a.692.692 0 01.838-.509c2.312.576 3.687 2.56 4.466 4.234a14.493 14.493 0 011.014 3.05c1.567 1.543 2.578 3.641 3.198 5.326a22.5 22.5 0 01.848 2.907 11.681 11.681 0 01.048.238l.003.014v.005l.001.001-.68.124.68-.124a.692.692 0 11-1.362.248v-.001l-.002-.01-.002-.013-.005-.027a16.827 16.827 0 00-.179-.786 21.1 21.1 0 00-.648-2.093c-.613-1.665-1.58-3.612-3.009-4.95l-.171-.16-.04-.233v-.001l-.001-.01a4.05 4.05 0 00-.043-.217 13.096 13.096 0 00-.902-2.698C3.345 67.417 2.216 65.922.524 65.5a.696.696 0 01-.505-.843z" fill="#EEB9AF"/><path fill-rule="evenodd" clip-rule="evenodd" d="M8.965 70.32l-.095-.214a19.73 19.73 0 00-.452-.93c-.39-.754-.963-1.747-1.684-2.675-.714-.92-1.613-1.826-2.67-2.344-1.089-.534-2.34-.647-3.643.03a.698.698 0 00-.297.937.69.69 0 00.932.299c.864-.449 1.651-.383 2.403-.015.784.385 1.528 1.104 2.185 1.95.65.837 1.179 1.75 1.547 2.46a18.431 18.431 0 01.552 1.169l.006.014.001.003.064.158.129.11c1.494 1.277 2.555 3.176 3.248 4.806a21.091 21.091 0 01.923 2.666c.02.072.033.126.042.162l.004.018.006.022.002.008v.002a.692.692 0 101.348-.315l-.674.158.674-.158v-.002l-.002-.004-.003-.014-.005-.022a7.086 7.086 0 00-.054-.212 22.474 22.474 0 00-.988-2.855c-.708-1.666-1.834-3.734-3.5-5.211z" fill="#EEB9AF"/><path d="M94.242 558.009h-5.498l.276-15.307-6.77 15.307H40.52s-.733-8.664 6.149-9.866c5.825-1.02 11.365-7.189 11.365-7.189l28.514-27.738c2.56 3.121 9.843 10.668 10.147 22.482a89.875 89.875 0 01-2.453 22.311z" fill="#FFB000"/><path d="M31.881 299.432c-8.976 1.23-22.919 17.409-11.932 49.317S71.636 503.595 71.23 512.835c-.54 12.343-13.196 28.109-13.196 28.109s13.473 7.097 21.54-4.337c8.067-11.434 6.974-23.401 6.974-23.401s3.252-100.117-8.764-163.024c-5.52-28.819-29.768-52.962-45.903-50.75z" fill="#FFD1CB"/><path d="M81.576 376.403c-3.56.112-7.205.112-10.9-.023-19.542-.7-34.57-5.302-44.639-9.662-.922-2.718-1.766-5.269-2.569-7.63 10 3.785 25.927 8.182 47.209 8.943 2.912.108 5.782.159 8.611.153a877.698 877.698 0 012.288 8.219z" fill="#F3C2B9"/><path d="M135.966 558.01h-5.498l.272-15.28-9.077 15.28h-40.34s-.734-8.665 6.148-9.867c5.825-1.02 12.287-7.189 12.287-7.189l28.514-27.738c2.56 3.121 9.843 10.668 10.148 22.482a90.145 90.145 0 01-2.454 22.312z" fill="#FFC440"/><path d="M77.291 300.082c-7.26 5.441-14.635 17.686-3.653 49.595 10.982 31.908 40.05 153.937 39.316 163.158-.733 9.221-13.196 28.109-13.196 28.109s13.473 7.097 21.54-4.337c8.068-11.434 6.974-23.401 6.974-23.401s20.143-91.758 8.718-152.796c-6.25-33.513-39.529-75.45-59.699-60.328z" fill="#FFD1CB"/><path d="M137.949 365.999c-8.394 2.923-30.156 9.574-56.207 10.4h-.166a531.068 531.068 0 00-2.306-8.22 276.185 276.185 0 0057.978-6.317c.268 1.368.489 2.746.701 4.137z" fill="#F3C2B9"/><path d="M11.134 353.341s-7.31-41.904 21.291-60.435c28.602-18.531 112.125-33.786 108.49-52.633l73.163-1.66s16.545 24.254 19.224 49.984c3.109 29.784-3.588 52.294-64.113 52.169-32.481-.07-27.997 20.154-27.997 20.154s-31.951 8.498-70.52 7.111c-38.57-1.387-59.538-14.69-59.538-14.69z" fill="#424D76"/><path d="M149.623 90.385c-4.354.993-14.141 5.47-14.141 5.47s-13.377 51.023-16.605 57.883c-3.229 6.86-5.337 17.9 8.302 27.747l13.837 59.674h73.085s5.636-62.359 9.497-84.142c3.86-21.782-.964-63.45-.964-63.45l-27.066-3.181h-45.945z" fill="#FFB000"/><path d="M275.617 226.043c-3.229 19.439-114.209 15.529-121.381 15.255-1.716 1.786-7.763 7.57-12.915 6.439-6.079-1.345-11.227-4.991-14.968-3.219-3.74 1.771-8.03 5.464-10.548 5.287a28.122 28.122 0 01-8.736-1.948 85.789 85.789 0 015.728-7.375c-2.204.993-5.189 3.103-6.808 3.883a3.466 3.466 0 01-4.225-.766s5.535-5.005 7.546-6.211c1.905-1.159 7.842-3.998 10.729-4.207 3.487-.51 24.188-4.638 33.717-3.66v.088c4.179-1.127 80.672-21.698 86.059-22.863 0 0-18.989-62.656-21.558-72.995-2.57-10.34-3.437-40.926 4.377-40.184 5.073.488 16.605 1.587 23.325 17.121 4.788 11.04 33.671 91.36 29.658 115.355z" fill="#FFD1CB"/><path fill-rule="evenodd" clip-rule="evenodd" d="M129.372 235.883a.695.695 0 01.337 1.349l-.168-.674-.169-.675zm-8.5 3.571a2028.938 2028.938 0 007.995-2.009l.842-.213-.168-.674-.169-.675-.842.213-2.139.539c-1.73.436-3.939.992-5.854 1.469l-.004.001c-.393.1-.843.356-1.285.653-.461.309-.982.711-1.532 1.167-1.102.911-2.357 2.067-3.534 3.197a147.71 147.71 0 00-4.08 4.074l-.269.28-.071.074-.024.025.499.482-.499-.482a.7.7 0 00.021.984.69.69 0 00.978-.021l-.5-.481.5.481.023-.025.07-.072.265-.276c.23-.238.561-.58.966-.991.809-.824 1.909-1.927 3.076-3.045 1.168-1.121 2.394-2.25 3.458-3.13.532-.44 1.014-.81 1.421-1.084.425-.285.707-.422.856-.461z" fill="#EEB9AF"/><path fill-rule="evenodd" clip-rule="evenodd" d="M132.223 238.351a.695.695 0 01.336 1.349l-.168-.674-.168-.675zm-18.014 10.239l-.475-.506.021-.02.062-.058.233-.219a114.532 114.532 0 013.566-3.197c1.038-.889 2.154-1.804 3.153-2.533.499-.365.978-.689 1.409-.943.419-.247.838-.454 1.209-.547 1.916-.477 4.125-1.031 5.855-1.466l2.139-.538.842-.212.168.675.168.674-.842.213-2.139.538c-1.731.435-3.941.989-5.858 1.467-.173.043-.454.168-.843.397-.378.222-.816.518-1.295.868-.958.699-2.042 1.587-3.068 2.466a110.21 110.21 0 00-2.685 2.384c-.351.321-.638.588-.837.773l-.229.215-.059.056-.02.019-.475-.506zm0 0l-.475-.506a.698.698 0 00-.028.984.69.69 0 00.978.028l-.475-.506z" fill="#EEB9AF"/><path d="M158.917 60.152c0 2.184 4.548 16.508-9.294 30.233 0 0 19.183 7.162 45.926 0 0 0-7.716-29.969-7.532-38.903l-29.1 8.67z" fill="#FFD1CB"/><path d="M185.245 58.148c-1.383 14.38-16.429 25.776-30.728 26.319 7.74-11.67 4.4-22.441 4.4-24.315l25.858-7.793c.263 2.254.595 4.509.47 5.789z" fill="#F3C2B9"/><path d="M142.386 32.544c-1.651-1.949-2.666-14.537 4.175-20.489C159.559.737 183.576-4.063 197.971 4.05c13.884 7.807 19.414 18.137 17.181 38.129-2.131 19.124-6.729 22.993 5.074 37.135 10.609 12.714 13.897 30.656 7.458 45.708-15.705 36.713 14.76 35.934 14.76 54.474H195.24s-32.965-28.707-16.858-64.4c14.414-31.932 16.923-42.879 6.61-60.3-5.42-9.176-42.606-22.252-42.606-22.252z" fill="#424D76"/><path fill-rule="evenodd" clip-rule="evenodd" d="M218.865 40.922c2.184-19.555-12.951-33.48-24.895-37.39l.428-1.323c12.346 4.041 28.123 18.448 25.842 38.868-.466 4.186-1.051 7.647-1.554 10.629l-.217 1.291c-.548 3.279-.943 5.94-.916 8.432.054 4.903 1.745 9.255 7.58 16.259 10.761 12.896 14.116 31.119 7.565 46.429-3.892 9.111-4.888 15.819-4.259 21.037.627 5.204 2.88 9.005 5.65 12.295 1.39 1.651 2.904 3.167 4.415 4.674l.082.082c1.475 1.472 2.949 2.943 4.253 4.495 2.669 3.179 4.675 6.76 4.675 11.617h-1.384c0-4.411-1.8-7.683-4.349-10.719-1.263-1.505-2.7-2.938-4.191-4.426l-.061-.061c-1.505-1.502-3.061-3.059-4.496-4.763-2.881-3.422-5.298-7.469-5.968-13.026-.668-5.542.411-12.505 4.361-21.754 6.327-14.784 3.104-32.454-7.353-44.986-5.944-7.134-7.844-11.788-7.903-17.137-.029-2.634.388-5.41.934-8.678l.218-1.297c.504-2.982 1.081-6.404 1.543-10.548z" fill="#424D76"/><path d="M184.881 45.425s7.38-.956 7.864 1.739c.969 5.478-7.172 7.616-7.172 7.616s-1.476 3.994-3.298 8.006c-1.075 2.37-17.375 10.154-24.75 9.375-7.376-.78-14.451-20.07-14.539-37.27-.074-12.492 3.976-19.018 12.514-19.018 11.9 0 17.462 8.869 25.613 6.336-.014-.005-5.351 12.482 3.768 23.216z" fill="#FFD1CB"/><path fill-rule="evenodd" clip-rule="evenodd" d="M144.753 34.436c-4.283 0-7.754 3.49-7.754 7.797 0 4.307 3.471 7.798 7.754 7.798 4.282 0 7.753-3.491 7.753-7.798 0-4.306-3.471-7.797-7.753-7.797zm-9.599 7.797c0-5.33 4.297-9.652 9.599-9.652 5.301 0 9.598 4.321 9.598 9.652 0 5.331-4.297 9.653-9.598 9.653-5.302 0-9.599-4.322-9.599-9.653zm31.236-7.797c-4.283 0-7.754 3.49-7.754 7.797 0 4.307 3.471 7.798 7.754 7.798 4.282 0 7.753-3.491 7.753-7.798 0-4.306-3.471-7.797-7.753-7.797zm-9.599 7.797c0-5.33 4.297-9.652 9.599-9.652 5.301 0 9.598 4.321 9.598 9.652 0 5.331-4.297 9.653-9.598 9.653-5.302 0-9.599-4.322-9.599-9.653z" fill="#FFB000"/><path fill-rule="evenodd" clip-rule="evenodd" d="M157.714 43.161h-4.29v-1.855h4.29v1.855zm35.492 0h-18.14v-1.855h18.14v1.855z" fill="#FFB000"/></svg>